<?xml version="1.0" encoding="utf-8"?>
<!-- Generator: Adobe Illustrator 24.0.0, SVG Export Plug-In . SVG Version: 6.00 Build 0)  -->
<svg version="1.1" id="Layer_1" xmlns="http://www.w3.org/2000/svg" xmlns:xlink="http://www.w3.org/1999/xlink" x="0px" y="0px"
	 viewBox="0 0 80 80" style="enable-background:new 0 0 80 80;" xml:space="preserve">
<style type="text/css">
	.st0{fill:#1D1D1B;}
</style>
<g>
	<g>
		<g>
			<g>
				<path class="st0" d="M38.3,32.9c0.1-0.4,0.2-0.6,0.4-1.1c-0.2-0.2-0.7-0.6-1-0.8c-0.2,0.6-0.3,0.8-0.4,1.2
					C37.6,32.4,38.1,32.6,38.3,32.9z"/>
				<path class="st0" d="M43.9,32.1c-0.9-2.9-2.5-4.8-2.5-4.8s5.7-8.4-0.9-25.6c-4.8,15.5-3.4,22.3-0.9,25.7c0,0-0.6,0.9-1,1.7
					c0.3,0.2,0.7,0.7,0.9,0.9c0.3-0.5,0.7-1,1-1.5c0,0,1.4,1.5,2.4,4.3c0,0,0.3-0.2,0.5-0.3C43.7,32.3,43.9,32.1,43.9,32.1z
					 M40.6,2.9c0.2,0.2,4.9,15.6,0,23.3C36.2,20.4,39.6,7.4,40.6,2.9z"/>
				<path class="st0" d="M36.9,34c0,2.3,0.5,4.3,3.2,6.2c0,0,0,0,0,0c0.1,0.1,0.2,0,0.1-0.1c-0.5-0.8-0.9-2.1-0.7-3.8
					c-0.1-0.2-0.4-0.6-0.6-0.8c-0.3,2,0.1,3.2,0.9,4.3c-1.7-1.6-2.1-3-2-5.3c0,0-0.2-0.2-0.4-0.3C37.3,34.2,36.9,34,36.9,34z"/>
				<path class="st0" d="M44.2,34c0,2.3-0.5,4.3-3.2,6.2c0,0,0,0,0,0c-0.1,0.1-0.2,0-0.1-0.1c0.5-0.8,0.9-2.1,0.7-3.8
					c0.1-0.2,0.4-0.6,0.6-0.8c0.3,2-0.1,3.2-0.9,4.3c1.7-1.6,2.1-3,2-5.3c0,0,0.2-0.2,0.4-0.3C43.9,34.1,44.2,34,44.2,34z"/>
				<path class="st0" d="M41.2,34.6c0.1-0.2,0.4-0.6,0.5-0.7c-0.2-0.4-0.2-0.5-0.4-0.9c-0.2,0.2-0.5,0.6-0.6,0.8
					C41,34.1,41,34.3,41.2,34.6z"/>
				<path class="st0" d="M45,33.3c0-0.4-0.1-0.7-0.2-1.1c-1.7,0.7-2.9,1.7-3.6,3c-0.3,0.6-0.5,1.2-0.7,1.8c-0.1-0.6-0.3-1.2-0.7-1.8
					c-0.7-1.3-1.9-2.3-3.6-3c-0.1,0.4-0.1,0.8-0.2,1.1c4.9,1.6,4.3,6.5,4.3,6.8c0,0.1,0.2,0.1,0.1,0C40.6,39.8,40,35.1,45,33.3z"/>
				<path class="st0" d="M42.1,31.6c-0.1-0.3-0.3-0.7-0.5-1c-1,1.1-1.7,2-2.2,3.2c0.3,0.3,0.5,0.5,0.6,0.8
					C40.4,33.9,40.9,32.9,42.1,31.6z"/>
			</g>
			<path class="st0" d="M40.3,40.7c-0.2,0-0.7-0.3-0.8-0.3c-6-2.5-3.4-9.7-2.9-10.8c2.2,1.5,3,2.7,3.2,2.8c0-0.1,0.4-0.7,0.5-0.8
				c-1.3-1.8-3.2-3.2-3.2-3.2s3.6-6.8-11.4-20.7c0,2.2,1.1,16.5,9.7,21.1c-0.1,0.6-3.8,8.7,4,11.8v0c-7.7-0.5-6-7.9-6-8.1
				c0.1,0,0.5,0.1,0.6,0.1c0-0.4,0.1-0.8,0.2-1.2c-0.2,0-0.3-0.1-0.5-0.2c0.1-0.9,1.5-4.7-15.8-10.1c0.7,1.7,4,8.6,14,10.9
				c-0.7,2.5-0.5,8.8,8.4,8.8C40.4,41,40.5,40.8,40.3,40.7z M26.2,8.6c1.7,1.3,12.4,12.7,9.7,18.8C27.3,22.2,26.4,9.7,26.2,8.6z
				 M18.7,21.9c12,3.8,13.5,7,13.5,9C24.3,28.8,20.3,25.4,18.7,21.9z"/>
			<path class="st0" d="M43.6,30.3c0.3-0.2,0.6-0.5,1-0.7c0.5,1.1,3.1,8.3-2.9,10.8c-0.1,0-0.7,0.2-0.8,0.3c-0.2,0-0.1,0.2,0,0.2
				c8.8,0,9.1-6.3,8.4-8.8c10-2.3,13.3-9.2,14-10.9c-17.3,5.3-15.9,9.1-15.8,10c-0.2,0.1-0.4,0.1-0.5,0.2c0.1,0.4,0.2,0.8,0.2,1.2
				c0.2,0,0.6-0.1,0.6-0.1c0.1,0.3,1.7,7.6-6,8.1l0,0c7.8-3.1,4.2-11.2,4-11.8c8.5-4.6,9.6-18.9,9.6-21.1
				c-15,13.8-11.3,20.7-11.3,20.7s-0.4,0.3-1,0.8c0,0,0.3,0.5,0.3,0.6C43.5,29.8,43.6,30.3,43.6,30.3z M45.4,27.4
				c-2.8-6.1,8-17.5,9.7-18.8C54.8,9.7,53.9,22.2,45.4,27.4z M49,30.9c0-2,1.5-5.2,13.5-9C60.9,25.4,56.9,28.8,49,30.9z"/>
		</g>
	</g>
	<g>
		<path class="st0" d="M21.7,63.9h1.7l1.4,3.6l1.4-3.6h1.7l1,6.7h-1.7l-0.5-3.8h0l-1.6,3.8h-0.7l-1.5-3.8h0l-0.6,3.8h-1.7L21.7,63.9
			z"/>
		<path class="st0" d="M31.6,65.4v1.1h2V68h-2v1.2h2.1v1.5h-3.8v-6.7h3.8v1.5H31.6z"/>
		<path class="st0" d="M40.3,69.1v1.5h-5.7l3.2-5.2h-2.6v-1.5h5.5l-3.1,5.2H40.3z"/>
		<path class="st0" d="M46.3,66.1c-0.4-0.5-0.9-0.7-1.5-0.7c-1.1,0-1.8,0.8-1.8,1.9c0,1.1,0.7,1.8,1.8,1.8c0.6,0,1.1-0.3,1.5-0.7
			v2.1c-0.6,0.2-1,0.3-1.5,0.3c-0.9,0-1.8-0.4-2.5-1c-0.7-0.7-1.1-1.5-1.1-2.5c0-0.9,0.3-1.8,1-2.4c0.7-0.7,1.6-1.1,2.5-1.1
			c0.6,0,1.1,0.1,1.6,0.3V66.1z"/>
		<path class="st0" d="M49.4,69.4L49,70.6h-1.8l2.6-6.7h1.9l2.5,6.7h-1.9l-0.4-1.2H49.4z M50.6,66L50.6,66l-0.7,2.1h1.4L50.6,66z"/>
		<path class="st0" d="M56.7,69.1h2.1v1.5H55v-6.7h1.7V69.1z"/>
	</g>
	<g>
		<g>
			<g>
				<g>
					<path class="st0" d="M6.1,52.6l-0.8-0.5c-0.7-0.4-1.1-0.7-1.3-1c-0.2-0.3-0.4-0.6-0.4-1c0-0.5,0.2-0.9,0.5-1.3
						c0.3-0.3,0.7-0.5,1.2-0.5c0.3,0,0.6,0.1,0.9,0.2c0.3,0.1,0.7,0.3,1,0.5v1.2h1.4v-2.6c-0.6-0.2-1.2-0.3-1.8-0.4
						C6.3,47.1,5.7,47,5.1,47c-1.1,0-2.1,0.3-2.8,1c-0.7,0.7-1.1,1.5-1.1,2.6c0,0.8,0.2,1.4,0.7,2c0.5,0.6,1.2,1.2,2.3,1.8l0.8,0.5
						c0.7,0.4,1.1,0.7,1.4,1.1c0.2,0.3,0.4,0.8,0.4,1.3c0,0.6-0.2,1-0.6,1.4c-0.4,0.3-0.9,0.5-1.5,0.5c-0.3,0-0.6-0.1-1-0.2
						c-0.4-0.1-0.7-0.3-1.1-0.6v-1.3H1.2v2.8c0.6,0.2,1.3,0.3,1.8,0.4c0.6,0.1,1.1,0.1,1.6,0.1c1.4,0,2.5-0.3,3.3-1
						c0.8-0.7,1.2-1.6,1.2-2.8c0-0.8-0.2-1.5-0.7-2.1C8.1,53.9,7.3,53.3,6.1,52.6z"/>
					<polygon class="st0" points="18.5,58.7 14.4,58.7 14.4,54.2 16.9,54.2 16.9,55 18.1,55 18.1,52 16.9,52 16.9,52.9 14.4,52.9 
						14.4,48.6 18.1,48.6 18.1,49.9 19.4,49.9 19.4,47.4 10.6,47.4 10.6,48.6 11.8,48.6 11.8,58.8 10.6,58.8 10.6,60.1 19.8,60.1 
						19.8,57.3 18.5,57.3 					"/>
					<polygon class="st0" points="28.8,48.6 30,48.6 30,56.5 24,47.4 21,47.4 21,48.6 22.2,48.6 22.2,58.8 21,58.8 21,60.1 
						25.1,60.1 25.1,58.8 23.9,58.8 23.9,51.2 29.9,60.2 31.7,60.2 31.7,48.6 32.9,48.6 32.9,47.4 28.8,47.4 					"/>
					<path class="st0" d="M39.8,47c-1.9,0-3.4,0.6-4.5,1.8c-1.1,1.2-1.6,2.8-1.6,4.9c0,2.1,0.5,3.7,1.6,4.9c1.1,1.2,2.6,1.8,4.5,1.8
						c1.9,0,3.4-0.6,4.5-1.8c1.1-1.2,1.6-2.8,1.6-4.9c0-2.1-0.5-3.7-1.6-4.9C43.2,47.6,41.7,47,39.8,47z M42.3,57.7
						c-0.6,1-1.5,1.5-2.5,1.5c-1,0-1.9-0.5-2.5-1.5c-0.6-1-0.9-2.3-0.9-3.9c0-1.6,0.3-2.9,0.9-3.9c0.6-1,1.4-1.5,2.5-1.5
						c1,0,1.9,0.5,2.5,1.5c0.6,1,0.9,2.3,0.9,3.9C43.2,55.4,42.9,56.7,42.3,57.7z"/>
					<path class="st0" d="M56,55.9c-0.8-1.2-2.3-1.7-2.3-1.7c0.8-0.3,1.4-0.8,1.8-1.4c0.4-0.6,0.6-1.3,0.6-2.2c0-1-0.4-1.8-1.1-2.4
						c-0.7-0.6-1.7-0.8-3-0.8h-5.2v1.3h1.2v10.2h-1.2v1.3h4.7v-1.3h-1v-4.2h0.3c0,0,1.8,0,3,1.7c1.3,1.8,0.9,3.8,0.9,3.8h3.1v-1.3
						h-0.8C56.9,58.8,56.8,57.1,56,55.9z M52.9,52.8c-0.5,0.5-1.2,0.7-2.1,0.7h-0.4v-4.8h0.8c0.8,0,1.4,0.2,1.8,0.5
						c0.4,0.3,0.6,0.9,0.6,1.5C53.6,51.6,53.3,52.3,52.9,52.8z"/>
					<polygon class="st0" points="59.8,46.3 61.2,46.3 63.9,43.7 61.6,43.7 					"/>
					<polygon class="st0" points="58.8,48.6 60,48.6 60,58.8 58.8,58.8 58.8,60.1 63.8,60.1 63.8,58.8 62.5,58.8 62.5,48.6 
						63.8,48.6 63.8,47.4 58.8,47.4 					"/>
					<path class="st0" d="M75.8,48.8c-1.1-1.2-2.6-1.8-4.5-1.8c-1.9,0-3.4,0.6-4.5,1.8c-1.1,1.2-1.6,2.8-1.6,4.9
						c0,2.1,0.5,3.7,1.6,4.9c1.1,1.2,2.6,1.8,4.5,1.8c1.9,0,3.4-0.6,4.5-1.8c1.1-1.2,1.6-2.8,1.6-4.9C77.4,51.7,76.9,50,75.8,48.8z
						 M73.8,57.7c-0.6,1-1.5,1.5-2.5,1.5c-1,0-1.9-0.5-2.5-1.5c-0.6-1-0.9-2.3-0.9-3.9c0-1.6,0.3-2.9,0.9-3.9c0.6-1,1.4-1.5,2.5-1.5
						c1,0,1.9,0.5,2.5,1.5c0.6,1,0.9,2.3,0.9,3.9C74.7,55.4,74.4,56.7,73.8,57.7z"/>
					<path class="st0" d="M25.6,46.3c0.1,0,0.4,0.1,0.8,0.2l0.6,0.2c0.5,0.2,0.9,0.3,1.1,0.3c0.5,0,0.9-0.2,1.2-0.6
						c0.3-0.4,0.4-1,0.4-1.7h-1c0,0.4-0.3,0.7-0.6,0.7c-0.1,0-0.4-0.1-0.8-0.2L26.8,45c-0.5-0.2-0.9-0.3-1.1-0.3
						c-0.5,0-0.9,0.2-1.2,0.6c-0.3,0.4-0.4,1-0.4,1.7h1C25,46.6,25.2,46.3,25.6,46.3z"/>
				</g>
				<g>
					<path class="st0" d="M79,48.1c0,0.6-0.4,1-1,1c-0.6,0-1-0.4-1-1c0-0.5,0.5-1,1-1C78.6,47.1,79,47.5,79,48.1z M77.2,48.1
						c0,0.4,0.3,0.8,0.8,0.8c0.4,0,0.8-0.3,0.8-0.8c0-0.4-0.3-0.8-0.8-0.8C77.6,47.3,77.2,47.6,77.2,48.1z M77.8,48.6h-0.2v-1
						c0.1,0,0.2,0,0.4,0c0.2,0,0.3,0,0.3,0.1c0.1,0,0.1,0.1,0.1,0.2c0,0.1-0.1,0.2-0.2,0.2v0c0.1,0,0.2,0.1,0.2,0.2
						c0,0.2,0,0.2,0.1,0.2h-0.2c0,0,0-0.1-0.1-0.2c0-0.1-0.1-0.2-0.2-0.2h-0.1V48.6z M77.8,48h0.1c0.1,0,0.2,0,0.2-0.1
						c0-0.1-0.1-0.2-0.2-0.2c-0.1,0-0.1,0-0.1,0V48z"/>
				</g>
			</g>
		</g>
	</g>
	<g>
		<path class="st0" d="M53.3,34.1c0,0.6-0.4,1-1,1c-0.6,0-1-0.4-1-1c0-0.5,0.5-1,1-1C52.9,33.2,53.3,33.6,53.3,34.1z M51.6,34.1
			c0,0.4,0.3,0.8,0.8,0.8c0.4,0,0.8-0.3,0.8-0.8c0-0.4-0.3-0.8-0.8-0.8C51.9,33.4,51.6,33.7,51.6,34.1z M52.2,34.7h-0.2v-1
			c0.1,0,0.2,0,0.4,0c0.2,0,0.3,0,0.3,0.1c0.1,0,0.1,0.1,0.1,0.2c0,0.1-0.1,0.2-0.2,0.2v0c0.1,0,0.2,0.1,0.2,0.2
			c0,0.2,0,0.2,0.1,0.2h-0.2c0,0,0-0.1-0.1-0.2c0-0.1-0.1-0.2-0.2-0.2h-0.1V34.7z M52.2,34.1h0.1c0.1,0,0.2,0,0.2-0.1
			c0-0.1-0.1-0.2-0.2-0.2c-0.1,0-0.1,0-0.1,0V34.1z"/>
	</g>
</g>
</svg>
