<?xml version="1.0" encoding="utf-8"?>
<!-- Generator: Adobe Illustrator 24.0.0, SVG Export Plug-In . SVG Version: 6.00 Build 0)  -->
<svg version="1.1" id="Layer_1" xmlns="http://www.w3.org/2000/svg" xmlns:xlink="http://www.w3.org/1999/xlink" x="0px" y="0px"
	 viewBox="0 0 100 100" style="enable-background:new 0 0 100 100;" xml:space="preserve">
<style type="text/css">
	.st0{fill:#1D1D1B;}
</style>
<g>
	<g>
		<g>
			<path class="st0" d="M45.1,74.7c0.3-0.9,0.4-1.3,0.9-2.3c-0.5-0.5-1.4-1.3-2.1-1.7c-0.5,1.3-0.6,1.8-0.8,2.7
				C43.6,73.7,44.5,74.2,45.1,74.7z"/>
			<path class="st0" d="M57.1,73.1c-2-6.2-5.4-10.3-5.4-10.3S64,44.7,49.9,8C39.5,41.2,42.6,55.8,48,63.1c0,0-1.4,2-2.1,3.6
				c0.6,0.5,1.4,1.4,1.9,1.9c0.7-1.2,1.5-2.2,2.1-3.3c0,0,3,3.2,5,9.1c0,0,0.5-0.4,1-0.7C56.5,73.4,57.1,73.1,57.1,73.1z M49.9,10.5
				C50.2,11,60.4,44,49.8,60.4C40.4,48,47.8,20.1,49.9,10.5z"/>
			<path class="st0" d="M42.1,77.1c0,5,1,9.3,6.8,13.3c0,0,0,0,0,0c0.1,0.1,0.3,0,0.2-0.2c-1.1-1.8-2-4.5-1.5-8.2
				c-0.3-0.5-0.9-1.3-1.3-1.8c-0.6,4.3,0.3,7,2,9.3c-3.7-3.4-4.6-6.4-4.3-11.3c0,0-0.5-0.4-0.8-0.6C42.8,77.5,42.1,77.1,42.1,77.1z"
				/>
			<path class="st0" d="M57.7,77.1c0,5-1,9.3-6.8,13.3c0,0,0,0,0,0c-0.1,0.1-0.3,0-0.2-0.2c1.1-1.8,2-4.5,1.5-8.2
				c0.3-0.5,0.9-1.3,1.3-1.8c0.6,4.3-0.3,7-2,9.3c3.7-3.4,4.6-6.4,4.3-11.3c0,0,0.5-0.4,0.8-0.6C57,77.5,57.7,77.1,57.7,77.1z"/>
			<path class="st0" d="M51.2,78.5c0.3-0.4,0.8-1.2,1.1-1.6c-0.3-0.8-0.4-1.1-0.8-1.9c-0.3,0.4-1,1.2-1.3,1.6
				C50.7,77.4,50.9,77.7,51.2,78.5z"/>
			<path class="st0" d="M59.3,75.6c-0.1-0.8-0.2-1.6-0.3-2.4c-3.6,1.5-6.2,3.7-7.7,6.4c-0.7,1.3-1.1,2.5-1.4,3.8
				c-0.3-1.3-0.7-2.5-1.4-3.8c-1.6-2.8-4.2-4.9-7.7-6.4c-0.1,0.8-0.3,1.6-0.3,2.4C50.9,79,49.7,89.5,49.7,90c0,0.2,0.3,0.2,0.3,0
				C50,89.5,48.6,79.4,59.3,75.6z"/>
			<path class="st0" d="M53.2,72.1c-0.3-0.6-0.7-1.5-1.1-2.1c-2.2,2.3-3.6,4.4-4.6,6.9c0.6,0.6,1.1,1.2,1.3,1.6
				C49.4,76.9,50.5,74.8,53.2,72.1z"/>
		</g>
		<path class="st0" d="M49.4,91.5c-0.3-0.1-1.6-0.6-1.7-0.6c-12.9-5.4-7.3-20.8-6.3-23.2c4.7,3.3,6.5,5.7,6.9,6.1
			c0.1-0.2,0.9-1.5,1.1-1.8c-2.7-3.9-6.9-6.9-6.9-6.9s7.7-14.6-24.4-44.2c0.1,4.8,2.4,35.4,20.7,45.2c-0.3,1.3-8.2,18.5,8.6,25.2v0
			c-16.4-1.1-12.9-16.9-12.8-17.4c0.1,0,1,0.2,1.3,0.3c0.1-0.9,0.3-1.7,0.4-2.5c-0.3-0.1-0.7-0.2-1.1-0.3c0.3-2,3.2-10.2-33.9-21.5
			c1.5,3.6,8.7,18.3,30,23.3c-1.5,5.3-1,18.9,17.9,18.9C49.6,92,49.7,91.6,49.4,91.5z M19,22.8c3.7,2.8,26.6,27.2,20.7,40.2
			C21.6,51.9,19.6,25,19,22.8z M3.1,51.3C28.8,59.4,31.9,66.2,32,70.5C15,66,6.5,58.8,3.1,51.3z"/>
		<path class="st0" d="M56.5,69.2c0.6-0.5,1.3-1,2.1-1.6c1,2.4,6.6,17.8-6.3,23.2c-0.2,0.1-1.4,0.5-1.7,0.6
			c-0.3,0.1-0.2,0.5,0.1,0.5c19,0,19.5-13.6,17.9-18.9c21.4-5,28.4-19.7,29.9-23.3c-37.1,11.4-34,19.5-33.7,21.5
			c-0.4,0.1-0.8,0.3-1.1,0.3c0.2,0.8,0.3,1.7,0.4,2.5c0.3-0.1,1.2-0.3,1.3-0.3c0.1,0.5,3.7,16.3-12.8,17.4l0,0
			c16.8-6.7,8.9-24,8.6-25.2c18.3-9.9,20.5-40.5,20.5-45.2C49.6,50.5,57.5,65.1,57.5,65.1s-0.9,0.6-2.1,1.7c0,0,0.6,1.1,0.7,1.2
			C56.1,68.2,56.5,69.2,56.5,69.2z M60.2,63.1c-5.9-13,17-37.4,20.7-40.2C80.3,25,78.3,51.9,60.2,63.1z M67.9,70.5
			c0-4.3,3.1-11.1,28.9-19.2C93.4,58.8,84.9,66,67.9,70.5z"/>
	</g>
</g>
</svg>
