<?xml version="1.0" encoding="utf-8"?>
<!-- Generator: Adobe Illustrator 23.0.6, SVG Export Plug-In . SVG Version: 6.00 Build 0)  -->
<svg version="1.1" id="Layer_1" xmlns="http://www.w3.org/2000/svg" xmlns:xlink="http://www.w3.org/1999/xlink" x="0px" y="0px"
	 viewBox="0 0 46 26" style="enable-background:new 0 0 46 26;" xml:space="preserve">
<style type="text/css">
	.st0{fill:#919191;}
</style>
<path class="st0" d="M3.6,25.4c-0.2,0-0.4,0-0.6-0.1c-1.6-0.4-1.9-1.9-1.9-1.9c0-0.1-0.1-0.6,0-1.3c0.2-0.9,0.9-2.2,3.1-2.9
	c2.7-1,3.9-1,4-1c0.3,0,0.3-0.2,0.3-0.2c0-0.3,0.3-2.3,0.9-6.2l0.1-0.4c0-0.4,0.1-0.9,0.2-1.3c0.4-1.9,1.2-3,2.4-3.2
	c0.1,0,0.2,0,0.3,0c0.1,0,0.2,0,0.3,0C13.6,7.1,14,8,14.1,8.2c0.2,0.3,0.3,0.5,0.4,0.6c0.3,0.4,1.4,2.2,1.3,2.8c0,0.1,0,0.1-0.1,0.1
	c-0.1,0-0.1,0.1-0.2,0.1c0,0,0,0,0,0c-0.3-0.1-0.4-0.5-0.5-0.7c0,0,0-0.1,0-0.1c0-0.1-0.6-1-0.6-1c-0.1-0.1-0.3-0.6-0.4-0.8
	c0-0.2-0.2-0.4-0.4-0.4c0,0,0,0-0.1,0c0,0-0.1,0-0.1,0c-0.2,0-1.4,0.6-1.8,2.3c-0.1,0.6-0.2,1.2-0.1,1.9c0.3,2.9,1,5.2,1.7,5.3
	c0,0,0,0,0.1,0c0.6,0,1.2-1.2,1.3-1.8c0-0.2,0.1-0.3,0-0.4c-0.1-0.4-0.2-0.7-0.3-0.8c-0.1-0.1-0.1-0.2-0.1-0.3
	c0.1-0.2,0.2-0.4,0.4-0.4c0,0,0.1,0,0.1,0c0,0,0,0,0.1,0c0.2,0.1,0.3,0.3,0.3,0.4c0,0.1,0.3,1.3,0.5,1.5c0.2,0.2,0.7,0.7,1.2,0.8
	c0.1,0,0.1,0,0.2,0c0.4,0,0.8-0.2,1-0.7c0.3-0.5,0.5-1.1,0.6-1.7c0.2-0.9,0.2-1.6,0.1-1.8c-0.1-0.8-0.7-4.5-0.3-6.4
	c0.1-0.6,0.4-0.9,0.7-1c0.1,0,0.1,0,0.1,0c0,0,0,0,0.1,0c0.7,0.3,0.6,1.9,0.5,3.5c-0.1,1.7-0.4,3.5-0.5,3.8c0,0,0,0,0,0.1
	c-0.1,0.3,0.1,0.7,0.4,0.8c0,0,0.1,0,0.1,0c0.5,0,1.1-0.5,1.3-1.2c0-0.1,0-0.1,0-0.2l0-0.3c0-0.3,0-0.5,0.1-0.6c0-0.1,0-0.1,0.1-0.2
	c0,0,0.1,0,0.1,0c0.3,0.1,0.4,0.4,0.3,1.1c-0.1,0.5,0,0.8,0.2,1.1c0.3,0.4,0.6,1.9,0.6,2.3c0,0.1,0,0.2,0.1,0.2c0,0,0,0,0,0
	c0.1,0,0.1,0,0.2-0.1c0.2-0.1,2.3-1.4,2.7-2.6l0-0.1l0,0C24.8,12,22.2,8,22.9,4.8c0.2-0.8,0.5-1.4,1.1-2c1.5-1.5,3.2-2.3,4.8-2.2
	c0.3,0,0.5,0.1,0.8,0.1c1.2,0.3,2,1.1,2.3,2c0.1,0.5,0.1,1,0,1.5c-0.4,1.9-2.4,3.3-3.6,3.4c-0.2,0-0.4,0-0.6,0c-0.1,0-0.3,0-0.4-0.1
	C26.6,7.6,26.2,7,26,6.2c0-0.2,0-0.4,0-0.5c0.1-0.3,0.3-0.3,0.3-0.3l0.1,0c0.1,0,0.2,0.1,0.3,0.5c0,0.3,0.2,1.2,0.9,1.3
	c0.1,0,0.1,0,0.2,0c0.5,0,1.1-0.2,1.9-0.7c0.9-0.6,1.5-1.3,1.7-2.1c0.2-1-0.2-2-0.6-2.4c-0.1-0.1-0.2-0.2-0.4-0.3
	c-0.3-0.2-0.7-0.4-1.1-0.5c-0.2-0.1-0.4-0.1-0.7-0.1c-0.5,0-1.1,0-1.7,0.2c-1.7,0.6-3.1,2.1-3.5,3.9c-0.2,0.8-0.2,1.7,0.1,2.5
	c0.7,2.3,2,4.5,2.4,4.8l0.1,0.1l0.1-0.1c0.1-0.2,0.3-0.7,0.4-1.3c0.1-0.4,0.2-0.9,0.1-1.2c0-0.3,0-0.5,0-0.6c0-0.1,0.1-0.3,0.3-0.2
	c0.3,0.1,0.3,0.5,0.3,0.9c0,0.1,0,0.2,0,0.3c0,0.3,0.7,2.8,1,3.2l0.1,0.1l0.1-0.1l0,0l0.2-0.2c0-0.1,0.1-0.1,0.2-0.1
	c0.1,0,0.2,0.1,0.2,0.2l0,0l0.1,0c0,0,0.1,0.1,0.2,0.1c0.1,0,0.1,0,0.2,0c0.2,0,0.4,0,0.6-0.2c0.3-0.3,0.7-1.1,0.8-1.4
	c0,0,0-0.1,0-0.1c0,0,0-0.1,0-0.1c0-0.2,0.2-0.4,0.4-0.4c0.1,0,0.2,0.1,0.2,0.1l0,0.1c0.5,0.9,0.7,1.3,0.9,1.3c0.4,0,0.9-1.7,1-1.9
	l0,0l0,0c0-0.1,0.1-0.4,0.4-0.4c0.1,0,0.2,0.2,0.2,0.2l0,0.1c0.3,1.2,0.4,1.6,0.6,1.6c0,0,0,0,0,0c0.1,0,0.1,0,0.1,0
	c0.4-0.2,1-1,1.1-1.4c0,0,0-0.1,0-0.1c0-0.1,0-0.2,0-0.3c0-0.2,0.2-0.4,0.3-0.4l0.1,0c0.2,0.1,0.3,0.3,0.3,0.5
	c0.1,0.1,0.1,0.3,0.2,0.4c0.1,0.2,0.5,0.7,0.9,0.8c0,0,0.1,0,0.1,0c0.3,0,0.5-0.1,0.6-0.5c0.3-0.6,0.5-1.3,0.6-1.8
	c0.1-0.6,0.2-1,0.2-1.1c0-0.1-0.1-0.9-0.3-1.2c0-0.1-0.1-0.2-0.1-0.2l0,0l0,0c-0.4,0-10,1.8-10.1,1.8c-0.1,0-0.4,0.1-0.6,0.1
	c-0.1,0-0.1,0-0.1,0c-0.1,0-0.2-0.1-0.2-0.2c0,0,0-0.1,0-0.1c0.1-0.2,0.3-0.2,0.5-0.2c0.1,0,0.2,0,0.3,0c0.2,0,2-0.4,4-0.7
	c2.6-0.5,5.8-1.1,5.9-1.1c0,0,0,0,0,0c0.1,0,0.2,0,0.3-0.1c0,0,0.1-0.1,0.1-0.1c0,0,0-0.1,0-0.1c0-0.2,0-0.5,0-0.8
	C39,5.2,39.2,5,39.4,5c0,0,0.1,0,0.1,0c0,0,0,0,0.1,0c0.3,0.1,0.3,0.6,0.4,0.8c0,0,0,0.1,0,0.1c0,0,0,0,0,0.1c0,0.1,0,0.2,0,0.2
	c0,0.1,0,0.2,0.1,0.2c0,0,0,0,0,0c0,0,0.1,0,0.1,0c0.4-0.1,4-1.1,4.2-1.1c0,0,0,0,0,0c0,0,0.1,0,0.1-0.1c0.1-0.1,0.2-0.2,0.4-0.2
	l0.1,0c0.2,0.1,0.4,0.2,0.3,0.5c0,0,0,0.1-0.1,0.1c-0.6,0.2-2.7,1-4.9,1.4C40.1,7,40,7,40,7.1c0,0,0,0.1,0,0.1c0,0,0,0,0,0.1
	c0,0,0,0,0,0.1c0,0.2,0,0.9-0.1,1c0,0.1,0,0.1-0.1,0.2c0,0.1,0,0.2,0.1,0.4c0,0.1,0.1,0.3,0.1,0.5c0.1,0.6,0.3,1.4,0.5,1.7
	c0,0,0,0.1,0,0.1l0,0l0,0c0.4-0.1,1.4-0.5,1.9-1.3l0.2-0.3c0.4-0.6,0.6-0.9,1-0.9l0.1,0c0,0,0.1,0,0.1,0c0.4,0.2,0.9,0.9,0.7,1.9
	c0,0.3-0.1,0.5-0.1,0.6c-0.1,0.2-0.1,0.2,0.1,0.4c0,0,0.1,0.1,0.2,0.2c0.1,0.1,0.2,0.2,0.3,0.3c0.3,0.4,0.8,0.8,0.7,1.2
	c0,0,0,0,0,0.1c-0.2,0.2-1,0.5-1.7,0.7c-0.3,0.1-1.2,0.3-2.2,0.6c-1.1,0.3-2.2,0.6-2.6,0.7c-0.2,0.1-1.3,0.4-2.9,0.8
	c-3.5,1-8.8,2.5-9.8,2.7c-1.1,0.2-5.6,1.5-8,2.2c-0.8,0.2-1.3,0.4-1.4,0.4c-0.1,0-0.2,0.1-0.4,0.2c-0.3,0.2-0.7,0.4-1,0.3
	c0,0,0,0-0.1,0c-0.1,0-0.2-0.1-0.2-0.3c0-0.1,0-0.2,0-0.2c0.1-0.4,0.7-0.6,1.1-0.6c0.1,0,0.2,0,0.3-0.1c0.1,0,1-0.3,1.9-0.5
	c1-0.3,2-0.5,2.4-0.6c1.6-0.4,12.7-3.3,14.1-3.8c1.5-0.6,9-2.5,9.6-2.6l0.1,0l0-0.1c0-0.1,0.1-0.2-0.8-1.3c-0.1-0.2-0.2-0.2-0.3-0.2
	c-0.1,0-0.1,0-0.2,0l-0.1,0c-0.3-0.1-0.4-0.4-0.5-0.7c0-0.1-0.1-0.2-0.1-0.3c0,0,0-0.1,0-0.1l-0.1-0.1l-0.1,0.1c0,0-0.1,0.1-0.1,0.1
	l-0.1,0.1c-0.2,0.2-1.3,0.7-1.7,0.9c0,0-0.1,0-0.1,0l-0.1,0l0,0.1c0,0,0,0.1,0,0.1c0.1,0.1,0.1,0.2,0.1,0.3c0,0.1,0.1,0.2,0.2,0.3
	c0.1,0.1,0.3,0.2,0.2,0.5c0,0,0,0,0,0.1c-0.1,0.2-0.2,0.3-0.4,0.3c0,0,0,0-0.1,0c-0.2,0-0.3-0.1-0.5-0.3c-0.3-0.3-0.4-1.2-0.5-1.9
	c-0.1-0.4-0.1-0.7-0.2-0.9l-0.1-0.1l-0.1,0.1c0,0-0.1,0.1-0.1,0.1c-0.1,0.1-0.1,0.3-0.1,0.3c0,0,0,0.1,0,0.1c0,0.1,0,0.2-0.1,0.3
	c-0.1,0.4-0.3,0.9-0.9,1.2c-0.2,0.1-0.5,0.2-0.7,0.2c-0.1,0-0.1,0-0.2,0c-0.5-0.1-0.9-0.6-1-0.8c0,0,0-0.1-0.1-0.1l-0.1-0.1
	l-0.1,0.1c0,0-0.1,0.1-0.1,0.2c-0.1,0.2-0.3,0.5-0.7,0.9c-0.3,0.3-0.5,0.4-0.8,0.4c0,0-0.1,0-0.1,0c-0.3-0.1-0.5-0.4-0.7-0.6
	c0-0.1-0.1-0.1-0.1-0.1l0-0.1l-0.1-0.1l-0.1,0.1c0,0-0.1,0.1-0.1,0.2l0,0.1c-0.1,0.2-0.3,0.4-0.5,0.7c-0.2,0.2-0.4,0.3-0.6,0.3
	c0,0-0.1,0-0.1,0c-0.5-0.1-0.8-0.6-0.8-0.6c-0.1-0.2-0.2-0.3-0.2-0.3c-0.1,0-0.2,0.1-0.3,0.4c-0.4,0.9-1.3,1-1.8,1
	c-0.2,0-0.3,0-0.4-0.1c0,0-0.1,0-0.1,0c-0.1,0-0.1,0-0.1,0l-0.1,0l0,0.1c0,0,0,0.2,0.1,0.2c0,0.1,0.1,0.2,0,0.3
	c0,0.2-0.2,0.3-0.5,0.3c-0.1,0-0.1,0-0.2,0l0,0c-0.8-0.2-1.7-1.2-1.7-1.2l-0.1-0.1L26,13.7c0,0-0.1,0.1-0.2,0.2
	c-0.2,0.2-0.6,0.6-1.1,1.2c-1.6,1.4-2.8,1.7-3.6,1.6c-0.2,0-0.3,0-0.4-0.1c-0.1,0-0.2-0.1-0.3-0.1c0,0-0.1,0-0.1,0
	c-0.2-0.1-0.3-0.1-0.3-0.3c0-0.1,0.1-0.1,0.2-0.2c0.1,0,0.1-0.1,0.2-0.1c0,0,0.1,0,0.1,0c0.1,0,0.2,0,0.3,0.1c0.1,0,0.2,0.1,0.3,0.1
	c0.1,0,0.2,0.1,0.4,0.1c0.1,0,0.2,0,0.2,0c0.2,0,0.2-0.1,0.3-0.3c0.2-0.6-0.3-2.1-0.5-2.3c-0.1-0.1-0.1-0.1-0.2-0.1c0,0,0,0,0,0
	c-0.1,0-0.2,0.1-0.4,0.4L20.8,14c-0.2,0.2-0.5,0.2-1,0.2c-0.1,0-0.2,0-0.3,0c0,0-0.1,0-0.1,0c0,0,0,0,0,0c-0.1,0-0.1,0-0.1,0.1
	c0,0,0,0.1,0,0.1l0,0l0,0c0,0,0,0.5-0.2,1.1c-0.2,0.9-0.5,1.5-1,2c-0.3,0.3-0.7,0.5-1.1,0.4c-0.1,0-0.2,0-0.3-0.1
	c-0.6-0.1-1.1-0.5-1.3-0.7c-0.1,0-0.1-0.1-0.1-0.1c0,0,0,0,0,0c-0.1,0-0.2,0.1-0.2,0.2c0,0.1,0,0.1,0,0.1l0,0.1
	c-0.1,0.2-0.5,1.1-1.4,1.4c0,0-0.1,0-0.2,0c-0.1,0-0.2,0-0.3,0c-1.6-0.4-1.9-3.3-2.1-6.4c0-0.6,0-1.1,0.1-1.6
	c0.5-2.1,2.1-2.6,2.1-2.6l0.1,0l0-0.1c0-0.1,0-0.4-0.7-0.6c-0.1,0-0.3-0.1-0.4-0.1c-1.2,0.2-1.7,2.3-1.9,2.9
	c-0.1,0.6-0.2,1.2-0.2,1.7c-0.1,1.3-0.6,5-0.8,5.6c0,0.1,0,0.1,0,0.2c0,0.1,0,0.1,0,0.1l0,0.1l0.1,0.1l0,0l0,0c0,0,0.1,0,0.2,0
	c0.1,0,0.2,0,0.3,0c0,0,0.1,0,0.1,0c0.1,0,0.3,0,0.5,0.1c1.1,0.3,3,1.1,4,2c0.5,0.5,0.6,1,0.5,1.2c-0.1,0.5-0.5,0.8-0.7,0.9
	c0,0-0.1,0-0.2,0.1c-0.1,0.1-0.3,0.1-0.5,0.1c0,0,0,0-0.1,0c0,0-0.1,0-0.1-0.1c-0.1-0.1-0.1-0.2-0.1-0.2c0-0.1,0.1-0.1,0.1-0.2
	c0.8-0.4,0.9-0.6,0.9-0.7c0,0,0-0.1,0-0.1c0-0.3-1.8-2-3.8-2.5c-0.3-0.1-0.7-0.1-1-0.2c-0.1,0-0.1,0-0.2,0c-0.2,0-0.3,0-0.3,0.1
	c0,0.1,0,0.1,0,0.2l0,0.2c-0.4,1.6-1.5,5.3-4.2,6C4.3,25.4,4,25.4,3.6,25.4 M4,20c-0.3,0.2-2,1-2.3,2.3c-0.1,0.3-0.1,0.7,0,1
	c0.2,0.7,0.6,1.1,1.2,1.3c0.1,0,0.3,0.1,0.4,0.1c0.8,0,1.6-0.3,1.6-0.3c1.7-0.8,2.9-3.4,3.2-4.8c0.1-0.4,0.1-0.7,0.1-0.9l0-0.1
	l-0.1,0c0,0-0.1,0-0.1,0C7.2,18.7,4.3,19.8,4,20L4,20z M26.8,11.9c-0.1,0-0.2,0.1-0.2,0.2l0,0c0,0.1-0.2,0.4-0.3,0.7
	c-0.1,0.1-0.1,0.2,0,0.3c0.1,0.1,0.2,0.2,0.2,0.2c0.1,0.1,1,1,1.3,1.2l0,0l0.1,0c0.1,0,0.1,0,0.2-0.1c0.1-0.2-0.1-0.6-0.2-0.8
	c-0.2-0.2-0.5-0.9-0.7-1.4C27,12,26.9,11.9,26.8,11.9 M19.3,6.4c-0.2,0-0.4,0.7-0.4,0.8c0,0.3-0.4,2.5,0,4.3l0.1,0.2l0.1-0.2
	c0,0,0.7-1.2,0.5-4C19.5,6.5,19.4,6.4,19.3,6.4 M43.3,10.1L43.3,10.1c-0.1,0.2,0,0.7,0,0.8c0.1,0.3,0.2,0.4,0.3,0.4l0,0l0.1-0.1
	c0.1-0.1,0-0.3,0-0.4c0,0,0-0.1-0.1-0.1c-0.1-0.1-0.1-0.3-0.1-0.3C43.6,10.3,43.5,10.1,43.3,10.1L43.3,10.1z M43.8,9.2
	c-0.1,0-0.1,0-0.2,0.1c-0.2,0.2,0,1.2,0.2,1.6c0,0.2,0.1,0.2,0.2,0.2l0,0l0.1,0c0.1-0.1,0.2-0.9,0.1-1.3C44.1,9.5,44,9.2,43.8,9.2
	 M39.5,6.9c-0.1,0-0.1,0-0.2,0l-0.1,0l0,0.1c0,0.2,0.1,0.4,0.1,0.6l0.2,0c0,0,0-0.3,0-0.6l0-0.1L39.5,6.9
	C39.5,6.9,39.5,6.9,39.5,6.9 M39.4,5.2c-0.1,0-0.1,0-0.1,0.1c-0.1,0.1-0.1,0.5,0,1.2l0,0l0,0c0,0,0.1,0.1,0.2,0.1c0,0,0.1,0,0.1,0
	l0.1,0l0-0.1c0-0.1,0-0.2,0-0.3c0-0.4,0.1-0.8-0.1-0.9C39.5,5.3,39.5,5.2,39.4,5.2"/>
</svg>
