<?xml version="1.0" encoding="utf-8"?>
<!-- Generator: Adobe Illustrator 23.0.6, SVG Export Plug-In . SVG Version: 6.00 Build 0)  -->
<svg version="1.1" id="Layer_1" xmlns="http://www.w3.org/2000/svg" xmlns:xlink="http://www.w3.org/1999/xlink" x="0px" y="0px"
	 viewBox="0 0 100 80" style="enable-background:new 0 0 100 80;" xml:space="preserve">
<style type="text/css">
	.st0{fill:#EC1C24;}
	.st1{fill:#80BC00;}
	.st2{fill:#4C9C2E;}
	.st3{fill:#FFFFFF;}
	.st4{fill:#8F4899;}
	.st5{fill:#231F20;}
	.st6{fill:#EC1C24;stroke:#8F3F97;stroke-width:0.8123;}
</style>
<g>
	<g>
		<g>
			<path class="st0" d="M30.2,14.1h1v5.1c0,0.8,0.3,1.3,0.8,1.7c0.3,0.2,0.6,0.3,0.9,0.3c0.8,0,1.3-0.3,1.6-1
				c0.1-0.3,0.2-0.6,0.2-0.9c0-0.2,0-0.4-0.1-0.6c-0.1-0.5-0.4-0.9-0.9-1.1c-0.3-0.1-0.5-0.2-0.8-0.2c-0.5,0-0.9,0.2-1.4,0.5v-1
				c0.4-0.3,0.9-0.4,1.4-0.4c0.8,0,1.5,0.2,2,0.7s0.8,1.2,0.8,2c0,0.5-0.1,1-0.3,1.5s-0.6,0.8-1,1.1c-0.4,0.3-0.9,0.4-1.5,0.4
				c-0.5,0-1-0.1-1.4-0.4s-0.8-0.6-1-1s-0.4-0.9-0.4-1.4L30.2,14.1L30.2,14.1z"/>
			<path class="st0" d="M33,22.3c-0.5,0-1-0.1-1.5-0.4c-0.4-0.3-0.8-0.6-1-1.1s-0.4-0.9-0.4-1.5V14h1.2v5.3c0,0.7,0.3,1.3,0.8,1.6
				c0.3,0.2,0.5,0.3,0.9,0.3c0.7,0,1.2-0.3,1.5-0.9c0.1-0.3,0.2-0.6,0.2-0.8c0-0.2,0-0.3-0.1-0.5c-0.1-0.5-0.4-0.8-0.8-1
				c-0.7-0.3-1.4-0.2-2.1,0.2l-0.2,0.1V17h0.1c0.4-0.3,0.9-0.4,1.4-0.4c0.8,0,1.5,0.3,2.1,0.8s0.9,1.2,0.9,2.1c0,0.5-0.1,1-0.3,1.5
				s-0.6,0.9-1,1.2C34.1,22.2,33.6,22.3,33,22.3z M30.3,14.2v5.1c0,0.5,0.1,0.9,0.3,1.3c0.2,0.4,0.5,0.8,0.9,1
				c0.4,0.3,0.9,0.4,1.4,0.4s1-0.1,1.4-0.4s0.7-0.6,0.9-1.1c0.2-0.4,0.3-0.9,0.3-1.4c0-0.8-0.3-1.4-0.8-1.9s-1.1-0.7-1.9-0.7
				c-0.5,0-0.9,0.1-1.2,0.3v0.8c0.7-0.4,1.5-0.5,2.2-0.2c0.5,0.2,0.8,0.6,0.9,1.2c0.1,0.2,0.1,0.4,0.1,0.6c0,0.3-0.1,0.6-0.2,0.9
				c-0.3,0.7-0.9,1.1-1.7,1.1c-0.4,0-0.7-0.1-1-0.3c-0.6-0.4-0.9-1-0.9-1.8v-5h-0.7V14.2z"/>
		</g>
		<g>
			<path class="st0" d="M36.4,19.3c0-0.5,0.1-1,0.4-1.4c0.3-0.4,0.6-0.7,1.1-1c0.4-0.2,0.9-0.4,1.3-0.4c0.5,0,0.9,0.1,1.4,0.3
				c0.5,0.2,0.8,0.6,1.1,1s0.4,0.9,0.4,1.5c0,0.8-0.3,1.4-0.8,2s-1.2,0.9-1.9,0.9c-0.9,0-1.6-0.3-2.2-0.9c-0.4-0.4-0.7-0.9-0.8-1.5
				C36.4,19.8,36.4,19.6,36.4,19.3L36.4,19.3L36.4,19.3z M37.5,19.3c0,0.6,0.2,1.1,0.5,1.4c0.3,0.4,0.8,0.5,1.4,0.5
				c0.7,0,1.2-0.3,1.5-0.9c0.1-0.3,0.2-0.7,0.2-1.2s-0.2-0.9-0.5-1.3c-0.3-0.3-0.8-0.5-1.3-0.5c-0.8,0-1.3,0.3-1.6,1
				C37.5,18.7,37.5,19,37.5,19.3z"/>
			<path class="st0" d="M39.4,22.3c-0.9,0-1.7-0.3-2.3-0.9c-0.4-0.4-0.7-0.9-0.8-1.5c0-0.2-0.1-0.4-0.1-0.6l0,0l0,0
				c0-0.5,0.1-1,0.4-1.4c0.3-0.4,0.6-0.8,1.1-1c0.9-0.5,1.9-0.5,2.8,0c0.5,0.2,0.9,0.6,1.1,1c0.3,0.5,0.4,1,0.4,1.5
				c0,0.8-0.3,1.5-0.8,2.1C40.9,22,40.2,22.3,39.4,22.3z M36.5,19.4c0,0.2,0,0.4,0.1,0.5c0.1,0.6,0.4,1,0.8,1.4
				c0.5,0.5,1.3,0.8,2.1,0.8c0.7,0,1.3-0.3,1.8-0.9S42,20,42,19.3c0-0.5-0.1-1-0.4-1.4c-0.3-0.4-0.6-0.7-1-1c-0.9-0.4-1.8-0.4-2.6,0
				c-0.4,0.2-0.8,0.6-1,1C36.7,18.4,36.5,18.8,36.5,19.4L36.5,19.4z M39.3,21.4c-0.6,0-1.1-0.2-1.5-0.6c-0.3-0.4-0.5-0.9-0.5-1.5
				c0-0.3,0.1-0.6,0.2-0.9c0.3-0.7,0.9-1,1.7-1c0.5,0,1,0.2,1.4,0.5c0.4,0.4,0.6,0.8,0.6,1.3s-0.1,0.9-0.2,1.2
				C40.6,21.1,40.1,21.4,39.3,21.4z M39.3,17.6c-0.7,0-1.2,0.3-1.5,0.9c-0.1,0.3-0.2,0.5-0.2,0.8c0,0.6,0.1,1,0.4,1.3
				c0.3,0.3,0.7,0.5,1.3,0.5c0.7,0,1.2-0.3,1.4-0.8c0.1-0.3,0.2-0.7,0.2-1.1c0-0.5-0.2-0.9-0.5-1.2C40.1,17.8,39.7,17.6,39.3,17.6z"
				/>
		</g>
		<g>
			<path class="st0" d="M47.4,14.1h1v5.4c0,0.4-0.1,0.9-0.3,1.3s-0.5,0.7-0.9,1s-1,0.5-1.6,0.5c-0.9,0-1.6-0.3-2.1-1
				c-0.3-0.4-0.5-0.8-0.6-1.4c0-0.1,0-0.3,0-0.4c0-0.9,0.3-1.7,0.8-2.2s1.1-0.7,1.6-0.7c0.7,0,1.3,0.1,1.7,0.4v1
				c-0.5-0.3-1-0.5-1.6-0.5c-0.5,0.1-0.9,0.3-1.2,0.6c-0.3,0.3-0.4,0.8-0.4,1.3c0,0.1,0,0.2,0,0.2c0,0.4,0.1,0.7,0.4,1
				c0.4,0.5,0.9,0.7,1.5,0.7c0.5,0,0.9-0.2,1.2-0.5s0.5-0.7,0.5-1.1c0-0.2,0.1-0.4,0.1-0.6v-5H47.4z"/>
			<path class="st0" d="M45.5,22.4c-0.9,0-1.7-0.3-2.2-1C43,21,42.8,20.5,42.7,20c0-0.1,0-0.3,0-0.5c0-1,0.3-1.7,0.9-2.3
				c0.5-0.5,1.1-0.8,1.7-0.8c0.8,0,1.4,0.1,1.8,0.4h0.1v1.4L47,18.1c-0.5-0.3-1-0.5-1.5-0.5c-0.5,0.1-0.8,0.2-1.1,0.5
				S44,18.8,44,19.3c0,0.2,0,0.2,0,0.2l0,0c0,0.4,0.1,0.7,0.3,0.9c0.4,0.4,0.8,0.6,1.4,0.6c0.4,0,0.8-0.1,1.1-0.4s0.4-0.6,0.5-1.1
				c0-0.2,0.1-0.4,0.1-0.6V14h1.2v5.5c0,0.5-0.1,0.9-0.4,1.3c-0.2,0.4-0.5,0.8-0.9,1C46.8,22.2,46.2,22.4,45.5,22.4z M45.3,16.7
				c-0.5,0-1.1,0.2-1.6,0.7s-0.8,1.2-0.8,2.1c0,0.1,0,0.3,0,0.4c0.1,0.5,0.3,0.9,0.6,1.3c0.5,0.6,1.1,0.9,2,0.9
				c0.6,0,1.1-0.1,1.5-0.4c0.3-0.3,0.6-0.6,0.8-1s0.3-0.8,0.3-1.2v-5.2h-0.8v4.8c0,0.2,0,0.4-0.1,0.6c-0.1,0.5-0.3,0.9-0.6,1.2
				c-0.3,0.3-0.7,0.5-1.3,0.5s-1.2-0.2-1.6-0.7c-0.3-0.3-0.4-0.7-0.4-1.1c0,0,0-0.1,0-0.3c0-0.5,0.2-1,0.5-1.3
				c0.3-0.4,0.7-0.6,1.2-0.6l0,0c0.5,0,1,0.1,1.5,0.4V17C46.5,16.8,46,16.7,45.3,16.7z"/>
		</g>
		<g>
			<path class="st0" d="M50.5,19.5l2.7-1.5c-0.1-0.1-0.3-0.3-0.5-0.4c-0.1-0.1-0.3-0.1-0.5-0.1c-0.1,0-0.2,0-0.3,0
				c-0.7,0-1.2,0.3-1.6,1c-0.1,0.3-0.2,0.6-0.2,1c0,0.3,0.1,0.6,0.2,0.9c0.3,0.6,0.8,0.9,1.6,0.9c0.6,0,1-0.2,1.3-0.5
				c0.2-0.3,0.4-0.7,0.6-1.3l1,0.1c0,0.2,0,0.4-0.1,0.6c0,0,0,0.1-0.1,0.2c-0.3,0.7-0.8,1.2-1.5,1.5c-0.2,0.1-0.4,0.1-0.6,0.2
				c-0.2,0-0.4,0.1-0.7,0.1c-0.5,0-0.9-0.1-1.4-0.4c-0.4-0.2-0.8-0.6-1-1c-0.3-0.4-0.4-0.9-0.4-1.4c0-1,0.3-1.7,0.9-2.2
				c0.6-0.5,1.2-0.7,1.9-0.7c1.2,0,2.1,0.6,2.7,1.7l-3.7,2L50.5,19.5z"/>
			<path class="st0" d="M51.9,22.4c-0.5,0-1-0.1-1.4-0.4s-0.8-0.6-1.1-1c-0.2-0.5-0.4-1-0.4-1.5c0-1,0.3-1.8,1-2.3
				c0.6-0.5,1.2-0.8,2-0.8c1.2,0,2.1,0.6,2.8,1.8l0.1,0.1L51,20.5l-0.5-1L53,18c-0.1-0.1-0.2-0.2-0.3-0.2c-0.1-0.1-0.3-0.1-0.5-0.1
				c-0.1,0-0.2,0-0.2,0c-0.7,0-1.2,0.3-1.4,0.9c-0.1,0.3-0.2,0.6-0.2,0.9c0,0.2,0.1,0.5,0.2,0.8c0.3,0.6,0.8,0.9,1.5,0.9
				c0.5,0,0.9-0.1,1.2-0.4c0.2-0.3,0.4-0.7,0.5-1.2v-0.1l1.2,0.2v0.1c0,0.2,0,0.4-0.1,0.7c0,0,0,0.1-0.1,0.2
				c-0.3,0.7-0.8,1.2-1.5,1.5c-0.2,0.1-0.4,0.1-0.6,0.2C52.4,22.3,52.2,22.4,51.9,22.4z M52,16.6c-0.7,0-1.3,0.2-1.8,0.7
				c-0.6,0.5-0.9,1.2-0.9,2.2c0,0.5,0.1,0.9,0.4,1.3c0.2,0.4,0.6,0.7,1,1c0.4,0.2,0.8,0.4,1.3,0.4c0.2,0,0.4,0,0.6-0.1
				c0.2-0.1,0.4-0.1,0.6-0.2c0.7-0.3,1.1-0.8,1.4-1.4c0-0.1,0.1-0.1,0.1-0.2c0.1-0.2,0.1-0.3,0.1-0.5L54,19.7
				c-0.1,0.5-0.3,0.9-0.6,1.2c-0.3,0.3-0.8,0.5-1.4,0.5c-0.8,0-1.3-0.3-1.7-1c-0.2-0.3-0.3-0.6-0.3-0.9c0-0.4,0.1-0.7,0.2-1
				c0.3-0.7,0.9-1.1,1.7-1.1c0.1,0,0.2,0,0.3,0c0.3,0,0.5,0.1,0.6,0.1c0.2,0.1,0.4,0.2,0.5,0.4l0.1,0.1l-2.8,1.5l0.3,0.6l3.5-1.9
				C53.9,17.2,53.1,16.6,52,16.6z"/>
		</g>
		<g>
			<path class="st0" d="M56.6,23.5l0.5,0.1l0.5,0.1c0.2,0,0.4,0.1,0.7,0.1c0.7,0,1.3-0.3,1.6-0.8c0.2-0.3,0.2-0.5,0.2-0.9v-2.7
				c0-0.8-0.3-1.4-0.9-1.7c-0.3-0.2-0.5-0.2-0.8-0.2c-0.7,0-1.3,0.3-1.6,0.8c-0.2,0.3-0.3,0.7-0.3,1.1v0.2c0,0.3,0.1,0.5,0.2,0.8
				c0.2,0.3,0.4,0.5,0.6,0.6c0.3,0.2,0.6,0.2,0.9,0.2c0.4,0,0.8-0.1,1.3-0.4v1.1c-0.5,0.2-1,0.4-1.4,0.4c-0.2,0-0.5,0-0.7-0.1
				s-0.5-0.2-0.7-0.3c-0.4-0.3-0.7-0.6-1-1c-0.2-0.4-0.4-0.9-0.4-1.4c0-1,0.3-1.7,1-2.2c0.5-0.4,1.2-0.7,1.9-0.7s1.3,0.2,1.9,0.7
				c0.4,0.3,0.6,0.8,0.8,1.3c0,0.2,0.1,0.4,0.1,0.5v3c0,0.2-0.1,0.6-0.2,1c-0.2,0.5-0.6,1-1.1,1.3c-0.4,0.2-0.9,0.4-1.5,0.4
				s-1.3-0.1-1.9-0.3L56.6,23.5z"/>
			<path class="st0" d="M58.3,24.8c-0.6,0-1.3-0.1-1.9-0.3h-0.1l0.3-1.1l0.6,0.2l0.5,0.1c0.2,0,0.4,0.1,0.6,0.1
				c0.7,0,1.2-0.2,1.5-0.7c0.1-0.2,0.2-0.5,0.2-0.8v-2.7c0-0.8-0.3-1.3-0.8-1.6c-0.2-0.1-0.5-0.2-0.7-0.2c-0.7,0-1.2,0.3-1.5,0.8
				c-0.2,0.3-0.3,0.6-0.3,1v0.2c0,0.3,0.1,0.5,0.2,0.8c0.2,0.2,0.3,0.4,0.6,0.6c0.2,0.2,0.5,0.2,0.9,0.2s0.8-0.1,1.3-0.4l0.2-0.1
				v1.3h-0.1c-0.5,0.2-1,0.4-1.5,0.4c-0.2,0-0.5,0-0.7-0.1s-0.5-0.2-0.7-0.3c-0.4-0.3-0.8-0.6-1-1.1c-0.2-0.4-0.4-0.9-0.4-1.4
				c0-1,0.3-1.8,1-2.3c0.6-0.5,1.2-0.7,1.9-0.7s1.4,0.3,2,0.8c0.4,0.3,0.6,0.8,0.8,1.3c0.1,0.2,0.1,0.4,0.1,0.6v3
				c0,0.2-0.1,0.6-0.2,1c-0.2,0.6-0.6,1-1.2,1.4C59.4,24.7,58.9,24.8,58.3,24.8z M56.5,24.3c0.6,0.2,1.1,0.3,1.7,0.3
				c0.6,0,1-0.1,1.4-0.3c0.5-0.3,0.8-0.7,1.1-1.2c0.1-0.4,0.2-0.7,0.2-1v-3c0-0.2,0-0.3-0.1-0.5c-0.1-0.5-0.4-0.9-0.7-1.2
				c-0.5-0.5-1.1-0.7-1.8-0.7s-1.3,0.2-1.8,0.6c-0.6,0.5-0.9,1.2-0.9,2.1c0,0.5,0.1,0.9,0.3,1.3s0.5,0.7,0.9,1
				c0.2,0.1,0.4,0.2,0.6,0.3c0.2,0.1,0.5,0.1,0.7,0.1c0.4,0,0.8-0.1,1.3-0.3V21c-0.4,0.2-0.8,0.4-1.2,0.4s-0.7-0.1-1-0.3
				c-0.3-0.2-0.5-0.4-0.6-0.7c-0.2-0.3-0.3-0.6-0.3-0.9v-0.2c0-0.5,0.1-0.9,0.3-1.2c0.3-0.6,0.9-0.9,1.7-0.9c0.3,0,0.6,0.1,0.9,0.2
				c0.6,0.4,0.9,1,0.9,1.8v2.7c0,0.3-0.1,0.6-0.3,0.9c-0.4,0.5-0.9,0.8-1.7,0.8c-0.3,0-0.5,0-0.7-0.1l-0.5-0.1l-0.3-0.1L56.5,24.3z"
				/>
		</g>
		<g>
			<path class="st0" d="M66.4,22.1V19c0-0.3-0.1-0.5-0.2-0.7c-0.3-0.5-0.8-0.7-1.6-0.7c-0.6,0-1.1,0.3-1.5,0.8
				c-0.1,0.1-0.2,0.3-0.2,0.5s-0.1,0.4-0.1,0.6c0,0.8,0.3,1.4,0.9,1.7c0.3,0.2,0.6,0.2,0.9,0.2c0.5,0,1-0.3,1.4-0.8v1.2L65.5,22
				c-0.1,0-0.2,0.1-0.4,0.1l-0.3,0.1h-0.3c-0.4,0-0.8-0.1-1.3-0.4c-0.4-0.3-0.8-0.6-1-1.1c-0.2-0.4-0.4-0.9-0.4-1.5
				c0-0.5,0.1-1,0.3-1.4c0.5-0.9,1.3-1.4,2.5-1.4c0.4,0,0.8,0.1,1.2,0.2c0.7,0.3,1.1,0.7,1.4,1.3c0.1,0.3,0.2,0.6,0.2,1V22
				L66.4,22.1L66.4,22.1z"/>
			<path class="st0" d="M64.4,22.3c-0.4,0-0.8-0.1-1.2-0.4c-0.5-0.3-0.8-0.6-1.1-1.1s-0.4-1-0.4-1.5s0.1-1,0.3-1.5
				c0.5-1,1.4-1.5,2.7-1.5c0.4,0,0.9,0.1,1.2,0.2c0.7,0.3,1.2,0.8,1.5,1.4c0.1,0.3,0.2,0.7,0.2,1v3.2h-1.3V19c0-0.2-0.1-0.5-0.2-0.7
				c-0.3-0.4-0.8-0.7-1.5-0.7c-0.6,0-1,0.2-1.4,0.7c-0.1,0.1-0.2,0.3-0.2,0.4c0,0.2-0.1,0.3-0.1,0.6c0,0.8,0.3,1.3,0.9,1.6
				c0.3,0.1,0.5,0.2,0.8,0.2c0.5,0,0.9-0.2,1.3-0.7l0.2-0.3v1.6L65.6,22c-0.1,0.1-0.2,0.1-0.4,0.2l-0.3,0.1L64.4,22.3
				C64.5,22.3,64.4,22.3,64.4,22.3z M64.7,16.6c-1.2,0-2,0.4-2.4,1.3c-0.2,0.4-0.3,0.9-0.3,1.4s0.1,1,0.4,1.4c0.2,0.4,0.6,0.8,1,1
				c0.4,0.3,0.9,0.4,1.2,0.3h0.3l0.3-0.1c0.2-0.1,0.3-0.1,0.4-0.1l0.4-0.3v-0.8c-0.4,0.4-0.8,0.6-1.3,0.6c-0.3,0-0.6-0.1-0.9-0.2
				c-0.7-0.4-1-1-1-1.8c0-0.2,0-0.4,0.1-0.6s0.1-0.4,0.2-0.5c0.4-0.5,0.9-0.8,1.6-0.8c0.8,0,1.3,0.3,1.7,0.8
				c0.2,0.3,0.3,0.5,0.3,0.8v3h0.8v-3c0-0.3-0.1-0.6-0.2-0.9c-0.2-0.6-0.7-1-1.3-1.3C65.5,16.7,65.1,16.6,64.7,16.6z"/>
		</g>
		<g>
			<path class="st0" d="M68.2,21.2h2.7H71c0.4,0,0.6-0.2,0.6-0.5c0-0.2-0.2-0.4-0.5-0.6c-0.2-0.1-0.4-0.2-0.8-0.3l-0.6-0.2
				c-0.5-0.1-0.9-0.3-1.2-0.6c-0.3-0.2-0.4-0.5-0.4-0.9c0-1,0.6-1.5,1.9-1.5h2.4v1h-2.6c-0.4,0-0.6,0.2-0.6,0.5
				c0,0.1,0.1,0.2,0.2,0.3c0.2,0.2,0.5,0.3,0.9,0.4l0.6,0.1c0.6,0.1,1.1,0.4,1.4,0.7c0.3,0.3,0.4,0.6,0.4,1.1c0,0.9-0.6,1.4-1.8,1.4
				h-2.7V21.2z"/>
			<path class="st0" d="M70.9,22.2h-2.8V21H71h0.1c0.5-0.1,0.5-0.3,0.5-0.4c0-0.2-0.2-0.4-0.5-0.5c-0.2-0.1-0.4-0.2-0.8-0.3
				l-0.6-0.2c-0.5-0.1-0.9-0.4-1.2-0.6c-0.3-0.3-0.4-0.6-0.4-1c0-1.1,0.7-1.6,2-1.6h2.5v1.2h-2.7c-0.5,0-0.5,0.2-0.5,0.4
				c0,0.1,0.1,0.1,0.1,0.2c0.2,0.1,0.5,0.3,0.9,0.4l0.6,0.1c0.6,0.1,1.1,0.4,1.4,0.7c0.3,0.3,0.5,0.7,0.5,1.2
				C72.8,21.7,72.1,22.2,70.9,22.2z M68.3,22h2.6c1.1,0,1.7-0.4,1.7-1.3c0-0.4-0.1-0.7-0.4-1s-0.8-0.5-1.3-0.7l-0.6-0.1
				c-0.4-0.1-0.7-0.2-1-0.4c-0.1-0.1-0.2-0.3-0.2-0.4c0-0.2,0.1-0.6,0.7-0.6h2.4v-0.7H70c-1.2,0-1.8,0.4-1.8,1.4
				c0,0.4,0.1,0.6,0.3,0.9c0.3,0.3,0.7,0.5,1.1,0.6l0.6,0.2c0.4,0.1,0.6,0.2,0.8,0.3c0.4,0.2,0.6,0.4,0.6,0.7c0,0.2-0.1,0.5-0.7,0.6
				l0,0l0,0l0,0h-2.6V22z"/>
		</g>
	</g>
	<g>
		<g>
			<path class="st1" d="M9,34.7v4.8c-0.4,0.1-0.7,0.1-1.1,0.1c-1.9,0-3.4-0.6-4.7-1.9C2,36.6,1.3,35,1.3,33.2s0.6-3.4,1.9-4.6
				c1.3-1.3,2.8-1.9,4.6-1.9c2,0,3.6,0.6,4.8,1.8c1.2,1.2,1.7,2.8,1.7,4.9v6.1H9.7v-5.8c0-0.7-0.2-1.2-0.5-1.6
				c-0.3-0.4-0.8-0.6-1.3-0.6S7,31.7,6.6,32c-0.4,0.4-0.5,0.8-0.5,1.3s0.2,0.9,0.5,1.3C6.9,34.9,7.3,35,7.8,35
				C8.2,35,8.6,34.9,9,34.7z"/>
			<path class="st2" d="M7.9,40c-2,0-3.6-0.7-4.9-2s-2-2.9-2-4.9c0-1.9,0.7-3.5,2-4.9c1.3-1.3,3-2,4.9-2c2.1,0,3.8,0.6,5,1.9
				c1.2,1.2,1.8,3,1.8,5.1v6.5H9.3v-6.1c0-0.6-0.1-1-0.4-1.4c-0.3-0.3-0.6-0.5-1-0.5c-0.4,0-0.7,0.1-1,0.4c-0.3,0.3-0.4,0.6-0.4,1
				s0.1,0.8,0.4,1c0.3,0.3,0.6,0.4,1,0.4c0.4,0,0.7-0.1,1-0.3l0.5-0.3v5.7H9.1C8.6,40,8.3,40,7.9,40z M7.9,27
				c-1.7,0-3.2,0.6-4.4,1.8c-1.2,1.2-1.8,2.7-1.8,4.4c0,1.8,0.6,3.2,1.8,4.4s2.7,1.8,4.5,1.8c0.2,0,0.5,0,0.7-0.1v-4
				c-0.3,0.1-0.5,0.1-0.8,0.1c-0.6,0-1.1-0.2-1.5-0.6c-0.4-0.4-0.6-0.9-0.6-1.5s0.2-1.1,0.6-1.5c0.4-0.4,0.9-0.6,1.5-0.6
				s1.2,0.2,1.6,0.7c0.4,0.5,0.6,1.1,0.6,1.8v5.5h4v-5.8c0-1.9-0.6-3.5-1.7-4.6C11.3,27.5,9.8,27,7.9,27z"/>
		</g>
	</g>
	<g>
		<path class="st3" d="M3.6,30.6c0,0,2.2-3.9,6.2-2.1C9.8,28.4,6.4,27.9,3.6,30.6z"/>
		<path class="st3" d="M3.6,30.6L3.6,30.6c0,0,0.5-1,1.6-1.8c1-0.7,2.6-1.3,4.6-0.4v0.1C9.7,28.5,6.4,27.9,3.6,30.6z M7.7,28
			c-1.1,0-1.9,0.4-2.5,0.8c-0.8,0.5-1.3,1.2-1.5,1.5c2.4-2.1,5.1-2.1,5.9-2C8.9,28.1,8.3,28,7.7,28z"/>
	</g>
	<g>
		<g>
			<path class="st1" d="M35.2,34.9v4.8c-0.4,0.1-0.7,0.1-1.1,0.1c-1.9,0-3.4-0.6-4.7-1.9c-1.3-1.2-1.9-2.8-1.9-4.7
				c0-1.8,0.6-3.4,1.9-4.6c1.3-1.3,2.8-1.9,4.6-1.9c2,0,3.6,0.6,4.8,1.8c1.2,1.2,1.7,2.8,1.7,4.9v6.1h-4.7v-5.8
				c0-0.7-0.2-1.2-0.5-1.6c-0.3-0.4-0.8-0.6-1.3-0.6s-0.9,0.2-1.3,0.5c-0.4,0.4-0.5,0.8-0.5,1.3s0.2,0.9,0.5,1.3
				c0.3,0.3,0.7,0.5,1.2,0.5C34.5,35.3,34.9,35.2,35.2,34.9z"/>
			<path class="st2" d="M34.2,40.2c-2,0-3.6-0.7-4.9-2s-2-2.9-2-4.9c0-1.9,0.7-3.5,2-4.9c1.3-1.3,3-2,4.9-2c2.1,0,3.8,0.6,5,1.9
				c1.2,1.2,1.8,3,1.8,5.1V40h-5.4v-6.1c0-0.6-0.1-1-0.4-1.4c-0.3-0.3-0.6-0.5-1-0.5s-0.7,0.1-1,0.4c-0.3,0.3-0.4,0.6-0.4,1
				s0.1,0.8,0.4,1c0.3,0.3,0.6,0.4,1,0.4s0.7-0.1,1-0.3l0.5-0.3v5.7h-0.3C34.9,40.2,34.5,40.2,34.2,40.2z M34.1,27.2
				c-1.7,0-3.2,0.6-4.4,1.8c-1.2,1.2-1.8,2.7-1.8,4.4c0,1.8,0.6,3.2,1.8,4.4c1.2,1.2,2.7,1.8,4.5,1.8c0.2,0,0.5,0,0.7-0.1v-4
				c-0.3,0.1-0.5,0.1-0.8,0.1c-0.6,0-1.1-0.2-1.5-0.6c-0.4-0.4-0.6-0.9-0.6-1.5s0.2-1.1,0.6-1.5c0.4-0.4,0.9-0.6,1.5-0.6
				s1.2,0.2,1.6,0.7c0.4,0.5,0.6,1.1,0.6,1.8v5.5h4v-5.8c0-1.9-0.6-3.5-1.7-4.6C37.6,27.8,36,27.2,34.1,27.2z"/>
		</g>
	</g>
	<g>
		<path class="st3" d="M29.8,30.6c0,0,2.2-3.9,6.2-2.1C36,28.4,32.7,27.9,29.8,30.6z"/>
		<path class="st3" d="M29.9,30.6L29.9,30.6c0,0,0.5-1,1.6-1.8c1-0.7,2.6-1.3,4.6-0.4v0.1C36,28.5,32.7,27.9,29.9,30.6z M34,28
			c-1.1,0-1.9,0.4-2.5,0.8c-0.8,0.5-1.3,1.2-1.5,1.5c2.4-2.1,5.1-2.1,5.9-2C35.2,28.1,34.6,28,34,28z"/>
	</g>
	<g>
		<g>
			<path class="st1" d="M74.9,34.9v4.8c-0.4,0.1-0.7,0.1-1.1,0.1c-1.9,0-3.4-0.6-4.7-1.9c-1.3-1.2-1.9-2.8-1.9-4.7
				c0-1.8,0.6-3.4,1.9-4.6c1.3-1.3,2.8-1.9,4.6-1.9c2,0,3.6,0.6,4.8,1.8c1.2,1.2,1.7,2.8,1.7,4.9v6.1h-4.7v-5.8
				c0-0.7-0.2-1.2-0.5-1.6c-0.3-0.4-0.8-0.6-1.3-0.6s-0.9,0.2-1.3,0.5c-0.2,0.6-0.4,1-0.4,1.5s0.2,0.9,0.5,1.3
				c0.3,0.3,0.7,0.5,1.2,0.5C74.1,35.3,74.5,35.2,74.9,34.9z"/>
			<path class="st2" d="M73.8,40.2c-2,0-3.6-0.7-4.9-2s-2-2.9-2-4.9c0-1.9,0.7-3.5,2-4.9c1.3-1.3,3-2,4.9-2c2.1,0,3.8,0.6,5,1.9
				c1.2,1.2,1.8,3,1.8,5.1V40h-5.4v-6.1c0-0.6-0.1-1-0.4-1.4c-0.3-0.3-0.6-0.5-1-0.5s-0.7,0.1-1,0.4c-0.3,0.3-0.4,0.6-0.4,1
				s0.1,0.8,0.4,1c0.3,0.3,0.6,0.4,1,0.4s0.7-0.1,1-0.3l0.5-0.3v5.7H75C74.5,40.2,74.2,40.2,73.8,40.2z M73.8,27.2
				c-1.7,0-3.2,0.6-4.4,1.8c-1.2,1.2-1.8,2.7-1.8,4.4c0,1.8,0.6,3.2,1.8,4.4c1.2,1.2,2.7,1.8,4.5,1.8c0.2,0,0.5,0,0.7-0.1v-4
				c-0.3,0.1-0.5,0.1-0.8,0.1c-0.6,0-1.1-0.2-1.5-0.6c-0.4-0.4-0.6-0.9-0.6-1.5s0.2-1.1,0.6-1.5c0.4-0.4,0.9-0.6,1.5-0.6
				s1.2,0.2,1.6,0.7c0.4,0.5,0.6,1.1,0.6,1.8v5.5h4v-5.8c0-1.9-0.6-3.5-1.7-4.6C77.2,27.8,75.7,27.2,73.8,27.2z"/>
		</g>
	</g>
	<g>
		<path class="st3" d="M69.4,30.6c0,0,2.2-3.9,6.2-2.1C75.5,28.4,72.2,27.9,69.4,30.6z"/>
		<path class="st3" d="M69.4,30.6L69.4,30.6c0,0,0.5-1,1.6-1.8c1-0.7,2.6-1.3,4.6-0.4v0.1C75.5,28.5,72.2,27.9,69.4,30.6z M73.5,28
			c-1.1,0-1.9,0.4-2.5,0.8c-0.8,0.5-1.3,1.2-1.5,1.5c2.4-2.1,5.1-2.1,5.9-2C74.7,28.1,74.1,28,73.5,28z"/>
	</g>
	<g>
		<g>
			<path class="st1" d="M20.3,22.5v17.1h-4.7V22.5H20.3z"/>
			<path class="st2" d="M20.7,40h-5.4V22.2h5.4V40z M15.9,39.3h4V22.8h-4V39.3z"/>
		</g>
	</g>
	<g>
		<polygon class="st3" points="18.5,23.8 19.5,23.8 19.4,35.5 		"/>
		<path class="st3" d="M19.4,35.5l-0.9-11.7h1.1L19.4,35.5L19.4,35.5z M18.5,23.8l0.9,11l0.1-11H18.5z"/>
	</g>
	<g>
		<g>
			<path class="st1" d="M53,39.6h-4.7v-7.1c0-0.7-0.3-1.1-0.9-1.1c-0.6,0-0.9,0.4-0.9,1.1v7.1h-4.7v-7c0-1.6,0.5-3,1.6-4.1
				s2.4-1.7,4-1.7c1.8,0,3.2,0.6,4.3,1.9c0.8,1,1.3,2.4,1.3,4.2C53,32.9,53,39.6,53,39.6z"/>
			<path class="st2" d="M53.4,40H48v-7.4c0-0.7-0.3-0.7-0.5-0.7c-0.3,0-0.5,0.1-0.5,0.7V40h-5.4v-7.3c0-1.7,0.6-3.2,1.7-4.4
				c1.1-1.2,2.6-1.8,4.2-1.8c1.9,0,3.4,0.7,4.6,2.1c0.9,1.1,1.3,2.6,1.3,4.4C53.4,33,53.4,40,53.4,40z M48.7,39.3h4V33
				c0-1.7-0.4-3.1-1.2-4c-1-1.2-2.3-1.8-4-1.8c-1.5,0-2.7,0.5-3.7,1.6c-1,1-1.5,2.3-1.5,3.9v6.6h4v-6.7c0-1.3,0.8-1.4,1.2-1.4
				s1.2,0.1,1.2,1.4V39.3z"/>
		</g>
	</g>
	<g>
		<path class="st3" d="M46.6,28.2c0,0,3.5-1.2,4.9,2.3C51.5,30.4,49.5,28,46.6,28.2z"/>
		<path class="st3" d="M51.5,30.4c0,0-2-2.3-4.7-2.3c-0.1,0-0.1,0-0.2,0V28c0,0,0.9-0.3,1.9-0.2C49.5,28.1,50.8,28.6,51.5,30.4
			L51.5,30.4z M46.9,28.1c2.3,0,4.1,1.7,4.6,2.2c-0.7-1.6-2-2.1-2.9-2.3C47.8,27.9,47.2,28,46.9,28.1z"/>
	</g>
	<g>
		<g>
			<path class="st1" d="M65.7,27.1l-3.8,7.6h4.4v4.9h-12L58,32h-4v-4.9H65.7z"/>
			<path class="st2" d="M66.6,40H53.7l3.8-7.6h-3.7v-5.6h12.5l-3.8,7.6h4.2V40H66.6z M54.8,39.3h11.1v-4.2h-4.6l3.8-7.6H54.4v4.2
				h4.2L54.8,39.3z"/>
		</g>
	</g>
	<g>
		<polygon class="st3" points="62.6,28 63.5,28 58.7,37.8 		"/>
		<path class="st3" d="M58.7,37.9L58.7,37.9l3.9-9.9h1l0,0L58.7,37.9z M62.6,28L59,37.2l4.5-9.2H62.6z"/>
	</g>
	<g>
		<g>
			<path class="st1" d="M26.4,27.1v12.5h-4.7V27.1H26.4z M24.1,21.5c0.6,0,1.2,0.2,1.7,0.7c0.5,0.4,0.7,1,0.7,1.6
				c0,0.7-0.2,1.2-0.7,1.6c-0.4,0.4-1,0.6-1.7,0.6s-1.3-0.2-1.7-0.6c-0.4-0.4-0.7-1-0.7-1.6s0.2-1.1,0.7-1.6
				C22.9,21.8,23.5,21.5,24.1,21.5z"/>
			<path class="st2" d="M26.8,40h-5.4V26.8h5.4V40z M22.1,39.3h4V27.5h-4V39.3z M24.1,26.4c-0.8,0-1.4-0.2-1.9-0.7s-0.8-1.1-0.8-1.9
				c0-0.7,0.3-1.3,0.8-1.8s1.2-0.8,1.9-0.8c0.7,0,1.4,0.3,1.9,0.8s0.8,1.1,0.8,1.8c0,0.7-0.3,1.4-0.8,1.9
				C25.5,26.1,24.9,26.4,24.1,26.4z M24.1,21.9c-0.6,0-1,0.2-1.4,0.6s-0.6,0.8-0.6,1.3c0,0.6,0.2,1,0.6,1.4s0.9,0.5,1.5,0.5
				s1.1-0.2,1.5-0.5c0.4-0.4,0.6-0.8,0.6-1.4c0-0.5-0.2-1-0.6-1.3C25.1,22.1,24.7,21.9,24.1,21.9z"/>
		</g>
	</g>
	<g>
		<polygon class="st3" points="24.6,28.2 25.3,28.2 25.2,37.1 		"/>
		<path class="st3" d="M25.2,37.1l-0.6-8.9h0.7l0,0L25.2,37.1L25.2,37.1z M24.7,28.2l0.5,8.1l0.1-8.1C25.3,28.2,24.7,28.2,24.7,28.2
			z"/>
	</g>
	<g>
		<path class="st3" d="M23.9,22.2c0,0,1.5-0.1,1.9,1.4C25.7,23.7,24.8,22.3,23.9,22.2z"/>
		<path class="st3" d="M25.7,23.7c0,0-0.9-1.3-1.8-1.4v-0.1C23.9,22.2,25.4,22.1,25.7,23.7L25.7,23.7z M24.2,22.3
			c0.6,0.2,1.2,0.9,1.4,1.2C25.4,22.6,24.7,22.4,24.2,22.3z"/>
	</g>
	<g>
		<g>
			<path class="st4" d="M2,46.6c0-0.5,0.1-0.9,0.4-1.2c0.2-0.2,0.4-0.4,0.7-0.6c0.3-0.1,0.6-0.2,0.9-0.2h0.4v0.5H4
				c-0.3,0-0.5,0.1-0.7,0.2c-0.4,0.2-0.7,0.5-0.7,0.9h1.9v0.5h-2c0,0.4,0.2,0.8,0.6,1C3.4,47.9,3.6,48,3.9,48h0.5v0.5H4
				c-0.5,0-0.9-0.2-1.3-0.5c-0.2-0.2-0.3-0.4-0.5-0.6c-0.1-0.1-0.1-0.2-0.1-0.4C2,46.9,2,46.8,2,46.6z"/>
			<path class="st4" d="M4.5,48.6H4c-0.5,0-1-0.2-1.4-0.5c-0.2-0.2-0.4-0.4-0.5-0.6C2,47.3,2,47.2,1.9,47.1c0-0.1,0-0.3,0-0.4
				c0-0.5,0.1-0.9,0.4-1.2c0.2-0.3,0.5-0.5,0.8-0.6s0.6-0.2,1-0.2h0.5v0.7H4c-0.2,0-0.5,0.1-0.7,0.2C3,45.8,2.8,46,2.7,46.3h1.8V47
				H2.7c0.1,0.3,0.2,0.6,0.6,0.8C3.5,47.9,3.7,48,3.9,48h0.7L4.5,48.6L4.5,48.6z M4,44.8c-0.3,0-0.6,0.1-0.9,0.2
				c-0.3,0.1-0.5,0.3-0.7,0.5c-0.2,0.3-0.3,0.7-0.3,1.1c0,0.1,0,0.3,0,0.4c0,0.1,0.1,0.2,0.1,0.4c0.1,0.2,0.2,0.4,0.4,0.6
				c0.4,0.3,0.8,0.5,1.2,0.5h0.3v-0.3H3.9c-0.3,0-0.6-0.1-0.8-0.2c-0.4-0.3-0.6-0.7-0.7-1.1v-0.1h1.9v-0.3H2.4v-0.1
				c0.1-0.4,0.3-0.8,0.8-1C3.5,45.1,3.7,45,4,45h0.3v-0.3L4,44.8L4,44.8z"/>
		</g>
		<g>
			<path class="st4" d="M4.9,48.5v-1.6c0-0.3,0.1-0.5,0.2-0.7c0.2-0.2,0.4-0.3,0.6-0.4c0.1,0,0.2,0,0.3,0c0.4,0,0.7,0.2,0.9,0.5
				C7,46.5,7.1,46.7,7.1,47v1.6H6.7V47c0-0.2-0.1-0.3-0.2-0.5c-0.1-0.1-0.3-0.2-0.5-0.2s-0.3,0.1-0.5,0.2c-0.1,0.1-0.2,0.3-0.2,0.5
				v1.6L4.9,48.5L4.9,48.5z"/>
			<path class="st4" d="M7.3,48.6H6.5V47c0-0.2-0.1-0.3-0.2-0.4c-0.1-0.1-0.2-0.2-0.4-0.2c-0.1,0-0.3,0.1-0.4,0.2
				c-0.1,0.1-0.2,0.2-0.2,0.4v1.7H4.8V47c0-0.3,0.1-0.5,0.3-0.7c0.2-0.2,0.4-0.3,0.7-0.4c0.1,0,0.2,0,0.3,0c0.4,0,0.8,0.2,1,0.5
				c0.1,0.2,0.2,0.4,0.2,0.7V48.6z M6.8,48.4H7V47c0-0.2-0.1-0.4-0.2-0.6C6.6,46.1,6.3,46,6,46c-0.1,0-0.2,0-0.3,0
				c-0.2,0.1-0.4,0.2-0.5,0.3C5.1,46.5,5,46.7,5,46.9v1.5h0.3v-1.5c0-0.2,0.1-0.4,0.2-0.5s0.3-0.2,0.5-0.2s0.4,0.1,0.5,0.2
				c0.1,0.2,0.2,0.3,0.2,0.6v1.4H6.8z"/>
		</g>
		<g>
			<path class="st4" d="M8.8,45.9h0.5l0.8,2l0.8-2h0.5l-0.9,2.4c-0.1,0.2-0.2,0.3-0.4,0.3c-0.1,0-0.2,0-0.2-0.1
				c-0.1,0-0.1-0.1-0.1-0.2L8.8,45.9z"/>
			<path class="st4" d="M10.1,48.7c-0.1,0-0.2,0-0.3-0.1s-0.1-0.1-0.2-0.3l-1-2.6h0.8l0.7,1.8l0.7-1.8h0.8l-1,2.6
				C10.5,48.6,10.4,48.7,10.1,48.7z M9,46l0.9,2.3c0,0.1,0.1,0.1,0.1,0.2c0.1,0,0.1,0.1,0.2,0.1c0.1,0,0.2-0.1,0.3-0.2l0.9-2.3H11
				l-0.9,2.3L9.3,46H9z"/>
		</g>
		<g>
			<path class="st4" d="M11.8,45.3c0-0.1,0-0.1,0.1-0.2C12,45,12,45,12.1,45s0.1,0,0.2,0.1c0.1,0.1,0.1,0.1,0.1,0.2
				c0,0.1,0,0.1-0.1,0.2c-0.1,0.1-0.1,0.1-0.2,0.1c-0.1,0-0.2,0-0.2-0.1C11.8,45.4,11.8,45.4,11.8,45.3z M11.9,48.5v-2.6h0.5v2.6
				H11.9z"/>
			<path class="st4" d="M12.5,48.6h-0.7v-2.9h0.7V48.6z M12,48.4h0.3V46H12V48.4z M12.1,45.7c-0.1,0-0.2,0-0.3-0.1s-0.1-0.2-0.1-0.3
				s0-0.2,0.1-0.3c0.2-0.2,0.4-0.1,0.6,0c0.1,0.1,0.1,0.2,0.1,0.3s0,0.2-0.1,0.3C12.3,45.6,12.2,45.7,12.1,45.7z M12.1,45.1H12
				l-0.1,0.1c0,0.1,0,0.1,0.1,0.1c0.1,0.1,0.2,0.1,0.2,0L12.1,45.1C12.2,45.1,12.2,45.1,12.1,45.1C12.2,45.1,12.2,45.1,12.1,45.1z"
				/>
		</g>
		<g>
			<path class="st4" d="M13.1,48.5v-1.6c0-0.3,0.1-0.5,0.2-0.7c0.2-0.2,0.4-0.3,0.6-0.4c0.1,0,0.2,0,0.3,0c0.4,0,0.7,0.2,0.9,0.5
				c0.1,0.2,0.2,0.4,0.2,0.7v1.6h-0.5V47c0-0.2-0.1-0.3-0.2-0.5c-0.1-0.1-0.3-0.2-0.5-0.2s-0.3,0.1-0.5,0.2
				c-0.1,0.1-0.2,0.3-0.2,0.5v1.6L13.1,48.5L13.1,48.5z"/>
			<path class="st4" d="M15.5,48.6h-0.7V47c0-0.2-0.1-0.3-0.2-0.4c-0.1-0.1-0.2-0.2-0.4-0.2c-0.1,0-0.3,0.1-0.4,0.2
				c-0.1,0.1-0.2,0.2-0.2,0.4v1.7H13V47c0-0.3,0.1-0.5,0.3-0.7s0.4-0.3,0.7-0.4c0.1,0,0.2,0,0.3,0c0.4,0,0.8,0.2,1,0.5
				c0.1,0.2,0.2,0.4,0.2,0.7V48.6z M15,48.4h0.3V47c0-0.2-0.1-0.4-0.2-0.6c-0.2-0.3-0.5-0.4-0.8-0.4c-0.1,0-0.2,0-0.3,0
				c-0.2,0.1-0.4,0.2-0.5,0.3c-0.1,0.2-0.2,0.4-0.2,0.6v1.5h0.3v-1.5c0-0.2,0.1-0.4,0.2-0.5c0.1-0.1,0.3-0.2,0.5-0.2
				s0.4,0.1,0.5,0.2c0.1,0.2,0.2,0.3,0.2,0.6V48.4z"/>
		</g>
		<g>
			<path class="st4" d="M15.8,47.2c0-0.2,0.1-0.5,0.2-0.7c0.1-0.2,0.3-0.4,0.5-0.5s0.4-0.2,0.6-0.2s0.4,0.1,0.7,0.2
				c0.2,0.1,0.4,0.3,0.5,0.5s0.2,0.4,0.2,0.7c0,0.4-0.1,0.7-0.4,1s-0.6,0.4-0.9,0.4c-0.4,0-0.8-0.1-1.1-0.4
				c-0.2-0.2-0.3-0.4-0.4-0.7C15.8,47.4,15.8,47.3,15.8,47.2L15.8,47.2L15.8,47.2z M16.3,47.2c0,0.3,0.1,0.5,0.2,0.7
				c0.2,0.2,0.4,0.3,0.7,0.3c0.4,0,0.6-0.1,0.7-0.4c0.1-0.1,0.1-0.3,0.1-0.6c0-0.2-0.1-0.4-0.2-0.6c-0.2-0.2-0.4-0.2-0.6-0.2
				c-0.4,0-0.6,0.2-0.8,0.5C16.3,46.9,16.3,47,16.3,47.2z"/>
			<path class="st4" d="M17.2,48.7c-0.5,0-0.8-0.1-1.1-0.4c-0.2-0.2-0.3-0.5-0.4-0.8c0-0.1,0-0.2,0-0.3l0,0l0,0
				c0-0.3,0.1-0.5,0.2-0.7s0.3-0.4,0.6-0.5c0.4-0.3,0.9-0.3,1.4,0c0.2,0.1,0.4,0.3,0.6,0.5c0.1,0.2,0.2,0.5,0.2,0.8
				c0,0.4-0.1,0.7-0.4,1C18,48.5,17.6,48.7,17.2,48.7z M15.9,47.2c0,0.1,0,0.2,0,0.2c0.1,0.3,0.2,0.5,0.4,0.7c0.3,0.3,0.6,0.4,1,0.4
				c0.3,0,0.6-0.1,0.8-0.4c0.2-0.3,0.3-0.6,0.3-0.9c0-0.2-0.1-0.5-0.2-0.6c-0.1-0.2-0.3-0.3-0.5-0.4c-0.4-0.2-0.8-0.2-1.2,0
				c-0.2,0.1-0.4,0.3-0.5,0.4C15.9,46.7,15.9,46.9,15.9,47.2L15.9,47.2z M17.2,48.2c-0.3,0-0.6-0.1-0.8-0.3
				c-0.2-0.2-0.3-0.4-0.3-0.8c0-0.2,0-0.3,0.1-0.5c0.2-0.4,0.5-0.5,0.9-0.5c0.3,0,0.5,0.1,0.7,0.3s0.3,0.4,0.3,0.7
				c0,0.2,0,0.4-0.1,0.6C17.8,48.1,17.6,48.2,17.2,48.2z M17.1,46.4c-0.3,0-0.5,0.1-0.7,0.4c-0.1,0.1-0.1,0.2-0.1,0.4
				c0,0.3,0.1,0.5,0.2,0.6c0.1,0.2,0.3,0.2,0.6,0.2c0.3,0,0.5-0.1,0.6-0.4c0.1-0.1,0.1-0.3,0.1-0.5s-0.1-0.4-0.2-0.5
				C17.5,46.5,17.4,46.4,17.1,46.4z"/>
		</g>
		<g>
			<path class="st4" d="M18.8,48.1h1.3l0,0c0.2,0,0.3-0.1,0.3-0.2c0-0.1-0.1-0.2-0.3-0.3c-0.1,0-0.2-0.1-0.4-0.1l-0.3-0.1
				c-0.2-0.1-0.4-0.2-0.6-0.3c-0.1-0.1-0.2-0.3-0.2-0.5c0-0.5,0.3-0.7,0.9-0.7h1.1v0.5h-1.2c-0.2,0-0.3,0.1-0.3,0.2
				c0,0.1,0,0.1,0.1,0.2c0.1,0.1,0.2,0.1,0.4,0.2l0.3,0.1c0.3,0.1,0.5,0.2,0.7,0.3c0.1,0.1,0.2,0.3,0.2,0.5c0,0.5-0.3,0.7-0.9,0.7
				h-1.3v-0.5H18.8z"/>
			<path class="st4" d="M20.2,48.6h-1.4V48h1.4c0,0,0,0,0.1,0c0.2,0,0.2-0.1,0.2-0.1c0-0.1-0.1-0.1-0.2-0.2c-0.1,0-0.2-0.1-0.4-0.1
				l-0.3-0.1c-0.2-0.1-0.5-0.2-0.6-0.3s-0.2-0.3-0.2-0.5c0-0.4,0.2-0.8,1-0.8H21v0.7h-1.3c-0.2,0-0.2,0.1-0.2,0.1s0,0,0,0.1
				c0.1,0.1,0.2,0.1,0.4,0.2l0.3,0.1c0.3,0.1,0.5,0.2,0.7,0.4s0.2,0.4,0.2,0.6C21.1,48.2,21,48.6,20.2,48.6z M19,48.4h1.2
				c0.7,0,0.7-0.3,0.7-0.6c0-0.2-0.1-0.3-0.2-0.4c-0.1-0.1-0.3-0.2-0.6-0.3L19.8,47c-0.2-0.1-0.4-0.1-0.5-0.2
				c-0.1-0.1-0.1-0.1-0.1-0.2c0-0.1,0-0.4,0.4-0.4h1.1V46h-1C19,46,19,46.3,19,46.6c0,0.2,0,0.3,0.2,0.4c0.1,0.1,0.3,0.2,0.5,0.3
				l0.3,0.1c0.2,0.1,0.3,0.1,0.4,0.1c0.2,0.1,0.3,0.2,0.3,0.4c0,0.1-0.1,0.3-0.4,0.3l0,0l0,0h-1.2L19,48.4L19,48.4z"/>
		</g>
		<g>
			<path class="st4" d="M22.9,45.9h0.5v1.6c0,0.4,0.2,0.7,0.6,0.7c0.2,0,0.3-0.1,0.4-0.2c0.1-0.1,0.2-0.3,0.2-0.5v-1.6h0.5v1.6
				c0,0.6-0.3,1-0.9,1.1v1.1h-0.5v-1.1c-0.2,0-0.3-0.1-0.4-0.2c-0.3-0.2-0.4-0.5-0.4-0.8C22.9,47.6,22.9,45.9,22.9,45.9z"/>
			<path class="st4" d="M24.4,49.8h-0.7v-1.2c-0.1,0-0.3-0.1-0.4-0.2c-0.3-0.2-0.5-0.5-0.5-0.9v-1.8h0.7v1.7c0,0.4,0.2,0.5,0.5,0.5
				c0.2,0,0.3,0,0.4-0.1s0.1-0.2,0.1-0.4v-1.7h0.7v1.7c0,0.6-0.3,1-0.9,1.2L24.4,49.8L24.4,49.8z M23.9,49.6h0.3v-1.1h0.1
				c0.5-0.1,0.8-0.5,0.8-1V46h-0.3v1.5c0,0.2-0.1,0.4-0.2,0.5s-0.3,0.2-0.5,0.2c-0.3,0-0.7-0.1-0.7-0.8V46H23v1.6
				c0,0.3,0.1,0.5,0.4,0.7c0.1,0.1,0.2,0.1,0.4,0.2h0.1V49.6z"/>
		</g>
		<g>
			<path class="st4" d="M27.3,44.7h0.5v2.5c0,0.2,0,0.3,0.1,0.5c0.1,0.3,0.3,0.4,0.7,0.4h0.5v0.5h-0.6c-0.4,0-0.7-0.2-1-0.5
				c-0.1-0.2-0.2-0.4-0.2-0.7V44.7z"/>
			<path class="st4" d="M29.2,48.6h-0.7c-0.4,0-0.8-0.2-1-0.5c-0.2-0.2-0.2-0.5-0.2-0.7v-2.8H28v2.6c0,0.2,0,0.3,0.1,0.4
				c0.1,0.2,0.3,0.3,0.6,0.3h0.6v0.7H29.2z M27.4,44.8v2.6c0,0.2,0.1,0.4,0.2,0.6c0.2,0.3,0.5,0.4,0.9,0.4H29v-0.3h-0.4
				c-0.4,0-0.7-0.2-0.8-0.5c-0.1-0.2-0.1-0.3-0.1-0.5v-2.4h-0.3V44.8z"/>
		</g>
		<g>
			<path class="st4" d="M29.5,45.3c0-0.1,0-0.1,0.1-0.2c0.1-0.1,0.1-0.1,0.2-0.1s0.1,0,0.2,0.1s0.1,0.1,0.1,0.2c0,0.1,0,0.1-0.1,0.2
				c-0.1,0.1-0.1,0.1-0.2,0.1s-0.2,0-0.2-0.1S29.5,45.4,29.5,45.3z M29.6,48.5v-2.6h0.5v2.6H29.6z"/>
			<path class="st4" d="M30.2,48.6h-0.7v-2.9h0.7V48.6z M29.7,48.4H30V46h-0.3V48.4z M29.8,45.7c-0.1,0-0.2,0-0.3-0.1
				c-0.1-0.1-0.1-0.2-0.1-0.3s0-0.2,0.1-0.3c0.2-0.2,0.4-0.1,0.6,0c0.1,0.1,0.1,0.2,0.1,0.3s0,0.2-0.1,0.3
				C30,45.6,29.9,45.7,29.8,45.7z M29.8,45.1h-0.1l-0.1,0.1c0,0.1,0,0.1,0.1,0.1c0.1,0.1,0.2,0.1,0.2,0v-0.1
				C29.9,45.1,29.9,45.1,29.8,45.1C29.9,45.1,29.9,45.1,29.8,45.1z"/>
		</g>
		<g>
			<path class="st4" d="M30.8,47.2c0-0.3,0.1-0.7,0.4-0.9c0.3-0.3,0.6-0.4,1-0.4h0.5v0.5h-0.4c-0.3,0-0.5,0.1-0.7,0.4
				c-0.1,0.1-0.1,0.3-0.1,0.5c0,0.3,0.1,0.5,0.4,0.7c0.1,0.1,0.3,0.1,0.5,0.1h0.4v0.5h-0.5c-0.3,0-0.5-0.1-0.7-0.2
				c-0.2-0.1-0.3-0.3-0.4-0.5C30.9,47.6,30.8,47.4,30.8,47.2z"/>
			<path class="st4" d="M32.7,48.6h-0.6c-0.3,0-0.5-0.1-0.8-0.2c-0.2-0.2-0.4-0.3-0.5-0.5s-0.2-0.4-0.2-0.6c0-0.4,0.1-0.7,0.4-1
				s0.6-0.5,1-0.5h0.6v0.7h-0.5c-0.3,0-0.5,0.1-0.6,0.3c-0.1,0.1-0.1,0.3-0.1,0.4c0,0.3,0.1,0.5,0.3,0.6c0.1,0.1,0.3,0.1,0.4,0.1
				h0.5v0.7H32.7z M32.1,46c-0.4,0-0.6,0.1-0.9,0.4c-0.2,0.2-0.3,0.5-0.3,0.8c0,0.2,0,0.3,0.1,0.5s0.2,0.3,0.4,0.5
				c0.2,0.1,0.4,0.2,0.7,0.2h0.4v-0.2h-0.3c-0.2,0-0.4-0.1-0.5-0.1c-0.3-0.2-0.5-0.5-0.5-0.8c0-0.2,0.1-0.4,0.2-0.6
				c0.2-0.3,0.5-0.4,0.8-0.4h0.3V46H32.1z"/>
		</g>
		<g>
			<path class="st4" d="M32.9,47.2c0-0.2,0.1-0.5,0.2-0.7c0.1-0.2,0.3-0.4,0.5-0.5s0.4-0.2,0.6-0.2c0.2,0,0.4,0.1,0.7,0.2
				c0.2,0.1,0.4,0.3,0.5,0.5s0.2,0.4,0.2,0.7c0,0.4-0.1,0.7-0.4,1c-0.3,0.3-0.6,0.4-0.9,0.4c-0.4,0-0.8-0.1-1.1-0.4
				c-0.2-0.2-0.3-0.4-0.4-0.7C32.9,47.4,32.9,47.3,32.9,47.2L32.9,47.2L32.9,47.2z M33.4,47.2c0,0.3,0.1,0.5,0.2,0.7
				c0.2,0.2,0.4,0.3,0.7,0.3c0.4,0,0.6-0.1,0.7-0.4c0.1-0.1,0.1-0.3,0.1-0.6c0-0.2-0.1-0.4-0.2-0.6c-0.2-0.2-0.4-0.2-0.6-0.2
				c-0.4,0-0.6,0.2-0.8,0.5C33.4,46.9,33.4,47,33.4,47.2z"/>
			<path class="st4" d="M34.3,48.7c-0.5,0-0.8-0.1-1.1-0.4c-0.2-0.2-0.3-0.5-0.4-0.8c0-0.1,0-0.2,0-0.3l0,0l0,0
				c0-0.3,0.1-0.5,0.2-0.7c0.1-0.2,0.3-0.4,0.6-0.5c0.4-0.3,0.9-0.3,1.4,0c0.2,0.1,0.4,0.3,0.6,0.5c0.1,0.2,0.2,0.5,0.2,0.8
				c0,0.4-0.1,0.7-0.4,1C35.1,48.5,34.7,48.7,34.3,48.7z M33,47.2c0,0.1,0,0.2,0,0.2c0.1,0.3,0.2,0.5,0.4,0.7c0.3,0.3,0.6,0.4,1,0.4
				c0.3,0,0.6-0.1,0.8-0.4c0.2-0.3,0.3-0.6,0.3-0.9c0-0.2-0.1-0.5-0.2-0.6c-0.1-0.2-0.3-0.3-0.5-0.4c-0.4-0.2-0.8-0.2-1.2,0
				c-0.2,0.1-0.4,0.3-0.5,0.4C33.1,46.7,33,46.9,33,47.2L33,47.2z M34.3,48.2c-0.3,0-0.6-0.1-0.8-0.3s-0.3-0.4-0.3-0.8
				c0-0.2,0-0.3,0.1-0.5c0.2-0.3,0.5-0.5,0.9-0.5c0.3,0,0.5,0.1,0.7,0.3s0.3,0.4,0.3,0.7c0,0.2,0,0.4-0.1,0.6
				C35,48.1,34.7,48.2,34.3,48.2z M34.3,46.4c-0.3,0-0.5,0.1-0.7,0.4c-0.1,0.1-0.1,0.2-0.1,0.4c0,0.3,0.1,0.5,0.2,0.6
				C33.8,48,34,48,34.3,48s0.5-0.1,0.6-0.4c0.1-0.1,0.1-0.3,0.1-0.5s-0.1-0.4-0.2-0.5C34.7,46.5,34.5,46.4,34.3,46.4z"/>
		</g>
		<g>
			<path class="st4" d="M36,45.9h0.5v0.3c0.1-0.2,0.4-0.4,0.7-0.4h0.2v0.5h-0.1c-0.2,0-0.4,0.1-0.5,0.3c-0.1,0.1-0.1,0.2-0.1,0.3
				s0,0.2,0,0.3v1.4H36V45.9z"/>
			<path class="st4" d="M36.6,48.6h-0.7v-2.9h0.7v0.1c0.1-0.1,0.3-0.2,0.6-0.2h0.3v0.7h-0.2c-0.2,0-0.3,0.1-0.4,0.2
				c-0.1,0.1-0.1,0.2-0.1,0.3s0,0.2,0,0.3v1.5H36.6z M36.2,48.4h0.3v-1.3c0-0.1,0-0.2,0-0.3s0.1-0.2,0.1-0.3
				c0.1-0.2,0.3-0.3,0.6-0.3l0,0V46l0,0c-0.3,0-0.5,0.1-0.6,0.3l-0.2,0.4V46h-0.2C36.2,46,36.2,48.4,36.2,48.4z"/>
		</g>
		<g>
			<path class="st4" d="M38.1,47.3l1.3-0.7c-0.1-0.1-0.1-0.1-0.2-0.2c-0.1,0-0.1-0.1-0.3-0.1h-0.1c-0.3,0-0.6,0.2-0.7,0.5
				C38,46.9,38,47.1,38.1,47.3c-0.1,0-0.1,0.2,0,0.3c0.2,0.3,0.4,0.4,0.8,0.4c0.3,0,0.5-0.1,0.6-0.2c0.1-0.1,0.2-0.3,0.3-0.6
				l0.5,0.1c0,0.1,0,0.2-0.1,0.3v0.1c-0.1,0.3-0.4,0.6-0.7,0.7c-0.1,0-0.2,0.1-0.3,0.1s-0.2,0-0.3,0c-0.2,0-0.5-0.1-0.7-0.2
				c-0.2-0.1-0.4-0.3-0.5-0.5s-0.2-0.4-0.2-0.7c0-0.5,0.1-0.8,0.4-1.1c0.3-0.2,0.6-0.4,0.9-0.4c0.6,0,1,0.3,1.3,0.8l-1.8,1
				L38.1,47.3z"/>
			<path class="st4" d="M38.8,48.7c-0.3,0-0.5-0.1-0.7-0.2c-0.2-0.1-0.4-0.3-0.5-0.5s-0.2-0.5-0.2-0.7c0-0.5,0.2-0.9,0.5-1.2
				s0.6-0.4,1-0.4c0.6,0,1.1,0.3,1.4,0.9l0.1,0.1l-2,1.1c0.1,0.1,0.3,0.2,0.5,0.2s0.4-0.1,0.5-0.2c0.1-0.1,0.2-0.3,0.2-0.6v-0.1
				l0.7,0.1v0.1c0,0.1,0,0.2-0.1,0.3v0.1c-0.1,0.3-0.4,0.6-0.8,0.8c-0.1,0-0.2,0.1-0.3,0.1C39.1,48.7,39,48.7,38.8,48.7z M38.8,45.9
				c-0.3,0-0.6,0.1-0.8,0.3c-0.3,0.2-0.4,0.6-0.4,1c0,0.2,0.1,0.4,0.2,0.6c0.1,0.2,0.3,0.3,0.5,0.4c0.2,0.1,0.4,0.2,0.6,0.2
				c0.1,0,0.2,0,0.3,0s0.2-0.1,0.3-0.1c0.3-0.1,0.5-0.4,0.7-0.7v-0.1c0-0.1,0-0.1,0-0.2h-0.3c-0.1,0.2-0.2,0.4-0.3,0.6
				c-0.2,0.2-0.4,0.3-0.7,0.3c-0.4,0-0.7-0.2-0.9-0.5c-0.1-0.2-0.1-0.3-0.1-0.5s0-0.4,0.1-0.5c0.2-0.4,0.5-0.5,0.9-0.5H39
				c0.1,0,0.2,0,0.3,0.1s0.2,0.1,0.3,0.2l0.1,0.1l-1.3,0.7l0.1,0.2l1.6-0.9C39.7,46.2,39.3,45.9,38.8,45.9z M38.8,46.4
				c-0.3,0-0.5,0.1-0.6,0.4c0,0.1-0.1,0.2-0.1,0.3l1.2-0.6c0,0-0.1,0-0.1-0.1c0,0-0.1,0-0.2,0C38.9,46.4,38.9,46.4,38.8,46.4z"/>
		</g>
		<g>
			<path class="st4" d="M40.5,48.1h1.3l0,0c0.2,0,0.3-0.1,0.3-0.2c0-0.1-0.1-0.2-0.3-0.3c-0.1,0-0.2-0.1-0.4-0.1l-0.3-0.1
				c-0.2-0.1-0.4-0.2-0.6-0.3c-0.1-0.1-0.2-0.3-0.2-0.5c0-0.5,0.3-0.7,0.9-0.7h1.1v0.5h-1.2c-0.2,0-0.3,0.1-0.3,0.2
				c0,0.1,0,0.1,0.1,0.2c0.1,0.1,0.2,0.1,0.4,0.2l0.3,0.1c0.3,0.1,0.5,0.2,0.7,0.3c0.1,0.1,0.2,0.3,0.2,0.5c0,0.5-0.3,0.7-0.9,0.7
				h-1.3v-0.5H40.5z"/>
			<path class="st4" d="M41.9,48.6h-1.4V48h1.4c0,0,0,0,0.1,0c0.2,0,0.2-0.1,0.2-0.1c0-0.1-0.1-0.1-0.2-0.2c-0.1,0-0.2-0.1-0.4-0.1
				l-0.3-0.1c-0.2-0.1-0.5-0.2-0.6-0.3s-0.2-0.3-0.2-0.5c0-0.4,0.2-0.8,1-0.8h1.2v0.7h-1.3c-0.2,0-0.2,0.1-0.2,0.1s0,0,0,0.1
				c0.1,0.1,0.2,0.1,0.4,0.2l0.3,0.1c0.3,0.1,0.5,0.2,0.7,0.4s0.2,0.4,0.2,0.6C42.8,48.2,42.7,48.6,41.9,48.6z M40.7,48.4h1.2
				c0.7,0,0.7-0.3,0.7-0.6c0-0.2-0.1-0.3-0.2-0.4c-0.1-0.1-0.3-0.2-0.6-0.3L41.5,47c-0.2-0.1-0.4-0.1-0.5-0.2
				c-0.1-0.1-0.1-0.1-0.1-0.2c0-0.1,0-0.4,0.4-0.4h1.1V46h-1c-0.7,0-0.8,0.3-0.8,0.6c0,0.2,0,0.3,0.2,0.4c0.1,0.1,0.3,0.2,0.5,0.3
				l0.3,0.1c0.2,0.1,0.3,0.1,0.4,0.1c0.2,0.1,0.3,0.2,0.3,0.4c0,0.1-0.1,0.3-0.4,0.3l0,0l0,0h-1.2V48.4z"/>
		</g>
		<g>
			<path class="st4" d="M43.2,49.1l0.2-1.1h0.5l-0.3,1.1H43.2z"/>
			<path class="st4" d="M43.7,49.2H43l0.3-1.3h0.8L43.7,49.2z M43.3,49h0.2l0.2-0.9h-0.3L43.3,49z"/>
		</g>
		<g>
			<path class="st4" d="M45.9,45.2v-0.5h2.4v0.5h-1v3.4h-0.5v-3.4H45.9z"/>
			<path class="st4" d="M47.5,48.6h-0.7v-3.4h-1v-0.7h2.7v0.7h-1V48.6z M47,48.4h0.3V45h1v-0.3H46V45h1V48.4z"/>
		</g>
		<g>
			<path class="st4" d="M48.6,44.7h0.5v2.6c0,0.3,0.1,0.5,0.2,0.6c0.1,0.2,0.3,0.3,0.6,0.3s0.5-0.1,0.7-0.4c0.1-0.1,0.1-0.3,0.1-0.4
				v-2.6h0.5v2.6c0,0.6-0.2,1-0.6,1.2c-0.1,0.1-0.3,0.1-0.5,0.2c-0.1,0-0.1,0-0.2,0c-0.3,0-0.6-0.1-0.9-0.4
				c-0.2-0.2-0.4-0.6-0.4-0.9C48.6,47.5,48.6,44.7,48.6,44.7z"/>
			<path class="st4" d="M49.8,48.7c-0.4,0-0.7-0.1-1-0.4c-0.3-0.3-0.4-0.6-0.4-1v-2.7h0.7v2.7c0,0.2,0.1,0.4,0.2,0.6
				c0.1,0.1,0.3,0.2,0.5,0.2c0.3,0,0.4-0.1,0.6-0.4c0.1-0.1,0.1-0.2,0.1-0.3v-2.7h0.7v2.7c0,0.6-0.2,1-0.7,1.3
				c-0.2,0.1-0.3,0.1-0.5,0.2C50,48.7,49.9,48.7,49.8,48.7z M48.7,44.8v2.5c0,0.4,0.1,0.6,0.3,0.9c0.2,0.2,0.5,0.3,0.8,0.3
				c0.1,0,0.1,0,0.2,0c0.2,0,0.3-0.1,0.4-0.1c0.4-0.2,0.6-0.6,0.6-1.1v-2.4h-0.3v2.5c0,0.2,0,0.3-0.1,0.4c-0.2,0.3-0.4,0.5-0.8,0.5
				c-0.3,0-0.5-0.1-0.7-0.3C49,47.7,49,47.5,49,47.2v-2.4H48.7z"/>
		</g>
		<g>
			<path class="st4" d="M53.1,46.6c0-0.5,0.2-1,0.6-1.4c0.4-0.3,0.8-0.5,1.3-0.5h0.5v0.5h-0.4c-0.3,0-0.6,0.1-0.8,0.2
				c-0.4,0.3-0.7,0.7-0.7,1.2s0.2,0.9,0.6,1.2c0.2,0.2,0.5,0.2,0.9,0.2h0.4v0.5H55c-0.4,0-0.7-0.1-1-0.2c-0.3-0.2-0.5-0.4-0.7-0.7
				C53.2,47.3,53.1,46.9,53.1,46.6z"/>
			<path class="st4" d="M55.6,48.6H55c-0.4,0-0.7-0.1-1-0.3s-0.6-0.4-0.7-0.8c-0.2-0.3-0.3-0.7-0.3-1c0-0.6,0.2-1.1,0.7-1.5
				c0.4-0.4,0.9-0.5,1.4-0.5h0.6v0.7h-0.5c-0.3,0-0.5,0.1-0.8,0.2c-0.4,0.3-0.6,0.6-0.6,1.1s0.2,0.8,0.5,1.1
				c0.2,0.1,0.5,0.2,0.8,0.2h0.5C55.6,47.8,55.6,48.6,55.6,48.6z M55,44.8c-0.4,0-0.8,0.2-1.2,0.5c-0.4,0.4-0.6,0.8-0.6,1.3
				c0,0.3,0.1,0.7,0.2,0.9c0.2,0.3,0.4,0.5,0.7,0.7s0.6,0.2,0.9,0.2h0.4v-0.3h-0.3c-0.4,0-0.7-0.1-1-0.3c-0.4-0.3-0.6-0.7-0.6-1.3
				s0.2-1,0.7-1.3c0.3-0.2,0.6-0.3,0.9-0.3h0.3v-0.3H55V44.8z"/>
		</g>
		<g>
			<path class="st4" d="M55.9,48.5v-2.6c0-0.2,0.1-0.5,0.2-0.7c0.2-0.4,0.6-0.7,1.1-0.7s0.9,0.2,1.2,0.7c0.1,0.2,0.2,0.5,0.2,0.8
				v2.4H58v-1.8h-1.4v-0.5H58V46c0-0.2,0-0.4-0.1-0.6c-0.1-0.3-0.4-0.5-0.7-0.5l0,0c-0.4,0-0.6,0.2-0.7,0.5c0,0.1-0.1,0.3-0.1,0.4
				v2.6L55.9,48.5L55.9,48.5z"/>
			<path class="st4" d="M58.6,48.6h-0.7v-1.8h-1.4v1.8h-0.8v-2.7c0-0.3,0.1-0.5,0.2-0.8c0.3-0.5,0.7-0.7,1.2-0.7
				c0.6,0,1,0.3,1.3,0.7c0.1,0.2,0.2,0.5,0.2,0.8V48.6z M58.1,48.4h0.3v-2.3c0-0.3-0.1-0.5-0.2-0.7c-0.2-0.4-0.6-0.6-1.1-0.6
				c-0.4,0-0.8,0.2-1,0.6c0,0.1-0.1,0.3-0.1,0.6v2.4h0.3V46c0-0.1,0-0.3,0.1-0.4c0.1-0.4,0.4-0.6,0.8-0.6c0.4,0,0.7,0.2,0.8,0.5
				c0.1,0.2,0.1,0.4,0.1,0.6v0.2h-1.4v0.3h1.4C58.1,46.6,58.1,48.4,58.1,48.4z M56.5,46.2h1.4l0,0c0-0.2,0-0.4-0.1-0.5
				c-0.1-0.3-0.3-0.4-0.6-0.4s-0.5,0.1-0.6,0.4c0,0.1-0.1,0.2-0.1,0.3C56.5,46,56.5,46.2,56.5,46.2z"/>
		</g>
		<g>
			<path class="st4" d="M58.8,48h1.4c0.4,0,0.6-0.1,0.6-0.4c0-0.3-0.2-0.5-0.5-0.7l-0.5-0.3c-0.4-0.2-0.6-0.4-0.8-0.6
				c-0.1-0.1-0.1-0.3-0.1-0.5c0-0.4,0.2-0.7,0.5-0.8c0.2-0.1,0.3-0.1,0.4-0.1h1.3v0.5h-1.3c-0.1,0-0.2,0-0.3,0.1s-0.1,0.2-0.1,0.3
				s0.1,0.3,0.2,0.3c0.2,0.1,0.4,0.3,0.7,0.4c0.1,0,0.2,0.1,0.3,0.2c0.5,0.3,0.7,0.6,0.7,1c0,0.2,0,0.3-0.1,0.5
				c-0.2,0.4-0.5,0.5-1,0.5h-1.4C58.8,48.4,58.8,48,58.8,48z"/>
			<path class="st4" d="M60.2,48.6h-1.5v-0.7h1.5c0.4,0,0.5-0.2,0.5-0.3c0-0.2-0.2-0.4-0.5-0.6l-0.5-0.3c-0.4-0.2-0.7-0.4-0.8-0.6
				c-0.1-0.1-0.1-0.3-0.1-0.5c0-0.4,0.2-0.8,0.6-0.9c0.2-0.1,0.3-0.1,0.5-0.1h1.4v0.7h-1.4c-0.1,0-0.2,0-0.3,0.1s-0.1,0.1-0.1,0.2
				c0,0.1,0,0.2,0.1,0.2c0.2,0.1,0.4,0.3,0.7,0.4c0.1,0,0.2,0.1,0.3,0.2c0.5,0.3,0.8,0.7,0.8,1.1c0,0.2,0,0.3-0.1,0.5
				C61.2,48.4,60.8,48.6,60.2,48.6z M59,48.4h1.3c0.5,0,0.7-0.2,0.9-0.5c0.1-0.1,0.1-0.3,0.1-0.4c0-0.4-0.2-0.7-0.6-0.9
				c-0.1-0.1-0.2-0.1-0.3-0.2c-0.3-0.1-0.6-0.3-0.8-0.4c-0.2-0.1-0.2-0.3-0.2-0.4c0-0.2,0.1-0.3,0.2-0.4c0.1-0.1,0.2-0.2,0.4-0.2
				h1.2v-0.3H60c-0.1,0-0.3,0-0.4,0.1C59.1,45,59,45.3,59,45.6c0,0.1,0,0.3,0.1,0.4c0.1,0.2,0.4,0.4,0.7,0.6l0.5,0.3
				c0.4,0.2,0.6,0.5,0.6,0.8s-0.2,0.5-0.7,0.5H59V48.4z"/>
		</g>
		<g>
			<path class="st4" d="M61.7,48.5v-2.6c0-0.2,0.1-0.5,0.2-0.7c0.2-0.4,0.6-0.7,1.1-0.7s0.9,0.2,1.2,0.7c0.1,0.2,0.2,0.5,0.2,0.8
				v2.4h-0.5v-1.8h-1.4v-0.5h1.4V46c0-0.2,0-0.4-0.1-0.6c-0.1-0.3-0.4-0.5-0.7-0.5l0,0c-0.4,0-0.6,0.2-0.7,0.5
				c0,0.1-0.1,0.3-0.1,0.4v2.6L61.7,48.5L61.7,48.5z"/>
			<path class="st4" d="M64.4,48.6h-0.7v-1.8h-1.4v1.8h-0.8v-2.7c0-0.3,0.1-0.5,0.2-0.8c0.3-0.5,0.7-0.7,1.2-0.7
				c0.6,0,1,0.3,1.3,0.7c0.1,0.2,0.2,0.5,0.2,0.8V48.6z M63.9,48.4h0.3v-2.3c0-0.3-0.1-0.5-0.2-0.7c-0.2-0.4-0.6-0.6-1.1-0.6
				c-0.4,0-0.8,0.2-1,0.6c-0.1,0.2-0.2,0.4-0.2,0.6v2.4H62V46c0-0.1,0-0.3,0.1-0.4c0.1-0.4,0.4-0.6,0.8-0.6c0.4,0,0.7,0.2,0.8,0.5
				c0.1,0.2,0.1,0.4,0.1,0.6v0.2h-1.4v0.3h1.4L63.9,48.4L63.9,48.4z M62.3,46.2h1.4l0,0c0-0.2,0-0.4-0.1-0.5
				c-0.1-0.3-0.3-0.4-0.6-0.4s-0.5,0.1-0.6,0.4c0,0.1-0.1,0.2-0.1,0.3C62.3,46,62.3,46.2,62.3,46.2z"/>
		</g>
	</g>
	<g>
		<path class="st1" d="M80.5,53.2c0,0,2.4-0.3,2.8-0.8c0,0,0.4,0.2-0.1,0.7c0,0,1.8,0.8,2,1.8c0,0-0.6-0.2-0.9-0.2
			c-0.1,0-0.1,0-0.2,0c0,0,0.6,1.2,0.6,1.6L84,56.5c0,0-0.1,0.5-0.2,0.7c0,0-0.2-0.2-0.4-0.2c0,0-0.2,1.7-0.6,1.8
			c0,0-1.2-0.8-1.5-0.9c0,0-0.1,1.3-0.4,1.4c0,0,0-0.5-0.2-0.5c0,0-0.9,1.9-1.4,2.2c0,0-0.3-1-0.6-1.1c0,0-1.6,1.8-2.1,1.8
			c0,0,0.1-0.4-0.2-0.7c0,0-1,0.9-1.3,0.8c0,0-0.2-0.8-0.4-0.8c0,0-0.5,0.6-0.9,0.6c0,0-0.8,0.7-1,1.2c0,0-1.8-1.9-0.1-4.4
			c0,0,0.3-0.5-0.6-0.2L72,57.8c0,0-1,0.4-1.4,0.7c0,0,0-1.2,0.3-1.3c0,0-1.1,0-1.4-0.2c0,0,0.1-0.5,0.2-0.6h-0.1c0,0-0.5-0.1-1,0.2
			c0,0-0.1-0.5,0.2-0.5c0,0-0.6,0.1-0.9,0.3c0,0-0.2-0.5,0.1-0.9c0,0-0.8-0.2-1.2,0c0,0-0.3-0.5,0.1-0.7c0,0-0.8-0.6-1.4-0.5
			c0,0,1-1.3,1.6-1.5c0,0,0.1-0.3-0.2-0.4c0,0,0.6-0.4,0.9-0.3c0.3,0,0.3,0,0.3,0s-0.4-0.7-0.5-0.7c0,0,1.3-0.6,1.8-0.4
			c0,0,0.1-0.6-0.2-0.8c0,0,1.8-0.5,2.1-0.2c0.3,0.3,0-0.1,0-0.1s0-0.7-0.3-1c0,0,2.4-0.3,3,1.3c0,0,0.4-1,0-1.5
			c0,0,1.1-0.9,1.1-1.4s0.1,0,0.1,0s1.1,0.7,2.3,0.8c0,0,1-0.3,1-0.7c0,0,0,0.4,0.1,0.7c0,0,1-0.8,1.1-1.1c0,0,0,0.6,0.3,1
			c0,0,0.9-0.5,0.9-0.8c0,0,0.2,0.8,0.4,0.9c0,0,0.8-0.1,1-0.5C82.1,47.3,83.1,51.6,80.5,53.2z"/>
		<path class="st2" d="M72.9,63.4L72.5,63c0,0-1.9-2-0.3-4.6c0,0,0,0-0.1,0l-0.3,0.1l-0.1-0.3c-0.3,0.1-0.8,0.3-1,0.5l-0.6,0.4v-0.7
			c0-0.3,0-0.7,0.1-1c-0.4,0-0.8-0.1-1.1-0.2l-0.2-0.1v-0.2v-0.1c-0.1,0-0.3,0-0.4,0.1L68.4,57l-0.1-0.4c0-0.1,0-0.1,0-0.2
			c-0.1,0-0.1,0.1-0.2,0.1l-0.3,0.3l-0.2-0.4c-0.1-0.2-0.1-0.5-0.1-0.7c-0.2,0-0.5,0-0.5,0l-0.3,0.1l-0.2-0.3
			c-0.1-0.2-0.2-0.5-0.1-0.8c-0.3-0.2-0.6-0.3-0.9-0.3l-0.8,0.1l0.5-0.6c0.1-0.1,0.8-1,1.4-1.4l-0.5-0.2l0.6-0.3
			c0.1-0.1,0.4-0.2,0.7-0.3c0-0.1-0.1-0.1-0.1-0.1l-0.7-0.2l0.7-0.4c0.3-0.1,1-0.5,1.6-0.5c0-0.1,0-0.1,0-0.1L68.2,50l0.8-0.2
			c0.6-0.2,1.3-0.3,1.8-0.3c0-0.2-0.1-0.3-0.2-0.4L70,48.4l0.6-0.1c0.1,0,1.9-0.2,2.9,0.8c0-0.2,0-0.3-0.1-0.4l-0.2-0.3l0.3-0.2
			c0.5-0.4,1-1,1-1.2s0-0.5,0.3-0.6s0.4,0.1,0.5,0.3c0.3,0.2,1.1,0.6,2,0.7c0.3-0.1,0.7-0.3,0.7-0.4c0,0,0,0,0,0.1h0.7l0,0
			c0.3-0.2,0.5-0.4,0.5-0.5l0.7,0.1c0,0.1,0,0.3,0.1,0.5c0.2-0.2,0.4-0.3,0.5-0.4l0,0h0.7c0,0.2,0.1,0.5,0.2,0.6
			c0.2,0,0.5-0.1,0.6-0.3l0.4-0.9l0.2,0.9c0,0.2,0.8,3.5-0.8,5.5c0.7-0.1,1.4-0.3,1.5-0.5l0.2-0.2l0.2,0.1c0.1,0.1,0.3,0.3,0.3,0.5
			c0,0.1,0,0.3-0.1,0.4c0.6,0.3,1.6,1,1.8,1.8l0.2,0.6l-0.6-0.2c-0.1,0-0.2-0.1-0.4-0.1c0.2,0.4,0.4,0.9,0.4,1.2v0.3l-1,0.2
			c0,0.2-0.1,0.4-0.2,0.6l-0.2,0.5l-0.3-0.3c-0.2,1.4-0.6,1.5-0.7,1.6h-0.2L82.6,59c-0.3-0.2-0.7-0.5-1-0.7
			c-0.1,0.6-0.2,1.1-0.6,1.2l-0.4,0.1l0,0c-0.3,0.6-0.8,1.3-1.1,1.5L79,61.5l-0.1-0.4c-0.1-0.3-0.2-0.5-0.3-0.7
			C78,61.1,77.1,62,76.5,62l0,0h-0.4l0.1-0.4l0,0c-0.4,0.4-0.9,0.7-1.2,0.6h-0.2V62c0-0.1-0.1-0.2-0.1-0.3c-0.2,0.2-0.4,0.3-0.7,0.4
			c-0.2,0.2-0.7,0.7-0.8,1L72.9,63.4z M72.4,57.7c0.2,0,0.4,0,0.5,0.2c0.2,0.2,0.1,0.4,0,0.6l0,0c-1.2,1.7-0.6,3-0.2,3.6
			c0.3-0.4,0.7-0.8,0.8-0.8l0.1-0.1h0.1c0.1,0,0.4-0.2,0.6-0.5l0.1-0.1h0.2c0.3,0,0.5,0.3,0.6,0.7c0.2-0.1,0.6-0.4,0.8-0.7l0.3-0.2
			l0.2,0.3c0.1,0.1,0.2,0.3,0.2,0.4c0.4-0.3,1-0.9,1.5-1.5l0.2-0.2l0.2,0.1c0.3,0.1,0.5,0.5,0.7,0.8c0.3-0.4,0.6-1,1-1.7l0.1-0.3
			l0.3,0.1c0,0,0.1,0,0.1,0.1c0-0.2,0.1-0.4,0.1-0.6v-0.4l0.4,0.1c0.3,0.1,1,0.5,1.4,0.8c0.1-0.3,0.2-0.9,0.3-1.4v-0.3h0.3
			c0.1,0,0.2,0,0.2,0c0-0.1,0-0.2,0.1-0.3v-0.2l0.8-0.1c-0.1-0.3-0.3-0.8-0.5-1.2l-0.2-0.4l0.4-0.1c0.1,0,0.2,0,0.3,0h0.1
			c-0.4-0.4-1-0.7-1.4-0.9l-0.4-0.2l0.2-0.2c-0.7,0.3-1.8,0.4-2.4,0.5L80.3,53c1.8-1.1,1.7-3.8,1.5-5c-0.3,0.2-0.7,0.2-0.7,0.2H81
			l-0.1-0.1c-0.1-0.1-0.3-0.3-0.3-0.5c-0.2,0.2-0.4,0.3-0.6,0.4l-0.3,0.2L79.5,48c-0.1-0.1-0.2-0.3-0.2-0.4
			c-0.2,0.2-0.5,0.4-0.7,0.6l-0.4,0.3L78.1,48l0,0c-0.2,0.1-0.5,0.2-0.7,0.3h-0.1h-0.1c-0.9-0.1-1.8-0.4-2.2-0.7
			c-0.2,0.4-0.6,0.8-0.9,1.1c0.2,0.6-0.1,1.4-0.1,1.5L73.7,51l-0.3-0.8c-0.4-0.9-1.5-1.1-2.2-1.1c0.1,0.2,0.1,0.4,0.1,0.5
			c0.2,0.2,0.3,0.4,0.1,0.6c-0.2,0.2-0.5,0-0.6-0.1c-0.2-0.1-0.8,0-1.4,0.2c0.1,0.3,0,0.5,0,0.6l-0.1,0.4L69,51.1
			c-0.2-0.1-0.6,0.1-1.1,0.2c0.1,0.1,0.2,0.3,0.3,0.5l0.3,0.6l-0.9-0.1c0,0-0.2,0-0.3,0.1c0,0.1,0,0.3,0,0.4V53l-0.1,0.1
			c-0.3,0.1-0.7,0.6-1.1,1c0.5,0.2,0.9,0.4,0.9,0.5l0.4,0.3l-0.4,0l0,0c0.4,0,0.8,0.1,1,0.1l0.6,0.1l-0.4,0.4l-0.1,0.1
			c0.3-0.1,0.5-0.1,0.6-0.1l0.1,0.4c0.3-0.1,0.6-0.1,0.7-0.1h0.1l0,0l0.2,0.7l0,0c0.1,0,0.1-0.1,0.1-0.1s0,0,0,0.1
			c0.3,0.1,0.7,0.1,1,0.1h1.2l-1,0.6c0,0.1-0.1,0.2-0.1,0.4c0.4-0.2,0.8-0.3,0.9-0.4l0.3-0.1l0.1,0.4C72.3,57.7,72.4,57.7,72.4,57.7
			z M70.9,50L70.9,50L70.9,50z M70.8,50L70.8,50L70.8,50z"/>
	</g>
	<g>
		<path class="st1" d="M86.6,46.4c0,0-1.9,1.6-2,2.1c0,0-0.5,0-0.3-0.6c0,0-1.9,0.2-2.6-0.4c0,0,0.6-0.2,0.8-0.3
			c0.1,0,0.1-0.1,0.1-0.1s-1.2-0.7-1.4-1l0.7-0.6c0,0-0.2-0.5-0.2-0.7c0,0,0.3,0.1,0.5,0c0,0-0.8-1.6-0.5-1.9c0,0,1.4,0.1,1.8-0.1
			c0,0-0.7-1.1-0.4-1.4c0,0,0.3,0.4,0.5,0.4c0,0-0.2-2.1,0-2.6c0,0,0.7,0.7,1.1,0.6c0,0,0.4-2.4,0.8-2.7c0,0,0.1,0.4,0.5,0.5
			c0,0,0.3-1.3,0.7-1.4c0,0,0.5,0.6,0.8,0.5c0,0,0.1-0.8,0.4-1c0,0,0.3-1,0.2-1.5c0,0,2.6,0.6,2.4,3.7c0,0,0,0.5,0.6-0.1l0.3,0.3
			c0,0,0.7-0.8,0.8-1.3c0,0,0.6,1,0.4,1.3c0,0,0.9-0.6,1.3-0.6c0,0,0.2,0.5,0.1,0.6l0.1-0.1c0,0,0.5-0.2,0.7-0.6
			c0,0,0.4,0.3,0.2,0.5c0,0,0.5-0.4,0.6-0.7c0,0,0.5,0.3,0.4,0.8c0,0,0.8-0.3,1-0.6c0,0,0.5,0.2,0.3,0.6c0,0,1,0.1,1.5-0.3
			c0,0-0.2,1.6-0.5,2.1c0,0,0.1,0.3,0.4,0.2c0,0-0.3,0.6-0.6,0.7c-0.2,0.1-0.2,0.1-0.2,0.1s0.7,0.4,0.9,0.3c0,0-0.7,1.2-1.3,1.3
			c0,0,0.3,0.6,0.6,0.6c0,0-1.2,1.4-1.7,1.3c-0.4-0.1,0.1,0.1,0.1,0.1s0.4,0.6,0.8,0.7c0,0-1.9,1.5-3.2,0.5c0,0,0.2,1,0.8,1.3
			c0,0-0.5,1.4-0.2,1.8c0.3,0.4-0.1,0.1-0.1,0.1s-1.3,0-2.4,0.6c0,0-0.7,0.8-0.5,1.1c0,0-0.2-0.3-0.4-0.5c0,0-0.5,1.2-0.4,1.5
			c0,0-0.4-0.5-0.8-0.7c0,0-0.5,0.9-0.3,1.2c0,0-0.5-0.6-0.8-0.6c0,0-0.6,0.5-0.6,1C88.4,52.3,85.2,49.2,86.6,46.4z"/>
		<path class="st2" d="M88.8,53.2l-0.7-0.7c-0.1-0.1-2.5-2.5-2.2-5.1c-0.5,0.5-1,1-1,1.2l-0.1,0.3h-0.3c-0.2,0-0.4-0.1-0.5-0.2
			c-0.1-0.1-0.1-0.2-0.2-0.4c-0.7,0-1.9,0-2.5-0.5l-0.4-0.4l0.6-0.2c0.1,0,0.2-0.1,0.4-0.1c-0.4-0.3-0.8-0.6-1-0.8L80.7,46l0.7-0.6
			c-0.1-0.2-0.1-0.4-0.2-0.6l-0.1-0.5l0.4,0.1c-0.6-1.3-0.3-1.6-0.2-1.7l0.1-0.1h0.2c0.4,0,0.9,0,1.2,0c-0.2-0.5-0.4-1.1-0.1-1.4
			l0.3-0.3l0,0c0-0.7,0-1.6,0.2-1.9l0.2-0.3l0.3,0.3c0.2,0.2,0.5,0.4,0.6,0.5c0.2-0.9,0.5-2.3,0.9-2.5l0.4-0.2l0.1,0.4l0,0
			c0.2-0.5,0.4-1,0.7-1.2l0.2-0.1l0.2,0.2c0.1,0.1,0.2,0.2,0.3,0.2c0.1-0.2,0.2-0.5,0.4-0.7c0.1-0.3,0.2-1,0.1-1.3l-0.1-0.5l0.5,0.1
			c0,0,2.7,0.7,2.7,3.8c0,0,0,0,0-0.1l0.2-0.2l0.3,0.2c0.2-0.3,0.5-0.7,0.6-0.9l0.3-0.7l0.4,0.6c0.2,0.3,0.3,0.6,0.4,0.9
			c0.3-0.2,0.8-0.4,1-0.4h0.2l0.1,0.2v0.1c0.1-0.1,0.2-0.2,0.3-0.3l0.2-0.4L95,37l0.1,0.1c0.1-0.1,0.1-0.1,0.1-0.2l0.1-0.4l0.4,0.2
			c0.2,0.1,0.4,0.3,0.5,0.6c0.2-0.1,0.4-0.2,0.5-0.3l0.2-0.2l0.3,0.1c0.2,0.1,0.5,0.3,0.5,0.6c0.3,0,0.7-0.1,0.9-0.2l0.6-0.5
			l-0.1,0.8c0,0.1-0.2,1.3-0.4,2l0.5-0.1L99,40c-0.1,0.1-0.2,0.4-0.4,0.6c0.1,0,0.1,0,0.1,0.1l0.8-0.2l-0.4,0.7
			c-0.1,0.2-0.6,0.9-1.1,1.3l0.1,0.1h0.8l-0.5,0.6c-0.4,0.5-0.9,1-1.4,1.2c0.1,0.1,0.3,0.2,0.4,0.3l0.6,0.2l-0.5,0.4
			c-0.1,0.1-1.5,1.2-2.9,0.9c0.1,0.2,0.2,0.3,0.3,0.3l0.3,0.1l-0.1,0.3c-0.2,0.6-0.3,1.4-0.2,1.5c0.1,0.1,0.3,0.4,0.1,0.6
			c-0.2,0.2-0.4,0.1-0.5,0c-0.3,0-1.2,0.1-2,0.5c-0.2,0.3-0.4,0.6-0.4,0.7c0,0,0,0,0-0.1l-0.6,0.4l0,0c-0.1,0.3-0.2,0.6-0.2,0.7
			l-0.6,0.3c-0.1-0.1-0.2-0.3-0.4-0.4c-0.1,0.3-0.2,0.5-0.2,0.6l0,0l-0.5,0.4c-0.2-0.2-0.4-0.4-0.5-0.4c-0.2,0.1-0.3,0.4-0.3,0.6
			L88.8,53.2z M86.3,46.1l0.5,0.4c-0.9,1.9,0.6,4.2,1.4,5.1c0.2-0.3,0.5-0.5,0.5-0.6l0.1-0.1h0.1c0.2,0,0.4,0.1,0.6,0.2
			c0.1-0.2,0.2-0.5,0.3-0.7l0.1-0.3l0.3,0.1c0.2,0.1,0.3,0.1,0.4,0.2c0.1-0.3,0.2-0.6,0.3-0.9l0.2-0.5l0.4,0.3l0,0
			c0.1-0.2,0.3-0.4,0.4-0.6l0,0H92c0.8-0.4,1.7-0.6,2.2-0.6c-0.1-0.4,0.1-1,0.2-1.4c-0.5-0.4-0.7-1.2-0.7-1.4l-0.2-0.8l0.7,0.5
			c0.8,0.6,1.9,0.1,2.4-0.2c-0.2-0.1-0.3-0.3-0.4-0.4c-0.2-0.1-0.4-0.2-0.4-0.5c0.1-0.3,0.4-0.3,0.6-0.2c0.2,0,0.6-0.4,1.1-0.9
			c-0.2-0.2-0.3-0.4-0.4-0.5L97,42.1l0.4-0.1c0.2,0,0.5-0.4,0.8-0.8c-0.1-0.1-0.3-0.1-0.5-0.2l-0.6-0.3l0.8-0.4c0,0,0.1-0.1,0.2-0.2
			c0-0.1-0.1-0.2-0.1-0.3v-0.2l0.1-0.1c0.2-0.2,0.3-0.8,0.4-1.4c-0.5,0.1-1,0.1-1.1,0.1h-0.5l0.2-0.4c0,0,0,0,0-0.1
			c-0.3,0.2-0.7,0.4-0.9,0.4l-0.6,0.2l0.1-0.6v-0.1c-0.2,0.2-0.4,0.4-0.5,0.4L95,37.7c-0.2,0.2-0.5,0.4-0.6,0.4l-0.1,0.1l0,0l0,0
			l0,0l-0.5-0.5c0,0.1-0.1,0.1-0.1,0.1v-0.1c-0.3,0.1-0.6,0.3-0.9,0.5l-1,0.6l0.5-1.1c0-0.1,0-0.2-0.1-0.4c-0.2,0.4-0.5,0.7-0.6,0.8
			l-0.2,0.3l-0.3-0.3c-0.2,0.1-0.4,0.3-0.7,0.2c-0.2-0.1-0.3-0.3-0.3-0.5l0,0l0,0c0.1-2.1-1.1-2.9-1.8-3.2c0,0.5-0.2,1.1-0.2,1.1
			v0.1L88,35.9c-0.1,0.1-0.2,0.4-0.3,0.7v0.2l-0.2,0.1c-0.3,0.1-0.6,0-0.9-0.3c-0.1,0.2-0.3,0.6-0.4,1V38l-0.3-0.1
			c-0.2-0.1-0.3-0.1-0.4-0.2c-0.2,0.4-0.4,1.3-0.5,2.1V40h-0.2c-0.3,0.1-0.7-0.1-1-0.3c0,0.5,0,1.2,0.1,1.9v0.3L83.5,42h-0.1
			c0.1,0.2,0.2,0.4,0.3,0.5l0.2,0.4L83.5,43c-0.3,0.1-1.1,0.1-1.6,0.1c0.1,0.3,0.3,0.9,0.5,1.4l0.1,0.3L82.2,45
			c-0.1,0-0.1,0.1-0.2,0.1c0,0.1,0.1,0.2,0.1,0.3l0.1,0.2L81.7,46c0.3,0.2,0.7,0.5,1.1,0.7l0.4,0.2l-0.3,0.3
			c-0.1,0.1-0.1,0.1-0.2,0.2c0,0-0.1,0-0.1,0.1c0.6,0.1,1.4,0.1,1.7,0l0.5-0.1l-0.1,0.3C85.1,47.2,85.9,46.5,86.3,46.1z M96.5,43.9
			L96.5,43.9L96.5,43.9z M92.3,37.8L92.3,37.8L92.3,37.8z"/>
	</g>
	<g>
		<path class="st3" d="M72.2,54.1c-0.4,0-0.8,0-1.1-0.1l0,0c0,0-1.8-0.6-3.9,0c-0.1,0-0.2,0-0.2-0.1s0-0.2,0.1-0.2
			c2.1-0.6,3.9-0.1,4.1,0c1.8,0.3,6.4-0.5,6.4-0.5c0.1,0,0.2,0,0.2,0.1s0,0.2-0.1,0.2C77.5,53.6,74.3,54.1,72.2,54.1z"/>
	</g>
	<g>
		<path class="st3" d="M72.8,56.9C72.7,56.9,72.7,56.9,72.8,56.9c-0.2-0.1-0.2-0.2-0.2-0.2c0.3-0.7,3.4-2.6,3.7-2.8
			c0.1,0,0.2,0,0.2,0.1s0,0.2-0.1,0.2C75.1,55,73,56.4,72.8,56.9C72.9,56.8,72.8,56.9,72.8,56.9z"/>
	</g>
	<g>
		<path class="st3" d="M70.6,56.3L70.6,56.3c-0.2-0.1-0.2-0.2-0.1-0.2c0.7-0.8,3.4-1.7,3.5-1.8c0.1,0,0.2,0,0.2,0.1s0,0.2-0.1,0.2
			c0,0-2.7,0.9-3.3,1.6C70.7,56.2,70.7,56.3,70.6,56.3z"/>
	</g>
	<g>
		<path class="st3" d="M68.9,55.4C68.9,55.4,68.8,55.4,68.9,55.4c-0.2-0.2-0.2-0.3-0.1-0.3c0.5-0.4,2.2-1,2.2-1c0.1,0,0.2,0,0.2,0.1
			s0,0.2-0.1,0.2C70.6,54.5,69.4,55,68.9,55.4C68.9,55.4,68.9,55.4,68.9,55.4z"/>
	</g>
	<g>
		<path class="st3" d="M77.7,52.8C77.7,52.8,77.6,52.8,77.7,52.8c-0.2-0.1-2.3-1.1-3-1.9c-0.1-0.1,0-0.2,0-0.2c0.1-0.1,0.2,0,0.2,0
			c0.6,0.8,2.7,1.8,2.8,1.8c0.1,0,0.1,0.1,0.1,0.2C77.8,52.8,77.7,52.8,77.7,52.8z"/>
	</g>
	<g>
		<path class="st3" d="M73.6,58.3c-0.1,0-0.1,0-0.2-0.1c0-0.1,0-0.2,0.1-0.2c1.6-0.6,4.4-4.2,4.4-4.2c0.1-0.1,0.2-0.1,0.2,0
			c0.1,0.1,0.1,0.2,0,0.2C78.1,54.2,75.3,57.7,73.6,58.3L73.6,58.3z"/>
	</g>
	<g>
		<path class="st3" d="M75.4,53.3L75.4,53.3c-0.2,0-3.6-0.7-5.5-2.3c-0.1-0.1-0.1-0.2,0-0.2c0.1-0.1,0.2-0.1,0.2,0
			c1.8,1.5,5.3,2.2,5.3,2.2C75.5,53,75.6,53.1,75.4,53.3C75.6,53.3,75.5,53.3,75.4,53.3z"/>
	</g>
	<g>
		<path class="st3" d="M79.1,52.2L79.1,52.2c-0.2-0.1-1.9-1.3-2.1-3.1c0-0.1,0.1-0.2,0.1-0.2c0.1,0,0.2,0.1,0.2,0.1
			c0.2,1.6,1.9,2.9,1.9,2.9C79.3,52,79.3,52.1,79.1,52.2C79.2,52.1,79.2,52.2,79.1,52.2z"/>
	</g>
	<g>
		<path class="st3" d="M80.7,58.3L80.7,58.3c-0.1,0-0.2-0.1-0.2-0.2c0.1-0.7-0.8-2.6-1.1-3.2c0-0.1,0-0.2,0.1-0.2s0.2,0,0.2,0.1
			c0.1,0.1,1.3,2.5,1.1,3.4C80.9,58.2,80.8,58.3,80.7,58.3z"/>
	</g>
	<g>
		<path class="st3" d="M76.5,60.3C76.5,60.3,76.4,60.3,76.5,60.3c-0.2-0.2-0.1-0.3-0.1-0.3c1.1-0.9,2.3-4.8,2.3-4.9
			c0-0.1,0.1-0.1,0.2-0.1s0.1,0.1,0.1,0.2C78.9,55.4,77.8,59.3,76.5,60.3C76.6,60.3,76.6,60.3,76.5,60.3z"/>
	</g>
	<g>
		<path class="st3" d="M88.9,44.8C88.9,44.8,88.8,44.8,88.9,44.8c-0.2-0.2-0.2-0.3-0.1-0.3c0.1-0.1,3.6-3.2,5.3-3.9l0,0
			c0,0,1.9-0.5,3.3-2.1c0.1-0.1,0.2-0.1,0.2,0c0.1,0.1,0.1,0.2,0,0.2c-1.5,1.7-3.3,2.2-3.5,2.2C92.4,41.6,88.9,44.7,88.9,44.8
			C89,44.8,89,44.8,88.9,44.8z"/>
	</g>
	<g>
		<path class="st3" d="M89.6,43.8C89.6,43.8,89.6,43.7,89.6,43.8c-0.2-0.1-0.2-0.2-0.2-0.2c0.7-1.4,1.7-3.7,1.6-4.2
			c0-0.1,0.1-0.2,0.1-0.2c0.1,0,0.2,0.1,0.2,0.1c0.1,0.8-1.5,4-1.7,4.4C89.7,43.7,89.7,43.8,89.6,43.8z"/>
	</g>
	<g>
		<path class="st3" d="M91.4,42.1L91.4,42.1c-0.2-0.1-0.2-0.2-0.1-0.2c0,0,1.8-2.3,2-3.2c0-0.1,0.1-0.2,0.2-0.1
			c0.1,0,0.2,0.1,0.1,0.2c-0.1,1-2,3.3-2,3.4C91.5,42.1,91.5,42.1,91.4,42.1z"/>
	</g>
	<g>
		<path class="st3" d="M94,40.6L94,40.6c-0.2-0.1-0.2-0.2-0.1-0.2c0.3-0.4,1.2-1.4,1.3-1.9c0-0.1,0.1-0.1,0.2-0.1s0.1,0.1,0.1,0.2
			C95.3,39.2,94.2,40.6,94,40.6C94.1,40.5,94.1,40.6,94,40.6z"/>
	</g>
	<g>
		<path class="st3" d="M92.7,45.6C92.7,45.6,92.6,45.6,92.7,45.6c-1-0.4-3.4-0.1-3.4-0.1c-0.1,0-0.2-0.1-0.2-0.1
			c0-0.1,0.1-0.2,0.1-0.2c0.1,0,2.5-0.3,3.5,0.1C92.8,45.3,92.8,45.4,92.7,45.6C92.8,45.6,92.8,45.6,92.7,45.6z"/>
	</g>
	<g>
		<path class="st3" d="M88.3,44.7C88.3,44.7,88.2,44.7,88.3,44.7c-0.1,0-0.2-0.1-0.2-0.2c0-0.2,0.5-4.7,1.6-6.1
			c0.1-0.1,0.2-0.1,0.2,0c0.1,0.1,0.1,0.2,0,0.2c-1,1.3-1.5,5.9-1.5,5.9C88.4,44.6,88.3,44.7,88.3,44.7z"/>
	</g>
	<g>
		<path class="st3" d="M90.9,43.8c-0.1,0-0.1,0-0.2-0.1c0-0.1,0-0.2,0.1-0.2c0.1-0.1,3.4-1.3,5.9-1c0.1,0,0.2,0.1,0.1,0.2
			c0,0.1-0.1,0.2-0.2,0.1C94.3,42.6,91,43.8,90.9,43.8C91,43.8,90.9,43.8,90.9,43.8z"/>
	</g>
	<g>
		<path class="st3" d="M91.7,48.3C91.7,48.3,91.6,48.3,91.7,48.3c-1.1-1.4-3.2-1.6-3.2-1.6c-0.1,0-0.2-0.1-0.2-0.2
			c0-0.1,0.1-0.2,0.2-0.2s2.2,0.2,3.4,1.6c0.1,0.1,0,0.2,0,0.2C91.7,48.3,91.7,48.3,91.7,48.3z"/>
	</g>
	<g>
		<path class="st3" d="M86.5,44.7C86.5,44.7,86.4,44.7,86.5,44.7c-0.2-0.1-2.5-1.5-2.9-2.3c0-0.1,0-0.2,0.1-0.2s0.2,0,0.2,0.1
			c0.3,0.6,2,1.8,2.7,2.1c0.1,0,0.1,0.2,0.1,0.2C86.6,44.7,86.5,44.7,86.5,44.7z"/>
	</g>
	<g>
		<path class="st3" d="M86.8,44.1c-0.1,0-0.1,0-0.2-0.1c0-0.2-1.1-4.1-0.6-5.6c0-0.1,0.1-0.1,0.2-0.1s0.1,0.1,0.1,0.2
			c-0.5,1.4,0.6,5.4,0.6,5.4C87,43.9,87,44,86.8,44.1C86.9,44.1,86.9,44.1,86.8,44.1z"/>
	</g>
	<g>
		<g>
			<path class="st4" d="M87.2,54c0.2,2.3-1.9,4.4-4.6,4.6c-2.7,0.2-5.1-1.5-5.3-3.8c-0.2-2.3,1.9-4.4,4.6-4.6
				C84.6,50,87,51.7,87.2,54z"/>
		</g>
		<g>
			<g>
				<path class="st5" d="M86.9,54c0-0.1,0-0.2,0-0.4c0-0.1,0-0.2,0-0.2c0-0.1,0-0.2-0.1-0.3c-0.1-0.4-0.3-0.8-0.6-1.1
					c-0.1-0.1-0.1-0.2-0.2-0.3s-0.2-0.2-0.2-0.2c-0.2-0.1-0.3-0.3-0.5-0.4c-0.2-0.1-0.4-0.2-0.5-0.3c-0.2-0.1-0.3-0.2-0.5-0.2
					c-0.2-0.1-0.4-0.1-0.6-0.2c-0.2,0-0.3-0.1-0.5-0.1c-0.1,0,0,0,0.2,0c0.1,0,0.2,0.1,0.4,0.1c0.2,0,0.3,0.1,0.5,0.2
					c0.3,0.1,0.7,0.3,1.1,0.6c-0.5-0.4-1-0.6-1.4-0.8c-0.3-0.1-0.6-0.2-0.9-0.2c-1.4-0.2-2.8,0.2-4,1c-0.1,0.1-0.2,0.2-0.4,0.3
					c-0.1,0.1-0.1,0.1-0.2,0.2c-0.1,0.1-0.1,0.1-0.2,0.2c-0.1,0.1-0.1,0.2-0.2,0.2c-0.1,0.1-0.1,0.2-0.2,0.2
					c-0.1,0.2-0.2,0.3-0.3,0.4c0.5-0.9,1.3-1.7,2.3-2.1c0.5-0.2,1-0.4,1.5-0.5s1-0.1,1.5-0.1c-0.1,0-0.1,0-0.2,0c-0.3,0-0.5,0-0.8,0
					s-0.5,0-0.8,0.1c-0.5,0.1-1.1,0.3-1.5,0.5c-0.2,0.1-0.3,0.2-0.5,0.3c0.2-0.1,0.3-0.2,0.5-0.3c0.4-0.2,0.9-0.4,1.4-0.6
					c0.2,0,0.3-0.1,0.5-0.1s0.3,0,0.5,0c0.1,0,0.3,0,0.4,0s0.3,0,0.4,0c0.2,0,0.3,0,0.5,0.1h0.1l0,0c-0.1,0-0.4-0.1-0.9-0.2
					c-0.5,0-1,0-1.6,0.1s-1.1,0.4-1.6,0.6c-0.4,0.3-0.7,0.5-0.9,0.6c-0.4,0.4-0.7,0.9-0.9,1.4c-0.1,0.2-0.2,0.3-0.2,0.5
					c0,0,0,0.1,0,0.2c0,0.2-0.1,0.4-0.1,0.6c0,0.1,0,0.2,0,0.3s0,0.2,0,0.3s0,0.3,0,0.5s0,0.4,0,0.4c0.2,0.1,0,0,0.2,0.5
					c0,0.1,0.2,0.2,0.2,0.3c0.1,0.2,0.2,0.3,0.3,0.4c0.1,0.1,0.2,0.2,0.4,0.4c0.6,0.5,0.7,0.6,1.3,0.9c0,0,0.1,0,0.2,0.1
					c0.1,0,0.2,0.1,0.3,0.1c0.1,0,0.2,0.1,0.3,0.1c0.1,0,0.2,0,0.2,0c0.2,0.1,0.4,0.1,0.5,0.1c0.2,0,0.3,0,0.5,0.1
					c0.3,0,0.5,0,0.9,0.1c0.3,0,0.8-0.1,1.2-0.2c0.2,0,0.4-0.1,0.6-0.2c0.2-0.1,0.4-0.1,0.5-0.2c0.2-0.1,0.3-0.2,0.4-0.2
					c0.1-0.1,0.2-0.1,0.4-0.2c0.1-0.1,0.2-0.1,0.3-0.2c0.1-0.1,0.2-0.2,0.4-0.3c0.1-0.1,0.2-0.2,0.3-0.3c0.1-0.1,0.2-0.3,0.3-0.5
					v0.1c0-0.1,0.1-0.2,0.1-0.2c0-0.1,0,0,0,0s0,0.1,0.1,0s0.1-0.2,0.2-0.4c0.1-0.1,0.1-0.3,0.2-0.4c0.1-0.3,0.1-0.6,0.1-0.9
					c0,0,0,0,0-0.1s0-0.2,0-0.2s-0.1,0-0.1-0.1c-0.1,0-0.2-0.3-0.3-0.2c0,0,0,0.5-0.1,0.6c0,0,0-0.1-0.1-0.1c0,0.2-0.1,0.3-0.1,0.1
					c0,0.1,0,0.1,0,0.1v-0.1c-0.1,0.6-0.5,1.2-0.8,1.6c-0.1,0.1-0.2,0.3-0.3,0.4c0,0.1-0.2,0.1-0.2,0.2c-0.1,0.1,0,0.1,0,0.2
					c-0.2,0.1-0.5,0.3-0.7,0.5c-0.3,0.1-0.5,0.2-0.4,0.3C84,58,84,58.1,83.6,58.2c-0.5,0.1-1.1,0.2-1.8,0.2c-0.1,0-0.2,0-0.3,0
					c-0.1,0-0.2,0-0.3,0c-0.1,0-0.2,0-0.3,0l-0.2-0.1c-0.1,0-0.1,0-0.2,0s-0.1,0-0.2-0.1c-1.2-0.4-2.1-1.1-2.6-2.1
					c-0.5-0.9-0.6-2.1-0.1-3.2c0.3-0.6,0.7-1.1,1.1-1.5c0.5-0.4,1.1-0.7,1.7-0.9s1.2-0.3,1.8-0.3c0.6,0,1.2,0.1,1.7,0.3
					s1,0.4,1.3,0.7c0.4,0.3,0.6,0.6,0.9,0.9c0.4,0.6,0.5,1.2,0.6,1.5L86.9,54z"/>
			</g>
		</g>
	</g>
	<g>
		<g>
			<path class="st4" d="M94.9,48.9c-0.2-2.3-2.1-4-4.2-3.9c-2.2,0.2-3.8,2.2-3.6,4.5c0.2,2.3,2.1,4,4.2,3.9
				C93.5,53.2,95.1,51.2,94.9,48.9z"/>
		</g>
		<g>
			<g>
				<path class="st5" d="M95.1,48.8c0,0.1,0,0.2,0,0.4c0,0.1,0,0.3-0.1,0.5c-0.1,0.4-0.1,0.8-0.3,1.2c-0.2,0.4-0.4,0.8-0.7,1.1
					c-0.1,0.1-0.3,0.3-0.4,0.4c-0.1,0.1-0.1,0.1-0.2,0.2c-0.1,0-0.1,0.1-0.2,0.1c-0.2,0.1-0.3,0.2-0.5,0.3c-0.1,0.1-0.3,0.1-0.4,0.2
					c-0.1,0,0,0,0.1-0.1c0.2-0.1,0.4-0.2,0.7-0.4c0.3-0.2,0.5-0.4,0.8-0.8c-0.4,0.4-0.8,0.7-1.1,0.9c-0.1,0.1-0.2,0.1-0.4,0.2
					l-0.2,0.1L92,53.2c-0.6,0.2-1.2,0.3-1.8,0.2c-0.6-0.1-1.2-0.3-1.6-0.7c-0.1-0.1-0.2-0.2-0.3-0.3c-0.1-0.1-0.2-0.2-0.3-0.4
					c-0.1-0.1-0.1-0.1-0.2-0.2c0-0.1-0.1-0.1-0.1-0.2c-0.1-0.1-0.1-0.3-0.2-0.3c0.4,0.8,1.1,1.4,1.9,1.8c0.8,0.4,1.7,0.4,2.6,0.1
					h-0.1c-0.9,0.2-1.9,0.1-2.7-0.3c-0.1,0-0.1-0.1-0.2-0.1s-0.1-0.1-0.2-0.1l0.2,0.1c0.1,0,0.1,0.1,0.2,0.1
					c0.4,0.2,0.7,0.3,1.2,0.4c0.1,0,0.3,0,0.4,0s0.3,0,0.4,0s0.2,0,0.3,0l0.3-0.1c0.1,0,0.3-0.1,0.4-0.1c0,0,0.1,0,0.1-0.1l0,0
					c0,0-0.1,0-0.3,0.1c-0.1,0-0.1,0-0.2,0.1c-0.1,0-0.2,0-0.3,0c-0.4,0.1-0.9,0.1-1.3,0c-0.5-0.1-0.9-0.3-1.2-0.5
					c-0.2-0.1-0.3-0.2-0.4-0.3s-0.2-0.2-0.2-0.2c-0.3-0.3-0.6-0.6-0.9-1c-0.1-0.2-0.1-0.3-0.2-0.4c0,0,0-0.1-0.1-0.1
					c0-0.1-0.1-0.2-0.1-0.2c0-0.1,0-0.2,0-0.2c0-0.2,0-0.3-0.1-0.4c0-0.2,0.1-0.7,0.1-0.7C87,49.1,87,49.1,87,49.1s0-0.1,0.1-0.3
					v-0.1c0-0.1,0-0.1,0-0.2c0-0.1,0-0.1,0.1-0.2c0-0.1,0-0.1,0.1-0.2c0-0.1,0-0.1,0-0.2c0-0.1,0.1-0.1,0.1-0.2
					c0-0.1,0.1-0.2,0.2-0.3s0.1-0.2,0.2-0.2c0.1-0.1,0.1-0.1,0.2-0.2c0.1-0.1,0.1-0.2,0.2-0.3c0,0,0.2-0.2,0.3-0.3
					c0.1-0.1,0.2-0.1,0.2-0.2c0.1,0,0.1-0.1,0.1-0.1c0.1,0,0.1-0.1,0.2-0.1s0.1-0.1,0.2-0.1c0.1-0.1,0.2-0.1,0.4-0.2
					c0.1,0,0.2-0.1,0.3-0.1c0.1,0,0.2,0,0.4,0c0.3-0.1,0.6-0.1,1,0c0.3,0.1,0.7,0.2,1,0.3c0.1,0.1,0.3,0.1,0.4,0.2
					c0.1,0.1,0.2,0.1,0.3,0.2c0.1,0.1,0.1,0.1,0.2,0.2c0.1,0.1,0.2,0.2,0.2,0.3c0.1,0.1,0.2,0.2,0.2,0.3s0.2,0.2,0.3,0.4l0,0
					c0,0,0.1,0.1,0.1,0.2l0,0c0,0-0.1,0,0,0.1c0.1,0.2,0.2,0.4,0.2,0.6l0.1,0.3l0.1,0.3c0,0,0,0,0.1,0c0,0.1,0,0.1,0.1,0.2h0.1
					c0.1,0,0.2,0.3,0.3,0.2c0,0,0-0.1,0-0.2c0-0.1,0-0.1,0-0.2c0-0.1,0-0.1,0-0.2C95,48.8,95.1,48.8,95.1,48.8c-0.1-0.1,0-0.2,0-0.1
					c0-0.1,0-0.1,0-0.1h0.1c-0.1-0.6-0.3-1.3-0.8-1.8c-0.1-0.1-0.2-0.3-0.4-0.4c-0.1,0-0.2-0.2-0.2-0.2c-0.1,0-0.1,0-0.2,0
					c-0.2-0.2-0.4-0.4-0.7-0.5C92.7,45,92.5,45,92.5,45c-0.2-0.1-0.3-0.1-0.4-0.1s-0.1,0-0.2,0s-0.1,0-0.2,0
					c-0.5-0.1-1.1-0.1-1.7,0.1c-0.3,0.1-0.6,0.2-0.9,0.4c-0.1,0.1-0.2,0.1-0.3,0.2c-0.5,0.3-0.9,0.8-1.2,1.2
					c-0.3,0.5-0.5,0.9-0.6,1.4s-0.1,1-0.1,1.6c0.1,0.5,0.2,1.1,0.5,1.6c0.6,1,1.6,1.8,2.7,2.1c0.6,0.1,1.1,0.1,1.7,0
					c0.5-0.1,1-0.3,1.5-0.6c0.4-0.3,0.8-0.6,1-1c0.3-0.4,0.5-0.7,0.6-1.1c0.3-0.7,0.3-1.3,0.3-1.5L95.1,48.8z"/>
			</g>
		</g>
	</g>
	<g>
		<g>
			<path class="st4" d="M95.1,53.3c-1.7-1.1-4.1-0.4-5.5,1.7c-1.3,2-1.1,4.6,0.6,5.7c1.7,1.1,4.1,0.4,5.5-1.7
				C97.1,56.9,96.8,54.4,95.1,53.3z"/>
		</g>
		<g>
			<g>
				<path class="st5" d="M95.3,53.1c0.1,0.1,0.2,0.2,0.3,0.3c0.1,0.1,0.2,0.2,0.3,0.4c0.2,0.3,0.4,0.7,0.6,1.1
					c0.1,0.4,0.2,0.8,0.2,1.2c0,0.2,0,0.4,0,0.6c0,0.2,0,0.3-0.1,0.5c0,0.2-0.1,0.4-0.1,0.5c0,0.2-0.1,0.3-0.1,0.4
					c-0.1,0.2,0.1-0.2,0.3-0.9c0.1-0.3,0.1-0.7,0.1-1.1c0,0.6-0.1,1.1-0.2,1.4c0,0.1-0.1,0.3-0.1,0.4c0,0.1-0.1,0.3-0.2,0.4
					c-0.5,1.1-1.3,2.1-2.4,2.6c-0.2,0.1-0.5,0.2-0.9,0.3c-0.2,0-0.3,0.1-0.5,0.1s-0.3,0-0.4,0c0.9,0,1.7-0.3,2.4-0.8
					c0.4-0.3,0.7-0.6,1-0.9c0.3-0.3,0.5-0.7,0.7-1.1L96,58.3c-0.1,0.2-0.2,0.4-0.4,0.6c-0.1,0.2-0.3,0.4-0.4,0.5
					c-0.3,0.3-0.7,0.7-1,0.9c-0.1,0.1-0.3,0.2-0.4,0.2c0.1-0.1,0.3-0.1,0.4-0.2c0.3-0.2,0.6-0.5,0.9-0.8c0.1-0.1,0.2-0.2,0.3-0.3
					c0.1-0.1,0.2-0.2,0.3-0.3c0.1-0.2,0.2-0.4,0.3-0.5c0.1-0.1,0.1-0.2,0.2-0.4v-0.1l0,0c-0.1,0.1-0.2,0.3-0.4,0.7
					c-0.2,0.3-0.5,0.7-0.8,1.1c-0.3,0.3-0.7,0.6-1.1,0.8c-0.3,0.2-0.6,0.3-0.8,0.3c-0.4,0.1-0.8,0.3-1.3,0.3c-0.1,0-0.2,0-0.2,0
					c-0.1,0-0.1,0-0.2,0h-0.1c-0.2,0-0.3-0.1-0.5-0.2c-0.1,0-0.1-0.1-0.2-0.1s-0.1-0.1-0.2-0.1s-0.2-0.2-0.3-0.3
					c0-0.2-0.1-0.4-0.1-0.4c-0.2,0-0.1,0-0.3-0.3l-0.2-0.2c-0.1-0.2-0.1-0.3-0.2-0.4c0-0.1-0.1-0.2-0.2-0.4c-0.1-0.5,0-0.7-0.1-1.2
					c0,0,0-0.1,0-0.2c0-0.1,0-0.2,0-0.3s0-0.2,0-0.3s0-0.1,0-0.1c0.2-0.6,0.3-1,0.6-1.4c0.1-0.3,0.3-0.5,0.6-0.8
					c0.1-0.1,0.3-0.2,0.4-0.4c0.1-0.1,0.3-0.2,0.4-0.3c0.2-0.2,0.5-0.3,0.6-0.4c0.1,0,0.2-0.1,0.3-0.1c0.1,0,0.2-0.1,0.3-0.1
					c0.1,0,0.3-0.1,0.3-0.1c0.1,0,0.3-0.1,0.4-0.1l0,0c0,0,0.1,0,0.2,0l0,0c0,0,0,0,0,0.1c0.2,0,0.4,0,0.6,0.1c0.1,0,0.2,0,0.3,0
					c0.1,0,0.2,0,0.3,0.1c0,0,0,0,0.1,0s0.1,0,0.2,0.1c0,0,0.1,0,0.1-0.1s0.3,0,0.3-0.1c0,0-0.3-0.3-0.5-0.3h0.1
					c-0.2-0.1-0.2-0.1-0.1-0.1c-0.1,0-0.1,0-0.1,0h0.1c-0.6-0.3-1.3-0.4-1.9-0.2c-0.1,0-0.3,0.1-0.5,0.2c-0.1,0-0.2,0.1-0.3,0.1
					c-0.1,0.1-0.1,0.1-0.1,0.1c-0.1,0-0.2,0.1-0.4,0.1c-0.1,0.1-0.3,0.1-0.4,0.2c-0.2,0.2-0.4,0.3-0.4,0.3c-0.1,0.1-0.2,0.2-0.3,0.3
					c-0.1,0.1-0.1,0.2-0.3,0.3c-0.3,0.4-0.7,0.8-1,1.4c0,0.1-0.1,0.1-0.1,0.2c0,0.1-0.1,0.1-0.1,0.2l-0.1,0.2l-0.1,0.2
					c0,0.1-0.1,0.2-0.1,0.3c-0.2,1.2-0.1,2.3,0.4,3.2c0.3,0.4,0.7,0.8,1.1,1.1c0.5,0.3,1,0.4,1.6,0.4c1.2,0,2.3-0.6,3.1-1.4
					c0.4-0.4,0.8-0.8,1-1.3c0.3-0.5,0.5-1,0.6-1.5s0.1-1,0.1-1.4s-0.1-0.8-0.3-1.2c-0.3-0.7-0.7-1.1-0.9-1.3L95.3,53.1z"/>
			</g>
		</g>
	</g>
	<g>
		<g>
			<path class="st4" d="M88.5,47.4c1.7-2,1.7-4.9-0.1-6.3c-1.7-1.5-4.5-1-6.2,1s-1.7,4.9,0.1,6.3C84,49.9,86.8,49.4,88.5,47.4z"/>
		</g>
		<g>
			<g>
				<path class="st5" d="M88.7,47.5c-0.2,0.1-0.4,0.4-0.7,0.6c-0.3,0.2-0.7,0.5-1.1,0.7s-0.9,0.4-1.3,0.4c-0.4,0.1-0.8,0.1-1.1,0
					c-0.5,0-0.8-0.2-1-0.2c-0.1,0,0,0,0.2,0c0.1,0,0.2,0.1,0.4,0.1c0.1,0,0.2,0,0.2,0.1c0.1,0,0.2,0,0.3,0c0.2,0,0.4,0,0.6,0
					s0.4,0,0.7-0.1c-0.6,0.1-1.2,0-1.6-0.1c-0.1,0-0.3,0-0.4-0.1c-0.1,0-0.3-0.1-0.4-0.2c-0.6-0.3-1.2-0.7-1.5-1.3
					c-0.4-0.5-0.6-1.2-0.6-1.8c0-0.2,0-0.6,0-1s0.2-0.7,0.2-1c-0.3,0.9-0.4,1.9-0.1,2.8c0.3,0.9,1,1.7,1.9,2.1c0,0-0.1,0-0.1-0.1
					c-0.9-0.5-1.5-1.4-1.8-2.3c-0.1-0.2-0.1-0.3-0.1-0.5c0,0.2,0,0.3,0.1,0.5c0.1,0.4,0.3,0.8,0.6,1.2c0.1,0.1,0.2,0.2,0.3,0.4
					c0.1,0.1,0.2,0.2,0.3,0.3c0.1,0.1,0.2,0.2,0.3,0.2l0.3,0.2c0.1,0.1,0.3,0.1,0.4,0.2h0.1l0,0c0,0-0.1-0.1-0.3-0.1
					c-0.1,0-0.1-0.1-0.2-0.1s-0.2-0.1-0.2-0.2c-0.3-0.2-0.7-0.6-1-1s-0.4-1-0.5-1.4c0-0.1,0-0.2,0-0.3s0-0.2,0-0.3
					c0-0.2,0-0.3,0-0.4c0-0.5,0-0.9,0.2-1.5c0.1-0.2,0.1-0.3,0.2-0.4c0,0,0-0.1,0-0.2c0.1-0.2,0.2-0.3,0.3-0.5
					c0.1-0.1,0.2-0.3,0.3-0.4c0.1-0.2,0.6-0.5,0.6-0.5c0-0.1,0-0.1,0.1-0.1c0,0,0.1-0.1,0.3-0.2c0,0,0.2-0.2,0.3-0.2
					c0.2-0.1,0.3-0.2,0.4-0.2c0.1-0.1,0.2-0.2,0.4-0.2c0.1,0,0.1-0.1,0.2-0.1s0.1,0,0.2-0.1c0.1,0,0.2-0.1,0.3-0.1
					c0.1,0,0.2,0,0.3-0.1c0.1,0,0.2,0,0.4-0.1c0,0,0.3,0,0.5,0c0.1,0,0.2,0,0.3,0H87l0,0c0.2,0,0.3,0.1,0.5,0.1c0.1,0,0.1,0,0.2,0.1
					c0.1,0,0.1,0.1,0.2,0.1s0.1,0.1,0.2,0.1s0.1,0.1,0.2,0.1s0.1,0.1,0.2,0.1s0.1,0.1,0.1,0.1c0.3,0.2,0.5,0.4,0.8,0.7
					c0.2,0.3,0.4,0.7,0.5,1c0.2,0.7,0.2,1,0.1,1.5c0,0.2,0,0.3-0.1,0.4c0,0.1,0,0.3-0.1,0.5l0,0c0,0.1-0.1,0.2-0.1,0.2
					c0,0.1,0,0,0,0s0-0.1-0.1,0c0,0.1-0.1,0.2-0.1,0.3C89,45.9,89,46,88.9,46.1l-0.1,0.3l-0.2,0.3c0,0,0,0,0,0.1s-0.1,0.1-0.1,0.2
					c0,0.1,0,0.1,0,0.1C88.6,47.2,88.5,47.5,88.7,47.5c-0.1,0,0-0.1,0.1-0.2c0-0.1,0.1-0.1,0.1-0.2C89,47,89,47,89,46.9V47
					c0.1-0.2,0.2-0.2,0.1-0.1c0-0.1,0.1-0.1,0.1-0.1v0.1c0.4-0.5,0.8-1.2,0.8-1.9c0-0.1,0-0.4,0-0.5s0-0.3,0-0.3
					c0-0.1-0.1-0.1-0.1-0.1c0-0.1,0-0.3,0-0.4c0-0.2,0-0.3-0.1-0.5c0-0.2-0.1-0.3-0.1-0.4c0-0.1-0.1-0.1-0.1-0.1
					c0-0.1-0.1-0.2-0.1-0.2c0-0.1-0.1-0.1-0.1-0.2c-0.1-0.1-0.1-0.2-0.2-0.4c-0.3-0.5-0.8-0.9-1.4-1.3l-0.1-0.1l-0.1-0.1
					c-0.1,0-0.2-0.1-0.2-0.1c-0.2-0.1-0.3-0.1-0.5-0.2c-0.1,0-0.3-0.1-0.4-0.1c-0.7-0.1-1.3,0-1.8,0.1c-0.6,0.2-1.1,0.4-1.6,0.7
					s-0.9,0.7-1.2,1.2c-0.4,0.5-0.7,1-0.8,1.6c-0.2,0.6-0.3,1.3-0.2,1.9c0,0.6,0.2,1.3,0.5,1.8c0.3,0.6,0.8,1,1.3,1.3
					s1.1,0.5,1.6,0.6c0.6,0.1,1.1,0,1.6-0.1s0.9-0.3,1.3-0.5c0.7-0.4,1.2-0.8,1.4-1L88.7,47.5z"/>
			</g>
		</g>
	</g>
	<g>
		<g>
			<path class="st4" d="M92.1,57.4c-0.9,2-3.1,2.9-4.9,2.1c-1.8-0.8-2.6-3.1-1.6-5.1c0.9-2,3.1-2.9,4.9-2.1
				C92.3,53.1,93,55.4,92.1,57.4z"/>
		</g>
		<g>
			<g>
				<path class="st5" d="M91.9,57.3c0-0.1,0.1-0.2,0.1-0.3c0.1-0.1,0.1-0.2,0.2-0.4c0.1-0.3,0.2-0.7,0.2-1c0-0.4,0-0.8-0.1-1.1
					s-0.2-0.6-0.4-0.8c-0.1-0.2-0.2-0.3-0.3-0.4c-0.1-0.1-0.2-0.2-0.2-0.3c-0.1-0.1,0,0,0.1,0.1s0.3,0.3,0.4,0.6
					c0.1,0.2,0.3,0.6,0.4,0.9c-0.1-0.5-0.3-0.9-0.5-1.2c-0.1-0.1-0.2-0.2-0.2-0.3L91.5,53l-0.1-0.1c-0.4-0.4-1-0.7-1.5-0.8
					c-0.6-0.1-1.2-0.1-1.7,0.1c-0.1,0-0.2,0.1-0.4,0.1c-0.1,0.1-0.3,0.1-0.4,0.2c-0.1,0-0.1,0.1-0.2,0.1s-0.1,0.1-0.2,0.1
					c-0.1,0.1-0.2,0.2-0.3,0.2c0.6-0.6,1.5-1,2.3-1c0.9-0.1,1.7,0.2,2.4,0.7l-0.1-0.1c-0.7-0.6-1.7-0.8-2.6-0.7
					c-0.2,0-0.3,0.1-0.5,0.1c0.2,0,0.3-0.1,0.5-0.1c0.4-0.1,0.8-0.1,1.2,0c0.1,0,0.3,0.1,0.4,0.1c0.1,0.1,0.3,0.1,0.4,0.2
					c0.1,0.1,0.2,0.1,0.3,0.2l0.2,0.2c0.1,0.1,0.2,0.2,0.3,0.3l0.1,0.1l0,0c0,0,0,0-0.1-0.1l-0.1-0.1c0,0-0.1-0.1-0.2-0.2
					c-0.1-0.1-0.1-0.1-0.2-0.2c-0.3-0.2-0.8-0.5-1.3-0.6s-1-0.1-1.4,0c-0.2,0-0.4,0.1-0.5,0.1s-0.1,0.1-0.2,0.1s-0.1,0-0.1,0.1
					c-0.4,0.2-0.7,0.5-1.1,0.9c-0.1,0.1-0.2,0.2-0.3,0.3c0,0,0,0.1-0.1,0.1c-0.1,0.1-0.1,0.1-0.2,0.2c0,0.1-0.1,0.1-0.1,0.2
					c-0.1,0.1-0.2,0.3-0.2,0.4c-0.1,0.2-0.4,0.6-0.4,0.6c0,0.1,0,0.1,0,0.1S85,54.9,85,55.1v0.1c0,0.1,0,0.1,0,0.2
					c0,0.1,0,0.2,0,0.2c0,0.1,0,0.1,0,0.2c0,0.1,0,0.1,0,0.2c0,0.1,0,0.2,0,0.3c0,0.2,0,0.3,0.1,0.4c0,0.1,0,0.2,0.1,0.3
					c0,0.1,0,0.2,0.1,0.3c0,0.1,0.1,0.2,0.2,0.3c0,0,0.1,0.2,0.2,0.4c0.1,0.1,0.1,0.2,0.2,0.2c0.1,0.1,0.1,0.1,0.1,0.1
					c0,0.1,0.1,0.1,0.1,0.2c0.1,0.1,0.1,0.1,0.1,0.2c0.1,0.1,0.2,0.2,0.3,0.3c0.1,0.1,0.2,0.1,0.3,0.2l0.1,0.1
					c0.1,0,0.1,0.1,0.2,0.1c0.3,0.1,0.6,0.2,0.9,0.3s0.7,0.1,1,0.1c0.2,0,0.3,0,0.4-0.1c0.1,0,0.2,0,0.3-0.1c0.2,0,0.4-0.1,0.7-0.2
					c0.2-0.1,0.2-0.1,0.3-0.2c0.1,0,0.2-0.2,0.4-0.3l0,0c0,0,0.1-0.1,0.2-0.1l0,0c0,0,0,0.1,0.1,0c0.2-0.1,0.4-0.3,0.5-0.5l0.2-0.3
					c0.1-0.1,0.1-0.2,0.2-0.3c0,0,0,0,0-0.1s0-0.1,0.1-0.2c0-0.1,0-0.1-0.1-0.1s0-0.3-0.1-0.3c0,0-0.1,0.1-0.1,0.2L92,57.3H91.9
					L91.9,57.3C91.8,57.5,91.8,57.5,91.9,57.3l-0.2,0.2v-0.1c-0.3,0.4-0.7,0.7-1.1,1c-0.1,0.1-0.2,0.2-0.3,0.2l-0.2,0.1
					c-0.1,0.1,0,0.1-0.1,0.1s-0.2,0.1-0.3,0.1c-0.1,0-0.2,0.1-0.4,0.1c-0.2,0-0.4,0.1-0.4,0.1c-0.1,0-0.2,0-0.3,0
					c-0.1,0-0.2,0-0.3,0c-0.4,0-0.9-0.2-1.3-0.5c-0.1-0.1-0.2-0.2-0.3-0.3c-0.1-0.1-0.2-0.2-0.3-0.3c-0.1-0.1-0.1-0.2-0.2-0.2
					c-0.3-0.4-0.5-0.9-0.6-1.3c-0.1-0.5-0.1-0.9,0-1.3c0.1-0.4,0.2-0.9,0.4-1.3c0.2-0.4,0.5-0.8,0.8-1.2c0.7-0.7,1.8-1.2,2.8-1.1
					c0.5,0.1,1,0.2,1.4,0.5s0.7,0.6,1,1c0.2,0.4,0.4,0.8,0.4,1.1c0.1,0.4,0.1,0.7,0.1,1c0,0.6-0.2,1-0.3,1.3L91.9,57.3z"/>
			</g>
		</g>
	</g>
	<g>
		<g>
			<path class="st4" d="M88.2,52.5c-1.1,2-3.3,2.9-4.9,2s-2.1-3.2-1-5.2s3.3-2.9,4.9-2C88.8,48.2,89.3,50.5,88.2,52.5z"/>
		</g>
		<g>
			<g>
				<path class="st5" d="M88,52.4c0.2-0.3,0.5-0.9,0.6-1.6c0.1-0.7,0-1.5-0.2-2c-0.1-0.3-0.3-0.6-0.4-0.7c-0.1-0.1,0,0,0.1,0.1
					c0,0.1,0.1,0.1,0.2,0.3c0,0.1,0.1,0.1,0.1,0.2c0,0.1,0.1,0.1,0.1,0.2c0.1,0.3,0.2,0.6,0.2,1c0-0.5-0.1-1-0.3-1.3
					c-0.1-0.2-0.3-0.4-0.4-0.6c-0.4-0.4-0.9-0.7-1.5-0.8s-1.1-0.1-1.7,0.1c-0.2,0.1-0.5,0.2-0.8,0.3c-0.3,0.2-0.5,0.4-0.7,0.5
					c0.6-0.6,1.4-0.9,2.3-1c0.8-0.1,1.7,0.2,2.3,0.8l-0.1-0.1c-0.3-0.3-0.7-0.5-1.2-0.7c-0.4-0.1-0.9-0.2-1.3-0.1
					c-0.2,0-0.3,0.1-0.5,0.1c0.2,0,0.3-0.1,0.5-0.1c0.4-0.1,0.8-0.1,1.2,0c0.1,0,0.3,0.1,0.4,0.1c0.1,0.1,0.3,0.1,0.4,0.2
					c0.1,0.1,0.2,0.1,0.3,0.2l0.2,0.2c0.1,0.1,0.2,0.2,0.3,0.3l0.1,0.1l0,0c0,0-0.1-0.1-0.1-0.2c0,0-0.1-0.1-0.1-0.2
					c-0.1-0.1-0.1-0.1-0.2-0.2c-0.3-0.3-0.7-0.5-1.2-0.6s-1-0.1-1.4,0s-0.7,0.2-0.8,0.3c-0.4,0.2-0.7,0.5-1.1,0.8
					c-0.1,0.1-0.2,0.2-0.3,0.3c0,0,0,0.1-0.1,0.1c-0.2,0.3-0.4,0.5-0.5,0.7s-0.5,0.5-0.4,0.6c0,0.1,0,0.1,0,0.1s-0.1,0.1-0.1,0.3
					c0,0.1,0,0.2,0,0.3c0,0.2-0.1,0.3-0.1,0.4c0,0.1,0,0.2,0,0.4c0,0.3,0,0.5,0,0.7s0,0.3,0.1,0.6c0,0,0.1,0.2,0.2,0.4
					c0.1,0.1,0.1,0.2,0.1,0.3s0.1,0.1,0.1,0.1c0.1,0.1,0.2,0.3,0.2,0.4c0,0.1,0.1,0.1,0.1,0.2l0.1,0.1l0.1,0.1l0.1,0.1l0.1,0.1
					l0.1,0.1c0.3,0.1,0.6,0.3,0.9,0.4c0.3,0.1,0.7,0.1,1,0.1s0.5-0.1,0.7-0.1c0.1,0,0.2,0,0.3-0.1c0.1,0,0.2-0.1,0.4-0.1
					c0.1-0.1,0.2-0.1,0.3-0.2c0.1,0,0.2-0.2,0.4-0.3l0,0c0,0,0.1-0.1,0.2-0.1l0,0c0,0,0,0.1,0.1,0s0.2-0.1,0.3-0.2
					c0.1-0.1,0.2-0.2,0.3-0.2c0.1-0.1,0.1-0.2,0.2-0.3l0.2-0.3c0,0,0,0,0-0.1s0.1-0.1,0.1-0.2c0-0.1,0-0.1-0.1-0.1s0-0.3-0.1-0.3
					c0,0-0.2,0.3-0.3,0.4v-0.1c-0.1,0.2-0.2,0.2-0.1,0.1l-0.1,0.1v-0.1c-0.3,0.4-0.8,0.7-1.1,1c-0.1,0.1-0.2,0.2-0.3,0.2L86.2,54
					c-0.1,0.1,0,0.1-0.1,0.1s-0.2,0.1-0.3,0.1c-0.1,0-0.2,0-0.4,0.1c-0.1,0-0.2,0-0.3,0.1c-0.1,0-0.1,0-0.1,0.1c-0.1,0-0.2,0-0.3,0
					c-0.1,0-0.2,0-0.3,0c-0.4-0.1-0.9-0.2-1.3-0.6c-0.1-0.1-0.2-0.2-0.3-0.3c-0.1-0.1-0.2-0.2-0.2-0.3s-0.1-0.2-0.1-0.2
					c-0.2-0.4-0.3-0.9-0.4-1.4c0-0.5,0-0.9,0.1-1.3c0.1-0.4,0.3-0.8,0.5-1.2s0.5-0.8,0.9-1.1c0.4-0.4,0.8-0.6,1.3-0.8s1-0.3,1.5-0.2
					s1,0.3,1.3,0.5c0.4,0.3,0.6,0.7,0.8,1.1c0.2,0.4,0.3,0.8,0.3,1.2s0,0.7-0.1,1c-0.1,0.6-0.3,1-0.4,1.2L88,52.4z"/>
			</g>
		</g>
	</g>
	<g>
		<g>
			<path class="st4" d="M84.6,47.5c0.2,2.2-1.8,4.1-4.4,4.3s-4.8-1.4-5-3.5C75,46.1,77,44.2,79.6,44C82.1,43.7,84.4,45.3,84.6,47.5z
				"/>
		</g>
		<g>
			<g>
				<path class="st5" d="M84.3,47.5c0-0.1,0-0.2,0-0.3s0-0.1,0-0.2c0-0.1,0-0.2-0.1-0.2c-0.1-0.3-0.3-0.7-0.6-1.1
					c-0.1-0.2-0.3-0.3-0.4-0.5c-0.2-0.1-0.3-0.3-0.5-0.4c-0.2-0.1-0.3-0.2-0.5-0.3s-0.3-0.1-0.4-0.2c-0.2-0.1-0.4-0.1-0.5-0.2
					c-0.2,0-0.3-0.1-0.4-0.1c-0.2,0,0.3,0,1,0.3c0.3,0.1,0.7,0.3,1,0.5c-0.4-0.3-1-0.6-1.3-0.7c-0.1,0-0.3-0.1-0.4-0.1
					s-0.3,0-0.4-0.1c-1.3-0.1-2.7,0.2-3.8,0.9c-0.1,0.1-0.2,0.2-0.4,0.3c-0.1,0.1-0.1,0.1-0.2,0.2c-0.1,0.1-0.1,0.1-0.2,0.2
					c-0.1,0.1-0.2,0.3-0.4,0.4c-0.1,0.1-0.2,0.3-0.2,0.4c0.5-0.9,1.3-1.5,2.2-1.9c0.4-0.2,0.9-0.3,1.4-0.4c0.5-0.1,1-0.1,1.5-0.1
					h-0.2c-0.3,0-0.5,0-0.8,0s-0.5,0-0.8,0.1c-0.5,0.1-1,0.3-1.5,0.5c-0.2,0.1-0.3,0.2-0.5,0.3c0.2-0.1,0.3-0.2,0.5-0.3
					c0.4-0.2,0.8-0.4,1.3-0.5c0.2,0,0.3-0.1,0.5-0.1s0.3,0,0.5,0c0.1,0,0.2,0,0.4,0c0.1,0,0.2,0,0.4,0c0.2,0,0.3,0,0.5,0.1h0.1l0,0
					c-0.1,0-0.4-0.1-0.8-0.1s-1,0-1.5,0.1s-1.1,0.3-1.5,0.6c-0.4,0.2-0.7,0.5-0.8,0.6c-0.4,0.4-0.6,0.8-0.9,1.3
					c0,0.1-0.1,0.2-0.1,0.2c0,0.1-0.1,0.2-0.1,0.2s0,0.1,0,0.2c0,0.2-0.1,0.4-0.1,0.6c0,0.1,0,0.2,0,0.3s0,0.2,0,0.2
					c0,0.1,0,0.3,0,0.5s0,0.4,0,0.4c0.2,0.1,0,0,0.2,0.5c0,0.1,0.2,0.2,0.2,0.3c0.1,0.2,0.2,0.3,0.3,0.4c0.1,0.1,0.2,0.2,0.4,0.4
					c0.5,0.4,0.6,0.6,1.2,0.8c0,0,0.1,0,0.2,0.1c0.1,0,0.2,0.1,0.3,0.1c0.1,0,0.2,0.1,0.3,0.1c0.1,0,0.1,0,0.1,0
					c0.2,0.1,0.3,0.1,0.5,0.1s0.3,0,0.4,0.1c0.3,0,0.5,0,0.8,0.1c0.3,0,0.7-0.1,1.1-0.2c0.2,0,0.4-0.1,0.6-0.1
					c0.2-0.1,0.4-0.1,0.5-0.2c0.3-0.2,0.5-0.3,0.7-0.4c0.1-0.1,0.2-0.1,0.3-0.2c0.1-0.1,0.2-0.2,0.3-0.3c0.1-0.1,0.2-0.2,0.3-0.3
					c0.1-0.1,0.2-0.3,0.3-0.5V50c0-0.1,0.1-0.2,0.1-0.2c0-0.1,0,0,0,0s0,0.1,0.1,0c0.1-0.2,0.3-0.5,0.4-0.7c0-0.1,0.1-0.3,0.1-0.4
					c0-0.1,0-0.3,0-0.4c0,0,0,0,0-0.1s0-0.2,0-0.2s-0.1,0-0.1-0.1c-0.1,0-0.2-0.3-0.3-0.2c0,0,0,0.4-0.1,0.6c0,0,0-0.1-0.1-0.1
					c0,0.2-0.1,0.2-0.1,0.1c0,0.1,0,0.1,0,0.1v-0.1c-0.1,0.6-0.5,1.1-0.8,1.5c-0.1,0.1-0.2,0.3-0.3,0.4c0,0.1-0.2,0.1-0.2,0.2
					c0,0.1,0,0.1,0,0.2c-0.1,0.1-0.2,0.1-0.3,0.2c-0.1,0.1-0.3,0.1-0.4,0.2c-0.2,0.1-0.4,0.2-0.4,0.3c-0.2,0.1-0.3,0.1-0.3,0.2
					c-0.1,0-0.2,0.1-0.4,0.1c-0.5,0.1-1.1,0.2-1.7,0.2c-0.1,0-0.2,0-0.2,0c-0.1,0-0.2,0-0.2,0c-0.1,0-0.2,0-0.2,0l-0.2-0.1
					c-0.1,0-0.1,0-0.2,0s-0.1,0-0.2,0c-1.1-0.3-2-1-2.5-1.9s-0.5-2,0-3c0.2-0.5,0.6-1,1.1-1.4s1-0.6,1.6-0.8s1.1-0.2,1.7-0.2
					s1.1,0.1,1.6,0.3s0.9,0.4,1.2,0.7c0.3,0.3,0.6,0.6,0.8,0.8C84.2,46.8,84.3,47.3,84.3,47.5L84.3,47.5z"/>
			</g>
		</g>
	</g>
	<g>
		<path class="st6" d="M80,42.8"/>
	</g>
	<g>
		<path class="st3" d="M76.3,46.9c0,0,1.1,3,3.4,2.5c0,0,2.4-0.1,2.8-2.9c0,0,2.5,3.3-2.6,4.4C79.9,50.8,76.5,51.5,76.3,46.9z"/>
	</g>
	<g>
		<path class="st3" d="M83.5,42.1c0,0,2.3-2.2,4.6-0.1c0,0,1.8,2.5-0.6,4.6C87.5,46.5,88.8,42,83.5,42.1z"/>
	</g>
	<g>
		<path class="st3" d="M86.2,48.2c0,0,1.6,1.4,0.4,3.8c0,0,1,0.4,1.6-2.3C88.1,49.7,87.9,47.5,86.2,48.2z"/>
	</g>
	<g>
		<path class="st3" d="M91.7,47c0,0,3.1-0.7,2.2,3.3c0,0-0.6,1.4-1.7,1.8C92.2,52,93.9,50.2,91.7,47z"/>
	</g>
	<g>
		<path class="st3" d="M87.7,58.5c0,0,2.6,0.1,2.9-3.8c0,0,1.5,0.9,0.1,3C90.7,57.7,89.4,59.5,87.7,58.5z"/>
	</g>
	<g>
		<path class="st3" d="M94.3,54c0,0,1.9,2.5,0.2,4.2c0,0,1.6-0.2,1.6-2.6C96.1,55.5,95.6,54,94.3,54z"/>
	</g>
	<g>
		<path class="st3" d="M78.5,54.8c0,0,0.9,2.4,4.4,2.3C82.8,57.1,79.2,58.9,78.5,54.8z"/>
	</g>
</g>
</svg>
