<?xml version="1.0" encoding="utf-8"?>
<!-- Generator: Adobe Illustrator 23.0.6, SVG Export Plug-In . SVG Version: 6.00 Build 0)  -->
<svg version="1.1" id="Layer_1" xmlns="http://www.w3.org/2000/svg" xmlns:xlink="http://www.w3.org/1999/xlink" x="0px" y="0px"
	 viewBox="0 0 100 80" style="enable-background:new 0 0 100 80;" xml:space="preserve">
<style type="text/css">
	.st0{fill-rule:evenodd;clip-rule:evenodd;fill:#FFFFFF;}
	.st1{fill:#231F20;}
	.st2{fill-rule:evenodd;clip-rule:evenodd;fill:#F48120;}
	.st3{fill:#2E3191;}
	.st4{fill:#004784;}
	.st5{fill:#FFFFFF;}
	.st6{fill:#F58939;}
</style>
<g>
	<g>
		<path class="st0" d="M11.8,55.6h77.4V20.8c0-4.8-3.9-8.7-8.7-8.7h-60c-4.8,0-8.7,3.9-8.7,8.7V55.6L11.8,55.6z"/>
		<path class="st1" d="M89.2,55.7H11.7V20.8c0-4.8,3.9-8.8,8.8-8.8h60c4.8,0,8.8,3.9,8.8,8.8V55.7z M11.8,55.6h77.2V20.8
			c0-4.8-3.9-8.6-8.6-8.6h-60c-4.8,0-8.6,3.9-8.6,8.6V55.6z"/>
	</g>
	<g>
		<path class="st2" d="M11,55.6h78.4v6.9c0,3.8-3.1,6.9-6.9,6.9H17.9c-3.8,0-6.9-3.1-6.9-6.9V55.6L11,55.6z"/>
		<path class="st1" d="M82.5,69.6H17.9c-3.9,0-7-3.2-7-7v-7h78.6v7C89.5,66.5,86.3,69.6,82.5,69.6z M11,55.7v6.9
			c0,3.8,3.1,6.9,6.9,6.9h64.5c3.8,0,6.9-3.1,6.9-6.9v-6.9H11z"/>
	</g>
	<g>
		<path class="st3" d="M80.4,70.6H19.7c-5.4,0-9.7-4.4-9.7-9.7V20.1c0-5.4,4.4-9.7,9.7-9.7h60.7c5.4,0,9.7,4.4,9.7,9.7v40.7
			C90.2,66.2,85.8,70.6,80.4,70.6z M19.7,12.4c-4.3,0-7.7,3.5-7.7,7.7v40.7c0,4.3,3.5,7.7,7.7,7.7h60.7c4.3,0,7.7-3.5,7.7-7.7V20.1
			c0-4.3-3.5-7.7-7.7-7.7H19.7z"/>
	</g>
	<g>
		<polygon class="st4" points="61.3,51.4 64.3,47 65.8,47 68.7,51.4 69.4,51.4 66,46.5 64.1,46.5 60.7,51.4 61.3,51.4 		"/>
	</g>
	<g>
		<path class="st4" d="M70.3,49.9c0,0.8,0.6,1.6,1.5,1.6h4.5c0.8,0,1.5-0.6,1.5-1.4v-3.5h-0.6V50c0,0.5-0.3,0.9-0.8,0.9h-4.6
			c-0.5,0-0.9-0.4-0.9-0.9v-3.5h-0.6V49.9L70.3,49.9z"/>
	</g>
	<g>
		<path class="st4" d="M59.9,49.9c0-0.4-0.1-0.5-0.2-0.6l-0.1,0l0.1-0.1c0.2-0.2,0.2-0.5,0.2-0.6v-0.8c0-0.7-0.6-1.3-1.3-1.3h-6.1
			v4.9l0.6,0V47h5.3c0.4,0,0.8,0.3,0.8,0.8v0.8c0,0.2-0.1,0.5-0.2,0.6l-0.1,0.1l0.1,0.1c0.1,0.1,0.2,0.2,0.2,0.6v1.5h0.6V49.9
			L59.9,49.9z"/>
	</g>
	<g>
		<path class="st4" d="M43.5,46.5l0,4.9h5.8c0.7,0,1.5-0.5,1.5-1.3v-2.3c0-0.8-0.7-1.3-1.5-1.3H43.5L43.5,46.5z"/>
	</g>
	<g>
		<polygon class="st4" points="41.9,51.4 41.9,50.9 35.2,50.9 35.2,47 41.9,47 41.9,46.5 34.7,46.5 34.7,51.4 41.9,51.4 		"/>
	</g>
	<g>
		<path class="st4" d="M17.6,50c0-0.3,0-2.2,0-2.3c0-0.4,0.2-0.8,0.8-0.8h5.7v-0.5h-5.7c-0.7,0-1.4,0.5-1.4,1.3V50
			c0,0.8,0.6,1.4,1.4,1.4h5.8v-0.5h-5.8C18,50.9,17.6,50.5,17.6,50L17.6,50z"/>
	</g>
	<g>
		<polygon class="st4" points="67.8,51.4 68.5,51.4 67.5,50.1 62.5,50.1 61.6,51.4 62.3,51.4 62.8,50.6 67.2,50.6 67.8,51.4 		"/>
	</g>
	<g>
		<polygon class="st4" points="35.5,48.8 41.9,48.8 41.9,48.2 36.1,48.2 36.1,47.8 41.9,47.8 41.9,47.3 35.5,47.3 35.5,48.8 		"/>
	</g>
	<g>
		<polygon class="st4" points="35.5,49.1 35.5,50.6 41.9,50.6 41.9,50.1 36.1,50.1 36.1,49.6 41.9,49.6 41.9,49.1 35.5,49.1 		"/>
	</g>
	<g>
		<path class="st4" d="M17.9,50c0,0.3,0.2,0.6,0.5,0.6h5.8v-0.5h-5.8v-2.2h5.8v-0.5h-5.8c-0.3,0-0.5,0.2-0.5,0.5V50L17.9,50z"/>
	</g>
	<g>
		<path class="st5" d="M49.3,47c0.4,0,0.9,0.3,0.9,0.8V50c0,0.5-0.4,0.8-0.9,0.8h-5.2V47H49.3L49.3,47z"/>
	</g>
	<g>
		<path class="st4" d="M76.3,50.1h-4.5v-3.6h-0.5V50c0,0.3,0.2,0.6,0.5,0.6h4.5c0.3,0,0.6-0.3,0.6-0.6v-3.5h-0.6V50.1L76.3,50.1z"/>
	</g>
	<g>
		<path class="st4" d="M53.4,51.4H54v-1.5h4.4v1.5H59v-1.5c0-0.3-0.3-0.5-0.7-0.5h-5V51.4L53.4,51.4z"/>
	</g>
	<g>
		<path class="st4" d="M58.4,49.2c0.3,0,0.6-0.2,0.6-0.5v-0.7c0-0.3-0.3-0.6-0.6-0.6h-5v1.8H58.4L58.4,49.2z"/>
	</g>
	<g>
		<path class="st4" d="M49.4,47.3h-5v3.3h4.9c0.3,0,0.6-0.2,0.6-0.5v-2.3C49.9,47.5,49.6,47.3,49.4,47.3L49.4,47.3z"/>
	</g>
	<g>
		<polygon class="st4" points="26.7,48.8 32.2,48.8 32.2,46.5 31.7,46.5 31.7,48.2 27.3,48.2 27.3,46.5 26.7,46.5 26.7,48.8 		"/>
	</g>
	<g>
		<polygon class="st4" points="26.7,49.1 26.7,51.4 27.3,51.4 27.3,49.6 31.7,49.6 31.7,51.4 32.2,51.4 32.2,49.1 26.7,49.1 		"/>
	</g>
	<g>
		<polygon class="st4" points="65.7,47.3 64.4,47.3 62.7,49.8 67.3,49.8 65.7,47.3 		"/>
	</g>
	<g>
		<polygon class="st5" points="49.3,47.8 49.3,50.1 45,50.1 45,47.8 49.3,47.8 		"/>
	</g>
	<g>
		<polygon class="st5" points="54,47.8 58.4,47.8 58.4,48.6 54,48.6 54,47.8 		"/>
	</g>
	<g>
		<polygon class="st5" points="66.3,49.2 63.8,49.2 64.6,47.8 65.4,47.8 66.3,49.2 		"/>
	</g>
	<g>
		<polygon class="st6" points="49.2,37.4 43,44.8 47,44.8 52.6,38.1 58.4,44.8 62.3,44.8 55.9,37.4 49.2,37.4 		"/>
	</g>
	<g>
		<polygon class="st6" points="42.4,34.8 34.1,44.8 39.1,44.8 47.5,34.8 42.4,34.8 		"/>
	</g>
	<g>
		<polygon class="st6" points="61.3,33.3 65.4,41.5 72.2,41.5 72.2,36.6 64.6,36.6 62.8,33.3 61.3,33.3 		"/>
	</g>
	<g>
		<polygon class="st6" points="51,26 56.5,32.4 60.7,32.4 55.3,26 51,26 		"/>
	</g>
	<g>
		<polygon class="st6" points="51,27 51,33.7 47.6,36.6 55.9,36.6 56,32.9 51,27 		"/>
	</g>
	<g>
		<polygon class="st6" points="33.2,39.6 28.8,44.8 32.8,44.8 37.2,39.6 33.2,39.6 		"/>
	</g>
	<g>
		<polygon class="st6" points="33.2,31 38.6,37.6 40.8,35.1 37.5,31 33.2,31 		"/>
	</g>
	<g>
		<polygon class="st6" points="43,24 48.8,31 50,31 50,27.2 47.4,24 43,24 		"/>
	</g>
	<g>
		<path class="st6" d="M45.4,17.2c-1.7,0-3,1.3-3,3c0,1.7,1.3,3,3,3c1.7,0,3-1.3,3-3C48.4,18.5,47,17.2,45.4,17.2L45.4,17.2z"/>
	</g>
	<g>
		<polygon class="st6" points="42.8,24.8 42.8,34 47.9,34 47.9,31.1 42.8,24.8 		"/>
	</g>
	<g>
		<path class="st6" d="M53.4,20.3c-1.4,0-2.5,1.1-2.5,2.5c0,1.4,1.1,2.5,2.5,2.5c1.4,0,2.5-1.1,2.5-2.5
			C55.9,21.4,54.8,20.3,53.4,20.3L53.4,20.3z"/>
	</g>
	<g>
		<polygon class="st6" points="33.3,32.2 33.3,38.8 37.8,38.7 38.2,38.3 33.3,32.2 		"/>
	</g>
	<g>
		<path class="st6" d="M35.7,25.8c-1.2,0-2.3,1-2.3,2.3s1,2.3,2.3,2.3c1.2,0,2.3-1,2.3-2.3S37,25.8,35.7,25.8L35.7,25.8z"/>
	</g>
	<g>
		<path class="st6" d="M65.9,30.9c-1.1,0-2,0.9-2,2c0,1.1,0.9,2,2,2c1.1,0,2-0.9,2-2C67.9,31.8,67,30.9,65.9,30.9L65.9,30.9z"/>
	</g>
	<g>
		<path class="st6" d="M71.1,42c-0.6,0-1.1,0.5-1.1,1.1c0,0.6,0.5,1.1,1.1,1.1c0.6,0,1.1-0.5,1.1-1.1C72.1,42.5,71.7,42,71.1,42
			L71.1,42z"/>
	</g>
	<g>
		<path class="st6" d="M66.8,42c-0.6,0-1.1,0.5-1.1,1.1c0,0.6,0.5,1.1,1.1,1.1c0.6,0,1.1-0.5,1.1-1.1C67.8,42.5,67.4,42,66.8,42
			L66.8,42z"/>
	</g>
	<g>
		<path class="st6" d="M60,33.3c-0.5,0-0.9,0.4-0.9,0.9c0,0.5,0.4,0.8,0.9,0.8c0.5,0,0.8-0.4,0.8-0.8C60.8,33.7,60.5,33.3,60,33.3
			L60,33.3z"/>
	</g>
	<g>
		<polygon class="st4" points="80.2,46.5 80.2,51.4 80.8,51.4 80.8,46.5 80.2,46.5 		"/>
	</g>
	<g>
		<polygon class="st4" points="79.9,51.4 79.9,46.5 79.2,46.5 79.3,51.4 79.9,51.4 		"/>
	</g>
	<g>
		<polygon class="st4" points="26.5,51.4 26.5,46.5 25.9,46.5 25.9,51.4 26.5,51.4 		"/>
	</g>
	<g>
		<polygon class="st4" points="32.5,46.5 32.5,51.4 33,51.4 33,46.5 32.5,46.5 		"/>
	</g>
	<g>
		<polygon class="st5" points="22.2,10.3 22.2,10.3 22.2,10.3 22.3,10.3 22.3,10.3 22.3,10.3 22.3,10.3 22.3,10.3 22.3,10.3 
			22.2,10.3 22.2,10.3 22.2,10.3 22.2,10.3 		"/>
	</g>
	<g>
		<polygon class="st5" points="22.3,10.3 22.3,10.3 22.3,10.3 22.3,10.3 22.3,10.3 22.3,10.3 22.3,10.3 22.3,10.3 22.3,10.3 
			22.3,10.3 22.3,10.3 		"/>
	</g>
	<g>
		<polygon class="st5" points="22.2,10.3 22.2,10.3 22.2,10.3 22.2,10.3 22.2,10.3 		"/>
	</g>
	<g>
		<polygon class="st5" points="22.3,10.3 22.3,10.3 22.3,10.3 22.3,10.3 22.3,10.3 22.3,10.3 22.3,10.3 22.3,10.3 22.3,10.3 
			22.3,10.4 22.3,10.4 22.3,10.3 22.3,10.3 		"/>
	</g>
	<g>
		<rect x="11" y="54.6" class="st3" width="78.2" height="2"/>
	</g>
	<g>
		<path class="st5" d="M21.4,62.9l1.6,0.2c-0.1,0.4-0.2,0.7-0.4,1c-0.2,0.3-0.5,0.5-0.8,0.7c-0.3,0.2-0.7,0.2-1.2,0.2
			c-0.5,0-0.9,0-1.2-0.1c-0.3-0.1-0.6-0.3-0.8-0.5c-0.2-0.2-0.4-0.5-0.5-0.8c-0.1-0.3-0.2-0.7-0.2-1.2c0-0.5,0.1-0.9,0.2-1.3
			c0.1-0.3,0.3-0.5,0.5-0.7c0.2-0.2,0.4-0.3,0.6-0.4c0.3-0.2,0.8-0.2,1.3-0.2c0.7,0,1.3,0.1,1.7,0.4c0.4,0.3,0.6,0.7,0.8,1.3
			l-1.6,0.2c0-0.2-0.1-0.4-0.3-0.5c-0.1-0.1-0.3-0.2-0.5-0.2c-0.3,0-0.5,0.1-0.7,0.3c-0.2,0.2-0.3,0.6-0.3,1c0,0.4,0.1,0.7,0.3,0.9
			c0.2,0.2,0.4,0.3,0.7,0.3c0.2,0,0.4-0.1,0.6-0.2C21.2,63.4,21.3,63.2,21.4,62.9z"/>
		<path class="st5" d="M28.5,64.9h-1.6v-0.8c-0.2,0.3-0.5,0.6-0.7,0.7c-0.2,0.1-0.5,0.2-0.9,0.2c-0.5,0-0.8-0.2-1.1-0.5
			c-0.3-0.3-0.4-0.8-0.4-1.5v-3.2h1.7v2.8c0,0.3,0.1,0.5,0.2,0.7c0.1,0.1,0.2,0.2,0.4,0.2c0.2,0,0.4-0.1,0.5-0.3
			c0.1-0.2,0.2-0.5,0.2-1v-2.4h1.7V64.9z"/>
		<path class="st5" d="M34.4,62.9H31c0,0.3,0.1,0.5,0.2,0.7c0.2,0.2,0.4,0.3,0.6,0.3c0.2,0,0.3,0,0.5-0.1c0.1-0.1,0.2-0.2,0.3-0.3
			l1.7,0.2c-0.3,0.5-0.6,0.9-0.9,1.1C33,64.9,32.5,65,31.8,65c-0.6,0-1-0.1-1.4-0.3s-0.6-0.5-0.8-0.9s-0.3-0.9-0.3-1.4
			c0-0.8,0.2-1.4,0.7-1.9c0.4-0.5,1.1-0.7,1.8-0.7c0.6,0,1.1,0.1,1.5,0.3c0.4,0.2,0.6,0.5,0.8,0.9c0.2,0.4,0.3,1,0.3,1.6V62.9z
			 M32.7,61.9c0-0.4-0.1-0.6-0.3-0.8c-0.1-0.2-0.3-0.2-0.6-0.2c-0.3,0-0.5,0.1-0.6,0.4c-0.1,0.2-0.2,0.4-0.2,0.7H32.7z"/>
		<path class="st5" d="M34.9,63.5l1.7-0.2c0.1,0.2,0.2,0.4,0.3,0.5c0.1,0.1,0.3,0.1,0.5,0.1c0.2,0,0.4-0.1,0.5-0.2
			c0.1-0.1,0.1-0.2,0.1-0.3c0-0.1-0.1-0.2-0.2-0.3c-0.1-0.1-0.3-0.1-0.7-0.2c-0.6-0.1-1-0.2-1.2-0.3c-0.2-0.1-0.4-0.3-0.6-0.5
			c-0.2-0.2-0.2-0.5-0.2-0.8c0-0.3,0.1-0.6,0.3-0.9c0.2-0.2,0.4-0.4,0.7-0.5c0.3-0.1,0.7-0.2,1.2-0.2c0.5,0,0.9,0,1.2,0.1
			c0.3,0.1,0.5,0.2,0.6,0.4c0.2,0.2,0.3,0.5,0.4,0.8l-1.6,0.2c0-0.2-0.1-0.3-0.2-0.4c-0.1-0.1-0.3-0.2-0.5-0.2c-0.2,0-0.3,0-0.4,0.1
			c-0.1,0.1-0.1,0.2-0.1,0.3c0,0.1,0.1,0.2,0.2,0.3s0.4,0.1,0.7,0.2c0.6,0.1,1,0.2,1.3,0.3c0.3,0.1,0.5,0.3,0.6,0.6
			c0.1,0.2,0.2,0.5,0.2,0.8c0,0.3-0.1,0.6-0.2,0.8c-0.2,0.3-0.4,0.5-0.7,0.7c-0.3,0.2-0.8,0.2-1.4,0.2c-0.8,0-1.4-0.1-1.7-0.4
			C35.2,64.4,35,64,34.9,63.5z"/>
		<path class="st5" d="M42.4,58v1.9h0.9v1.4h-0.9v1.8c0,0.2,0,0.4,0.1,0.4c0.1,0.1,0.2,0.2,0.3,0.2c0.1,0,0.3,0,0.5-0.1l0.1,1.3
			C43,65,42.6,65,42.3,65c-0.4,0-0.7-0.1-0.9-0.2s-0.3-0.3-0.4-0.6c-0.1-0.3-0.1-0.7-0.1-1.2v-1.8h-0.6v-1.4h0.6V59L42.4,58z"/>
		<path class="st5" d="M45.7,61.5l-1.6-0.2c0.1-0.3,0.1-0.6,0.3-0.8s0.3-0.3,0.5-0.5c0.2-0.1,0.4-0.2,0.6-0.2
			c0.3-0.1,0.6-0.1,0.9-0.1c0.5,0,0.9,0,1.2,0.1c0.3,0.1,0.6,0.2,0.8,0.4c0.1,0.1,0.3,0.3,0.3,0.6c0.1,0.3,0.1,0.5,0.1,0.7v2.2
			c0,0.2,0,0.4,0,0.6c0,0.1,0.1,0.3,0.2,0.5h-1.6c-0.1-0.1-0.1-0.2-0.1-0.3c0-0.1,0-0.2-0.1-0.3c-0.2,0.2-0.4,0.4-0.7,0.5
			C46.3,65,46,65,45.6,65c-0.5,0-0.9-0.1-1.2-0.4c-0.3-0.3-0.4-0.6-0.4-1c0-0.4,0.1-0.7,0.3-0.9c0.2-0.2,0.6-0.4,1.1-0.5
			c0.6-0.1,1-0.2,1.2-0.3c0.2-0.1,0.4-0.1,0.6-0.2c0-0.2,0-0.4-0.1-0.5c-0.1-0.1-0.2-0.1-0.5-0.1c-0.3,0-0.5,0.1-0.6,0.2
			C45.9,61.1,45.8,61.3,45.7,61.5z M47.2,62.5c-0.2,0.1-0.5,0.2-0.7,0.3c-0.3,0.1-0.6,0.2-0.7,0.3c-0.1,0.1-0.1,0.2-0.1,0.4
			c0,0.2,0,0.3,0.1,0.4c0.1,0.1,0.2,0.1,0.4,0.1c0.2,0,0.4-0.1,0.5-0.2c0.2-0.1,0.3-0.2,0.3-0.4c0.1-0.1,0.1-0.3,0.1-0.6V62.5z"/>
	</g>
	<g>
		<path class="st5" d="M52.7,59.9h1.6v0.7c0.2-0.3,0.5-0.5,0.7-0.7c0.2-0.1,0.5-0.2,0.8-0.2c0.4,0,0.6,0.1,0.8,0.2
			c0.2,0.1,0.4,0.4,0.5,0.6c0.3-0.3,0.5-0.6,0.7-0.7c0.2-0.1,0.5-0.2,0.8-0.2c0.5,0,0.8,0.2,1.1,0.5c0.3,0.3,0.4,0.8,0.4,1.5v3.2
			h-1.7V62c0-0.2,0-0.4-0.1-0.5c-0.1-0.2-0.3-0.3-0.4-0.3c-0.2,0-0.4,0.1-0.5,0.2s-0.2,0.4-0.2,0.8v2.6h-1.7v-2.8c0-0.2,0-0.4,0-0.5
			c0-0.1-0.1-0.2-0.2-0.3c-0.1-0.1-0.2-0.1-0.3-0.1c-0.2,0-0.4,0.1-0.5,0.3c-0.1,0.2-0.2,0.4-0.2,0.8v2.6h-1.7V59.9z"/>
		<path class="st5" d="M66.2,62.9h-3.4c0,0.3,0.1,0.5,0.2,0.7c0.2,0.2,0.4,0.3,0.6,0.3c0.2,0,0.3,0,0.5-0.1c0.1-0.1,0.2-0.2,0.3-0.3
			l1.7,0.2c-0.3,0.5-0.6,0.9-0.9,1.1c-0.4,0.2-0.9,0.3-1.6,0.3c-0.6,0-1-0.1-1.4-0.3c-0.3-0.2-0.6-0.5-0.8-0.9
			C61.1,63.4,61,63,61,62.4c0-0.8,0.2-1.4,0.7-1.9c0.4-0.5,1.1-0.7,1.8-0.7c0.6,0,1.1,0.1,1.5,0.3c0.4,0.2,0.6,0.5,0.8,0.9
			c0.2,0.4,0.3,1,0.3,1.6V62.9z M64.4,61.9c0-0.4-0.1-0.6-0.3-0.8c-0.1-0.2-0.3-0.2-0.6-0.2c-0.3,0-0.5,0.1-0.6,0.4
			c-0.1,0.2-0.2,0.4-0.2,0.7H64.4z"/>
		<path class="st5" d="M66.9,59.9h1.6v0.8c0.2-0.3,0.5-0.6,0.7-0.7c0.2-0.1,0.5-0.2,0.9-0.2c0.5,0,0.8,0.2,1.1,0.5
			c0.3,0.3,0.4,0.8,0.4,1.5v3.2h-1.7v-2.8c0-0.3-0.1-0.5-0.2-0.7c-0.1-0.1-0.2-0.2-0.4-0.2c-0.2,0-0.4,0.1-0.5,0.3
			c-0.1,0.2-0.2,0.5-0.2,1v2.4h-1.7V59.9z"/>
		<path class="st5" d="M72.4,62.4c0-0.8,0.2-1.4,0.7-1.9c0.5-0.5,1.1-0.7,1.8-0.7c0.9,0,1.6,0.3,2,0.9c0.4,0.5,0.5,1,0.5,1.7
			c0,0.8-0.2,1.4-0.7,1.9C76.4,64.8,75.8,65,75,65c-0.7,0-1.3-0.2-1.7-0.6C72.7,63.9,72.4,63.2,72.4,62.4z M74.1,62.4
			c0,0.4,0.1,0.8,0.2,1c0.2,0.2,0.4,0.3,0.6,0.3c0.2,0,0.4-0.1,0.6-0.3c0.2-0.2,0.2-0.6,0.2-1c0-0.4-0.1-0.8-0.2-1
			c-0.2-0.2-0.4-0.3-0.6-0.3c-0.2,0-0.5,0.1-0.6,0.3C74.2,61.6,74.1,62,74.1,62.4z"/>
		<path class="st5" d="M78,63.5l1.7-0.2c0.1,0.2,0.2,0.4,0.3,0.5s0.3,0.1,0.5,0.1c0.2,0,0.4-0.1,0.5-0.2c0.1-0.1,0.1-0.2,0.1-0.3
			c0-0.1-0.1-0.2-0.2-0.3c-0.1-0.1-0.3-0.1-0.7-0.2c-0.6-0.1-1-0.2-1.2-0.3c-0.2-0.1-0.4-0.3-0.6-0.5c-0.2-0.2-0.2-0.5-0.2-0.8
			c0-0.3,0.1-0.6,0.3-0.9c0.2-0.2,0.4-0.4,0.7-0.5c0.3-0.1,0.7-0.2,1.2-0.2c0.5,0,0.9,0,1.2,0.1c0.3,0.1,0.5,0.2,0.6,0.4
			c0.2,0.2,0.3,0.5,0.4,0.8L81,61.3c0-0.2-0.1-0.3-0.2-0.4c-0.1-0.1-0.3-0.2-0.5-0.2c-0.2,0-0.3,0-0.4,0.1c-0.1,0.1-0.1,0.2-0.1,0.3
			c0,0.1,0.1,0.2,0.2,0.3c0.1,0.1,0.4,0.1,0.7,0.2c0.6,0.1,1,0.2,1.3,0.3c0.3,0.1,0.5,0.3,0.6,0.6c0.1,0.2,0.2,0.5,0.2,0.8
			c0,0.3-0.1,0.6-0.2,0.8c-0.2,0.3-0.4,0.5-0.7,0.7C81.4,64.9,81,65,80.4,65c-0.8,0-1.4-0.1-1.7-0.4C78.3,64.4,78.1,64,78,63.5z"/>
	</g>
</g>
</svg>
