<?xml version="1.0" encoding="utf-8"?>
<!-- Generator: Adobe Illustrator 23.0.6, SVG Export Plug-In . SVG Version: 6.00 Build 0)  -->
<svg version="1.1" id="Layer_1" xmlns="http://www.w3.org/2000/svg" xmlns:xlink="http://www.w3.org/1999/xlink" x="0px" y="0px"
	 viewBox="0 0 100 80" style="enable-background:new 0 0 100 80;" xml:space="preserve">
<style type="text/css">
	.st0{fill:#C10230;}
	.st1{fill:#FFFFFF;}
	.st2{fill:#A7A8A9;}
</style>
<g>
	<g>
		<g id="CiTY_M._3_">
			<path class="st0" d="M7,36.2c-0.9-0.5-2-0.7-3.1-0.4c-1.2,0.2-2.1,0.7-2.8,1.5c-0.7,0.8-0.9,1.6-0.7,2.6c0.7,3.5,1.5,7,2.2,10.5
				c0.2,0.9,0.7,1.6,1.6,2.1s1.9,0.6,3,0.4c1.1-0.2,2-0.7,2.6-1.5c0.6-0.8,0.8-1.6,0.7-2.5c-0.1-0.7-0.2-1.3-0.4-2
				c-0.9,0.2-1.8,0.3-2.7,0.5c0.2,1.2,0.4,2.3,0.6,3.5c0.2,0.9-0.2,1.4-0.9,1.5c-0.8,0.1-1.3-0.2-1.5-1.1c-0.9-4.5-1.8-9-2.6-13.5
				c-0.2-0.9,0.2-1.4,1-1.5c0.8-0.2,1.4,0.2,1.5,1.1c0.2,1.2,0.4,2.3,0.6,3.5c1-0.2,1.9-0.4,2.9-0.6c-0.1-0.7-0.2-1.3-0.4-2
				C8.5,37.4,7.9,36.7,7,36.2z M8.6,50.2c-0.1-0.8-0.3-1.6-0.4-2.4c0.2,0,0.5-0.1,0.7-0.1c0.1,0.7,0.2,1.3,0.4,2
				c0.2,0.9-0.1,1.7-0.9,2.3C8.6,51.5,8.7,50.9,8.6,50.2z M4.9,52.2c-0.9-0.3-1.4-0.9-1.5-1.8c-0.8-3.7-1.5-7.3-2.3-11
				c-0.2-0.8,0.1-1.6,0.8-2.2c-0.2,0.5-0.3,1-0.1,1.7c0.8,3.9,1.6,7.8,2.4,11.8C4.2,51.4,4.5,51.9,4.9,52.2z M7.4,40
				c-0.2,0-0.5,0.1-0.7,0.1c-0.1-0.8-0.3-1.6-0.4-2.4c-0.1-0.7-0.4-1.2-0.9-1.5c1,0.3,1.5,1,1.7,1.9C7.2,38.7,7.3,39.4,7.4,40z"/>
			<path class="st0" d="M12.3,28.5c-1,0.1-2,0.3-3,0.5c0.2,1.3,0.4,2.6,0.6,3.9c1-0.2,1.9-0.3,2.9-0.4
				C12.7,31.1,12.5,29.8,12.3,28.5z M11.3,32c-0.2,0-0.5,0.1-0.7,0.1c-0.1-0.9-0.3-1.8-0.4-2.7c0.2,0,0.5-0.1,0.7-0.1
				C11,30.2,11.2,31.1,11.3,32z"/>
			<path class="st0" d="M13.2,34.4c-1.3,0.2-2.5,0.4-3.8,0.6c0,0.2,0.1,0.4,0.1,0.6c0.3,0,0.6-0.1,0.9-0.1
				c0.9,5.3,1.7,10.5,2.6,15.8c-0.3,0-0.6,0.1-0.9,0.1c0,0.2,0.1,0.4,0.1,0.6c1.5-0.2,2.9-0.5,4.4-0.7c0-0.2-0.1-0.4-0.1-0.6
				c-0.3,0-0.6,0.1-0.9,0.1C14.8,45.3,14,39.8,13.2,34.4z M14.3,50.9c-0.2,0-0.5,0.1-0.7,0.1c-0.9-5.3-1.7-10.5-2.6-15.8
				c0.2,0,0.5-0.1,0.7-0.1C12.6,40.4,13.5,45.7,14.3,50.9z"/>
			<path class="st0" d="M20.6,48.7c-0.6-4.8-1.3-9.7-1.9-14.5c0.7-0.1,1.4-0.2,2.1-0.3c0-0.2,0-0.4-0.1-0.6
				c-0.7,0.1-1.4,0.2-2.1,0.3c-0.3-2-0.5-3.9-0.8-5.9c-0.9,0.5-1.9,1-2.8,1.5c0.2,1.6,0.4,3.2,0.7,4.7c-0.3,0-0.6,0.1-0.9,0.1
				c0,0.2,0.1,0.4,0.1,0.6c0.3,0,0.6-0.1,0.9-0.1c0.6,4.4,1.2,8.7,1.9,13.1c0.1,0.9,0.6,1.7,1.4,2.2s1.8,0.8,2.9,0.6
				c0.3,0,0.6-0.1,0.9-0.1c0-0.2,0-0.4-0.1-0.6c-0.3,0-0.6,0.1-0.9,0.1C21.1,50,20.7,49.6,20.6,48.7z M18.3,47.8
				c-0.8-6.1-1.7-12.1-2.5-18.2c0.2-0.1,0.5-0.3,0.7-0.4c0.9,6.3,1.7,12.6,2.6,18.9c0.1,0.7,0.3,1.2,0.7,1.6
				C18.9,49.3,18.5,48.6,18.3,47.8z"/>
			<path class="st0" d="M26.8,33.3c0.3,0,0.6-0.1,0.9-0.1c0.5,5,0.9,10.1,1.4,15.1c-0.4,0.4-0.8,0.6-1.2,0.7
				c-0.7,0.1-1.1-0.3-1.1-1.2c-0.5-5-1-10-1.5-15c-1.3,0.1-2.6,0.3-3.8,0.4c0,0.2,0,0.4,0.1,0.6c0.3,0,0.6-0.1,0.9-0.1
				c0.5,4.4,1,8.9,1.5,13.3c0.2,2,1.3,2.9,3.3,2.7c0.8-0.1,1.5-0.3,1.9-0.8c0.1,1.2,0.2,2.4,0.3,3.6c0.1,0.9-0.2,1.3-0.9,1.4
				c-0.8,0.1-1.2-0.3-1.3-1.2c-0.1-0.7-0.1-1.4-0.2-2c-0.9,0.1-1.8,0.2-2.7,0.3c0,0.2,0,0.4,0.1,0.6c0.1,0.9,0.6,1.7,1.4,2.2
				c0.8,0.6,1.7,0.8,2.8,0.7c1.1-0.1,1.9-0.5,2.6-1.2c0.6-0.7,0.9-1.5,0.8-2.5c-0.5-6.2-1-12.3-1.5-18.5c-1.3,0.1-2.5,0.2-3.8,0.3
				C26.7,32.9,26.7,33.1,26.8,33.3z M24.6,47.3c-0.5-4.5-1-9.1-1.5-13.6c0.2,0,0.5-0.1,0.7-0.1c0.5,4.7,1,9.3,1.5,14
				c0.1,0.7,0.4,1.3,0.9,1.7C25.2,49.1,24.7,48.5,24.6,47.3z M25.1,51.8c0-0.1,0-0.1,0-0.2c0.2,0,0.5,0,0.7-0.1c0,0.2,0,0.4,0.1,0.6
				c0.1,0.7,0.3,1.2,0.6,1.6C25.6,53.3,25.2,52.6,25.1,51.8z M30,52.1c-0.6-6.3-1.1-12.6-1.7-18.9c0.2,0,0.5,0,0.7-0.1
				c0.5,6.1,1.1,12.3,1.6,18.4c0.1,0.9-0.3,1.6-1,2.2C30,53.3,30.1,52.8,30,52.1z"/>
			<path class="st0" d="M52.1,34.6c0-2-1-3-3.2-3c-1.1,0-2,0.3-2.7,1c-0.5-0.6-1.4-1-2.6-0.9c-0.9,0-1.6,0.3-2.1,0.7
				c0-0.1,0-0.3,0-0.4c-1.3,0-2.6,0.1-3.8,0.2c0,0.2,0,0.4,0,0.6c0.3,0,0.6,0,0.9,0c0.2,5.3,0.5,10.6,0.7,15.9c-0.3,0-0.6,0-0.9,0
				c0,0.2,0,0.4,0,0.6c1.5-0.1,3-0.1,4.4-0.2c0-0.2,0-0.4,0-0.6c-0.3,0-0.6,0-0.9,0c-0.2-5.2-0.4-10.3-0.5-15.5
				c0.4-0.4,0.8-0.6,1.3-0.6c0.7,0,1.1,0.4,1.1,1.2c0.1,5.1,0.3,10.3,0.4,15.4c1.2,0,2.4,0,3.5-0.1c0-0.2,0-0.4,0-0.6
				c-0.3,0-0.6,0-0.8,0c-0.1-4.6-0.1-9.1-0.2-13.7c0-0.6-0.1-1.1-0.4-1.6c0.5-0.5,1.1-0.8,1.7-0.8c0.7,0,1.1,0.4,1.1,1.3
				c0,5.1,0,10.3,0,15.4c1.2,0,2.4,0,3.6,0c0-0.2,0-0.4,0-0.6c-0.3,0-0.6,0-0.9,0C52,43.7,52,39.1,52.1,34.6z M40.7,48.4
				c-0.2,0-0.5,0-0.7,0c-0.2-5.3-0.5-10.6-0.7-15.9c0.3,0,0.5,0,0.8,0C40.3,37.8,40.5,43.1,40.7,48.4z M45.6,48.3
				c-0.2,0-0.5,0-0.7,0c-0.1-4.8-0.2-9.7-0.3-14.5c0-0.7-0.2-1.2-0.5-1.5c0.8,0.3,1.3,0.9,1.3,1.8C45.4,38.8,45.5,43.5,45.6,48.3z
				 M50.6,48.2c-0.2,0-0.5,0-0.7,0c0-4.8,0-9.7,0-14.5c0-0.7-0.2-1.2-0.5-1.5c0.8,0.3,1.2,0.9,1.2,1.8
				C50.6,38.7,50.6,43.5,50.6,48.2z"/>
			<path class="st0" d="M61.9,35.2c0.1-1-0.3-1.8-0.9-2.5c-0.7-0.6-1.6-1-2.9-1c-1.2,0-2.2,0.2-2.9,0.8s-1.1,1.4-1.1,2.4
				c0,0.7,0,1.4,0,2c0.9,0,1.9,0,2.8,0.1c0-1.2,0.1-2.3,0.1-3.5c0-0.9,0.4-1.3,1.1-1.3c0.7,0,1.1,0.5,1,1.4
				c-0.1,1.8-0.1,3.7-0.2,5.5c-0.3,0-0.6,0-0.9,0c-2.8-0.1-4.2,1-4.2,3.1c0,1.3,0,2.5-0.1,3.8c0,2,0.9,3,2.8,3.1
				c0.8,0,1.4-0.2,2-0.6c0,0.2,0,0.3,0,0.5c1.2,0,2.4,0.1,3.6,0.2c0-0.2,0-0.4,0-0.6c-0.3,0-0.6,0-0.9,0
				C61.5,44.1,61.7,39.6,61.9,35.2z M55.5,34.3c0,0.7,0,1.4,0,2.1c-0.2,0-0.5,0-0.7,0c0-0.6,0-1.1,0-1.7c0-0.9,0.4-1.7,1.3-2.1
				C55.7,33,55.5,33.6,55.5,34.3z M54.4,46.3c0-1.4,0.1-2.9,0.1-4.3c0-1,0.4-1.7,1.2-2.1c-0.3,0.4-0.5,1-0.5,1.7
				c0,1.7-0.1,3.4-0.1,5.1c0,0.7,0.2,1.3,0.6,1.8C54.8,48.2,54.4,47.5,54.4,46.3z M58.6,47.9c-0.4,0.4-0.8,0.5-1.2,0.5
				c-0.6,0-0.9-0.4-0.9-1.3c0.1-2.1,0.1-4.1,0.2-6.2c0-0.9,0.5-1.3,1.4-1.3c0.3,0,0.5,0,0.8,0C58.8,42.4,58.7,45.2,58.6,47.9z
				 M59.9,48.5c-0.2,0-0.5,0-0.7,0c0.2-4.8,0.4-9.6,0.6-14.4c0-0.7-0.1-1.3-0.5-1.7c0.9,0.5,1.3,1.2,1.2,2.2
				C60.3,39.1,60.1,43.8,59.9,48.5z"/>
			<path class="st0" d="M69.5,32.3c-0.8-0.1-1.5,0.1-2.1,0.5c0-0.1,0-0.3,0-0.4c-1.3-0.1-2.6-0.2-3.8-0.2c0,0.2,0,0.4,0,0.6
				c0.3,0,0.6,0,0.9,0.1c-0.3,5.3-0.7,10.6-1,15.9c-0.3,0-0.6,0-0.9,0c0,0.2,0,0.4,0,0.6c1.5,0.1,3,0.2,4.4,0.3c0-0.2,0-0.4,0-0.6
				c-0.3,0-0.6,0-0.9-0.1c0.4-5.2,0.8-10.3,1.1-15.5c0.4-0.3,0.8-0.5,1.2-0.5c0.6,0,0.8,0.5,0.8,1.3c-0.1,1.2-0.2,2.3-0.3,3.5
				c0.9,0.1,1.9,0.2,2.8,0.2c0.1-0.8,0.1-1.6,0.2-2.4C72.3,33.5,71.4,32.4,69.5,32.3z M64.9,48.7c-0.2,0-0.5,0-0.7,0
				c0.3-5.3,0.7-10.6,1-15.9c0.3,0,0.5,0,0.8,0C65.6,38.1,65.3,43.4,64.9,48.7z M70.5,37.2c-0.2,0-0.5,0-0.7-0.1
				c0.1-0.9,0.2-1.8,0.2-2.7c0.1-0.8,0-1.3-0.3-1.6c0.8,0.3,1.1,1,1,1.9C70.6,35.7,70.6,36.4,70.5,37.2z"/>
			<path class="st0" d="M78.3,39.1c1.1-1.6,2.2-3.2,3.4-4.8c0.3,0,0.6,0.1,0.9,0.1c0-0.2,0.1-0.4,0.1-0.6c-0.9-0.1-1.9-0.2-2.8-0.3
				c0,0.2,0,0.4-0.1,0.6c0.3,0,0.6,0.1,0.9,0.1c-1.5,2.2-3.1,4.4-4.5,6.5c0.5-4.5,1-9,1.5-13.5c-1.3-0.1-2.6-0.3-3.9-0.4
				c0,0.2,0,0.4-0.1,0.6c0.3,0,0.6,0.1,0.9,0.1c-0.7,7.3-1.5,14.5-2.2,21.8c-0.3,0-0.6-0.1-0.9-0.1c0,0.2,0,0.4-0.1,0.6
				c1.5,0.1,2.9,0.3,4.4,0.5c0-0.2,0-0.4,0.1-0.6c-0.3,0-0.6-0.1-0.9-0.1c0.3-2.6,0.6-5.2,0.9-7.8c0.5,2.9,0.9,5.7,1.3,8.6
				c1.2,0.1,2.3,0.3,3.5,0.4c0-0.2,0.1-0.4,0.1-0.6c-0.3,0-0.6-0.1-0.9-0.1C79.5,46.5,78.9,42.8,78.3,39.1z M73.8,49.5
				c-0.2,0-0.5,0-0.7-0.1c0.8-7.3,1.5-14.5,2.3-21.8c0.2,0,0.5,0.1,0.8,0.1C75.4,35,74.6,42.2,73.8,49.5z M78,49.9
				c-0.4-2.8-0.8-5.7-1.3-8.5c0.2-0.3,0.4-0.6,0.5-0.9c0.5,3.2,1,6.3,1.4,9.5C78.5,50,78.3,50,78,49.9z"/>
			<path class="st0" d="M91.3,35.9c-0.7-0.8-1.6-1.3-2.8-1.4c-1.2-0.2-2.3,0-3.1,0.5c-0.9,0.5-1.4,1.3-1.5,2.2
				c-0.5,3.5-1,7.1-1.5,10.6c-0.1,0.9,0.1,1.8,0.8,2.5c0.6,0.7,1.5,1.2,2.6,1.4s2.1,0,2.9-0.5s1.4-1.2,1.5-2.2
				c0.1-0.7,0.2-1.3,0.4-2c-0.9-0.2-1.8-0.3-2.7-0.5c-0.2,1.2-0.4,2.3-0.6,3.5c-0.1,0.9-0.6,1.2-1.4,1.1c-0.8-0.1-1.1-0.6-1-1.5
				c0.3-2.2,0.7-4.3,1-6.5c1.8,0.3,3.5,0.5,5.3,0.8c0.3-1.8,0.7-3.7,1-5.5C92.2,37.6,92,36.7,91.3,35.9z M87.9,49.7
				c0.1-0.8,0.3-1.6,0.4-2.4c0.2,0,0.5,0.1,0.7,0.1c-0.1,0.7-0.2,1.3-0.3,2c-0.2,0.9-0.7,1.5-1.6,1.9C87.5,50.9,87.8,50.4,87.9,49.7
				z M83.8,50.4c-0.7-0.6-1-1.3-0.8-2.2c0.5-3.7,1.1-7.4,1.6-11.1c0.1-0.8,0.6-1.5,1.5-1.8c-0.4,0.4-0.6,0.9-0.7,1.6
				c-0.6,4-1.2,7.9-1.8,11.9C83.4,49.3,83.5,49.9,83.8,50.4z M88.4,43c-0.8-0.1-1.7-0.3-2.5-0.4c0.3-2.1,0.7-4.3,1-6.4
				c0.1-0.9,0.6-1.2,1.5-1.1s1.2,0.6,1.1,1.5C89.1,38.7,88.7,40.9,88.4,43z M89.8,43.2c-0.2,0-0.5-0.1-0.7-0.1c0.3-2,0.7-4,1-6
				c0.1-0.7,0-1.3-0.3-1.7c0.8,0.6,1.1,1.4,1,2.3C90.4,39.6,90.1,41.4,89.8,43.2z"/>
			<path class="st0" d="M95.6,52.7c-0.8-0.2-1.1-0.7-0.9-1.5c1-4.8,1.9-9.6,2.9-14.4c0.7,0.1,1.4,0.3,2.1,0.4c0-0.2,0.1-0.4,0.1-0.6
				c-0.7-0.1-1.4-0.3-2.1-0.4c0.4-1.9,0.8-3.9,1.2-5.8c-1.1,0.2-2.1,0.4-3.2,0.6c-0.3,1.6-0.6,3.1-0.9,4.7c-0.3-0.1-0.6-0.1-0.9-0.2
				c0,0.2-0.1,0.4-0.1,0.6c0.3,0.1,0.6,0.1,0.9,0.2c-0.8,4.3-1.6,8.6-2.5,13c-0.2,0.9,0,1.8,0.7,2.5c0.6,0.8,1.5,1.3,2.6,1.5
				c0.3,0.1,0.6,0.1,0.9,0.2c0-0.2,0.1-0.4,0.1-0.6C96.1,52.8,95.9,52.8,95.6,52.7z M92.8,49.6c1.2-6,2.3-12,3.5-18.1
				c0.3-0.1,0.5-0.1,0.8-0.2c-1.2,6.2-2.4,12.5-3.7,18.7c-0.1,0.7-0.1,1.2,0.2,1.7C92.9,51.2,92.6,50.5,92.8,49.6z"/>
		</g>
		<g>
			<path class="st1" d="M8.6,50.2c-0.1-0.8-0.3-1.6-0.4-2.4c0.2,0,0.5-0.1,0.7-0.1c0.1,0.7,0.2,1.3,0.4,2c0.2,0.9-0.1,1.7-0.9,2.3
				C8.6,51.5,8.7,50.9,8.6,50.2z"/>
			<path class="st1" d="M4.9,52.2c-0.9-0.3-1.4-0.9-1.5-1.8c-0.8-3.7-1.5-7.3-2.3-11c-0.2-0.8,0.1-1.6,0.8-2.2
				c-0.2,0.5-0.3,1-0.1,1.7c0.8,3.9,1.6,7.8,2.4,11.8C4.2,51.4,4.5,51.9,4.9,52.2z"/>
			<path class="st1" d="M7.4,40c-0.2,0-0.5,0.1-0.7,0.1c-0.1-0.8-0.3-1.6-0.4-2.4c-0.1-0.7-0.4-1.2-0.9-1.5c1,0.3,1.5,1,1.7,1.9
				C7.2,38.7,7.3,39.4,7.4,40z"/>
			<path class="st1" d="M11.3,32c-0.2,0-0.5,0.1-0.7,0.1c-0.1-0.9-0.3-1.8-0.4-2.7c0.2,0,0.5-0.1,0.7-0.1C11,30.2,11.2,31.1,11.3,32
				z"/>
			<path class="st1" d="M14.3,50.9c-0.2,0-0.5,0.1-0.7,0.1c-0.9-5.3-1.7-10.5-2.6-15.8c0.2,0,0.5-0.1,0.7-0.1
				C12.6,40.4,13.5,45.7,14.3,50.9z"/>
			<path class="st1" d="M18.3,47.8c-0.8-6.1-1.7-12.1-2.5-18.2c0.2-0.1,0.5-0.3,0.7-0.4c0.9,6.3,1.7,12.6,2.6,18.9
				c0.1,0.7,0.3,1.2,0.7,1.6C18.9,49.3,18.5,48.6,18.3,47.8z"/>
			<path class="st1" d="M24.6,47.3c-0.5-4.5-1-9.1-1.5-13.6c0.2,0,0.5-0.1,0.7-0.1c0.5,4.7,1,9.3,1.5,14c0.1,0.7,0.4,1.3,0.9,1.7
				C25.2,49.1,24.7,48.5,24.6,47.3z"/>
			<path class="st1" d="M25.1,51.8c0-0.1,0-0.1,0-0.2c0.2,0,0.5,0,0.7-0.1c0,0.2,0,0.4,0.1,0.6c0.1,0.7,0.3,1.2,0.6,1.6
				C25.6,53.3,25.2,52.6,25.1,51.8z"/>
			<path class="st1" d="M30,52.1c-0.6-6.3-1.1-12.6-1.7-18.9c0.2,0,0.5,0,0.7-0.1c0.5,6.1,1.1,12.3,1.6,18.4c0.1,0.9-0.3,1.6-1,2.2
				C30,53.3,30.1,52.8,30,52.1z"/>
			<path class="st1" d="M40.7,48.4c-0.2,0-0.5,0-0.7,0c-0.2-5.3-0.5-10.6-0.7-15.9c0.3,0,0.5,0,0.8,0C40.3,37.8,40.5,43.1,40.7,48.4
				z"/>
			<path class="st1" d="M45.6,48.3c-0.2,0-0.5,0-0.7,0c-0.1-4.8-0.2-9.7-0.3-14.5c0-0.7-0.2-1.2-0.5-1.5c0.8,0.3,1.3,0.9,1.3,1.8
				C45.4,38.8,45.5,43.5,45.6,48.3z"/>
			<path class="st1" d="M50.6,48.2c-0.2,0-0.5,0-0.7,0c0-4.8,0-9.7,0-14.5c0-0.7-0.2-1.2-0.5-1.5c0.8,0.3,1.2,0.9,1.2,1.8
				C50.6,38.7,50.6,43.5,50.6,48.2z"/>
			<path class="st1" d="M55.5,34.3c0,0.7,0,1.4,0,2.1c-0.2,0-0.5,0-0.7,0c0-0.6,0-1.1,0-1.7c0-0.9,0.4-1.7,1.3-2.1
				C55.7,33,55.5,33.6,55.5,34.3z"/>
			<path class="st1" d="M54.4,46.3c0-1.4,0.1-2.9,0.1-4.3c0-1,0.4-1.7,1.2-2.1c-0.3,0.4-0.5,1-0.5,1.7c0,1.7-0.1,3.4-0.1,5.1
				c0,0.7,0.2,1.3,0.6,1.8C54.8,48.2,54.4,47.5,54.4,46.3z"/>
			<path class="st1" d="M59.9,48.5c-0.2,0-0.5,0-0.7,0c0.2-4.8,0.4-9.6,0.6-14.4c0-0.7-0.1-1.3-0.5-1.7c0.9,0.5,1.3,1.2,1.2,2.2
				C60.3,39.1,60.1,43.8,59.9,48.5z"/>
			<path class="st1" d="M64.9,48.7c-0.2,0-0.5,0-0.7,0c0.3-5.3,0.7-10.6,1-15.9c0.3,0,0.5,0,0.8,0C65.6,38.1,65.3,43.4,64.9,48.7z"
				/>
			<path class="st1" d="M70.5,37.2c-0.2,0-0.5,0-0.7-0.1c0.1-0.9,0.2-1.8,0.2-2.7c0.1-0.8,0-1.3-0.3-1.6c0.8,0.3,1.1,1,1,1.9
				C70.6,35.7,70.6,36.4,70.5,37.2z"/>
			<path class="st1" d="M73.8,49.5c-0.2,0-0.5,0-0.7-0.1c0.8-7.3,1.5-14.5,2.3-21.8c0.2,0,0.5,0.1,0.8,0.1
				C75.4,35,74.6,42.2,73.8,49.5z"/>
			<path class="st1" d="M78,49.9c-0.4-2.8-0.8-5.7-1.3-8.5c0.2-0.3,0.4-0.6,0.5-0.9c0.5,3.2,1,6.3,1.4,9.5C78.5,50,78.3,50,78,49.9z
				"/>
			<path class="st1" d="M87.9,49.7c0.1-0.8,0.3-1.6,0.4-2.4c0.2,0,0.5,0.1,0.7,0.1c-0.1,0.7-0.2,1.3-0.3,2c-0.2,0.9-0.7,1.5-1.6,1.9
				C87.5,50.9,87.8,50.4,87.9,49.7z"/>
			<path class="st1" d="M83.8,50.4c-0.7-0.6-1-1.3-0.8-2.2c0.5-3.7,1.1-7.4,1.6-11.1c0.1-0.8,0.6-1.5,1.5-1.8
				c-0.4,0.4-0.6,0.9-0.7,1.6c-0.6,4-1.2,7.9-1.8,11.9C83.4,49.3,83.5,49.9,83.8,50.4z"/>
			<path class="st1" d="M89.8,43.2c-0.2,0-0.5-0.1-0.7-0.1c0.3-2,0.7-4,1-6c0.1-0.7,0-1.3-0.3-1.7c0.8,0.6,1.1,1.4,1,2.3
				C90.4,39.6,90.1,41.4,89.8,43.2z"/>
			<path class="st1" d="M92.8,49.6c1.2-6,2.3-12,3.5-18.1c0.3-0.1,0.5-0.1,0.8-0.2c-1.2,6.2-2.4,12.5-3.7,18.7
				c-0.1,0.7-0.1,1.2,0.2,1.7C92.9,51.2,92.6,50.5,92.8,49.6z"/>
		</g>
	</g>
	<g>
		<path class="st2" d="M35.4,53.7h0.8c-0.1,0.1-0.1,0.2-0.1,0.4s0,0.7,0,1.4v0.3c0,0.4,0,0.8,0,1.1s0,0.5,0,0.6h0.1c0,0,0.1,0,0.2,0
			c0.3,0,0.6,0,0.7-0.1c0.2-0.1,0.3-0.2,0.4-0.3l-0.1,0.6c-0.1,0-0.2,0-0.3,0s-0.2,0-0.3,0s-0.3,0-0.6,0s-0.5,0-0.7,0h-0.2
			c0.1-0.1,0.1-0.2,0.1-0.4s0-0.7,0-1.4v-0.3c0-0.8,0-1.3,0-1.5C35.5,53.9,35.4,53.7,35.4,53.7z"/>
		<path class="st2" d="M37.8,57.6c0.2-0.2,0.4-0.5,0.6-0.8c0.2-0.3,0.4-0.8,0.6-1.2c0.2-0.4,0.3-0.8,0.4-1.1
			c0.1-0.3,0.2-0.5,0.2-0.6v-0.1v-0.1h0.8c0.3,1,0.6,1.8,0.8,2.5c0.3,0.7,0.5,1.2,0.7,1.4h-0.7l-0.6-1.7h-1.4l-0.3,0.6l0,0
			c-0.2,0.4-0.2,0.7-0.2,0.9v0.1v0.1C38.7,57.6,37.8,57.6,37.8,57.6z M39.2,55.7h1.2l-0.6-1.6L39.2,55.7z"/>
		<path class="st2" d="M47.4,53.7v0.8c-0.1-0.2-0.2-0.4-0.4-0.5s-0.4-0.2-0.6-0.2c-0.4,0-0.8,0.1-1,0.4C45.1,54.6,45,55,45,55.5
			s0.1,0.9,0.4,1.3c0.3,0.3,0.6,0.5,1.1,0.5c0.2,0,0.4,0,0.6-0.1c0.2-0.1,0.4-0.2,0.5-0.4c-0.1,0.3-0.2,0.5-0.5,0.7
			s-0.6,0.3-0.9,0.3c-0.5,0-1-0.2-1.3-0.6c-0.3-0.4-0.5-0.9-0.5-1.4c0-0.7,0.2-1.2,0.6-1.5c0.4-0.4,0.9-0.6,1.5-0.6
			c0.1,0,0.3,0,0.5,0C47.1,53.7,47.3,53.7,47.4,53.7z"/>
		<path class="st2" d="M50.2,57.7c-0.6,0-1-0.2-1.3-0.5s-0.5-0.8-0.5-1.5s0.2-1.2,0.5-1.6c0.3-0.4,0.8-0.5,1.5-0.5
			c0.6,0,1.1,0.2,1.4,0.5c0.3,0.3,0.5,0.8,0.5,1.4c0,0.7-0.2,1.2-0.5,1.6C51.3,57.5,50.9,57.7,50.2,57.7z M50.4,57.4
			c0.4,0,0.7-0.1,0.9-0.4c0.2-0.3,0.3-0.7,0.3-1.2c0-0.6-0.1-1-0.3-1.4c-0.2-0.3-0.5-0.5-0.9-0.5s-0.7,0.1-1,0.4
			c-0.2,0.3-0.3,0.7-0.3,1.2c0,0.6,0.1,1,0.4,1.4C49.7,57.2,50,57.4,50.4,57.4z"/>
		<path class="st2" d="M55.1,57.7L53.7,54v2.7v0.2c0,0.2,0,0.3,0,0.4c0,0.1,0.1,0.2,0.1,0.3h-0.7c0.1-0.1,0.2-0.4,0.3-1
			s0.1-1.4,0.1-2.5c0-0.1,0-0.2,0-0.3s-0.1-0.1-0.1-0.2H54c0.1,0,0.1,0,0.1,0s0,0,0.1,0.1l1.1,3l1.2-2.9c0-0.1,0-0.1,0.1-0.1h0.1
			h0.6c-0.1,0.1-0.1,0.2-0.1,0.3s0,0.4,0,0.6c0,1,0,1.8,0.1,2.2c0,0.4,0.1,0.7,0.2,0.8h-0.9c0.1-0.1,0.1-0.2,0.1-0.3s0-0.3,0-0.6
			l0,0c0-0.2,0-0.3,0-0.5V54L55.1,57.7z"/>
		<path class="st2" d="M58.6,57.6c0.1-0.1,0.1-0.2,0.1-0.4s0-0.7,0-1.4v-0.3c0-0.8,0-1.3,0-1.5s-0.1-0.4-0.1-0.4H59
			c0.3,0,0.6,0,0.9,0c0.3,0,0.6,0,0.6,0l0,0c0.1,0,0.1,0,0.2,0v0.6c0-0.1-0.1-0.2-0.3-0.3c-0.1-0.1-0.4-0.1-0.8-0.1h-0.3
			c0,0.1,0,0.2,0,0.4s0,0.5,0,0.9v0.2c0.1,0,0.1,0,0.2,0c0.1,0,0.2,0,0.3,0c0.2,0,0.4,0,0.6,0s0.3,0,0.4-0.1
			c-0.1,0.1-0.3,0.2-0.4,0.3c-0.2,0.1-0.5,0.1-0.9,0.1c0,0,0,0-0.1,0h-0.1V56c0,0.4,0,0.7,0,0.9s0,0.3,0,0.4h0.4
			c0.4,0,0.7,0,0.9-0.1s0.4-0.2,0.5-0.3L61,57.6c-0.1,0-0.2,0-0.3,0s-0.2,0-0.3,0s-0.3,0-0.6,0s-0.5,0-0.7,0H58.6z"/>
		<path class="st2" d="M62.2,53.7c0.2,0,0.5,0,0.8,0s0.5,0,0.5,0c0.3,0,0.5,0.1,0.7,0.2c0.2,0.1,0.2,0.3,0.2,0.6s-0.1,0.5-0.2,0.7
			c-0.2,0.2-0.4,0.4-0.7,0.5l0.9,1.2c0.1,0.2,0.3,0.4,0.4,0.5s0.2,0.2,0.3,0.3h-0.6c-0.1,0-0.1,0-0.2,0l-0.1-0.1L63.3,56
			c-0.1-0.1-0.1-0.2-0.2-0.2c-0.1,0-0.2-0.1-0.3-0.1l0,0v0.4c0,0.6,0,1,0,1.2s0.1,0.3,0.1,0.4h-0.8c0.1-0.1,0.1-0.2,0.1-0.4
			s0-0.7,0-1.4v-0.3c0-0.8,0-1.3,0-1.5s-0.1-0.4-0.1-0.4H62.2z M62.8,55.5L62.8,55.5H63c0.3,0,0.5-0.1,0.7-0.2
			c0.2-0.2,0.2-0.4,0.2-0.7c0-0.2-0.1-0.4-0.2-0.5c-0.1-0.1-0.3-0.2-0.6-0.2c-0.1,0-0.2,0-0.2,0c-0.1,0-0.1,0-0.2,0
			c0,0.1,0,0.2,0,0.4s0,0.5,0,0.8v0.1v0.3H62.8z"/>
	</g>
</g>
</svg>
