<?xml version="1.0" encoding="utf-8"?>
<!-- Generator: Adobe Illustrator 23.0.6, SVG Export Plug-In . SVG Version: 6.00 Build 0)  -->
<svg version="1.1" id="Layer_1" xmlns="http://www.w3.org/2000/svg" xmlns:xlink="http://www.w3.org/1999/xlink" x="0px" y="0px"
	 viewBox="0 0 100 80" style="enable-background:new 0 0 100 80;" xml:space="preserve">
<style type="text/css">
	.st0{fill:#FFFFFF;}
	.st1{fill:#CE0E2D;}
	.st2{fill-rule:evenodd;clip-rule:evenodd;fill:#E21936;}
	.st3{fill:#0033A1;}
	.st4{fill-rule:evenodd;clip-rule:evenodd;fill:#CE0E2D;}
</style>
<g>
	<path class="st0" d="M98.9,35.8c0.4-2.1,0-3.9-1.3-5.4c-1.6-2-4.5-3.1-7.9-3.1c-2.8,0-5.6,0.8-7.8,2.2c-0.9,0.6-1.7,1.2-2.3,2
		l0.5-3.3l-0.7-0.2c-1.4-0.4-2.9-0.6-4.5-0.6c-1.7,0-3.4,0.3-4.9,1C69,28.7,67.9,29.3,67,30l0.8-2.5H52.4l-0.2,0.7
		c-1.5-0.7-3.1-1-5-1c-2.1,0-4.3,0.5-6,1.5c-1.3,0.7-2.2,1.6-2.8,2.6c-0.2-0.4-0.4-0.7-0.7-1.1c-1.6-2-4.5-3.1-7.9-3.1
		c-2.8,0-5.6,0.8-7.8,2.2c-0.8,0.5-1.5,1.1-2.1,1.7l1-6.3l-0.7-0.2c-1.7-0.5-3.6-0.8-5.5-0.8c-3.3,0-6.6,1-9.2,2.8
		c-2.7,1.9-4.5,4.4-5,7.1c-0.5,2.3,0.1,4.6,1.5,6.3c1.9,2.3,5.1,3.6,8.8,3.6c1.3,0,4.6-0.2,6.2-0.7l0.4-0.1l0.7-3.2
		c0.2,0.5,0.5,0.9,0.8,1.3c1.6,1.9,4.5,3,7.9,3c2.9,0,5.6-0.8,7.8-2.1c0.4-0.2,0.7-0.5,1-0.7l-0.7,1l0.9,0.4c2,0.9,4.5,1.4,6.9,1.4
		c4,0,8.8-1.8,9.5-5.9c0.2-1.1,0-2.1-0.5-3c-0.3-0.4-0.7-0.8-1.2-1.1l3.4-0.1l-3,9.9h8.2l3-9.9l1.7,0.1c-0.2,0.6-0.4,1.1-0.5,1.7
		c-0.4,2,0.1,3.9,1.3,5.4c1.5,1.9,4.1,2.9,7.1,2.9c1,0,3.7-0.2,5-0.6l0.4-0.2l0.8-3.5c0.2,0.4,0.5,0.9,0.8,1.2c1.6,1.9,4.5,3,7.9,3
		c2.6,0,5.1-0.6,7.1-1.7c0.1,0.8,0.7,1.3,1.5,1.3c0.9,0,1.5-0.6,1.5-1.4c0-0.6-0.4-1.1-0.9-1.4C97.6,39.3,98.5,37.6,98.9,35.8z
		 M85.8,35.8c0.2-1.1,1.3-2.2,3.1-2.2c0.8,0,1.4,0.2,1.7,0.6c0.3,0.3,0.4,0.7,0.3,1.2c-0.2,1.3-1.5,2.1-3.1,2.1
		c-0.8,0-1.4-0.2-1.7-0.6C85.7,36.7,85.7,36.3,85.8,35.8z M43.6,38.3c-0.1,0-0.3,0-0.5,0c-0.8,0-1.6-0.2-2.4-0.6
		c0.5,0.2,1,0.3,1.5,0.4L43.6,38.3C43.5,38.3,43.5,38.3,43.6,38.3z M47.8,32.9C47.8,32.9,47.8,32.8,47.8,32.9l-0.5-0.1
		C47.5,32.8,47.6,32.8,47.8,32.9z M71.6,35.7c0.2-1.2,1.7-2.2,3.3-2.2c1,0,2,0.4,2.9,1.2c-0.1,0.2-0.1,0.4-0.2,0.7
		c-0.1,0.3-0.1,0.6-0.1,0.8l-0.2,0.1c-1.2,0.8-2.3,1.2-3.5,1.2c-0.8,0-1.6-0.3-2-0.8C71.6,36.5,71.5,36.1,71.6,35.7z M25.8,35.8
		c0.2-1.1,1.3-2.2,3.1-2.2c0.8,0,1.4,0.2,1.7,0.6c0.3,0.3,0.4,0.8,0.3,1.3c-0.2,1.3-1.5,2.1-3,2.1c-0.8,0-1.4-0.2-1.7-0.6
		C25.8,36.7,25.8,36.3,25.8,35.8z M10.4,33.9c0.3-1.5,2.2-2.8,4.3-2.8c1.3,0,2.6,0.5,3.8,1.6l0.2,0.2c-0.3,0.6-0.6,1.3-0.8,1.9l0,0
		c-1.5,1-2.9,1.5-4.5,1.5c-1.1,0-2.1-0.4-2.7-1C10.4,34.9,10.2,34.4,10.4,33.9z"/>
	<path class="st0" d="M96.1,47.8l0.7-3.6h-7.1l-0.8,4.5h-1.1l0.8-4.5h-4.7l-0.5,2.6l-0.6-2.6h-4.4l-0.6,1l-0.6-0.4
		c-0.1-0.1-1.1-0.7-2.8-0.7l-0.1,0c-1.3,0-2.2,0.4-2.7,0.6l0.1-0.6h-7.1l-0.8,4.5h-1.1l0.9-4.5h-4.7l-0.2,1
		c-0.2-0.2-0.5-0.4-0.8-0.5c-0.8-0.4-1.6-0.6-2.5-0.6c-1.3,0-2.5,0.4-3.1,0.7c-0.1,0.1-0.2,0.1-0.4,0.2l0.1-0.8l-4.6,0l0,0l-7.1,0
		l-0.6,1.4l-0.1-1.4h-3.6l-0.6,1.4l-0.1-1.4h-4.9l0,0L1,44.2v8.4h32.3l0,0h2.5l0.4-1l0.1,1h3.9l1.4-2.3l-0.4,2.3h9.1l0.2-0.9
		c0.1,0.1,0.2,0.2,0.3,0.2c0.9,0.5,1.9,0.8,3,0.8c0.6,0,1.3-0.1,2.1-0.3c0.5-0.1,1-0.3,1.4-0.6l-0.1,0.7l5.8,0l0,0h7.2l0-0.2
		c0.6,0.2,1.3,0.3,2.2,0.3c0.4,0,0.8,0,1.2-0.1l5,0l0.4-0.8h0.8l0.1,0.8l9.2,0l6.2,0l0.7-3.6l-0.3,0l0.2-1.2L96.1,47.8z M55,48.2
		c-0.1,0.5-0.6,0.6-0.8,0.6l0,0l0,0c-0.2,0-0.3-0.1-0.3-0.1c0,0,0-0.2,0.1-0.4c0.1-0.1,0.4-0.3,0.7-0.3C54.9,48,55,48.1,55,48.2
		C55,48.1,55,48.1,55,48.2z"/>
	<polygon class="st1" points="51.6,33 55.2,32.9 52.2,42.9 58.7,42.9 61.7,32.9 65.2,33 66.7,28.3 53.1,28.3 51.6,33 	"/>
	<path class="st1" d="M38.2,35.5c-0.9,4.7-5.8,7.5-11.2,7.5c-5.4,0-9.3-2.8-8.4-7.5c0.9-4.6,5.9-7.6,11.3-7.6
		C35.2,28,39.1,30.9,38.2,35.5L38.2,35.5z M25,35.6c-0.3,1.7,0.8,2.8,2.8,2.8c2,0,3.5-1.1,3.9-2.8c0.3-1.6-0.7-2.8-2.8-2.8
		C26.9,32.8,25.3,34.1,25,35.6L25,35.6z"/>
	<path class="st1" d="M36.2,41.7c1.8,0.8,4.4,1.3,6.6,1.3c3.9,0,8.1-1.7,8.7-5.2c0.5-2.5-1.3-3.7-3.9-4.2l-1.4-0.3
		c-0.5-0.1-1.3-0.2-1.2-0.7c0.1-0.6,1-0.8,1.5-0.8c1.4,0,2.6,0.5,3.5,1.1l2.5-3.7C51,28.4,49.2,28,47.2,28c-3.9,0-8.1,1.9-8.8,5.4
		c-0.4,2.3,1.4,3.5,3.9,3.9l1.3,0.2c0.6,0.1,1.4,0.2,1.3,0.8c-0.1,0.7-1.2,0.9-1.8,0.9c-1.5,0-2.8-0.6-3.8-1.3L39,37.6L36.2,41.7
		L36.2,41.7z"/>
	<path class="st1" d="M79.3,28.6C78,28.2,76.5,28,75,28c-5.2,0-10,3.4-10.8,7.7c-0.8,4.2,2.5,7.4,7.6,7.4c1.2,0,3.6-0.2,4.7-0.6
		l1.2-5.5c-1.2,0.8-2.5,1.4-4,1.4c-1.9,0-3.4-1.2-3.1-2.8c0.3-1.6,2.1-2.8,4.1-2.8c1.5,0,2.6,0.7,3.5,1.5L79.3,28.6L79.3,28.6z"/>
	<path class="st1" d="M89.7,28c-5.4,0-10.4,3-11.3,7.5c-0.9,4.7,3,7.5,8.4,7.5c5.4,0,10.4-2.8,11.3-7.5C99,31,95.1,28,89.7,28
		L89.7,28z M88.8,32.8c2,0,3.1,1.3,2.8,2.8c-0.3,1.7-1.9,2.8-3.9,2.8c-2,0-3.1-1.1-2.8-2.8C85.2,34.1,86.8,32.8,88.8,32.8L88.8,32.8
		z"/>
	<path class="st1" d="M20.1,25.4c-1.6-0.5-3.4-0.7-5.3-0.7c-6.5,0-12.4,4.1-13.4,9.2c-1,5,3.2,8.9,9.5,8.9c1.4,0,4.5-0.2,5.9-0.7
		l1.5-6.6c-1.5,1-3.1,1.6-4.9,1.6c-2.4,0-4.2-1.5-3.8-3.4c0.4-1.9,2.7-3.4,5.1-3.4c1.8,0,3.3,0.8,4.4,1.8L20.1,25.4L20.1,25.4z"/>
	<path class="st2" d="M96.2,42.7C96,42.9,95.8,43,95.5,43c-0.3,0-0.5-0.1-0.7-0.3c-0.2-0.2-0.3-0.4-0.3-0.7c0-0.3,0.1-0.5,0.3-0.7
		c0.2-0.2,0.4-0.3,0.7-0.3c0.3,0,0.5,0.1,0.7,0.3c0.2,0.2,0.3,0.4,0.3,0.7C96.5,42.3,96.4,42.5,96.2,42.7L96.2,42.7z M94.9,41.4
		c-0.2,0.2-0.2,0.3-0.2,0.6c0,0.2,0.1,0.4,0.3,0.6c0.2,0.2,0.4,0.2,0.6,0.2c0.2,0,0.4-0.1,0.6-0.2c0.2-0.2,0.2-0.3,0.2-0.6
		c0-0.2-0.1-0.4-0.2-0.6c-0.2-0.2-0.4-0.2-0.6-0.2C95.2,41.2,95,41.3,94.9,41.4L94.9,41.4z M95.1,42.5v-1l0.3,0c0.1,0,0.2,0,0.2,0
		c0.1,0,0.2,0,0.2,0.1c0.1,0,0.1,0.1,0.1,0.2c0,0.1,0,0.1-0.1,0.2c-0.1,0-0.1,0.1-0.2,0.1c0.1,0,0.1,0,0.2,0.1
		c0.1,0,0.1,0.1,0.1,0.2v0.1l0,0c0,0,0,0,0,0l0,0h-0.3c0,0,0-0.1,0-0.1c0-0.1,0-0.1,0-0.1c0,0,0-0.1-0.1-0.1c0,0-0.1,0-0.1,0l-0.1,0
		h-0.1v0.4H95.1L95.1,42.5z M95.6,41.7c0,0-0.1,0-0.2,0h-0.1V42h0.1c0.1,0,0.1,0,0.2,0c0,0,0.1-0.1,0.1-0.1
		C95.7,41.7,95.6,41.7,95.6,41.7L95.6,41.7z"/>
	<path class="st3" d="M62.3,45h-2.9l-0.6,3.1c0,0,0.3-1.8-1.6-2.7c-1.9-0.9-4.1-0.3-4.8,0.1c-0.8,0.4-1.8,1.1-2.3,2.4c0,0,0,0,0,0
		l0.6-3L48,45l-0.4,2.2h-1.8l0.4-2.2l-5.5,0L39,49h-0.1L38.6,45h-2.2L34.6,49l-0.1,0L34.2,45h-3l1.5,6.6h2.4l1.6-3.6l0.1,0l0.2,3.6
		h2.5l3.7-6l-1.1,6H45l0.4-2.3h1.8l-0.4,2.3h2.8l0.6-2.9c0,0-0.2,1.6,1.2,2.4c1.4,0.8,2.8,0.8,4.4,0.4c1.6-0.4,2.8-1.5,3.2-2.9
		l-0.6,3l5.3,0l0.4-2.1h-2.4L62.3,45z M55.9,48.3c-0.2,1.4-1.7,1.4-1.7,1.4c-1.1,0-1.7-0.9-1-1.9C54,46.8,56.1,46.9,55.9,48.3z"/>
	<path class="st3" d="M87.5,45h-2.9l-1.1,6l-1.4-6h-3.2l-2.8,4.7c0,0,0.3-0.8-0.1-1.4c-0.4-0.6-1.4-0.8-1.4-0.8l-1-0.2
		c0,0-0.6-0.1-0.3-0.5c0,0,0.2-0.2,0.8-0.2c0.6,0.1,1.1,0.4,1.3,0.5l1.1-1.7c0,0-0.9-0.6-2.4-0.6c-1.5,0-2.5,0.6-2.6,0.7
		c-0.2,0.1-1.3,0.9-1.3,2c0,1.1,1.4,1.5,2,1.5l0.5,0.1c0,0,0.5,0.1,0.3,0.5c-0.3,0.4-1,0.2-1,0.2s-0.7,0-1.5-0.7l-1.1,1.7l0.2-1.1
		l-2.5,0l0.1-0.7l2.2,0l0.3-1.7l-2.2,0l0.1-0.6l2.4,0l0.3-1.8h-5.3L64,51.6h5.4l0.1-0.5c0,0,3.8,1.7,6.2-0.7l-0.7,1.1l3,0l0.4-0.8
		h2.2l0.1,0.8l8,0l0.4-2.1h-2.4L87.5,45z M79.3,49.2l0.9-2h0.1l0.1,2H79.3z"/>
	<polygon class="st3" points="95.3,46.8 95.7,45 90.4,45 89.2,51.6 94.5,51.6 94.9,49.8 92.4,49.8 92.5,49.2 94.7,49.2 95,47.5 
		92.8,47.5 92.9,46.8 	"/>
	<polygon class="st3" points="32.2,51.6 31.8,49.9 1.9,49.9 1.9,51.6 	"/>
	<polygon class="st3" points="31.6,49.2 31.2,47.6 1.9,47.6 1.9,49.2 	"/>
	<polygon class="st3" points="31,46.8 30.7,45.1 1.9,45.1 1.9,46.8 	"/>
	<path class="st4" d="M96.2,42.7C96,42.9,95.8,43,95.5,43c-0.3,0-0.5-0.1-0.7-0.3c-0.2-0.2-0.3-0.4-0.3-0.7c0-0.3,0.1-0.5,0.3-0.7
		c0.2-0.2,0.4-0.3,0.7-0.3c0.3,0,0.5,0.1,0.7,0.3c0.2,0.2,0.3,0.4,0.3,0.7C96.5,42.3,96.4,42.5,96.2,42.7L96.2,42.7z M94.9,41.5
		c-0.2,0.2-0.2,0.3-0.2,0.6c0,0.2,0.1,0.4,0.3,0.6c0.2,0.2,0.4,0.2,0.6,0.2c0.2,0,0.4-0.1,0.6-0.2c0.2-0.2,0.2-0.3,0.2-0.6
		c0-0.2-0.1-0.4-0.2-0.6c-0.2-0.2-0.4-0.2-0.6-0.2C95.2,41.2,95,41.3,94.9,41.5L94.9,41.5z M95.1,42.5v-1l0.3,0c0.1,0,0.2,0,0.2,0
		c0.1,0,0.2,0,0.2,0.1c0.1,0,0.1,0.1,0.1,0.2c0,0.1,0,0.1-0.1,0.2c-0.1,0-0.1,0.1-0.2,0.1c0.1,0,0.1,0,0.2,0.1
		c0.1,0,0.1,0.1,0.1,0.2v0.1l0,0c0,0,0,0,0,0l0,0h-0.3c0,0,0-0.1,0-0.1c0-0.1,0-0.1,0-0.1c0,0,0-0.1-0.1-0.1c0,0-0.1,0-0.1,0l-0.1,0
		h-0.1v0.4H95.1L95.1,42.5z M95.6,41.7c0,0-0.1,0-0.2,0h-0.1V42h0.1c0.1,0,0.1,0,0.2,0c0,0,0.1-0.1,0.1-0.1
		C95.7,41.8,95.6,41.7,95.6,41.7L95.6,41.7z"/>
</g>
</svg>
