<?xml version="1.0" encoding="utf-8"?>
<!-- Generator: Adobe Illustrator 23.0.6, SVG Export Plug-In . SVG Version: 6.00 Build 0)  -->
<svg version="1.1" id="Layer_1" xmlns="http://www.w3.org/2000/svg" xmlns:xlink="http://www.w3.org/1999/xlink" x="0px" y="0px"
	 viewBox="0 0 100 80" style="enable-background:new 0 0 100 80;" xml:space="preserve">
<style type="text/css">
	.st0{fill:#006633;}
	.st1{fill:#003366;}
</style>
<g>
	<rect x="-0.1" y="42.9" class="st0" width="100.1" height="1"/>
	<g>
		<polygon class="st1" points="6.4,29.6 4.2,29.6 4.2,38.7 10.9,38.7 10.9,36.7 6.4,36.7 		"/>
		<path class="st1" d="M22,38.7l-3.4-9.1h-2.6l-3.5,9.1h2.3l0.6-1.7h3.8l0.6,1.7H22z M15.8,35.4l1.4-3.5l1.3,3.5H15.8z"/>
		<polygon class="st1" points="34,36.7 28.8,36.7 28.8,35 33,35 33,33.1 28.8,33.1 28.8,31.6 34,31.6 34,29.6 26.7,29.6 26.7,38.7 
			34,38.7 		"/>
		<path class="st1" d="M40.1,38.8c2.7,0,4.2-1.9,4.2-4v-5.2h-2.2v5c0,1.3-0.7,2.1-2,2.1c-1.3,0-2-0.8-2-2.1v-5h-2.2v5.2
			C35.9,37.1,37.4,38.8,40.1,38.8z"/>
		<path class="st1" d="M54.3,38.8c0.6,0,1.2-0.2,1.5-0.3l-0.2-1.8c-0.3,0.1-0.7,0.2-1,0.2c-0.8,0-1.6-0.8-2.5-1.5
			c1.4-0.3,2.4-1.3,2.4-2.7c0-2.1-1.7-3-3.5-3h-4.3v9.1H49v-3.3h0.5C50.7,36.2,52.2,38.8,54.3,38.8z M49,31.6h2
			c0.7,0,1.2,0.4,1.2,1.1c0,0.7-0.5,1.1-1.2,1.1h-2V31.6z"/>
		<path class="st1" d="M65.8,34.2c0-2.7-2-4.7-4.7-4.7c-2.7,0-4.6,2-4.6,4.7c0,2.7,2,4.6,4.6,4.6C63.8,38.8,65.8,36.8,65.8,34.2z
			 M61.1,36.7c-1.4,0-2.5-1.1-2.5-2.5c0-1.5,1-2.6,2.5-2.6c1.5,0,2.5,1.1,2.5,2.6C63.6,35.6,62.6,36.7,61.1,36.7z"/>
		<path class="st1" d="M72.3,29.6h-4.5v9.1H70v-2.4h2.3c1.8,0,3.3-1.2,3.3-3.3C75.6,30.7,74.1,29.6,72.3,29.6z M71.9,34.3H70v-2.8
			h1.9c0.8,0,1.4,0.5,1.4,1.4C73.3,33.8,72.7,34.3,71.9,34.3z"/>
		<polygon class="st1" points="77.4,38.7 84.6,38.7 84.6,36.7 79.5,36.7 79.5,35 83.7,35 83.7,33.1 79.5,33.1 79.5,31.6 84.6,31.6 
			84.6,29.6 77.4,29.6 		"/>
		<path class="st1" d="M89.6,29.6l-3.5,9.1h2.3L89,37h3.8l0.6,1.7h2.3l-3.4-9.1H89.6z M89.6,35.4l1.4-3.5l1.3,3.5H89.6z"/>
		<path class="st1" d="M98,30.7C98,30.7,97.9,30.7,98,30.7c0,0,0.1-0.1,0.1-0.1c0,0,0.1-0.1,0.1-0.1c0,0,0-0.1,0-0.1
			c0,0-0.1-0.1-0.1-0.1c0,0-0.1,0-0.2,0h-0.3V31h0.1v-0.3h0.1c0,0,0.1,0,0.1,0c0,0,0.1,0.1,0.1,0.2L98,31h0.1l-0.1-0.1
			C98,30.8,98,30.7,98,30.7z M97.8,30.6h-0.1v-0.2h0.1c0.1,0,0.1,0,0.1,0c0,0,0,0,0.1,0c0,0,0,0,0,0.1c0,0,0,0.1,0,0.1
			C97.9,30.6,97.9,30.6,97.8,30.6z"/>
		<path class="st1" d="M98.5,30.2c-0.1-0.1-0.1-0.2-0.3-0.3c-0.1-0.1-0.2-0.1-0.3-0.1s-0.2,0-0.3,0.1c-0.1,0.1-0.2,0.1-0.3,0.3
			c-0.1,0.1-0.1,0.2-0.1,0.3c0,0.1,0,0.2,0.1,0.3c0.1,0.1,0.1,0.2,0.3,0.3c0.1,0.1,0.2,0.1,0.3,0.1c0.1,0,0.2,0,0.3-0.1
			c0.1-0.1,0.2-0.1,0.3-0.3c0.1-0.1,0.1-0.2,0.1-0.3C98.5,30.5,98.5,30.4,98.5,30.2z M98.4,30.9c-0.1,0.1-0.1,0.2-0.2,0.2
			c-0.1,0.1-0.2,0.1-0.3,0.1s-0.2,0-0.3-0.1c-0.1-0.1-0.2-0.1-0.2-0.2c-0.1-0.1-0.1-0.2-0.1-0.3c0-0.1,0-0.2,0.1-0.3
			c0.1-0.1,0.1-0.2,0.2-0.2c0.1,0,0.2-0.1,0.3-0.1c0.1,0,0.2,0,0.3,0.1c0.1,0,0.2,0.1,0.2,0.2c0.1,0.1,0.1,0.2,0.1,0.3
			C98.4,30.7,98.4,30.8,98.4,30.9z"/>
		<path class="st1" d="M17.8,48h-1.4v2.8h0.7v-0.7h0.7c0.6,0,1-0.4,1-1C18.9,48.4,18.4,48,17.8,48z M17.7,49.5h-0.6v-0.8h0.6
			c0.2,0,0.4,0.2,0.4,0.4C18.2,49.3,18,49.5,17.7,49.5z"/>
		<path class="st1" d="M20.7,48c-0.8,0-1.4,0.6-1.4,1.4c0,0.8,0.6,1.4,1.4,1.4c0.8,0,1.4-0.6,1.4-1.4C22.1,48.6,21.5,48,20.7,48z
			 M20.7,50.2c-0.4,0-0.8-0.3-0.8-0.8c0-0.4,0.3-0.8,0.8-0.8c0.4,0,0.8,0.3,0.8,0.8C21.4,49.9,21.1,50.2,20.7,50.2z"/>
		<path class="st1" d="M25.1,50.2c-0.3,0-0.5-0.2-0.7-0.5c0.4-0.1,0.7-0.4,0.7-0.8c0-0.6-0.5-0.9-1.1-0.9h-1.3v2.8h0.7v-1h0.1
			c0.4,0.2,0.8,1,1.5,1c0.2,0,0.4,0,0.5-0.1l-0.1-0.5C25.3,50.2,25.2,50.2,25.1,50.2z M24,49.3h-0.6v-0.7H24c0.2,0,0.4,0.1,0.4,0.3
			C24.4,49.2,24.2,49.3,24,49.3z"/>
		<polygon class="st1" points="26.9,50.8 29.1,50.8 29.1,50.2 27.5,50.2 27.5,49.7 28.8,49.7 28.8,49.1 27.5,49.1 27.5,48.6 
			29.1,48.6 29.1,48 26.9,48 		"/>
		<polygon class="st1" points="30.9,49 30.3,48 29.5,48 29.5,48.1 30.4,49.4 29.5,50.7 29.5,50.8 30.3,50.8 30.9,49.9 31.5,50.8 
			32.3,50.8 32.3,50.7 31.4,49.4 32.3,48.1 32.3,48 31.5,48 		"/>
		<path class="st1" d="M34.2,48h-1.4v2.8h0.7v-0.7h0.7c0.6,0,1-0.4,1-1C35.2,48.4,34.7,48,34.2,48z M34.1,49.5h-0.6v-0.8h0.6
			c0.2,0,0.4,0.2,0.4,0.4C34.5,49.3,34.3,49.5,34.1,49.5z"/>
		<polygon class="st1" points="35.8,50.8 38,50.8 38,50.2 36.4,50.2 36.4,49.7 37.7,49.7 37.7,49.1 36.4,49.1 36.4,48.6 38,48.6 
			38,48 35.8,48 		"/>
		<path class="st1" d="M41,50.2c-0.3,0-0.5-0.2-0.8-0.5c0.4-0.1,0.7-0.4,0.7-0.8c0-0.6-0.5-0.9-1.1-0.9h-1.3v2.8h0.7v-1h0.1
			c0.4,0.2,0.8,1,1.5,1c0.2,0,0.4,0,0.5-0.1l-0.1-0.5C41.2,50.2,41.1,50.2,41,50.2z M39.9,49.3h-0.6v-0.7h0.6c0.2,0,0.4,0.1,0.4,0.3
			C40.3,49.2,40.1,49.3,39.9,49.3z"/>
		<rect x="41.8" y="48" class="st1" width="0.7" height="2.8"/>
		<polygon class="st1" points="43.2,50.8 45.5,50.8 45.5,50.2 43.9,50.2 43.9,49.7 45.2,49.7 45.2,49.1 43.9,49.1 43.9,48.6 
			45.5,48.6 45.5,48 43.2,48 		"/>
		<polygon class="st1" points="48.1,49.7 46.7,48 46.1,48 46.1,50.8 46.8,50.8 46.8,49.1 48.2,50.8 48.8,50.8 48.8,48 48.1,48 		"/>
		<path class="st1" d="M50.8,50.2c-0.4,0-0.7-0.3-0.7-0.8c0-0.5,0.3-0.8,0.7-0.8c0.4,0,0.5,0.2,0.5,0.5l0.6-0.1c0-0.6-0.4-1-1.1-1
			c-0.8,0-1.4,0.5-1.4,1.4c0,0.9,0.6,1.4,1.4,1.4c0.5,0,0.9-0.2,1.1-0.4l-0.3-0.5C51.4,50.1,51.1,50.2,50.8,50.2z"/>
		<rect x="52.5" y="48" class="st1" width="0.7" height="2.8"/>
		<path class="st1" d="M54.7,48l-1.1,2.8h0.7l0.2-0.5h1.2l0.2,0.5h0.7L55.5,48H54.7z M54.7,49.8l0.4-1.1l0.4,1.1H54.7z"/>
		<path class="st1" d="M59.2,48H58v2.8h1.2c0.8,0,1.4-0.5,1.4-1.4C60.7,48.5,60.1,48,59.2,48z M59.2,50.2h-0.5v-1.6h0.5
			c0.4,0,0.8,0.3,0.8,0.8C60,49.9,59.7,50.2,59.2,50.2z"/>
		<polygon class="st1" points="61.3,50.8 63.5,50.8 63.5,50.2 61.9,50.2 61.9,49.7 63.2,49.7 63.2,49.1 61.9,49.1 61.9,48.6 
			63.5,48.6 63.5,48 61.3,48 		"/>
		<path class="st1" d="M65.4,49.2L64.9,49c-0.2,0-0.3-0.1-0.3-0.2c0-0.1,0.1-0.2,0.4-0.2c0.3,0,0.6,0.1,0.8,0.2l0.2-0.6
			c-0.2-0.1-0.6-0.2-1-0.2c-0.8,0-1.1,0.4-1.1,0.9c0,0.4,0.2,0.6,0.6,0.8l0.5,0.1c0.2,0.1,0.3,0.1,0.3,0.2c0,0.2-0.2,0.3-0.4,0.3
			c-0.3,0-0.6-0.1-0.8-0.3L64,50.6c0.2,0.1,0.6,0.2,1,0.2c0.7,0,1.1-0.4,1.1-0.9C66.2,49.6,65.9,49.3,65.4,49.2z"/>
		<path class="st1" d="M68,48h-1.2v2.8H68c0.8,0,1.4-0.5,1.4-1.4C69.4,48.5,68.8,48,68,48z M68,50.2h-0.5v-1.6H68
			c0.4,0,0.8,0.3,0.8,0.8C68.7,49.9,68.4,50.2,68,50.2z"/>
		<polygon class="st1" points="70.1,50.8 72.3,50.8 72.3,50.2 70.7,50.2 70.7,49.7 72,49.7 72,49.1 70.7,49.1 70.7,48.6 72.3,48.6 
			72.3,48 70.1,48 		"/>
		<polygon class="st1" points="73.6,48.7 73.8,49.2 74.6,48.8 74.6,50.8 75.3,50.8 75.3,48 74.8,48 		"/>
		<path class="st1" d="M77,48c-0.6,0-1.1,0.4-1.1,1c0,0.6,0.4,0.9,1,0.9c0.3,0,0.5-0.1,0.7-0.2c0,0.4-0.2,0.6-0.7,0.6
			c-0.3,0-0.6-0.1-0.7-0.2L76,50.6c0.2,0.1,0.5,0.2,1,0.2c0.8,0,1.3-0.6,1.3-1.4C78.3,48.6,77.9,48,77,48z M77,49.3
			c-0.3,0-0.4-0.1-0.4-0.3c0-0.2,0.2-0.4,0.4-0.4c0.3,0,0.5,0.2,0.6,0.5C77.5,49.2,77.3,49.3,77,49.3z"/>
		<path class="st1" d="M79.8,49.1h-0.2l0-0.5h1.2V48H79l-0.1,1.5l0,0h0.8c0.3,0,0.5,0.1,0.5,0.3c0,0.2-0.2,0.4-0.5,0.4
			c-0.3,0-0.6-0.1-0.8-0.2l-0.2,0.6c0.1,0.1,0.5,0.2,1,0.2c0.7,0,1.2-0.3,1.2-1C80.9,49.3,80.5,49.1,79.8,49.1z"/>
		<path class="st1" d="M83,49.4c0.3-0.1,0.4-0.3,0.4-0.6c0-0.5-0.4-0.8-1.1-0.8c-0.4,0-0.8,0.1-0.9,0.2l0.2,0.6
			c0.1,0,0.5-0.2,0.8-0.2c0.3,0,0.4,0.1,0.4,0.3c0,0.2-0.1,0.3-0.4,0.3h-0.6v0.6h0.6c0.3,0,0.5,0.1,0.5,0.3c0,0.2-0.2,0.3-0.5,0.3
			c-0.3,0-0.6-0.1-0.8-0.2l-0.2,0.6c0.1,0,0.5,0.2,0.9,0.2c0.8,0,1.2-0.3,1.2-0.8C83.6,49.7,83.4,49.5,83,49.4z"/>
	</g>
</g>
</svg>
