<?xml version="1.0" encoding="utf-8"?>
<!-- Generator: Adobe Illustrator 23.0.6, SVG Export Plug-In . SVG Version: 6.00 Build 0)  -->
<svg version="1.1" id="Layer_1" xmlns="http://www.w3.org/2000/svg" xmlns:xlink="http://www.w3.org/1999/xlink" x="0px" y="0px"
	 viewBox="0 0 100 80" style="enable-background:new 0 0 100 80;" xml:space="preserve">
<style type="text/css">
	.st0{fill:#231F20;}
	.st1{clip-path:url(#SVGID_2_);}
	.st2{clip-path:url(#SVGID_4_);fill:#FBFBFB;}
	.st3{clip-path:url(#SVGID_6_);fill:#FAFAFA;}
	.st4{clip-path:url(#SVGID_8_);fill:#F9F9F9;}
	.st5{clip-path:url(#SVGID_10_);fill:#F8F8F8;}
	.st6{clip-path:url(#SVGID_12_);fill:#F7F7F7;}
	.st7{clip-path:url(#SVGID_14_);fill:#F6F6F6;}
	.st8{clip-path:url(#SVGID_16_);fill:#F5F5F6;}
	.st9{clip-path:url(#SVGID_18_);fill:#F4F5F5;}
	.st10{clip-path:url(#SVGID_20_);fill:#F3F4F4;}
	.st11{clip-path:url(#SVGID_22_);fill:#F2F3F3;}
	.st12{clip-path:url(#SVGID_24_);fill:#F2F2F2;}
	.st13{clip-path:url(#SVGID_26_);fill:#F1F1F2;}
	.st14{clip-path:url(#SVGID_28_);fill:#F0F1F1;}
	.st15{clip-path:url(#SVGID_30_);fill:#EFF0F0;}
	.st16{clip-path:url(#SVGID_32_);fill:#EEEFF0;}
	.st17{clip-path:url(#SVGID_34_);fill:#EDEEEF;}
	.st18{clip-path:url(#SVGID_36_);fill:#EDEDEE;}
	.st19{clip-path:url(#SVGID_38_);fill:#ECEDED;}
	.st20{clip-path:url(#SVGID_40_);fill:#EBECED;}
	.st21{clip-path:url(#SVGID_42_);fill:#EAEBEC;}
	.st22{clip-path:url(#SVGID_44_);fill:#E9EAEB;}
	.st23{clip-path:url(#SVGID_46_);fill:#E9EAEA;}
	.st24{clip-path:url(#SVGID_48_);fill:#E8E9EA;}
	.st25{clip-path:url(#SVGID_50_);fill:#E7E8E9;}
	.st26{clip-path:url(#SVGID_52_);fill:#E6E7E8;}
	.st27{clip-path:url(#SVGID_54_);fill:#E5E6E7;}
	.st28{clip-path:url(#SVGID_56_);fill:#E5E5E6;}
	.st29{clip-path:url(#SVGID_58_);fill:#E4E5E6;}
	.st30{clip-path:url(#SVGID_60_);fill:#E3E4E5;}
	.st31{clip-path:url(#SVGID_62_);fill:#E2E3E4;}
	.st32{clip-path:url(#SVGID_64_);fill:#E1E2E3;}
	.st33{clip-path:url(#SVGID_66_);fill:#E1E2E3;}
	.st34{clip-path:url(#SVGID_68_);fill:#E0E1E2;}
	.st35{clip-path:url(#SVGID_70_);fill:#DFE0E1;}
	.st36{clip-path:url(#SVGID_72_);fill:#DEDFE0;}
	.st37{clip-path:url(#SVGID_74_);fill:#DDDFE0;}
	.st38{clip-path:url(#SVGID_76_);fill:#DDDEDF;}
	.st39{clip-path:url(#SVGID_78_);fill:#DCDDDE;}
	.st40{fill:#FFFFFF;}
	.st41{fill:#F47920;}
	.st42{fill:#8AC640;}
</style>
<path class="st0" d="M47.6,47.6h0.8c-0.1,0.1-0.1,0.2-0.1,0.4c0,0.2,0,0.6,0,1.3v0.2c0,0.4,0,0.7,0,1c0,0.3,0,0.4,0,0.5
	c0,0,0.1,0,0.1,0c0,0,0.1,0,0.2,0c0.3,0,0.5,0,0.7-0.1c0.2-0.1,0.3-0.2,0.4-0.3l-0.1,0.6c-0.1,0-0.2,0-0.3,0c-0.1,0-0.2,0-0.3,0
	c-0.1,0-0.3,0-0.5,0c-0.3,0-0.5,0-0.6,0h-0.2c0.1-0.1,0.1-0.2,0.1-0.4c0-0.2,0-0.6,0-1.3v-0.2c0-0.7,0-1.2,0-1.3
	C47.7,47.8,47.7,47.6,47.6,47.6"/>
<path class="st0" d="M49.6,51.2c0.2-0.2,0.3-0.5,0.5-0.8c0.2-0.3,0.4-0.7,0.5-1.1c0.2-0.4,0.3-0.7,0.4-1c0.1-0.3,0.2-0.5,0.2-0.5
	c0,0,0-0.1,0-0.1c0,0,0-0.1,0-0.1h0.7c0.3,0.9,0.5,1.7,0.8,2.3c0.2,0.6,0.4,1.1,0.6,1.3h-0.6l-0.6-1.6h-1.3l-0.2,0.6l0,0
	c-0.1,0.4-0.2,0.6-0.2,0.8c0,0,0,0.1,0,0.1c0,0,0,0.1,0,0.1H49.6z M50.9,49.4H52L51.5,48L50.9,49.4z"/>
<path class="st0" d="M58.1,47.6l0,0.8c-0.1-0.2-0.2-0.3-0.3-0.4c-0.1-0.1-0.3-0.1-0.5-0.1c-0.4,0-0.7,0.1-0.9,0.4
	c-0.2,0.3-0.3,0.6-0.3,1.1c0,0.5,0.1,0.9,0.4,1.1c0.3,0.3,0.6,0.4,1,0.4c0.2,0,0.4,0,0.6-0.1c0.2-0.1,0.3-0.2,0.4-0.3
	c-0.1,0.3-0.2,0.5-0.4,0.6c-0.2,0.2-0.5,0.2-0.8,0.2c-0.5,0-0.9-0.2-1.2-0.5c-0.3-0.3-0.5-0.8-0.5-1.3c0-0.6,0.2-1.1,0.5-1.4
	c0.3-0.3,0.8-0.5,1.4-0.5c0.1,0,0.2,0,0.4,0C57.9,47.6,58,47.6,58.1,47.6"/>
<path class="st0" d="M60.7,51.2c-0.5,0-0.9-0.2-1.2-0.5c-0.3-0.3-0.4-0.8-0.4-1.3c0-0.6,0.2-1.1,0.5-1.4c0.3-0.3,0.8-0.5,1.3-0.5
	c0.6,0,1,0.1,1.2,0.4c0.3,0.3,0.4,0.7,0.4,1.3c0,0.6-0.2,1.1-0.5,1.4C61.7,51.1,61.3,51.2,60.7,51.2 M60.9,51c0.3,0,0.6-0.1,0.8-0.4
	c0.2-0.3,0.3-0.6,0.3-1.1c0-0.5-0.1-0.9-0.3-1.2c-0.2-0.3-0.5-0.5-0.9-0.5c-0.4,0-0.7,0.1-0.9,0.4c-0.2,0.3-0.3,0.6-0.3,1.1
	c0,0.5,0.1,0.9,0.3,1.2C60.2,50.8,60.5,51,60.9,51"/>
<path class="st0" d="M65.2,51.3l-1.3-3.3l0,2.4v0.2c0,0.2,0,0.3,0,0.4c0,0.1,0.1,0.2,0.1,0.2h-0.6c0.1-0.1,0.2-0.4,0.2-0.9
	c0-0.5,0.1-1.3,0.1-2.3c0-0.1,0-0.2,0-0.2c0-0.1-0.1-0.1-0.1-0.2h0.6c0.1,0,0.1,0,0.1,0c0,0,0,0,0,0.1l1,2.7l1.1-2.7
	c0-0.1,0-0.1,0.1-0.1c0,0,0.1,0,0.1,0h0.5c0,0.1-0.1,0.2-0.1,0.3c0,0.1,0,0.3,0,0.6c0,0.9,0,1.6,0.1,2c0,0.4,0.1,0.6,0.2,0.7h-0.8
	c0.1-0.1,0.1-0.2,0.1-0.3c0-0.1,0-0.3,0-0.5c0,0,0,0,0,0c0-0.1,0-0.3,0-0.4l0-2L65.2,51.3z"/>
<path class="st0" d="M68.3,51.2c0.1-0.1,0.1-0.2,0.1-0.4c0-0.2,0-0.6,0-1.3v-0.2c0-0.7,0-1.2,0-1.3c0-0.2-0.1-0.3-0.1-0.4h0.3
	c0.2,0,0.5,0,0.8,0c0.3,0,0.5,0,0.6,0c0,0,0,0,0,0c0.1,0,0.1,0,0.2,0l0,0.5c0-0.1-0.1-0.2-0.3-0.2c-0.1,0-0.4-0.1-0.8-0.1H69
	c0,0.1,0,0.2,0,0.4c0,0.2,0,0.4,0,0.8v0.2c0,0,0.1,0,0.2,0c0.1,0,0.2,0,0.3,0c0.2,0,0.4,0,0.6,0c0.1,0,0.3,0,0.4,0
	c-0.1,0.1-0.2,0.2-0.4,0.3c-0.2,0-0.4,0.1-0.8,0.1c0,0,0,0-0.1,0c0,0-0.1,0-0.1,0v0.4c0,0.3,0,0.6,0,0.8c0,0.2,0,0.3,0,0.4h0.3
	c0.4,0,0.6,0,0.8-0.1c0.2-0.1,0.3-0.2,0.4-0.3l-0.1,0.6c-0.1,0-0.2,0-0.3,0c-0.1,0-0.2,0-0.3,0c-0.1,0-0.3,0-0.5,0
	c-0.3,0-0.5,0-0.6,0H68.3z"/>
<path class="st0" d="M71.6,47.6c0.2,0,0.5,0,0.7,0c0.3,0,0.4,0,0.5,0c0.3,0,0.5,0.1,0.6,0.2c0.1,0.1,0.2,0.3,0.2,0.5
	c0,0.2-0.1,0.4-0.2,0.6c-0.1,0.2-0.4,0.3-0.6,0.4l0.8,1.1c0.1,0.2,0.3,0.3,0.4,0.5c0.1,0.1,0.2,0.2,0.3,0.3h-0.5c-0.1,0-0.1,0-0.2,0
	c0,0-0.1-0.1-0.1-0.1l-1-1.3c-0.1-0.1-0.1-0.2-0.2-0.2c-0.1,0-0.1,0-0.2,0h0v0.3c0,0.5,0,0.9,0,1.1c0,0.2,0.1,0.3,0.1,0.3h-0.8
	c0.1-0.1,0.1-0.2,0.1-0.4c0-0.2,0-0.6,0-1.3v-0.2c0-0.7,0-1.2,0-1.3c0-0.2-0.1-0.3-0.1-0.4H71.6z M72.1,49.2c0,0,0.1,0,0.1,0
	c0,0,0.1,0,0.1,0c0.3,0,0.5-0.1,0.6-0.2c0.1-0.1,0.2-0.3,0.2-0.6c0-0.2-0.1-0.4-0.2-0.5c-0.1-0.1-0.3-0.2-0.5-0.2
	c-0.1,0-0.2,0-0.2,0c-0.1,0-0.1,0-0.1,0c0,0.1,0,0.2,0,0.4c0,0.2,0,0.4,0,0.7V49V49.2z"/>
<g>
	<g>
		<defs>
			<rect id="SVGID_1_" x="76.8" y="28" width="22.6" height="18.4"/>
		</defs>
		<clipPath id="SVGID_2_">
			<use xlink:href="#SVGID_1_"  style="overflow:visible;"/>
		</clipPath>
		<g class="st1">
			<g>
				<defs>
					<rect id="SVGID_3_" x="76.8" y="28" width="22.6" height="18.4"/>
				</defs>
				<clipPath id="SVGID_4_">
					<use xlink:href="#SVGID_3_"  style="overflow:visible;"/>
				</clipPath>
				<path class="st2" d="M88.1,46.4c-3,0-5.8-0.9-7.9-2.6c-2.2-1.7-3.4-4.1-3.4-6.5c0-2.5,1.2-4.8,3.4-6.5c2.1-1.7,4.9-2.6,7.9-2.6
					c3,0,5.8,0.9,7.9,2.6c2.2,1.7,3.4,4.1,3.4,6.5c0,2.5-1.2,4.8-3.4,6.5C93.9,45.4,91.1,46.4,88.1,46.4"/>
			</g>
		</g>
		<g class="st1">
			<g>
				<defs>
					<rect id="SVGID_5_" x="76.8" y="28" width="22.6" height="18.3"/>
				</defs>
				<clipPath id="SVGID_6_">
					<use xlink:href="#SVGID_5_"  style="overflow:visible;"/>
				</clipPath>
				<path class="st3" d="M96.1,43.7c-2.1,1.7-4.9,2.6-7.9,2.6c-3,0-5.8-0.9-7.9-2.6c-2.2-1.7-3.4-4.1-3.4-6.5c0-2.5,1.2-4.8,3.4-6.5
					c2.1-1.7,4.9-2.6,7.9-2.6c3,0,5.8,0.9,7.9,2.6c2.2,1.7,3.4,4.1,3.4,6.5C99.4,39.7,98.2,42,96.1,43.7"/>
			</g>
		</g>
		<g class="st1">
			<g>
				<defs>
					<rect id="SVGID_7_" x="76.8" y="28" width="22.6" height="18.3"/>
				</defs>
				<clipPath id="SVGID_8_">
					<use xlink:href="#SVGID_7_"  style="overflow:visible;"/>
				</clipPath>
				<path class="st4" d="M96.1,43.7c-2.1,1.7-4.9,2.6-7.9,2.6c-3,0-5.8-0.9-7.9-2.6c-2.2-1.7-3.4-4.1-3.4-6.5c0-2.5,1.2-4.8,3.4-6.5
					c2.1-1.7,4.9-2.6,7.9-2.6c3,0,5.8,0.9,7.9,2.6c2.2,1.7,3.4,4.1,3.4,6.5C99.4,39.7,98.2,42,96.1,43.7"/>
			</g>
		</g>
		<g class="st1">
			<g>
				<defs>
					<rect id="SVGID_9_" x="76.8" y="28" width="22.6" height="18.3"/>
				</defs>
				<clipPath id="SVGID_10_">
					<use xlink:href="#SVGID_9_"  style="overflow:visible;"/>
				</clipPath>
				<path class="st5" d="M96.1,43.7c-2.1,1.7-4.9,2.6-7.9,2.6c-3,0-5.8-0.9-7.9-2.6c-2.2-1.7-3.4-4.1-3.4-6.5c0-2.5,1.2-4.8,3.4-6.5
					c2.1-1.7,4.9-2.6,7.9-2.6c3,0,5.8,0.9,7.9,2.6c2.2,1.7,3.4,4.1,3.4,6.5C99.4,39.7,98.2,42,96.1,43.7"/>
			</g>
		</g>
		<g class="st1">
			<g>
				<defs>
					<rect id="SVGID_11_" x="76.8" y="28" width="22.6" height="18.3"/>
				</defs>
				<clipPath id="SVGID_12_">
					<use xlink:href="#SVGID_11_"  style="overflow:visible;"/>
				</clipPath>
				<path class="st6" d="M96.1,43.7c-2.1,1.7-4.9,2.6-7.9,2.6c-3,0-5.8-0.9-7.9-2.6c-2.2-1.7-3.4-4-3.4-6.5c0-2.5,1.2-4.8,3.4-6.5
					c2.1-1.7,4.9-2.6,7.9-2.6c3,0,5.8,0.9,7.9,2.6c2.2,1.7,3.4,4,3.4,6.5C99.4,39.7,98.2,42,96.1,43.7"/>
			</g>
		</g>
		<g class="st1">
			<g>
				<defs>
					<rect id="SVGID_13_" x="76.9" y="28" width="22.6" height="18.3"/>
				</defs>
				<clipPath id="SVGID_14_">
					<use xlink:href="#SVGID_13_"  style="overflow:visible;"/>
				</clipPath>
				<path class="st7" d="M96.1,43.7c-2.1,1.7-4.9,2.6-7.9,2.6c-3,0-5.8-0.9-7.9-2.6c-2.2-1.7-3.4-4-3.4-6.5c0-2.5,1.2-4.8,3.4-6.5
					c2.1-1.7,4.9-2.6,7.9-2.6c3,0,5.8,0.9,7.9,2.6c2.2,1.7,3.4,4,3.4,6.5C99.4,39.7,98.2,42,96.1,43.7"/>
			</g>
		</g>
		<g class="st1">
			<g>
				<defs>
					<rect id="SVGID_15_" x="76.9" y="28" width="22.5" height="18.3"/>
				</defs>
				<clipPath id="SVGID_16_">
					<use xlink:href="#SVGID_15_"  style="overflow:visible;"/>
				</clipPath>
				<path class="st8" d="M96,43.7c-2.1,1.7-4.9,2.6-7.9,2.6c-3,0-5.8-0.9-7.9-2.6c-2.2-1.7-3.4-4-3.4-6.5c0-2.5,1.2-4.8,3.4-6.5
					c2.1-1.7,4.9-2.6,7.9-2.6c3,0,5.8,0.9,7.9,2.6c2.2,1.7,3.4,4,3.4,6.5C99.4,39.7,98.2,42,96,43.7"/>
			</g>
		</g>
		<g class="st1">
			<g>
				<defs>
					<rect id="SVGID_17_" x="76.9" y="28.1" width="22.5" height="18.3"/>
				</defs>
				<clipPath id="SVGID_18_">
					<use xlink:href="#SVGID_17_"  style="overflow:visible;"/>
				</clipPath>
				<path class="st9" d="M96,43.7c-2.1,1.7-4.9,2.6-7.9,2.6c-3,0-5.8-0.9-7.9-2.6c-2.2-1.7-3.4-4-3.4-6.5c0-2.5,1.2-4.8,3.4-6.5
					c2.1-1.7,4.9-2.6,7.9-2.6c3,0,5.8,0.9,7.9,2.6c2.2,1.7,3.4,4,3.4,6.5C99.4,39.6,98.2,42,96,43.7"/>
			</g>
		</g>
		<g class="st1">
			<g>
				<defs>
					<rect id="SVGID_19_" x="76.9" y="28.1" width="22.5" height="18.2"/>
				</defs>
				<clipPath id="SVGID_20_">
					<use xlink:href="#SVGID_19_"  style="overflow:visible;"/>
				</clipPath>
				<path class="st10" d="M96,43.7c-2.1,1.7-4.9,2.6-7.9,2.6c-3,0-5.8-0.9-7.9-2.6c-2.2-1.7-3.4-4-3.4-6.5c0-2.5,1.2-4.8,3.4-6.5
					c2.1-1.7,4.9-2.6,7.9-2.6c3,0,5.8,0.9,7.9,2.6c2.2,1.7,3.4,4,3.4,6.5C99.4,39.6,98.2,42,96,43.7"/>
			</g>
		</g>
		<g class="st1">
			<g>
				<defs>
					<rect id="SVGID_21_" x="76.9" y="28.1" width="22.5" height="18.2"/>
				</defs>
				<clipPath id="SVGID_22_">
					<use xlink:href="#SVGID_21_"  style="overflow:visible;"/>
				</clipPath>
				<path class="st11" d="M96,43.7c-2.1,1.7-4.9,2.6-7.9,2.6c-3,0-5.8-0.9-7.9-2.6c-2.2-1.7-3.3-4-3.3-6.5c0-2.5,1.2-4.8,3.3-6.5
					c2.1-1.7,4.9-2.6,7.9-2.6c3,0,5.8,0.9,7.9,2.6c2.2,1.7,3.3,4,3.3,6.5C99.4,39.6,98.2,42,96,43.7"/>
			</g>
		</g>
		<g class="st1">
			<g>
				<defs>
					<rect id="SVGID_23_" x="76.9" y="28.1" width="22.5" height="18.2"/>
				</defs>
				<clipPath id="SVGID_24_">
					<use xlink:href="#SVGID_23_"  style="overflow:visible;"/>
				</clipPath>
				<path class="st12" d="M96,43.7c-2.1,1.7-4.9,2.6-7.9,2.6c-3,0-5.8-0.9-7.9-2.6c-2.2-1.7-3.3-4-3.3-6.5c0-2.5,1.2-4.8,3.3-6.5
					c2.1-1.7,4.9-2.6,7.9-2.6c3,0,5.8,0.9,7.9,2.6c2.2,1.7,3.3,4,3.3,6.5C99.4,39.6,98.2,41.9,96,43.7"/>
			</g>
		</g>
		<g class="st1">
			<g>
				<defs>
					<rect id="SVGID_25_" x="76.9" y="28.1" width="22.5" height="18.2"/>
				</defs>
				<clipPath id="SVGID_26_">
					<use xlink:href="#SVGID_25_"  style="overflow:visible;"/>
				</clipPath>
				<path class="st13" d="M96,43.7c-2.1,1.7-4.9,2.6-7.9,2.6c-3,0-5.8-0.9-7.9-2.6c-2.2-1.7-3.3-4-3.3-6.5c0-2.5,1.2-4.8,3.3-6.5
					c2.1-1.7,4.9-2.6,7.9-2.6c3,0,5.8,0.9,7.9,2.6c2.2,1.7,3.3,4,3.3,6.5C99.4,39.6,98.2,41.9,96,43.7"/>
			</g>
		</g>
		<g class="st1">
			<g>
				<defs>
					<rect id="SVGID_27_" x="76.9" y="28.1" width="22.5" height="18.2"/>
				</defs>
				<clipPath id="SVGID_28_">
					<use xlink:href="#SVGID_27_"  style="overflow:visible;"/>
				</clipPath>
				<path class="st14" d="M96,43.7c-2.1,1.7-4.9,2.6-7.9,2.6c-3,0-5.8-0.9-7.9-2.6c-2.2-1.7-3.3-4-3.3-6.5s1.2-4.8,3.3-6.5
					c2.1-1.7,4.9-2.6,7.9-2.6c3,0,5.8,0.9,7.9,2.6c2.2,1.7,3.3,4,3.3,6.5S98.2,41.9,96,43.7"/>
			</g>
		</g>
		<g class="st1">
			<g>
				<defs>
					<rect id="SVGID_29_" x="76.9" y="28.1" width="22.4" height="18.2"/>
				</defs>
				<clipPath id="SVGID_30_">
					<use xlink:href="#SVGID_29_"  style="overflow:visible;"/>
				</clipPath>
				<path class="st15" d="M96,43.7c-2.1,1.7-4.9,2.6-7.9,2.6c-3,0-5.8-0.9-7.9-2.6c-2.2-1.7-3.3-4-3.3-6.5c0-2.5,1.2-4.8,3.3-6.5
					c2.1-1.7,4.9-2.6,7.9-2.6c3,0,5.8,0.9,7.9,2.6c2.2,1.7,3.3,4,3.3,6.5C99.4,39.6,98.2,41.9,96,43.7"/>
			</g>
		</g>
		<g class="st1">
			<g>
				<defs>
					<rect id="SVGID_31_" x="76.9" y="28.1" width="22.4" height="18.2"/>
				</defs>
				<clipPath id="SVGID_32_">
					<use xlink:href="#SVGID_31_"  style="overflow:visible;"/>
				</clipPath>
				<path class="st16" d="M96,43.6c-2.1,1.7-4.9,2.6-7.9,2.6c-3,0-5.8-0.9-7.9-2.6c-2.2-1.7-3.3-4-3.3-6.5c0-2.5,1.2-4.7,3.3-6.5
					c2.1-1.7,4.9-2.6,7.9-2.6c3,0,5.8,0.9,7.9,2.6c2.2,1.7,3.3,4,3.3,6.5C99.3,39.6,98.2,41.9,96,43.6"/>
			</g>
		</g>
		<g class="st1">
			<g>
				<defs>
					<rect id="SVGID_33_" x="76.9" y="28.1" width="22.4" height="18.1"/>
				</defs>
				<clipPath id="SVGID_34_">
					<use xlink:href="#SVGID_33_"  style="overflow:visible;"/>
				</clipPath>
				<path class="st17" d="M96,43.6c-2.1,1.7-4.9,2.6-7.9,2.6c-3,0-5.8-0.9-7.9-2.6c-2.1-1.7-3.3-4-3.3-6.5c0-2.4,1.2-4.7,3.3-6.5
					c2.1-1.7,4.9-2.6,7.9-2.6c3,0,5.8,0.9,7.9,2.6c2.1,1.7,3.3,4,3.3,6.5C99.3,39.6,98.2,41.9,96,43.6"/>
			</g>
		</g>
		<g class="st1">
			<g>
				<defs>
					<rect id="SVGID_35_" x="76.9" y="28.1" width="22.4" height="18.1"/>
				</defs>
				<clipPath id="SVGID_36_">
					<use xlink:href="#SVGID_35_"  style="overflow:visible;"/>
				</clipPath>
				<path class="st18" d="M96,43.6c-2.1,1.7-4.9,2.6-7.9,2.6c-3,0-5.8-0.9-7.9-2.6c-2.1-1.7-3.3-4-3.3-6.5c0-2.4,1.2-4.7,3.3-6.5
					c2.1-1.7,4.9-2.6,7.9-2.6c3,0,5.8,0.9,7.9,2.6c2.1,1.7,3.3,4,3.3,6.5C99.3,39.6,98.2,41.9,96,43.6"/>
			</g>
		</g>
		<g class="st1">
			<g>
				<defs>
					<rect id="SVGID_37_" x="76.9" y="28.1" width="22.4" height="18.1"/>
				</defs>
				<clipPath id="SVGID_38_">
					<use xlink:href="#SVGID_37_"  style="overflow:visible;"/>
				</clipPath>
				<path class="st19" d="M96,43.6c-2.1,1.7-4.9,2.6-7.9,2.6c-3,0-5.8-0.9-7.9-2.6c-2.1-1.7-3.3-4-3.3-6.4c0-2.4,1.2-4.7,3.3-6.4
					c2.1-1.7,4.9-2.6,7.9-2.6c3,0,5.8,0.9,7.9,2.6c2.1,1.7,3.3,4,3.3,6.4C99.3,39.6,98.1,41.9,96,43.6"/>
			</g>
		</g>
		<g class="st1">
			<g>
				<defs>
					<rect id="SVGID_39_" x="76.9" y="28.1" width="22.4" height="18.1"/>
				</defs>
				<clipPath id="SVGID_40_">
					<use xlink:href="#SVGID_39_"  style="overflow:visible;"/>
				</clipPath>
				<path class="st20" d="M96,43.6c-2.1,1.7-4.9,2.6-7.9,2.6c-3,0-5.8-0.9-7.9-2.6c-2.1-1.7-3.3-4-3.3-6.4c0-2.4,1.2-4.7,3.3-6.4
					c2.1-1.7,4.9-2.6,7.9-2.6c3,0,5.8,0.9,7.9,2.6c2.1,1.7,3.3,4,3.3,6.4C99.3,39.6,98.1,41.9,96,43.6"/>
			</g>
		</g>
		<g class="st1">
			<g>
				<defs>
					<rect id="SVGID_41_" x="77" y="28.1" width="22.4" height="18.1"/>
				</defs>
				<clipPath id="SVGID_42_">
					<use xlink:href="#SVGID_41_"  style="overflow:visible;"/>
				</clipPath>
				<path class="st21" d="M96,43.6c-2.1,1.7-4.9,2.6-7.9,2.6c-3,0-5.8-0.9-7.9-2.6c-2.1-1.7-3.3-4-3.3-6.4c0-2.4,1.2-4.7,3.3-6.4
					c2.1-1.7,4.9-2.6,7.9-2.6c3,0,5.8,0.9,7.9,2.6c2.1,1.7,3.3,4,3.3,6.4C99.3,39.6,98.1,41.9,96,43.6"/>
			</g>
		</g>
		<g class="st1">
			<g>
				<defs>
					<rect id="SVGID_43_" x="77" y="28.1" width="22.3" height="18.1"/>
				</defs>
				<clipPath id="SVGID_44_">
					<use xlink:href="#SVGID_43_"  style="overflow:visible;"/>
				</clipPath>
				<path class="st22" d="M96,43.6c-2.1,1.7-4.9,2.6-7.9,2.6c-3,0-5.7-0.9-7.9-2.6c-2.1-1.7-3.3-4-3.3-6.4c0-2.4,1.2-4.7,3.3-6.4
					c2.1-1.7,4.9-2.6,7.9-2.6c3,0,5.7,0.9,7.9,2.6c2.1,1.7,3.3,4,3.3,6.4C99.3,39.6,98.1,41.9,96,43.6"/>
			</g>
		</g>
		<g class="st1">
			<g>
				<defs>
					<rect id="SVGID_45_" x="77" y="28.2" width="22.3" height="18.1"/>
				</defs>
				<clipPath id="SVGID_46_">
					<use xlink:href="#SVGID_45_"  style="overflow:visible;"/>
				</clipPath>
				<path class="st23" d="M96,43.6c-2.1,1.7-4.9,2.6-7.8,2.6c-3,0-5.7-0.9-7.8-2.6c-2.1-1.7-3.3-4-3.3-6.4c0-2.4,1.2-4.7,3.3-6.4
					c2.1-1.7,4.9-2.6,7.8-2.6c3,0,5.7,0.9,7.8,2.6c2.1,1.7,3.3,4,3.3,6.4C99.3,39.6,98.1,41.9,96,43.6"/>
			</g>
		</g>
		<g class="st1">
			<g>
				<defs>
					<rect id="SVGID_47_" x="77" y="28.2" width="22.3" height="18"/>
				</defs>
				<clipPath id="SVGID_48_">
					<use xlink:href="#SVGID_47_"  style="overflow:visible;"/>
				</clipPath>
				<path class="st24" d="M96,43.6c-2.1,1.7-4.9,2.6-7.8,2.6c-3,0-5.7-0.9-7.8-2.6c-2.1-1.7-3.3-4-3.3-6.4c0-2.4,1.2-4.7,3.3-6.4
					c2.1-1.7,4.9-2.6,7.8-2.6c3,0,5.7,0.9,7.8,2.6c2.1,1.7,3.3,4,3.3,6.4C99.3,39.6,98.1,41.9,96,43.6"/>
			</g>
		</g>
		<g class="st1">
			<g>
				<defs>
					<rect id="SVGID_49_" x="77" y="28.2" width="22.3" height="18"/>
				</defs>
				<clipPath id="SVGID_50_">
					<use xlink:href="#SVGID_49_"  style="overflow:visible;"/>
				</clipPath>
				<path class="st25" d="M96,43.6c-2.1,1.7-4.9,2.6-7.8,2.6c-3,0-5.7-0.9-7.8-2.6c-2.1-1.7-3.3-4-3.3-6.4c0-2.4,1.2-4.7,3.3-6.4
					c2.1-1.7,4.9-2.6,7.8-2.6c3,0,5.7,0.9,7.8,2.6c2.1,1.7,3.3,4,3.3,6.4C99.3,39.6,98.1,41.9,96,43.6"/>
			</g>
		</g>
		<g class="st1">
			<g>
				<defs>
					<rect id="SVGID_51_" x="77" y="28.2" width="22.3" height="18"/>
				</defs>
				<clipPath id="SVGID_52_">
					<use xlink:href="#SVGID_51_"  style="overflow:visible;"/>
				</clipPath>
				<path class="st26" d="M96,43.6c-2.1,1.7-4.9,2.6-7.8,2.6c-3,0-5.7-0.9-7.8-2.6c-2.1-1.7-3.3-4-3.3-6.4c0-2.4,1.2-4.7,3.3-6.4
					c2.1-1.7,4.9-2.6,7.8-2.6c3,0,5.7,0.9,7.8,2.6c2.1,1.7,3.3,4,3.3,6.4C99.3,39.6,98.1,41.9,96,43.6"/>
			</g>
		</g>
		<g class="st1">
			<g>
				<defs>
					<rect id="SVGID_53_" x="77" y="28.2" width="22.3" height="18"/>
				</defs>
				<clipPath id="SVGID_54_">
					<use xlink:href="#SVGID_53_"  style="overflow:visible;"/>
				</clipPath>
				<path class="st27" d="M96,43.6c-2.1,1.7-4.9,2.6-7.8,2.6c-3,0-5.7-0.9-7.8-2.6c-2.1-1.7-3.3-4-3.3-6.4c0-2.4,1.2-4.7,3.3-6.4
					c2.1-1.7,4.9-2.6,7.8-2.6c3,0,5.7,0.9,7.8,2.6c2.1,1.7,3.3,4,3.3,6.4C99.3,39.6,98.1,41.9,96,43.6"/>
			</g>
		</g>
		<g class="st1">
			<g>
				<defs>
					<rect id="SVGID_55_" x="77" y="28.2" width="22.3" height="18"/>
				</defs>
				<clipPath id="SVGID_56_">
					<use xlink:href="#SVGID_55_"  style="overflow:visible;"/>
				</clipPath>
				<path class="st28" d="M96,43.6c-2.1,1.7-4.9,2.6-7.8,2.6c-3,0-5.7-0.9-7.8-2.6c-2.1-1.7-3.3-4-3.3-6.4c0-2.4,1.2-4.7,3.3-6.4
					c2.1-1.7,4.9-2.6,7.8-2.6c3,0,5.7,0.9,7.8,2.6c2.1,1.7,3.3,4,3.3,6.4C99.3,39.6,98.1,41.9,96,43.6"/>
			</g>
		</g>
		<g class="st1">
			<g>
				<defs>
					<rect id="SVGID_57_" x="77" y="28.2" width="22.2" height="18"/>
				</defs>
				<clipPath id="SVGID_58_">
					<use xlink:href="#SVGID_57_"  style="overflow:visible;"/>
				</clipPath>
				<path class="st29" d="M96,43.6c-2.1,1.7-4.9,2.6-7.8,2.6c-2.9,0-5.7-0.9-7.8-2.6c-2.1-1.7-3.3-4-3.3-6.4c0-2.4,1.2-4.7,3.3-6.4
					c2.1-1.7,4.9-2.6,7.8-2.6c2.9,0,5.7,0.9,7.8,2.6c2.1,1.7,3.3,4,3.3,6.4C99.3,39.6,98.1,41.9,96,43.6"/>
			</g>
		</g>
		<g class="st1">
			<g>
				<defs>
					<rect id="SVGID_59_" x="77" y="28.2" width="22.2" height="18"/>
				</defs>
				<clipPath id="SVGID_60_">
					<use xlink:href="#SVGID_59_"  style="overflow:visible;"/>
				</clipPath>
				<path class="st30" d="M95.9,43.6c-2.1,1.7-4.9,2.6-7.8,2.6c-2.9,0-5.7-0.9-7.8-2.6c-2.1-1.7-3.3-4-3.3-6.4
					c0-2.4,1.2-4.7,3.3-6.4c2.1-1.7,4.9-2.6,7.8-2.6c2.9,0,5.7,0.9,7.8,2.6c2.1,1.7,3.3,4,3.3,6.4C99.2,39.6,98.1,41.9,95.9,43.6"/>
			</g>
		</g>
		<g class="st1">
			<g>
				<defs>
					<rect id="SVGID_61_" x="77" y="28.2" width="22.2" height="17.9"/>
				</defs>
				<clipPath id="SVGID_62_">
					<use xlink:href="#SVGID_61_"  style="overflow:visible;"/>
				</clipPath>
				<path class="st31" d="M95.9,43.6c-2.1,1.7-4.9,2.6-7.8,2.6c-2.9,0-5.7-0.9-7.8-2.6c-2.1-1.7-3.3-4-3.3-6.4
					c0-2.4,1.2-4.7,3.3-6.4c2.1-1.7,4.9-2.6,7.8-2.6c2.9,0,5.7,0.9,7.8,2.6c2.1,1.7,3.3,4,3.3,6.4C99.2,39.6,98.1,41.9,95.9,43.6"/>
			</g>
		</g>
		<g class="st1">
			<g>
				<defs>
					<rect id="SVGID_63_" x="77" y="28.2" width="22.2" height="17.9"/>
				</defs>
				<clipPath id="SVGID_64_">
					<use xlink:href="#SVGID_63_"  style="overflow:visible;"/>
				</clipPath>
				<path class="st32" d="M95.9,43.6c-2.1,1.7-4.9,2.6-7.8,2.6c-2.9,0-5.7-0.9-7.8-2.6c-2.1-1.7-3.3-4-3.3-6.4
					c0-2.4,1.2-4.7,3.3-6.4c2.1-1.7,4.9-2.6,7.8-2.6c2.9,0,5.7,0.9,7.8,2.6c2.1,1.7,3.3,4,3.3,6.4C99.2,39.6,98.1,41.9,95.9,43.6"/>
			</g>
		</g>
		<g class="st1">
			<g>
				<defs>
					<rect id="SVGID_65_" x="77" y="28.2" width="22.2" height="17.9"/>
				</defs>
				<clipPath id="SVGID_66_">
					<use xlink:href="#SVGID_65_"  style="overflow:visible;"/>
				</clipPath>
				<path class="st33" d="M95.9,43.6c-2.1,1.7-4.9,2.6-7.8,2.6c-2.9,0-5.7-0.9-7.8-2.6c-2.1-1.7-3.3-4-3.3-6.4
					c0-2.4,1.2-4.7,3.3-6.4c2.1-1.7,4.9-2.6,7.8-2.6c2.9,0,5.7,0.9,7.8,2.6c2.1,1.7,3.3,4,3.3,6.4C99.2,39.6,98.1,41.9,95.9,43.6"/>
			</g>
		</g>
		<g class="st1">
			<g>
				<defs>
					<rect id="SVGID_67_" x="77" y="28.2" width="22.2" height="17.9"/>
				</defs>
				<clipPath id="SVGID_68_">
					<use xlink:href="#SVGID_67_"  style="overflow:visible;"/>
				</clipPath>
				<path class="st34" d="M95.9,43.5c-2.1,1.7-4.9,2.6-7.8,2.6s-5.7-0.9-7.8-2.6c-2.1-1.7-3.3-4-3.3-6.4c0-2.4,1.2-4.7,3.3-6.4
					c2.1-1.7,4.9-2.6,7.8-2.6s5.7,0.9,7.8,2.6c2.1,1.7,3.3,4,3.3,6.4C99.2,39.6,98.1,41.9,95.9,43.5"/>
			</g>
		</g>
		<g class="st1">
			<g>
				<defs>
					<rect id="SVGID_69_" x="77.1" y="28.2" width="22.2" height="17.9"/>
				</defs>
				<clipPath id="SVGID_70_">
					<use xlink:href="#SVGID_69_"  style="overflow:visible;"/>
				</clipPath>
				<path class="st35" d="M95.9,43.5c-2.1,1.7-4.9,2.6-7.8,2.6c-2.9,0-5.7-0.9-7.8-2.6c-2.1-1.7-3.3-3.9-3.3-6.4
					c0-2.4,1.2-4.7,3.3-6.4c2.1-1.7,4.9-2.6,7.8-2.6c2.9,0,5.7,0.9,7.8,2.6c2.1,1.7,3.3,3.9,3.3,6.4C99.2,39.6,98,41.9,95.9,43.5"/>
			</g>
		</g>
		<g class="st1">
			<g>
				<defs>
					<rect id="SVGID_71_" x="77.1" y="28.2" width="22.1" height="17.9"/>
				</defs>
				<clipPath id="SVGID_72_">
					<use xlink:href="#SVGID_71_"  style="overflow:visible;"/>
				</clipPath>
				<path class="st36" d="M95.9,43.5c-2.1,1.7-4.9,2.6-7.8,2.6c-2.9,0-5.7-0.9-7.8-2.6c-2.1-1.7-3.3-3.9-3.3-6.4
					c0-2.4,1.2-4.7,3.3-6.4c2.1-1.7,4.9-2.6,7.8-2.6c2.9,0,5.7,0.9,7.8,2.6c2.1,1.7,3.3,3.9,3.3,6.4C99.2,39.6,98,41.8,95.9,43.5"/>
			</g>
		</g>
		<g class="st1">
			<g>
				<defs>
					<rect id="SVGID_73_" x="77.1" y="28.3" width="22.1" height="17.9"/>
				</defs>
				<clipPath id="SVGID_74_">
					<use xlink:href="#SVGID_73_"  style="overflow:visible;"/>
				</clipPath>
				<path class="st37" d="M95.9,43.5c-2.1,1.7-4.8,2.6-7.8,2.6c-2.9,0-5.7-0.9-7.8-2.6c-2.1-1.7-3.3-3.9-3.3-6.3
					c0-2.4,1.2-4.7,3.3-6.3c2.1-1.7,4.8-2.6,7.8-2.6c2.9,0,5.7,0.9,7.8,2.6c2.1,1.7,3.3,3.9,3.3,6.3C99.2,39.6,98,41.8,95.9,43.5"/>
			</g>
		</g>
		<g class="st1">
			<g>
				<defs>
					<rect id="SVGID_75_" x="77.1" y="28.3" width="22.1" height="17.8"/>
				</defs>
				<clipPath id="SVGID_76_">
					<use xlink:href="#SVGID_75_"  style="overflow:visible;"/>
				</clipPath>
				<path class="st38" d="M95.9,43.5c-2.1,1.7-4.8,2.6-7.8,2.6c-2.9,0-5.7-0.9-7.8-2.6c-2.1-1.7-3.3-3.9-3.3-6.3
					c0-2.4,1.2-4.7,3.3-6.3c2.1-1.7,4.8-2.6,7.8-2.6c2.9,0,5.7,0.9,7.8,2.6c2.1,1.7,3.3,3.9,3.3,6.3C99.2,39.6,98,41.8,95.9,43.5"/>
			</g>
		</g>
		<g class="st1">
			<g>
				<defs>
					<rect id="SVGID_77_" x="77.1" y="28.3" width="22.1" height="17.8"/>
				</defs>
				<clipPath id="SVGID_78_">
					<use xlink:href="#SVGID_77_"  style="overflow:visible;"/>
				</clipPath>
				<path class="st39" d="M88.1,46.1c-2.9,0-5.7-0.9-7.8-2.6c-2.1-1.7-3.3-3.9-3.3-6.3c0-2.4,1.2-4.6,3.3-6.3
					c2.1-1.7,4.8-2.6,7.8-2.6c2.9,0,5.7,0.9,7.8,2.6c2.1,1.7,3.3,3.9,3.3,6.3c0,2.4-1.2,4.6-3.3,6.3C93.8,45.2,91.1,46.1,88.1,46.1"
					/>
			</g>
		</g>
	</g>
</g>
<path class="st40" d="M88.1,46.1c-2.9,0-5.7-0.9-7.8-2.6c-2.1-1.7-3.3-3.9-3.3-6.3c0-2.4,1.2-4.6,3.3-6.3c2.1-1.7,4.8-2.6,7.8-2.6
	c2.9,0,5.7,0.9,7.8,2.6c2.1,1.7,3.3,3.9,3.3,6.3c0,2.4-1.2,4.6-3.3,6.3C93.8,45.2,91.1,46.1,88.1,46.1"/>
<path class="st41" d="M91.2,33.6c0,0.2,0.2,0.4,0.4,0.4c0.2,0,0.4-0.2,0.4-0.4c0-0.2-0.2-0.4-0.4-0.4C91.4,33.2,91.2,33.4,91.2,33.6
	 M88.1,28.8c-5.8,0-10.5,3.7-10.5,8.4c0,4,3.6,7.4,8.4,8.2c0.7-3.4,4.4-5.8,6.1-7.2c1.3-1,1.3-2,1-2.7c-0.1-0.1-0.2-0.1-0.3-0.1
	c-0.2,0.1-1,0.4-1.4-0.3c0,0-0.1-0.1-0.1,0c0,0,0,0.1,0,0.1c0.1,0.4,0.4,0.7,0.7,0.8c0.2,0,0.4-0.1,0.6-0.1c0.2-0.1,0.2,0,0.2,0.1
	c0.1,1-1.2,1.7-1.5,2c-0.8,0.6-4,2.9-4.7,3.3c-1.3,0.7-2.5,1.3-3.8,0.2c-1-0.9-1.2-2.3-1.4-3.2c-0.1-0.6-0.5-0.9-0.8-1.1
	c-0.3-0.2-0.2-0.3,0-0.3c2.2-0.5,8.2-1.7,9.9-2.1c0.1,0,0.4-0.1,0.4-0.3c0-0.2-0.4-0.1-0.6-0.1c-2.2,0.4-9.4,1.7-9.9,1.8
	c-0.4,0.1-0.6,0.3-0.7,0.5c-0.1,0.2-0.3,0.3-0.4,0c0-0.1,0-0.2,0-0.3c0.1-0.5,0.2-0.8,0.7-0.8c0.5,0,1.7-0.2,2-0.3
	c1.5-0.3,4.8-0.9,8.1-1.7c0,0,0.6-1,2.2-1.3c1.1-0.2,2.6,0.2,3.5,1.6c0.4,0.7,0.6,1.6,0.5,1.6c-0.1,0-0.5-0.4-0.5,0
	c0,0.2,0,0.4,0,0.6c-0.2,2-2.2,3.7-3.6,5.2c-0.3,0.3-0.5,0.6-0.7,0.9c-0.2,0.5-0.3,1-0.1,1.4c0.2,0.4,0.6,0.5,0.9,0.6
	c0.4,0,1.1,0,2.2-0.4c0.7-0.2,1.4-0.7,1.8-1.1c1.5-1.5,2.4-3.3,2.4-5.3C98.6,32.6,93.9,28.8,88.1,28.8"/>
<path class="st42" d="M15.3,34.8v-1.9h-4.2v12.4h4.8v-5.7c0-1.7,0.7-2.5,2.3-2.5c0.3,0,0.5,0,0.9,0.1l0.1,0v-4.5l-0.8-0.1
	C16.9,32.6,15.9,33.4,15.3,34.8 M6.9,27.9c-1,0-1.8,0.1-2.4,0.4c-0.6,0.2-1.1,0.6-1.5,1c-0.4,0.5-0.6,0.9-0.7,1.4
	c-0.1,0.5-0.1,1.2-0.1,2.1H0.4v3.3h1.8v9.1h4.7v-9.1H10v-3.3H6.9v-0.3c0-0.5,0.1-0.9,0.4-1c0.3-0.1,0.6-0.2,1-0.2
	c0.4,0,0.9,0.1,1.7,0.2l0.1,0v-3.3l-0.1,0C9,28,7.9,27.9,6.9,27.9 M72,34.4c-1.2-1.2-2.9-1.8-4.9-1.8c-2,0-3.7,0.6-4.9,1.8
	c-1.3,1.2-1.9,2.8-1.9,4.6c0,1.7,0.6,3.2,1.8,4.5c1.2,1.3,2.8,1.9,4.9,1.9c2.1,0,3.7-0.6,5-1.9c1.2-1.2,1.9-2.8,1.9-4.6
	C73.8,37.2,73.2,35.6,72,34.4 M68.3,41.3c-0.2,0.7-0.6,1.1-1.2,1.1c-0.5,0-0.8-0.2-1.1-0.6c-0.2-0.4-0.4-1.3-0.4-2.7
	c0-1.2,0.1-2,0.4-2.5c0.2-0.5,0.6-0.7,1.1-0.7c0.6,0,0.9,0.2,1.1,0.7c0.2,0.5,0.3,1.3,0.3,2.4C68.5,39.7,68.5,40.5,68.3,41.3
	 M26.8,42.1c-0.7,0-1.1-0.2-1.4-0.5c-0.2-0.3-0.4-0.9-0.4-1.5h8.1l0-0.8c0-2.1-0.6-3.7-1.8-4.9c-1.2-1.2-2.8-1.8-4.8-1.8
	c-2,0-3.7,0.6-4.9,1.9c-1.2,1.3-1.8,2.8-1.8,4.7c0,1.8,0.6,3.3,1.9,4.5c1.2,1.2,2.9,1.8,5,1.8c1.9,0,3.3-0.4,4.4-1.3
	c1.1-0.9,1.8-1.9,2-3.1l0-0.1h-4.7C28.2,41.7,27.7,42.1,26.8,42.1 M26.6,35.5c0.5,0,0.9,0.1,1.2,0.4c0.3,0.3,0.5,0.8,0.5,1.7h-3.4
	C24.9,36.2,25.5,35.5,26.6,35.5 M43.9,37.4c-0.7-0.2-2.1-0.5-4.1-0.7c-0.7-0.1-1-0.3-1-0.6c0-0.1,0.1-0.2,0.3-0.3
	c0.2-0.1,0.6-0.2,1.1-0.2c1,0,1.7,0.3,2,1l0,0.1l3.8-0.7l0-0.1c-0.8-2.2-2.8-3.3-5.7-3.3c-1.7,0-3.1,0.4-4.1,1.2
	c-1.1,0.8-1.6,1.8-1.6,3.1c0,0.9,0.3,1.8,0.9,2.5c0.6,0.8,2.2,1.3,4.7,1.6c0.9,0.1,1.4,0.2,1.7,0.3c0.2,0.1,0.3,0.2,0.3,0.4
	c0,0.5-0.9,0.6-1.7,0.6c-1.4,0-2.2-0.4-2.4-1.2l0-0.1l-4,0.5l0,0.1c0.8,2.5,2.9,3.8,6.2,3.8c2,0,3.5-0.4,4.7-1.2
	c1.1-0.8,1.7-1.9,1.7-3.3c0-0.9-0.3-1.7-0.8-2.3C45.3,38.1,44.7,37.7,43.9,37.4"/>
<path class="st41" d="M56.9,37.1c0.1-0.1,3.8-4.3,3.8-4.3h-4.5l-3.1,3.5c-0.2,0.3-0.4,0.5-0.7,0.8c0-0.5,0-1.8,0-1.8v-6.7h-4.7v16.5
	h4.7v-3.4c0-0.1,1-1.1,1.2-1.3c0.1,0.3,2.2,4.8,2.2,4.8H61C61,45.2,56.9,37.3,56.9,37.1"/>
</svg>
