<?xml version="1.0" encoding="utf-8"?>
<!-- Generator: Adobe Illustrator 23.0.6, SVG Export Plug-In . SVG Version: 6.00 Build 0)  -->
<svg version="1.1" id="Layer_1" xmlns="http://www.w3.org/2000/svg" xmlns:xlink="http://www.w3.org/1999/xlink" x="0px" y="0px"
	 viewBox="0 0 100 80" style="enable-background:new 0 0 100 80;" xml:space="preserve">
<style type="text/css">
	.st0{fill:#FFFFFF;}
	.st1{fill:#E1251B;}
</style>
<g>
	<path class="st0" d="M84.1,54.3c7.9,0,14.9-7.1,14.9-15.7l0,0c0-8.6-7-15.5-14.9-15.5H17C8,23,1.3,30.1,1.3,38.7l0,0
		c0,8.6,6.7,15.5,14.6,15.5H84.1L84.1,54.3z"/>
	<path class="st1" d="M17,22.3c-4.5,0-8.7,1.7-11.7,4.8c-3,3.1-4.7,7.2-4.7,11.6c0,4.3,1.6,8.4,4.5,11.5c2.9,3.1,6.7,4.8,10.8,4.8
		h68.1c4,0,8-1.8,10.9-4.8c3-3.1,4.7-7.2,4.7-11.6c0-8.8-7.1-16.2-15.6-16.2H17L17,22.3z M6.2,49.2c-2.7-2.8-4.1-6.5-4.1-10.5
		c0-4,1.5-7.8,4.2-10.6c2.8-2.8,6.6-4.4,10.7-4.4h67.1c7.7,0,14.1,6.8,14.1,14.8c0,3.9-1.5,7.7-4.3,10.6c-2.7,2.8-6.3,4.4-9.9,4.4
		H15.9C12.3,53.5,8.9,52,6.2,49.2L6.2,49.2z"/>
	<path class="st1" d="M82.7,52.1c7.5,0,13.7-6,13.7-13.5l0,0c0-7.4-6.1-13.5-13.7-13.5H17.3c-7.6,0-13.7,6-13.7,13.5l0,0
		c0,7.4,6.1,13.5,13.7,13.5H82.7L82.7,52.1z"/>
	<path class="st0" d="M83.6,31.4c1.6,0,4.2,0.9,4.2,3.9c0,3.2-2.1,3.9-3,4.1c0.7,0.3,2.2,0.6,2.1,3.2c-0.1,2.9-2.2,3.3-4.4,3.3
		c-1.7,0-12.4,0-12.4,0l-0.6-14.5C69.6,31.4,82.2,31.3,83.6,31.4L83.6,31.4z M76.5,43.4c0,0,1.4,0.1,2.3,0c0.9-0.1,1.5-0.4,1.7-1.4
		c0.1-1-0.9-1.4-1.5-1.4c-0.5-0.1-2.4,0-2.4,0L76.5,43.4L76.5,43.4z M76.6,35v3.2c0,0,1.2,0,2.1,0c0.9,0,2.3-0.2,2.3-1.6
		c0-1.4-0.8-1.6-2-1.6C78.2,34.9,76.6,35,76.6,35L76.6,35z"/>
	<polygon class="st0" points="62.6,37.3 66.7,37.3 66.7,40 62.6,40 62.6,37.3 	"/>
	<polygon class="st0" points="42.2,31.3 42.8,45.9 59.7,45.9 59.7,43.3 49.2,43.3 49.2,40.8 57,40.8 57,38 49.2,38 49.2,35.2 
		60.1,35.2 60.1,31.4 42.2,31.3 	"/>
	<polygon class="st0" points="35.3,37.3 35.3,40 39.5,40 39.5,37.3 35.3,37.3 	"/>
	<polygon class="st0" points="14.6,31.4 21.7,31.4 21.5,38 26,38 25.8,31.5 32.8,31.5 32.2,45.9 26.4,45.9 26.1,40.8 21.5,40.8 
		21.3,45.9 15.4,45.9 14.6,31.4 	"/>
	<path class="st1" d="M97.5,52.2c0.3,0.3,0.5,0.7,0.5,1.1c0,0.4-0.2,0.8-0.5,1.1c-0.3,0.3-0.7,0.5-1.1,0.5c-0.4,0-0.8-0.1-1.1-0.5
		c-0.3-0.3-0.5-0.7-0.5-1.1c0-0.4,0.2-0.8,0.5-1.1c0.3-0.3,0.7-0.5,1.1-0.5C96.8,51.7,97.2,51.9,97.5,52.2L97.5,52.2z M97.7,52
		c-0.4-0.4-0.8-0.5-1.3-0.5c-0.5,0-0.9,0.2-1.3,0.5c-0.4,0.3-0.5,0.8-0.5,1.3c0,0.5,0.2,0.9,0.5,1.3c0.4,0.4,0.8,0.5,1.3,0.5
		c0.5,0,0.9-0.2,1.3-0.5c0.4-0.4,0.5-0.8,0.5-1.3C98.2,52.8,98.1,52.4,97.7,52L97.7,52z M96.7,53.2c-0.1,0-0.2,0-0.3,0H96v-0.7h0.3
		c0.2,0,0.3,0,0.4,0.1c0.1,0,0.1,0.1,0.1,0.3C96.9,53.1,96.8,53.2,96.7,53.2L96.7,53.2z M95.7,54.3H96v-0.8h0.3c0.2,0,0.3,0,0.4,0.1
		c0.1,0.1,0.2,0.2,0.2,0.5v0.2l0,0.1c0,0,0,0,0,0c0,0,0,0,0,0h0.3l0,0c0,0,0-0.1,0-0.1c0,0,0-0.1,0-0.1v-0.1c0-0.1,0-0.2-0.1-0.3
		c-0.1-0.1-0.2-0.2-0.3-0.2c0.1,0,0.2-0.1,0.3-0.1c0.1-0.1,0.2-0.2,0.2-0.4c0-0.3-0.1-0.4-0.3-0.5c-0.1,0-0.3-0.1-0.5-0.1h-0.7V54.3
		L95.7,54.3z"/>
</g>
</svg>
