<?xml version="1.0" encoding="utf-8"?>
<!-- Generator: Adobe Illustrator 23.0.6, SVG Export Plug-In . SVG Version: 6.00 Build 0)  -->
<svg version="1.1" id="Layer_1" xmlns="http://www.w3.org/2000/svg" xmlns:xlink="http://www.w3.org/1999/xlink" x="0px" y="0px"
	 viewBox="0 0 100 80" style="enable-background:new 0 0 100 80;" xml:space="preserve">
<style type="text/css">
	.st0{fill:#E50695;}
</style>
<g>
	<g>
		<g>
			<path class="st0" d="M2,53.4c0.3,0,0.5-0.1,0.7-0.3l0.4,0.3C2.8,53.7,2.5,54,2,54c-0.8,0-1.3-0.6-1.3-1.5c0-0.8,0.5-1.5,1.3-1.5
				c0.8,0,1.2,0.7,1.2,1.6c0,0.1,0,0.1,0,0.2H1.3C1.3,53.1,1.6,53.4,2,53.4z M2.6,52.2c0-0.4-0.3-0.8-0.7-0.8
				c-0.4,0-0.6,0.3-0.7,0.8H2.6z"/>
			<path class="st0" d="M7.3,53.9c-0.4,0-0.8-0.1-1.1-0.4l0.3-0.5c0.3,0.2,0.6,0.4,0.9,0.4c0.3,0,0.4-0.1,0.4-0.3v0
				c0-0.2-0.3-0.3-0.6-0.4c-0.4-0.1-0.8-0.3-0.8-0.9v0c0-0.6,0.4-0.9,0.9-0.9c0.3,0,0.7,0.1,1,0.3L8,51.7c-0.3-0.2-0.5-0.3-0.7-0.3
				c-0.2,0-0.4,0.1-0.4,0.3v0c0,0.2,0.3,0.3,0.6,0.4c0.4,0.1,0.8,0.3,0.8,0.9v0C8.3,53.6,7.8,53.9,7.3,53.9z"/>
			<path class="st0" d="M17.1,54c-0.4,0-0.7-0.2-0.9-0.5v1.3h-0.6V51h0.6v0.5c0.2-0.3,0.5-0.5,0.9-0.5c0.6,0,1.2,0.5,1.2,1.5
				C18.3,53.4,17.7,54,17.1,54z M16.9,51.5c-0.4,0-0.8,0.4-0.8,0.9c0,0.6,0.4,0.9,0.8,0.9c0.4,0,0.7-0.4,0.7-0.9
				C17.7,51.9,17.3,51.5,16.9,51.5z"/>
			<path class="st0" d="M23.1,53.9v-0.4c-0.2,0.2-0.4,0.4-0.8,0.4c-0.5,0-0.9-0.3-0.9-0.9v0c0-0.6,0.4-0.9,1.1-0.9
				c0.3,0,0.5,0,0.7,0.1v-0.1c0-0.4-0.2-0.6-0.6-0.6c-0.3,0-0.5,0.1-0.7,0.2l-0.2-0.5c0.3-0.1,0.6-0.2,1-0.2c0.8,0,1.1,0.5,1.1,1.2
				v1.7H23.1z M23.1,52.7c-0.2-0.1-0.4-0.1-0.6-0.1c-0.4,0-0.6,0.2-0.6,0.5v0c0,0.3,0.2,0.4,0.5,0.4c0.4,0,0.7-0.2,0.7-0.6V52.7z"/>
			<path class="st0" d="M27.6,53.9H27V51h0.6v0.7c0.2-0.4,0.5-0.7,0.9-0.7v0.7h0c-0.5,0-0.9,0.4-0.9,1.2V53.9z"/>
			<path class="st0" d="M32.4,53c0,0.3,0.1,0.4,0.3,0.4c0.1,0,0.3,0,0.4-0.1v0.5c-0.1,0.1-0.3,0.1-0.5,0.1c-0.4,0-0.8-0.2-0.8-0.9
				v-1.5h-0.3V51h0.3v-0.8h0.6V51h0.7v0.6h-0.7V53z"/>
			<path class="st0" d="M37.5,53.4c0.3,0,0.5-0.1,0.7-0.3l0.4,0.3c-0.2,0.3-0.6,0.5-1.1,0.5c-0.8,0-1.3-0.6-1.3-1.5
				c0-0.8,0.5-1.5,1.3-1.5c0.8,0,1.2,0.7,1.2,1.6c0,0.1,0,0.1,0,0.2h-1.9C36.8,53.1,37.1,53.4,37.5,53.4z M38,52.2
				c0-0.4-0.3-0.8-0.7-0.8c-0.4,0-0.6,0.3-0.7,0.8H38z"/>
			<path class="st0" d="M47.9,53.9v-0.5C47.7,53.7,47.5,54,47,54c-0.6,0-1.2-0.5-1.2-1.5c0-1,0.6-1.5,1.2-1.5c0.4,0,0.7,0.2,0.9,0.5
				v-1.6h0.6v4.1H47.9z M47.2,51.5c-0.4,0-0.8,0.4-0.8,0.9c0,0.6,0.3,0.9,0.8,0.9c0.4,0,0.8-0.4,0.8-0.9
				C47.9,51.9,47.6,51.5,47.2,51.5z"/>
			<path class="st0" d="M53.1,53.4c0.3,0,0.5-0.1,0.7-0.3l0.4,0.3c-0.2,0.3-0.6,0.5-1.1,0.5c-0.8,0-1.3-0.6-1.3-1.5
				c0-0.8,0.5-1.5,1.3-1.5c0.8,0,1.2,0.7,1.2,1.6c0,0.1,0,0.1,0,0.2h-1.9C52.4,53.1,52.7,53.4,53.1,53.4z M53.7,52.2
				c0-0.4-0.3-0.8-0.7-0.8c-0.4,0-0.6,0.3-0.7,0.8H53.7z"/>
			<path class="st0" d="M64.6,50.9c0.6,0,0.9,0.4,0.9,1.1v1.9h-0.6v-1.7c0-0.5-0.2-0.7-0.5-0.7c-0.3,0-0.6,0.3-0.6,0.7v1.7h-0.6
				v-1.7c0-0.5-0.2-0.7-0.5-0.7c-0.3,0-0.6,0.3-0.6,0.7v1.6h-0.6V51h0.6v0.4c0.2-0.3,0.4-0.5,0.8-0.5c0.4,0,0.6,0.2,0.8,0.5
				C64,51.1,64.2,50.9,64.6,50.9z"/>
			<path class="st0" d="M68.9,50.5v-0.6h0.6v0.6H68.9z M68.9,53.9V51h0.6v2.9H68.9z"/>
			<path class="st0" d="M78.8,51h0.6l-1.1,3h-0.5l-1.1-3h0.6l0.7,2.2L78.8,51z"/>
			<path class="st0" d="M82.6,50.5v-0.6h0.6v0.6H82.6z M82.6,53.9V51h0.6v2.9H82.6z"/>
			<path class="st0" d="M88.6,53.9v-0.5c-0.2,0.3-0.5,0.5-0.9,0.5c-0.6,0-1.2-0.5-1.2-1.5c0-1,0.6-1.5,1.2-1.5
				c0.4,0,0.7,0.2,0.9,0.5v-1.6h0.6v4.1H88.6z M87.8,51.5c-0.4,0-0.8,0.4-0.8,0.9c0,0.6,0.3,0.9,0.8,0.9c0.4,0,0.8-0.4,0.8-0.9
				C88.6,51.9,88.2,51.5,87.8,51.5z"/>
			<path class="st0" d="M94.1,53.9v-0.4c-0.2,0.2-0.4,0.4-0.8,0.4c-0.5,0-0.9-0.3-0.9-0.9v0c0-0.6,0.4-0.9,1.1-0.9
				c0.3,0,0.5,0,0.7,0.1v-0.1c0-0.4-0.2-0.6-0.6-0.6c-0.3,0-0.5,0.1-0.7,0.2l-0.2-0.5c0.3-0.1,0.6-0.2,1-0.2c0.8,0,1.1,0.5,1.1,1.2
				v1.7H94.1z M94.1,52.7c-0.2-0.1-0.4-0.1-0.6-0.1c-0.4,0-0.6,0.2-0.6,0.5v0c0,0.3,0.2,0.4,0.5,0.4c0.4,0,0.7-0.2,0.7-0.6V52.7z"/>
		</g>
		<g>
			<path class="st0" d="M98,51.9c-0.6,0-1-0.5-1-1c0-0.6,0.5-1,1-1c0.6,0,1,0.5,1,1S98.5,51.9,98,51.9z M98,49.9
				c-0.5,0-0.9,0.4-0.9,0.9c0,0.5,0.4,0.9,0.9,0.9c0.5,0,0.9-0.4,0.9-0.9C98.9,50.3,98.5,49.9,98,49.9z M98.2,50.9l0.3,0.4h-0.2
				L98,51h-0.3v0.4h-0.2v-1H98c0.2,0,0.4,0.1,0.4,0.3C98.4,50.8,98.3,50.9,98.2,50.9z M98,50.5h-0.3v0.4H98c0.1,0,0.2-0.1,0.2-0.2
				C98.3,50.5,98.2,50.5,98,50.5z"/>
		</g>
	</g>
	<g>
		<g>
			<path class="st0" d="M12.8,36.9H8c-0.5,0-0.7-0.3-0.7-0.8c0-0.4,0-11.2,0-11.2H5.7v12.7c0,0.5,0.5,0.9,0.8,0.9h6.3V36.9z"/>
			<path class="st0" d="M12.8,39.2v1.7H4.4c-0.6,0-1-0.4-1-1c0-0.7,0-14.9,0-14.9h1.6v13.2c0,0.6,0.3,1,1,1H12.8z"/>
			<path class="st0" d="M1.1,25h1.7v15.4c0,0.6,0.3,1.1,1.1,1.1h8.9v1.6H3.1c-1.1,0-2-0.9-2-2V25z"/>
			<path class="st0" d="M8,25h1.7v9c0,0.3,0.1,0.6,0.6,0.6h2.5v1.7H8.8c-0.6,0-0.8-0.4-0.8-0.8V25z"/>
			<path class="st0" d="M10.2,31.2H15c0.5,0,0.7,0.3,0.7,0.8c0,0.4,0,11.2,0,11.2h1.7V30.4c0-0.5-0.5-0.9-0.8-0.9h-6.3L10.2,31.2z"
				/>
			<path class="st0" d="M10.2,28.9v-1.7h8.4c0.6,0,1,0.4,1,1c0,0.6,0,14.9,0,14.9h-1.6V30c0-0.6-0.3-1-1-1H10.2z"/>
			<path class="st0" d="M21.9,43.2h-1.7V27.8c0-0.6-0.3-1.1-1.1-1.1h-8.9V25h9.7c1.1,0,2,0.9,2,2V43.2z"/>
			<path class="st0" d="M15,43.2h-1.7v-9c0-0.3-0.1-0.6-0.6-0.6h-2.5v-1.7h3.9c0.6,0,0.8,0.4,0.8,0.8V43.2z"/>
		</g>
		<path class="st0" d="M59.9,35.3c0-0.6,0.4-1,1-1h1.5v-1.7h-1.8c-1.3,0-2.4,1.1-2.4,2.4v8.1h1.7L59.9,35.3z"/>
		<rect x="33.9" y="32.6" class="st0" width="1.7" height="10.6"/>
		<path class="st0" d="M62.2,47.2h1.7v-5.5c1,1,2.4,1.6,3.9,1.6c2,0,3.8-1.1,4.8-2.7c1,1.6,2.7,2.7,4.8,2.7c2,0,3.8-1.1,4.8-2.7
			c1,1.6,2.7,2.7,4.8,2.7c3.1,0,5.6-2.5,5.6-5.6c0-3.1-2.5-5.6-5.6-5.6c-2,0-3.8,1.1-4.8,2.7c-1-1.6-2.7-2.7-4.8-2.7
			c-2,0-3.8,1.1-4.8,2.7c-1-1.6-2.7-2.7-4.8-2.7c-3.1,0-5.6,2.5-5.6,5.6V47.2z M86.8,33.7c2.2,0,3.9,1.8,3.9,3.9
			c0,2.2-1.8,3.9-3.9,3.9c-2.2,0-3.9-1.8-3.9-3.9C82.9,35.5,84.6,33.7,86.8,33.7 M77.3,33.7c2.2,0,3.9,1.8,3.9,3.9
			c0,2.2-1.8,3.9-3.9,3.9c-2.2,0-3.9-1.8-3.9-3.9C73.3,35.5,75.1,33.7,77.3,33.7 M67.8,33.7c2.2,0,3.9,1.8,3.9,3.9
			c0,2.2-1.8,3.9-3.9,3.9c-2.2,0-3.9-1.8-3.9-3.9C63.8,35.5,65.6,33.7,67.8,33.7"/>
		<path class="st0" d="M51.8,43.2c2.6,0,4.8-1.7,5.4-4.2h-1.6c-0.6,1.6-2.1,2.7-3.7,2.7c-2.1,0-3.8-1.5-4-3.7h9.5v-0.3
			c0-3-2.5-5.5-5.5-5.5c-3,0-5.5,2.5-5.5,5.5C46.3,40.7,48.8,43.2,51.8,43.2 M51.8,33.7c1.7,0,3.2,1.1,3.8,2.7h-7.6
			C48.6,34.8,50.1,33.7,51.8,33.7"/>
		<polygon class="st0" points="42.6,43.2 46.8,32.6 44.9,32.6 41.5,41.1 38.2,32.6 36.2,32.6 40.4,43.2 		"/>
		<rect x="93.2" y="29" class="st0" width="1.7" height="14.2"/>
		<path class="st0" d="M28.1,29l0,11.5c0,0.6,0.3,1,1,1h4.1v1.6l-5.7,0c-0.7,0-1.1-0.4-1.1-1.1V29H28.1z"/>
		<path class="st0" d="M97.9,31.2c-0.6,0-1.1-0.5-1.1-1.1c0-0.6,0.5-1.1,1.1-1.1c0.6,0,1.1,0.5,1.1,1.1C99,30.7,98.5,31.2,97.9,31.2
			 M97.9,29.1c-0.5,0-0.9,0.4-0.9,0.9c0,0.5,0.4,0.9,0.9,0.9c0.5,0,0.9-0.4,0.9-0.9C98.8,29.5,98.4,29.1,97.9,29.1 M97.4,29.5h0.5
			c0.3,0,0.4,0.2,0.4,0.3c0,0.2-0.1,0.3-0.3,0.3v0c0.1,0,0.2,0.1,0.3,0.3l0.1,0.2h-0.2l-0.1-0.2c-0.2-0.3-0.2-0.3-0.4-0.3h-0.1v0.5
			h-0.2V29.5z M97.9,30c0.1,0,0.2-0.1,0.2-0.2c0-0.1-0.1-0.2-0.2-0.2h-0.3V30H97.9z"/>
		<rect x="33.9" y="29" class="st0" width="1.7" height="1.7"/>
	</g>
</g>
</svg>
