<?xml version="1.0" encoding="utf-8"?>
<!-- Generator: Adobe Illustrator 23.0.6, SVG Export Plug-In . SVG Version: 6.00 Build 0)  -->
<svg version="1.1" id="Layer_1" xmlns="http://www.w3.org/2000/svg" xmlns:xlink="http://www.w3.org/1999/xlink" x="0px" y="0px"
	 viewBox="0 0 100 80" style="enable-background:new 0 0 100 80;" xml:space="preserve">
<g>
	<g>
		<path d="M62.2,38.9C62.2,38.9,62.2,38.9,62.2,38.9c0.1,0,0.2,0,0.2-0.1c0-0.1,0-0.2-0.1-0.3c0,0-0.1,0-0.1,0c0,0,0,0,0,0
			c0,0,0,0,0,0c-0.2,0-0.3,0.1-0.3,0.3C61.9,38.8,62,38.8,62.2,38.9C62.1,38.9,62.1,38.9,62.2,38.9z"/>
		<path d="M40.3,24.5c-0.3-0.1-0.4-0.1-0.4-0.1l-0.5,0.2c-0.3,0.1-0.4,0.2-0.4,0.2l-0.4-0.3c-0.3-0.1-0.5-0.1-0.7-0.1
			c-0.2,0.1-0.4,0.2-0.5,0.2c-0.6,0-1,0.4-1.1,1.1c0,0.1,0.1,0.4,0.3,0.8h0v0c-0.4-0.3-0.6-0.7-0.6-1.3c-0.1-0.1-0.1-0.1-0.2-0.1
			c-0.1,0.1-0.2,0.2-0.2,0.3c0,0.4,0.3,0.9,0.8,1.2h0v0c-0.4,0-0.8-0.3-1.2-0.8c-0.1,0-0.1,0-0.2,0c-0.1,0-0.3,0-0.5,0.1
			c-0.1,0-0.2,0-0.2,0.1c0,0.1,0.1,0.1,0.2,0.1c0.3,0.1,0.5,0.1,0.6,0.2c0.1,0,0.2,0,0.3,0l0.3,0.3c0.3,0.2,0.6,0.3,0.9,0.4
			c0.1,0,0.3,0,0.6,0c0,0,0.1-0.1,0.1-0.1c-0.5-0.2-0.8-0.6-0.7-1.2c0-0.1,0-0.2,0-0.2v-0.2c0.1-0.4,0.4-0.5,0.9-0.5
			c0.5,0,0.7,0.2,0.7,0.5c0,0.1-0.1,0.2-0.2,0.4l-0.1-0.2c-0.1-0.1-0.2-0.2-0.3-0.1c-0.1,0-0.2,0.1-0.2,0.2c0,0.2,0.1,0.3,0.4,0.3
			c0.1,0,0.2-0.1,0.4-0.2c0.1-0.1,0.2-0.3,0.2-0.4c0-0.2-0.1-0.3-0.2-0.5l-0.3-0.2v0c0,0,0,0,0,0v0c0.5,0,0.8,0.1,0.8,0.4
			c0,0,0,0.1-0.1,0.2c0,0.1,0,0.2,0,0.2c0.2,0,0.4,0,0.5-0.1l0.2,0.1c0.1,0,0.1-0.1,0.2-0.1c0,0,0,0-0.1-0.1
			c-0.1-0.1-0.1-0.1-0.1-0.2c0-0.2,0.2-0.3,0.6-0.3c0.1,0,0.4,0.1,0.6,0.1c0.1,0,0.2-0.1,0.3-0.1c0,0-0.1,0-0.1,0L40.3,24.5z"/>
		<path d="M62.2,24.5L62.2,24.5C62.2,24.6,62.2,24.6,62.2,24.5L62.2,24.5l0,0.1c0,0,0.1,0.1,0.1,0.1c0.1,0,0.2,0,0.3,0
			c0.4,0,0.7,0.2,0.9,0.5v0.2c0,0,0,0.1,0,0.2c0,0.3,0,0.5-0.1,0.6c0.1,0.2,0.2,0.3,0.3,0.5c0.2-0.1,0.5-0.2,0.7-0.3l0.3-0.3
			c0.1,0,0.1,0,0.3,0c0.1-0.1,0.3-0.1,0.6-0.2c0.1,0,0.2,0,0.2-0.1c0-0.1-0.1-0.1-0.2-0.1c-0.2-0.1-0.4-0.1-0.5-0.1
			c-0.1,0-0.1,0-0.2,0c-0.4,0.5-0.8,0.8-1.2,0.8v0h0c0.5-0.4,0.8-0.8,0.8-1.2c0-0.1-0.1-0.2-0.2-0.3c-0.1,0-0.2,0-0.2,0.1
			c0,0.6-0.2,1.1-0.6,1.3v0h0c0.2-0.4,0.3-0.7,0.3-0.8c-0.1-0.8-0.4-1.1-1.1-1.1c-0.1,0-0.3-0.1-0.5-0.2c-0.1,0-0.2,0-0.3,0
			C62,24.4,62.1,24.5,62.2,24.5C62.2,24.5,62.2,24.5,62.2,24.5z"/>
		<path d="M54.8,21.9c0,0,0-0.1,0-0.1c0-0.5-0.3-0.8-0.9-0.9c-0.1,0-0.2,0-0.4,0.1c-0.1,0.1-0.2,0.2-0.2,0.2c0,0.1,0.1,0.2,0.2,0.2
			c0,0,0.1,0,0.3-0.1c0.1-0.1,0.2-0.1,0.3-0.1h0h0l0.2,0.3c0,0.1,0,0.2,0,0.2c0,0,0,0.1,0,0.1C54.5,21.9,54.6,21.9,54.8,21.9z"/>
		<path d="M55.5,22c0.4,0.1,0.8,0.1,1.2,0.2C56.6,22,56.3,21.9,55.5,22C55.5,22,55.5,22,55.5,22z"/>
		<path d="M44.1,23.1c0-0.1,0.1-0.2,0.1-0.3c0-0.2-0.1-0.3-0.3-0.4c0,0.1-0.1,0.2-0.3,0.2c0-0.1-0.1-0.2-0.2-0.3
			c-0.1-0.1-0.3-0.1-0.4-0.1v0.1l0.3,0.4c0,0,0,0.1,0,0.2c0,0.1,0,0.2,0,0.2c0.1,0.1,0.2,0.1,0.3,0.1C43.8,23.3,44,23.2,44.1,23.1
			C44.1,23.2,44.1,23.1,44.1,23.1z"/>
		<path d="M42.4,23c-0.3,0-0.6,0.2-0.8,0.5c-0.2,0.3-0.3,0.5-0.3,0.8c0.1,0,0.2-0.1,0.3-0.1c0-0.4,0.1-0.6,0.3-0.6
			c0.1,0,0.2,0,0.3,0.1c0.1,0.1,0.2,0.1,0.3,0.1c0.1,0,0.1-0.1,0.2-0.1c0-0.1,0.1-0.1,0.1-0.2C42.9,23.1,42.7,22.9,42.4,23z"/>
		<path d="M46.3,22.1c-0.2-0.3-0.4-0.5-0.4-0.5c0-0.1,0-0.1,0.1-0.1c0,0,0.1,0,0.2,0l0.4,0.4c0,0,0.2-0.2,0.5-0.5
			c0.3-0.3,0.5-0.5,0.5-0.5c0.2-0.1,0.1-0.2-0.1-0.3c-0.1,0-0.3,0.1-0.5,0.3c-0.3,0.2-0.4,0.4-0.4,0.4h0c-0.2,0-0.4,0-0.6-0.1
			l-0.4,0.3c-0.2,0-0.5,0-0.7,0c-0.4,0-0.6,0.1-0.6,0.3c0,0.2,0.1,0.4,0.2,0.4c0,0,0.1-0.1,0.3-0.2c0.2-0.1,0.4-0.2,0.5-0.2
			c0.2,0,0.4,0.2,0.7,0.5c0.1,0.1,0.1,0.2,0.1,0.3c0.1,0,0.2-0.1,0.3-0.1C46.5,22.4,46.4,22.2,46.3,22.1z"/>
		<path d="M46,22.6c0-0.3-0.2-0.5-0.5-0.6c0,0,0,0,0,0l-0.1,0.1c-0.1,0.1,0,0.2,0,0.3c0.1,0.1,0.1,0.2,0.2,0.2
			C45.7,22.7,45.8,22.7,46,22.6z"/>
		<path d="M48.8,22C48.8,22,48.8,22,48.8,22c0.1,0,0.2,0,0.3,0c0,0,0,0,0,0L48.8,22C48.8,22,48.8,22,48.8,22z"/>
		<path d="M51.7,21.2c0-0.1-0.1-0.1-0.2-0.2c-0.5,0.2-0.8,0.4-1.1,0.5c-0.2,0.1-0.4,0.2-0.6,0.3c0.2,0,0.4,0,0.6-0.1
			c0,0,0.1,0,0.1-0.1l1-0.3C51.6,21.4,51.7,21.3,51.7,21.2z"/>
		<path d="M51.6,20.8c0.5,0,0.8,0.3,1.1,0.8c0.1,0.1,0.1,0.2,0.1,0.2c0.1,0,0.2,0,0.4,0c-0.2-0.3-0.4-0.5-0.7-0.8
			c-0.6-0.6-1.1-0.9-1.6-0.9l-0.1,0c-0.6,0-1.1,0.1-1.5,0.3c-0.1,0-0.3,0.1-0.6,0.2c-0.3,0-0.7,0.2-1.1,0.5c-0.4,0.3-0.6,0.6-0.8,1
			c0,0.1-0.1,0.3-0.1,0.4c0.1,0,0.2-0.1,0.4-0.1c0.1-0.2,0.2-0.3,0.3-0.5h0.1c0.3,0.2,0.5,0.3,0.6,0.3c0.1,0,0.2-0.1,0.3-0.3
			c0-0.1,0-0.2-0.1-0.2c-0.1,0-0.2,0-0.3,0c-0.1,0-0.2,0-0.3,0c0-0.1,0.1-0.2,0.3-0.4c0.2-0.2,0.3-0.2,0.4,0
			c0.1,0.2,0.2,0.2,0.2,0.2l0.9-0.7c0.6-0.2,1-0.3,1.2-0.3c0.3,0,0.5,0,0.6,0l-0.2,0.1c-0.5,0-1.1,0.3-1.9,0.9c0,0-0.1,0.1-0.1,0.1
			c0,0,0,0,0,0.1c0,0,0.1,0,0.1,0c0.2-0.1,0.4-0.2,0.6-0.3C50.9,21,51.4,20.7,51.6,20.8z"/>
		<path d="M55.5,21.7c0.2-0.1,0.3-0.2,0.3-0.3c0-0.3-0.2-0.5-0.6-0.5c-0.1,0.1-0.1,0.3-0.1,0.5C55.1,21.7,55.3,21.8,55.5,21.7z"/>
		<path d="M56.6,40.9c0.2,0,0.3-0.1,0.3-0.2c0,0,0,0,0,0c-0.2,0.1-0.3,0.1-0.5,0.2C56.5,40.9,56.5,40.9,56.6,40.9z"/>
		<path d="M48.4,43.7c-0.4,0-0.8-0.1-1.1-0.3c-0.3-0.2-0.5-0.5-0.6-0.8c-0.1,0-0.2,0-0.3,0c0,0,0,0,0,0.1c0,0.3,0.3,0.6,0.7,0.9
			c0.4,0.3,0.8,0.4,1.2,0.4c0.2,0,0.4-0.1,0.6-0.2c0,0-0.1,0-0.2,0C48.5,43.7,48.5,43.7,48.4,43.7z"/>
		<path d="M52.2,42.2c0-0.1,0-0.2-0.1-0.2c-0.2,0-0.4,0.1-0.6,0.1c0,0.1,0,0.1,0,0.2c0,0.2,0.1,0.3,0.3,0.3
			C52,42.5,52.2,42.4,52.2,42.2z"/>
		<path d="M45.8,42.8c-0.1-0.1-0.1-0.1-0.2-0.2c-0.2,0-0.3,0-0.5,0c0,0.1,0.1,0.2,0.2,0.3c0.2,0.2,0.3,0.4,0.3,0.4l-0.2,0.2
			c0,0.1,0,0.1,0.1,0.1c0.1,0,0.2-0.1,0.3-0.2c0.1-0.1,0.2-0.2,0.2-0.3C46.1,43,46,42.9,45.8,42.8z"/>
		<path d="M49.8,42.8c0,0,0.1,0,0.1,0c0.1,0,0.2,0,0.2-0.1c0.1-0.2,0-0.3-0.1-0.4c-0.1,0-0.2,0-0.3,0c0,0.1-0.1,0.1-0.1,0.2
			C49.7,42.7,49.7,42.8,49.8,42.8z"/>
		<path d="M51.8,43.1c0,0,0.1,0,0.2,0c0.7-0.1,1-0.5,1-1.2c0-0.1,0-0.1,0-0.2c-0.1,0-0.2,0-0.3,0.1c0,0.4-0.2,0.8-0.5,1
			c-0.3,0-0.5,0-0.5,0.1C51.6,43.1,51.7,43.1,51.8,43.1z"/>
		<path d="M53.7,41.7c0.1,0.2,0.1,0.4,0.1,0.7c0,0.6-0.4,1-1.2,1.4l-1,0c-0.1,0-0.1,0.1-0.2,0.1c0,0.1,0.1,0.2,0.3,0.3
			c0.2,0.1,0.4,0.1,0.5,0.1c0.5,0,0.9-0.2,1.3-0.6c0.4-0.4,0.5-0.9,0.5-1.4c0-0.2,0-0.3-0.1-0.5C53.9,41.6,53.8,41.6,53.7,41.7z"/>
		<path d="M44.4,42.8c0.1,0,0.2,0,0.2-0.2c-0.2,0-0.3,0-0.5,0C44.1,42.7,44.2,42.8,44.4,42.8z"/>
		<path d="M54.5,41.5c0.2,0.3,0.3,0.6,0.3,0.8c0,0.2,0,0.3,0,0.5c0,0.1,0,0.2,0,0.3c0,0.1,0.1,0.1,0.2,0.1c0.1,0,0.2-0.2,0.2-0.4
			c0-0.5-0.1-1-0.4-1.4C54.8,41.4,54.7,41.4,54.5,41.5z"/>
		<path d="M59,40.1C59,40.1,59,40.1,59,40.1c-0.1-0.2-0.2-0.2-0.3-0.3c-0.5,0.2-0.9,0.5-1.4,0.7c0,0,0,0,0,0.1
			c0,0.1,0.1,0.1,0.2,0.1c0.1,0,0.3-0.1,0.5-0.3l0.3-0.2l0.2-0.1h0.1c0.1,0.1,0.2,0.2,0.2,0.4c0,0,0,0,0,0c0,0.3-0.1,0.5-0.4,0.6
			c-0.4,0.1-0.8,0.2-1.2,0.2c-0.3,0-0.6-0.1-1.1-0.2c-0.3,0.1-0.6,0.2-0.9,0.3l0.5,0.5c0.5,0.4,0.8,0.7,1,0.7c0.1,0,0.2-0.1,0.2-0.3
			c0-0.1-0.1-0.3-0.4-0.4c-0.4-0.2-0.5-0.3-0.6-0.3c0.2,0,0.4,0,0.8,0c0.4,0,0.6,0,0.8,0c0.8,0,1.3-0.2,1.5-0.7
			c0-0.1,0.1-0.2,0.1-0.3C59,40.4,59,40.3,59,40.1C59,40.2,59,40.1,59,40.1z"/>
		<path d="M49.9,43.3c-0.2,0-0.3,0.2-0.3,0.4c0,0.2,0.2,0.3,0.3,0.3c0.2,0,0.3-0.2,0.3-0.3C50.3,43.4,50.1,43.3,49.9,43.3z"/>
		<path d="M48.6,42.5c0,0-0.1,0.1-0.1,0.2c0,0.2,0.1,0.3,0.3,0.3c0.2,0,0.3-0.1,0.3-0.3c0-0.1,0-0.2-0.1-0.2
			C48.9,42.5,48.7,42.5,48.6,42.5z"/>
		<path d="M50.9,42.3c-0.2,0-0.3,0.1-0.3,0.3c0,0.2,0.1,0.3,0.3,0.3c0.2,0,0.3-0.1,0.3-0.3C51.2,42.5,51.1,42.3,50.9,42.3z"/>
		<path d="M31.6,34.5c-0.1,0-0.1,0.1-0.1,0.2c0,0.1,0.1,0.2,0.2,0.1c0.1,0,0.1,0,0.1-0.1C31.7,34.6,31.7,34.5,31.6,34.5z"/>
		<path d="M32.3,30c0,0.1-0.1,0.1-0.1,0.2c0,0.1,0.1,0.1,0.1,0.1c0,0,0.1,0,0.1-0.1c0,0,0,0,0-0.1C32.4,30.1,32.4,30.1,32.3,30z"/>
		<path d="M32.5,29.4c0,0,0.2-0.9,1-1.1c0.1,0,0.1-0.1,0.1-0.1c0-0.1-0.1-0.1-0.1-0.1c0,0,0,0,0,0c0,0,0,0,0,0
			c-0.9,0.3-1.2,1.2-1.2,1.3c0,0.1,0,0.1,0.1,0.1c0,0,0,0,0,0C32.3,29.5,32.4,29.5,32.5,29.4C32.4,29.5,32.5,29.4,32.5,29.4z"/>
		<path d="M35.7,29.7c-0.4,0.6-1.2,0.9-1.6,0.6c0,0-0.3-0.4-0.2-0.7c0,0,0,0,0.1,0.1c0.1,0.1,0.2,0.1,0.3,0.1c0,0,0,0,0,0
			c0,0,0,0,0,0c0.2,0,0.4-0.2,0.4-0.4c0-0.2-0.2-0.4-0.4-0.4c0,0,0,0,0,0c0,0,0,0,0,0c-0.1,0-0.1,0-0.2,0c-0.1,0.1-0.3,0.2-0.4,0.3
			c-0.4,0.6,0,1.3,0.7,1.4c0.3,0,0.8,0,1.2-0.3C35.6,30.2,35.6,30,35.7,29.7z"/>
		<path d="M34.7,31.7c0.3,0,0.5,0,0.6-0.1c0-0.1,0-0.3,0.1-0.4c-0.1,0-0.2-0.1-0.2-0.1c-0.3,0.2,0,0.4,0,0.4
			c-1.3,0.2-1.9-0.6-2.1-0.8c-0.2-0.2-0.6-1.4,0.5-2c1-0.7,1.5,0.1,1.5,0.1c0.4,0.9-0.4,1.1-0.4,1.1c-0.1,0.2,0.2,0.1,0.2,0.1
			c0.8-0.4,0.4-1.2,0.4-1.2c-0.6-0.9-1.6-0.3-1.6-0.3c-0.6,0.2-1.3,1.4-0.7,2.3C33.3,31.6,34.2,31.6,34.7,31.7z"/>
		<path d="M31.9,35c0,0-0.6,0.3-0.7,0c-0.5-1.1,1-2.3,2.1-2.2c0,0,1.2-0.2,2,0.8c0-0.1,0-0.3,0-0.4c-0.2-0.2-0.5-0.4-0.8-0.5
			c0.3-0.1,0.6-0.1,0.8-0.2c0,0,0-0.1,0-0.1c-0.8,0.2-2.3,0.3-3-1.1c-1.1-2.1,0.8-3.7,2.2-3.6c0,0,1.1,0.2,1.4,1.2
			c0,0.1,0,0.2,0,0.4c0.1-0.3,0.2-0.5,0.3-0.7c0,0,0-0.1,0-0.1c-0.8-1.9-2.9-1.6-3.8-0.7c-0.5,0.4-1.9,2.2-0.3,4.1
			c0.1,0.2,0.3,0.3,0.4,0.4c-0.6-0.4-1.3-0.5-1.9-0.4c-0.1,0-0.2,0.1-0.3,0.2c0,0.1,0,0.2,0.2,0.3c0.1,0.1,0.3,0,0.4-0.1l0.2-0.2
			c0.5-0.3,1.2,0.1,1.5,0.3c0.1,0.1,0.2,0.1,0.3,0.2c-0.8,0.1-1.8,0.5-2.1,1.9c0,0-0.1,1.1,0.9,1.2l0.3,0c0.2,0,0.3-0.1,0.3-0.3
			C32.2,35.1,32.1,35,31.9,35z"/>
		<path d="M33.6,35.6c-0.4,0.6-0.1,1.7,0.8,1.7c0.9,0,1.1-0.7,1.1-0.7c-0.6,0.8-2.3,0.8-1.6-0.9C34.1,35.3,33.8,35.3,33.6,35.6z"/>
		<path d="M36.7,39.1c-0.1,0-0.3-0.1,0.1-0.2c0.1,0,0.2,0,0.3,0c-0.1-0.1-0.1-0.2-0.2-0.3c-0.2,0-0.4,0.1-0.5,0.1
			c-0.2,0.1-0.4,0.1-0.4,0.1c0.2,0,0-0.2,0-0.2c-0.2-0.1-0.4,0.1-0.4,0.1l-0.4-0.1c-1.3-0.2-1.7-0.7-1.7-0.7
			c0.6,0.5,2.4,0.8,3.2,0.5c-0.1-0.1-0.1-0.2-0.2-0.4c-0.1,0.1-0.3,0.1-0.3,0.1c-3.1,0.7-3.9-2-3.9-2c-0.1-1.3,1.1-2.2,1.1-2.2
			l-0.7,0.5c-0.6,0.4-0.8-0.1-0.8-0.1c-0.2-0.7,0.5-1,1.2-1.2c0.7-0.2,2.3,0.4,2.1,1.8c-0.1,1.1-1.1,1.4-1.2,1.5c0,0,0,0,0,0
			c0,0,0,0,0,0l0,0c0,0,0,0,0,0c0.2,0,0.8,0.2,1.5-0.5c0.1-0.1,0.1-0.1,0.2-0.2c0-0.1-0.1-0.2-0.1-0.3c-0.3,0.6-1,1-1.5,1
			c0.7,0,1.3-0.6,1.4-1.2c0,0,0-0.1,0-0.1c-0.1-0.4-0.2-0.9-0.2-1.3c-0.7-1-1.5-1.3-2.7-0.8c-1.1,0.4-0.7,1.5-0.7,1.5
			c0.2,0.4,0.8,0.2,0.8,0.2c-0.2,0.4-0.3,1-0.3,1c-0.5,2.7,2.3,3.8,3.1,3.8c0.7,0,0.7,0.3,0.7,0.3c0,0.5,0.4,0.3,0.4,0.3
			c0.4-0.6-0.7-0.8-0.7-0.8c-3-0.3-3.3-2.6-3.3-2.6c1.3,2.6,3.9,2.4,3.9,2.4c1.4,0.3,1.3,1,1.3,1c0-0.1-0.3-0.3-0.5,0
			c-0.2,0.3,0.2,0.4,0.2,0.4c0.5,0.1,0.5-0.4,0.5-0.6c-0.2-0.3-0.5-0.5-0.7-0.8C37,39.1,36.8,39.1,36.7,39.1z"/>
		<path d="M61.6,39.6c-0.1,0-0.2,0.1-0.2,0.2l0,0.2c-0.2,0.4-0.9,0.5-1.2,0.6l0.2,0c0.7,0,1.2-0.2,1.5-0.7c0.1-0.1,0.1-0.2,0.1-0.3
			C61.8,39.6,61.8,39.5,61.6,39.6z"/>
		<path d="M69.8,32c0-0.1-0.1-0.2-0.3-0.2c-0.6-0.2-1.2-0.1-1.9,0.4c0.1-0.1,0.3-0.3,0.4-0.4c1.5-1.9,0.2-3.7-0.3-4.1
			c-0.8-0.7-2.6-1.1-3.6,0.3c0.1,0.2,0.1,0.4,0.2,0.6c0.4-0.7,1.2-0.9,1.2-0.9c1.5-0.1,3.3,1.5,2.2,3.6c-0.8,1.5-2.4,1.3-3.2,1.1
			c0,0,0,0,0,0.1c0.3,0.1,0.6,0.2,1,0.3c-0.4,0.2-0.8,0.4-1.1,0.8c-0.1,0.6-0.3,1.2-0.5,1.7c0.1,0.3,0.2,0.6,0.5,0.9
			c0.6,0.6,1.3,0.5,1.5,0.5c0,0,0,0,0,0l0,0c0,0,0,0,0,0c0,0,0,0,0,0c-0.1,0-1.1-0.4-1.2-1.5c-0.2-1.4,1.5-2,2.1-1.8
			c0.7,0.2,1.4,0.5,1.2,1.2c0,0-0.1,0.5-0.8,0.1l-0.7-0.5c0,0,1.2,0.9,1.1,2.2c0,0-0.9,2.7-3.9,2c0,0-0.7-0.1-0.7-0.8
			c0,0,0-0.3,0.1-0.3c0,0-0.2,0.2,0,0.2c0.2,0,0.2-0.2,0.1-0.2c-0.1-0.1-0.5-0.2-0.4,0.8c0,1.1,2.9,0.7,3.6,0.1c0,0-0.4,0.5-1.7,0.7
			l-0.4,0.1c0,0-0.2-0.2-0.4-0.1c0,0-0.1,0.1,0,0.2c0,0-0.2,0-0.4-0.1c-0.2-0.1-0.6-0.1-0.7-0.2c-0.2,0-0.2-0.1-0.3-0.2
			c-0.1-0.1,0,0.2,0,0.3c0,0-0.3,0.2-0.2,0.3c0.2,0.1,0.4-0.3,0.7-0.2c0.4,0.1,0.2,0.1,0.1,0.2c-0.1,0-1.1,0-1.2,0.9
			c0,0,0,0.7,0.5,0.6c0,0,0.4-0.1,0.2-0.4c-0.2-0.3-0.5-0.1-0.5,0c0,0-0.1-0.7,1.3-1c0,0,2.6,0.3,3.9-2.4c0,0-0.3,2.3-3.3,2.6
			c0,0-1.2,0.2-0.7,0.8c0,0,0.4,0.2,0.4-0.3c0,0,0-0.3,0.7-0.3c0.7,0,3.6-1.1,3.1-3.8c0,0-0.2-0.6-0.3-1c0,0,0.5,0.2,0.8-0.2
			c0,0,0.4-1.1-0.7-1.5c-1.2-0.5-2.1-0.1-2.8,1c-0.5,0.8,0.1,2.4,1.3,2.4c-0.8,0.1-2.1-1.1-1.6-2.3c0.7-1.6,2.4-1.4,2.4-1.4
			c1.1-0.1,2.5,1.1,2.1,2.2c-0.1,0.3-0.7,0-0.7,0c-0.2,0-0.3,0.1-0.3,0.3c0,0.2,0.1,0.3,0.3,0.3l0.3,0c0.9-0.1,0.9-1.2,0.9-1.2
			c-0.4-1.4-1.3-1.8-2.1-1.9c0.1,0,0.2-0.1,0.3-0.2c0.3-0.1,1-0.5,1.5-0.3l0.2,0.2c0.1,0.1,0.2,0.1,0.4,0.1
			C69.7,32.2,69.8,32.1,69.8,32z"/>
		<path d="M68.6,34.6c0-0.1,0-0.2-0.1-0.2c-0.1,0.1-0.2,0.2-0.2,0.2c0,0,0,0.1,0.1,0.1C68.6,34.8,68.6,34.8,68.6,34.6z"/>
		<path d="M67.6,30.2C67.6,30.2,67.6,30.2,67.6,30.2c0,0.1,0,0.1,0,0.1c0.1,0,0.1,0,0.1-0.1c0-0.1,0-0.2-0.1-0.2
			C67.7,30.1,67.7,30.1,67.6,30.2z"/>
		<path d="M64.7,30.5c0.4,0.2,0.9,0.3,1.1,0.2c0.6-0.1,1.1-0.8,0.7-1.4C66.3,29.1,66.2,29,66,29c-0.1,0-0.1,0-0.2,0c0,0,0,0,0,0
			c0,0,0,0,0,0c-0.2,0-0.4,0.2-0.4,0.4c0,0.2,0.2,0.4,0.4,0.4c0,0,0,0,0,0c0,0,0,0,0,0c0.1,0,0.2,0,0.3-0.1c0,0,0.1-0.1,0.1-0.1
			c0.1,0.4-0.2,0.7-0.2,0.7c-0.4,0.3-1,0.1-1.4-0.3C64.6,30.2,64.7,30.3,64.7,30.5z"/>
		<path d="M64.9,28.7c0,0-0.5,0.8,0.4,1.2c0,0,0.3,0,0.2-0.1c0,0-0.7-0.2-0.4-1.1c0,0,0.4-0.8,1.5-0.1c1,0.7,0.6,1.8,0.5,2
			c-0.2,0.2-0.8,1-2.1,0.8c0,0,0.3-0.2,0-0.4c0,0-0.1,0-0.2,0.1c0,0.1,0,0.3,0,0.4c0.1,0.1,0.3,0.2,0.6,0.1c0.5,0,1.4-0.1,2-1
			c0.6-0.9-0.2-2.1-0.7-2.3C66.5,28.4,65.5,27.8,64.9,28.7z"/>
		<path d="M67.8,29.3c0,0-0.2-1-1.2-1.3c0,0,0,0,0,0c0,0,0,0,0,0c-0.1,0-0.1,0-0.1,0.1c0,0.1,0,0.1,0.1,0.1c0.8,0.2,1,1.1,1,1.1
			c0,0,0,0.1,0.1,0.1c0,0,0,0,0.1,0c0,0,0,0,0,0C67.8,29.5,67.9,29.4,67.8,29.3z"/>
		<path d="M64.5,36.6c0,0,0.2,0.7,1.1,0.7c0.9,0,1.2-1.1,0.8-1.7c-0.2-0.3-0.5-0.3-0.3,0.1C66.8,37.4,65.1,37.4,64.5,36.6z"/>
	</g>
	<g>
		<polygon points="34.7,57.7 15.2,57.5 34.7,57.3 		"/>
		<polygon points="65.7,57.7 85.2,57.5 65.7,57.3 		"/>
	</g>
	<g>
		<g>
			<path d="M35.6,57H36c0,0,0.1,0.2,0.3,0.5c0,0,0.1,0.1,0.2,0.3h0c0.3-0.5,0.5-0.8,0.5-0.8h0.4v0c-0.4,0.7-0.6,1.1-0.6,1.1h-0.4
				c0,0-0.1-0.1-0.1-0.3L35.6,57L35.6,57z"/>
			<path d="M38.1,57h0.3c0,0,0,0,0,0v1.1c0,0,0,0,0,0h-0.3c0,0,0,0,0,0L38.1,57C38.1,57,38.1,57,38.1,57z"/>
			<path d="M39.3,57h0.3l0.8,0.7V57c0,0,0,0,0,0h0.3c0,0,0,0,0,0v1.1c0,0,0,0,0,0h-0.3l-0.8-0.7v0.7c0,0,0,0,0,0h-0.3c0,0,0,0,0,0
				L39.3,57C39.3,57,39.3,57,39.3,57z"/>
			<path d="M41.9,57h0.9c0.1,0,0.2,0,0.3,0.1c0,0.1,0.1,0.1,0.1,0.2v0.5c0,0.1-0.1,0.2-0.2,0.2c-0.1,0-0.1,0-0.2,0h-0.9
				c-0.1,0-0.2-0.1-0.3-0.2c0,0,0-0.1,0-0.1v-0.5c0-0.1,0.1-0.2,0.2-0.2C41.8,57,41.8,57,41.9,57z M41.9,57.4v0.2
				c0,0.1,0,0.1,0.1,0.2c0,0,0,0,0.1,0h0.5c0.1,0,0.1,0,0.2-0.1c0,0,0,0,0,0v-0.2c0-0.1,0-0.1-0.1-0.2c0,0,0,0-0.1,0h-0.5
				C42,57.2,42,57.3,41.9,57.4C41.9,57.4,41.9,57.4,41.9,57.4z"/>
			<path d="M44.3,57h1.1c0,0,0,0,0,0v0.2c0,0,0,0,0,0h-1c0,0-0.1,0-0.1,0.1c0,0,0,0,0,0c0,0,0,0.1,0.1,0.1H45c0.1,0,0.2,0.1,0.3,0.2
				c0,0,0,0.1,0,0.1v0.1c0,0.1-0.1,0.2-0.2,0.3c0,0-0.1,0-0.1,0h-1.1c0,0,0,0,0,0v-0.2c0,0,0,0,0,0h1c0,0,0.1,0,0.1,0c0,0,0,0,0,0
				c0,0,0-0.1-0.1-0.1c0,0,0,0,0,0h-0.6c-0.1,0-0.2-0.1-0.3-0.2c0,0,0-0.1,0-0.1v-0.1c0-0.1,0.1-0.2,0.2-0.2
				C44.2,57,44.2,57,44.3,57z"/>
		</g>
		<g>
			<path d="M54.2,57h0.3c0,0,0,0,0,0v0.8h0.8c0,0,0,0,0,0v0.2c0,0,0,0,0,0h-1.1c0,0,0,0,0,0L54.2,57C54.2,57,54.2,57,54.2,57z"/>
			<path d="M55.7,57H56c0,0,0,0,0,0v1.1c0,0,0,0,0,0h-0.3c0,0,0,0,0,0L55.7,57C55.7,57,55.7,57,55.7,57z"/>
			<path d="M56.7,57h1.1c0,0,0,0,0,0v0.2c0,0,0,0,0,0h-0.9c-0.1,0-0.2,0-0.2,0.1c0,0,0,0,0,0.1v0.2c0,0.1,0,0.2,0.1,0.2
				c0,0,0,0,0.1,0h0.9c0,0,0,0,0,0v0.2c0,0,0,0,0,0h-1.1c-0.1,0-0.2-0.1-0.3-0.2c0,0,0-0.1,0-0.1v-0.5c0-0.1,0-0.2,0.1-0.2
				C56.5,57,56.6,57,56.7,57z"/>
			<path d="M58.4,57h0.9c0.1,0,0.2,0,0.3,0.1c0,0.1,0.1,0.1,0.1,0.2v0.5c0,0.1-0.1,0.2-0.2,0.2c-0.1,0-0.1,0-0.2,0h-0.9
				c-0.1,0-0.2-0.1-0.3-0.2c0,0,0-0.1,0-0.1v-0.5c0-0.1,0.1-0.2,0.2-0.2C58.3,57,58.3,57,58.4,57z M58.4,57.4v0.2
				c0,0.1,0,0.1,0.1,0.2c0,0,0,0,0.1,0h0.5c0.1,0,0.1,0,0.2-0.1c0,0,0,0,0,0v-0.2c0-0.1,0-0.1-0.1-0.2c0,0,0,0-0.1,0h-0.5
				C58.5,57.2,58.4,57.3,58.4,57.4C58.4,57.4,58.4,57.4,58.4,57.4z"/>
			<path d="M59.9,57h1c0.1,0,0.2,0,0.3,0.1c0,0.1,0.1,0.1,0.1,0.2v0.2c0,0.1-0.1,0.2-0.2,0.3c0,0,0,0,0,0c0,0,0.1,0.1,0.2,0.3v0
				h-0.4c0,0-0.1-0.1-0.1-0.3l0,0h-0.4v0.3c0,0,0,0,0,0h-0.3c0,0,0,0,0,0L59.9,57C59.9,57,59.9,57,59.9,57z M60.3,57.2v0.3h0.5
				c0.1,0,0.1,0,0.1-0.1c0,0,0,0,0,0c0-0.1,0-0.1-0.1-0.1c0,0,0,0-0.1,0H60.3z"/>
			<path d="M61.6,57h1.2c0,0,0,0,0,0v0.2c0,0,0,0,0,0h-0.9v0.2h0.9c0,0,0,0,0,0v0.2c0,0,0,0,0,0h-0.9v0.2h0.9c0,0,0,0,0,0v0.2
				c0,0,0,0,0,0h-1.2c0,0,0,0,0,0L61.6,57C61.6,57,61.6,57,61.6,57z"/>
			<path d="M63.4,57h1.1c0,0,0,0,0,0v0.2c0,0,0,0,0,0h-1c0,0-0.1,0-0.1,0.1c0,0,0,0,0,0c0,0,0,0.1,0.1,0.1h0.6
				c0.1,0,0.2,0.1,0.3,0.2c0,0,0,0.1,0,0.1v0.1c0,0.1-0.1,0.2-0.2,0.3c0,0-0.1,0-0.1,0h-1.1c0,0,0,0,0,0v-0.2c0,0,0,0,0,0h1
				c0,0,0.1,0,0.1,0c0,0,0,0,0,0c0,0,0-0.1-0.1-0.1c0,0,0,0,0,0h-0.6c-0.1,0-0.2-0.1-0.3-0.2c0,0,0-0.1,0-0.1v-0.1
				c0-0.1,0.1-0.2,0.2-0.2C63.3,57,63.4,57,63.4,57z"/>
		</g>
		<g>
			<path d="M52.2,59.4c-0.1,0-0.1,0-0.2,0c-0.1,0-0.2,0-0.2,0c-0.1,0-0.1,0-0.2,0h0c-0.1,0-0.1,0-0.2,0c-0.1,0-0.2-0.1-0.2-0.1
				c-0.1,0-0.1-0.1-0.2-0.1c-0.1-0.1-0.1-0.1-0.2-0.1c-0.1,0.1-0.2,0.1-0.3,0.2c-0.1,0.1-0.2,0.1-0.3,0.2c-0.1,0-0.2,0.1-0.3,0.1
				c-0.1,0-0.2,0-0.3,0c-0.2,0-0.3,0-0.5-0.1c-0.2-0.1-0.3-0.1-0.4-0.2c-0.1-0.1-0.2-0.2-0.3-0.4c-0.1-0.1-0.1-0.3-0.1-0.5
				c0-0.1,0-0.2,0.1-0.4c0-0.1,0.1-0.2,0.2-0.3c0.1-0.1,0.1-0.2,0.2-0.3c0.1-0.1,0.2-0.2,0.3-0.2c-0.1-0.1-0.2-0.2-0.2-0.3
				c0-0.1-0.1-0.2-0.1-0.3c0-0.2,0-0.3,0.1-0.4c0.1-0.1,0.2-0.2,0.3-0.3c0.1-0.1,0.2-0.2,0.4-0.2c0.1-0.1,0.3-0.1,0.4-0.1
				c0.1,0,0.2,0,0.3,0c0.1,0,0.2,0,0.3,0.1c0,0,0,0,0,0c0,0.1,0,0.1,0,0.2c0,0.1,0,0.1,0,0.2c0,0.1,0,0.2,0,0.2c0,0.1,0,0.2-0.1,0.2
				c0,0,0,0,0,0c0,0,0,0,0,0c0,0,0,0,0,0c0,0,0,0,0,0c0,0,0,0,0,0c0,0,0,0,0,0c0-0.1,0-0.2-0.1-0.2c0-0.1-0.1-0.1-0.1-0.2
				c-0.1-0.1-0.1-0.1-0.2-0.1c-0.1,0-0.2,0-0.2,0c-0.2,0-0.3,0.1-0.4,0.2c-0.1,0.1-0.2,0.2-0.2,0.4c0,0.1,0,0.3,0.1,0.5
				c0.1,0.2,0.2,0.3,0.4,0.5c0.1,0.2,0.3,0.3,0.5,0.5c0.2,0.2,0.3,0.3,0.5,0.4c0,0,0.1,0.1,0.1,0.1c0,0,0,0,0.1,0.1
				c0.1-0.1,0.1-0.2,0.2-0.3c0-0.1,0.1-0.2,0.1-0.3c0-0.1,0-0.2-0.1-0.3c-0.1-0.1-0.2-0.1-0.3-0.1c0,0-0.1,0-0.1,0c0,0,0,0,0-0.1
				c0.1,0,0.2,0,0.3,0c0.1,0,0.2,0,0.3,0c0.1,0,0.2,0.1,0.3,0.1c0,0,0,0,0,0.1c0,0.1,0,0.2-0.1,0.3c0,0.1-0.1,0.2-0.1,0.3
				c0,0.1-0.1,0.2-0.1,0.3c0,0.1-0.1,0.2-0.1,0.3c0.2,0.2,0.4,0.3,0.6,0.4c0.2,0.1,0.4,0.2,0.7,0.2l0,0.1
				C52.3,59.4,52.3,59.4,52.2,59.4z M49.8,58.2c-0.2-0.2-0.5-0.5-0.7-0.7c-0.1,0.1-0.2,0.2-0.2,0.4c-0.1,0.1-0.1,0.3-0.1,0.4
				c0,0.1,0,0.3,0.1,0.4c0.1,0.1,0.1,0.2,0.2,0.3c0.1,0.1,0.2,0.2,0.3,0.2c0.1,0.1,0.2,0.1,0.4,0.1c0.2,0,0.3,0,0.4-0.1
				c0.1-0.1,0.2-0.2,0.4-0.3C50.2,58.6,50,58.4,49.8,58.2z"/>
		</g>
	</g>
	<g>
		<path d="M64.1,29.5c-0.5-3.3-2.8-5.1-2.9-5.2l-0.1-0.1c-0.2-0.1-3.8-2-8.9-2c-1.1,0-2.2,0.1-3.3,0.3c-6.6,1.1-10.4,4-10.5,4.1
			c-2.2,1.5-3.1,5-2.3,8.5c0.7,3,2.5,5.5,4.7,6.4l0.5,0.2c0.2,0,0.3,0.1,0.5,0.1c1.2,0.3,2.5,0.4,4,0.4c2.9,0,5.9-0.5,7.8-0.9
			c3.5-0.7,7.9-3.3,9-4.4C63.7,35.6,64.6,32.6,64.1,29.5z M59.8,37C59.8,37,59.8,37,59.8,37C59.8,37,59.8,37,59.8,37
			C59.8,37,59.8,37,59.8,37z M59.6,38.2c0.1-0.1,0.2-0.2,0.3-0.4c0,0,0,0,0,0c0.1-0.1,0.2-0.1,0.3-0.2c2.1-1.2,2.1-1.7,2.1-1.7
			c0,0.1-0.1,0.2-0.2,0.2c-0.3,0.3-0.7,0.5-1,0.6c-0.4,0.2-0.6,0.2-0.4,0.1c0.5-0.2,1-0.8,1-0.8c-0.2,0.2-0.5,0.3-0.7,0.4
			c-0.2,0.1-0.4,0.2-0.5,0.3c0,0,0,0,0,0c0.1-0.2,0.2-0.5,0.3-0.7c0.6-1.4,1-3.2,0.8-5.5c-0.1-2.2-1-3.8-2-5c-0.5-0.5-0.9-1-1.3-1.3
			c-0.1-0.1-0.3-0.2-0.4-0.3c0,0,0,0-0.1-0.1c-0.1-0.1-0.2-0.1-0.2-0.2c-0.1,0-0.1-0.1-0.2-0.1c2,0.5,3.3,1.2,3.3,1.2l0,0
			c0.1,0.1,2.2,1.8,2.7,4.9c0.3,1.9,0.1,5.3-1.4,6.9C61.7,36.9,60.8,37.5,59.6,38.2z M45.1,24c1.2-0.4,2.5-0.7,3.9-0.9
			c1-0.2,2.1-0.3,3.2-0.3c1.4,0,2.7,0.1,3.8,0.4c0.1,0.1,0.2,0.1,0.4,0.2c0,0,0,0,0.1,0c0,0,0,0-0.1,0c-0.2,0-0.5-0.1-1-0.1
			c-1-0.1-2.5-0.2-3.9-0.1c0,0,0.4,0,0.9,0c0.4,0,0.8,0,1.2,0.1c1.2,0.1,2.5,0.2,3.1,0.3c0,0,0,0,0,0c0.1,0.1,0.2,0.1,0.3,0.2
			c0.6,0.4,1.2,0.9,1.6,1.5c-0.1,0-0.3,0-0.4-0.1c0,0-2.4-0.3-6,0.4c1.5-0.1,3-0.1,4.5,0.1l0,0l0.3,0c0.3,0,0.5,0.1,0.8,0.1
			c0.1,0,0.2,0,0.3,0.1c-1.1,0-2.9,0-2.9,0c0.9,0.2,2.4,0.2,3.3,0.2c0.7,0.3,1.3,0.9,1.5,1.6c0.9,2.2,1.1,4.5,0.5,6.9
			c-0.1,0.2-0.1,0.6-0.5,0.4c-0.1,0,0-0.3,0-0.5c0.3-1.1,0.2-2.2,0-3.3c-0.1-0.4-0.2-0.6-0.7-0.5c-0.6,0.1-0.5,0.4-0.5,0.8
			c0,0.6-0.1,1.1-0.2,1.9c-0.1-0.2-0.1-0.3-0.1-0.3c-0.4-2.3-0.4-2.3-2.8-1.9c-0.3,0.1-0.6,0.1-0.9,0.2c-1.5,0.3-2.1,0.4-2.4,1.1
			l0.1,0.3c0,0.2,0,0.3,0.1,0.4c0,0.3,0,0.5,0,0.8c0,0.5,0,1,0,1.5c-0.1,1-0.3,2-0.7,3c-0.2,0.5-0.4,0.9-0.7,1.4
			c-0.1,0.2-0.3,0.4-0.4,0.6c2.5-0.3,4.7-1,6.9-1.9c0.7-0.3,1.4-0.6,2-0.9c-1,0.8-3.6,1.9-3.6,1.9s0.9-0.3,1.6-0.6
			c0.7-0.3,1.5-0.6,0.4,0.1c-0.1,0.1-0.3,0.2-0.5,0.3c-1.9,1.1-3.5,1.4-3.5,1.4c0.1,0,0.2,0,0.3,0c1-0.2,2.1-0.5,2.9-0.9
			c-1.2,0.5-2.5,1-3.7,1.2c-1.1,0.2-2.6,0.5-4.3,0.7c0,0,0,0,0,0l-0.7,0.1c0,0,0,0,0,0c0.1-0.1,0.3-0.2,0.4-0.2
			c0.1-0.1,0.2-0.1,0.3-0.2c0.3-0.3,0.6-0.5,0.9-0.8c1.7-2,1.9-4.9,1.9-6.4c0-0.7-0.1-1.1-0.1-1.1c0-0.1,0-0.1,0-0.2
			c0-0.1,0-0.2-0.1-0.3c-0.2-0.9-0.5-1.7-0.7-2.5c-0.2-0.5-0.4-1-0.6-1.4c-1.5-2.8-3.5-3.8-4.8-4.1c-0.1,0-0.3-0.1-0.4-0.1
			c-0.2,0-0.3,0-0.4-0.1c-0.1,0-0.1,0-0.2,0c-0.2,0-0.4,0-0.4,0l-0.1,0l0.3-0.1l0,0h0l0.3,0h0c0.1,0,0.2,0,0.3,0
			C44.9,24,45,24,45.1,24z M41.8,41c0.4,0.1,0.8,0.1,1.2,0c0.1,0,0.2,0,0.3,0c2.7-0.6,4.2-4.3,3.3-8.3c-0.9-4-3.8-6.7-6.5-6.1
			c0,0-0.1,0-0.1,0c-0.4,0.1-0.8,0.3-1.1,0.5c-0.1,0-0.1,0.1-0.2,0.1l0-0.2l0.1-0.1c0,0,0.9-0.7,2.4-1.5l1.3-0.4l0.8-0.2
			c0,0,0,0.1-0.2,0.2c-0.1,0.1-0.2,0.1-0.4,0.2c0,0,0.9-0.1,1-0.2c0.1-0.1,0.7-0.3,1.1-0.4c2,0.6,4.9,2.4,6.1,7.3
			c-0.3,0.1-0.4,0.2-0.4,0.7c0,0.4,0,0.8,0,1.1L49.6,34l0.7,0c0,0,0,0,0,0l-1.4,0.2l1.4-0.1c0,0.5-0.1,1-0.1,1.5
			c0,0.4-0.1,0.7-0.4,0.9c-0.3-0.2-0.2-0.7-0.7-0.7c0,0.4,0,0.8-0.2,1.1c-0.2,0.9-1.4,2.9-2.8,3.1c1,0.1,1.9,0.2,2.8,0.2
			c-0.1,0.1-0.1,0.1-0.2,0.2c-0.9,0.1-2.9,0.2-1.7,0.4c1.5,0.2-1.5,0.4-1.5,0.4s0.3,0,0.5,0.1c0.2,0,0.3,0.1,0.2,0.2
			c0,0-0.1,0-0.1,0c-0.2,0.1-0.5,0.1-0.9,0.1c-1.5,0-2.8-0.2-3.9-0.5l-0.1,0l0-0.2c0.1,0,0.1,0,0.2,0.1c0,0,0,0,0,0
			C41.5,41,41.7,41,41.8,41z M43.6,24.6c-0.4,0.2-1.1,0.4-1.7,0.6c0.5-0.2,1-0.4,1.6-0.7C43.5,24.5,43.6,24.5,43.6,24.6z M37.9,38.4
			C37.9,38.4,37.9,38.4,37.9,38.4c0-0.3,0-0.4,0-0.6c0-0.1,0-0.2,0.1-0.3c0-0.1,0.1-0.1,0.1-0.2c-0.4-0.8-0.7-1.6-0.9-2.6
			c-0.4-1.8-0.2-3.5,0.4-5c0.3-0.8,0.8-1.4,1.3-1.9c0.1,0,0.1-0.1,0.2-0.1c0.1,0,0.1-0.1,0.2-0.1c0.4-0.3,0.8-0.4,1.2-0.5
			c0.2,0,0.4-0.1,0.7-0.1c2.3,0,4.6,2.5,5.3,5.8c0.4,1.8,0.2,3.5-0.4,5c-0.6,1.5-1.6,2.4-2.9,2.7c-0.2,0-0.4,0.1-0.7,0.1
			c-0.3,0-0.6,0-0.9-0.1c-0.1,0-0.1,0-0.2-0.1c-0.1,0-0.1,0-0.2-0.1c-0.5-0.2-0.9-0.5-1.3-0.8c-0.1,0-0.2-0.1-0.2-0.2l-0.4,0.1l0,0
			c0,0,0,0,0,0c0,0,0,0,0,0c0,0,0,0-0.1,0c0,0,0,0,0,0c0,0,0,0,0,0c0,0-0.1,0-0.1,0C38.3,39.4,38,39,37.9,38.4z"/>
		<path d="M38.5,37C38.5,37,38.5,37,38.5,37l0.7-0.2v0c-0.4-0.7-0.7-1.5-0.9-2.4c-0.4-2-0.1-3.8,0.7-5.1c0-0.1,0.1-0.2,0.2-0.2
			c0-0.1,0.1-0.1,0.2-0.2c0.5-0.6,1.2-1.1,1.9-1.2c0,0,0.1,0,0.1,0c-0.3,0-0.7,0-1,0c-0.4,0.1-0.8,0.3-1.2,0.5
			c-0.1,0-0.1,0.1-0.2,0.1c-0.1,0-0.1,0.1-0.2,0.1c-1,1-1.6,2.6-1.6,4.5c0,0.5,0.1,1.1,0.2,1.7c0.1,0.5,0.2,0.9,0.4,1.3
			c0,0.1,0,0.1,0.1,0.2c0,0,0,0,0,0c0.1,0.3,0.3,0.6,0.4,0.9C38.4,37.1,38.4,37.1,38.5,37z"/>
		<path d="M41.2,39.1c-0.1,0-0.1-0.1-0.2-0.1c0,0,0,0-0.1,0c0,0-0.1,0-0.1,0.1c0,0-0.1,0-0.1,0l-0.1,0l0,0.1c0,0.1,0,0.2-0.1,0.2
			c0.2,0.1,0.4,0.2,0.5,0.3c0.1,0,0.1,0.1,0.2,0.1c0.1,0,0.1,0,0.2,0.1c0.5,0.2,1,0.2,1.6,0.1c0.4-0.1,0.8-0.2,1.1-0.5
			c-0.1,0-0.2,0.1-0.3,0.1C42.8,39.7,42,39.5,41.2,39.1z"/>
		<path d="M51,28.5l0.3,0.7c0.1,0.1,0.1,0.2,0.2,0.3l0,0.1c0.9-0.1,1.8-0.3,2.7-0.4c1-0.2,2.1-0.3,3.1-0.5c0.4-0.1,0.9,0.1,0.9-0.6
			c-0.1-0.6-0.5-0.6-0.9-0.6c-2.1-0.1-4.2,0.5-6.3,0.7l0.1,0.1L51,28.5z"/>
		<path d="M48,30.4c0.5-0.2,1.4,0,1.2-1c0-0.5-0.2-0.7-0.8-0.5c-0.5,0.2-1.2,0.1-1.1,0.9C47.2,30.2,47.4,30.7,48,30.4z"/>
		<path d="M59.6,28.7c0.2,0,0.5,0,0.5-0.3c-0.1-0.9-0.9-0.8-1.5-0.9C58.4,28.4,58.8,28.8,59.6,28.7z"/>
		<path d="M62.4,28.6c-0.4-1.4-1-2.2-1.7-2.7c0.1,0.2,0.2,0.3,0.3,0.5c0.1,0.1,0.2,0.3,0.2,0.4c0.1,0.1,0.2,0.3,0.2,0.4
			c0.1,0.3,0.3,0.6,0.4,0.9c0,0.2,0.1,0.3,0.1,0.5l0.1,0.5c0.1,0.3,0.1,0.6,0.1,1l0,0.2c0,0.1,0,0.2,0,0.2l0,0.5c0,0.3,0,0.6,0,1
			c0,0.3-0.1,0.6-0.1,1c0,0.2,0,0.3-0.1,0.5l-0.1,0.5c-0.1,0.3-0.2,0.6-0.2,0.9c-0.1,0.3-0.2,0.6-0.3,0.9c-0.1,0.2-0.1,0.3-0.2,0.5
			c1.3-1.1,1.8-2.5,1.6-5C62.7,30.3,62.7,29.6,62.4,28.6z"/>
		<path d="M43.3,30.5c0.3,0.2,0.3,0.5,0.4,0.8c0.4-0.1,0.2-0.6,0.4-0.8c0.3,0.1,0.4,0.3,0.5,0.6c0.2,0.8,0.5,1.6,0.7,2.4
			c0.1,0.4,0.2,0.5,0.4,0.5c0-0.4-0.1-0.8-0.2-1.3c-0.5-2.6-2.1-4.5-3.8-4.7c-0.4,0.1-0.9,0.3-1.3,0.5
			C41.5,28.4,42.9,29.7,43.3,30.5z"/>
		<path d="M42.1,38.2c0.3-0.1,0.4-0.4,0.4-0.8c-0.1-0.4-0.4-0.7-0.7-0.6l-1,0.2l-0.1,0c0,0,0.1,0,0.1,0.1c0.2,0.1,0.4,0.4,0.4,0.7
			c0.1,0.3,0,0.5,0,0.7L42.1,38.2z"/>
		<path d="M39.8,39.1l-0.1,0l0,0.1c0,0.1,0.1,0.1,0.3,0.1c0,0,0,0,0.1,0c0,0,0.1,0,0.1,0c0.1,0,0.1,0,0.1-0.1l0-0.2L39.8,39.1
			L39.8,39.1z"/>
		<path d="M39.8,39l0.8-0.2c0,0,0,0,0.1,0c0,0,0,0,0,0c0.1,0,0.1-0.1,0.2-0.1c0,0,0-0.1,0.1-0.1c0-0.1,0.1-0.1,0.1-0.2
			c0.1-0.2,0.1-0.4,0-0.6c0-0.2-0.1-0.4-0.2-0.5c-0.1-0.1-0.1-0.2-0.2-0.2c0,0,0,0,0,0c0,0,0,0-0.1,0c0,0-0.1,0-0.1,0c0,0,0,0,0,0
			l0,0.1l0,0.3c0,0.1-0.2,0.2-0.5,0.2c-0.3,0-0.5-0.1-0.5-0.2v0v-0.1l-0.1,0l-0.5,0.1c0.1,0,0.1,0,0.2,0c0.3,0.1,0.5,0.4,0.6,0.8
			c0,0.2,0,0.5,0,0.7c0,0,0,0,0,0.1c0,0.1-0.1,0.1-0.1,0.2c0,0.1-0.1,0.1-0.1,0.1c0,0,0,0,0,0l0,0l0.2-0.1L39.8,39L39.8,39z"/>
		<path d="M39.4,37.1C39.4,37.1,39.4,37.1,39.4,37.1c0.1,0.1,0.3,0.2,0.5,0.2c0.3,0,0.5-0.1,0.5-0.2l0-0.2l0-0.1l0-0.2l0-0.4
			c0,0,0-0.1,0.1-0.2c0-0.1,0.1-0.2,0.1-0.4c0.1-0.3,0.1-0.6,0.1-1c0,0,0-0.1-0.3-0.2c-0.1,0-0.1,0-0.2,0c-0.1,0-0.1,0-0.2,0
			c0,0,0,0-0.1,0c-0.7,0-0.8,0.3-0.8,0.3s0,1.1,0.3,1.6V37.1L39.4,37.1z"/>
		<path d="M38.9,39.2L38.9,39.2L38.9,39.2C38.9,39.2,38.9,39.2,38.9,39.2C39,39.2,39,39.2,38.9,39.2L38.9,39.2
			C39,39.2,39,39.2,38.9,39.2c0.1,0,0.1,0,0.1,0c0.1,0,0.1-0.1,0.2-0.2c0,0,0.1-0.1,0.1-0.2c0-0.1,0-0.1,0.1-0.2c0,0,0,0,0-0.1
			c0-0.1,0-0.3,0-0.5c-0.1-0.4-0.3-0.7-0.6-0.8c-0.1,0-0.1,0-0.2,0c0,0,0,0,0.1,0l-0.1,0c0,0-0.1,0-0.1,0c0,0,0,0,0,0
			c-0.1,0-0.1,0.1-0.2,0.1c0,0-0.1,0.1-0.1,0.2c-0.1,0.2-0.1,0.4-0.1,0.6c0,0,0,0.1,0,0.1C38.2,38.9,38.5,39.2,38.9,39.2
			C38.9,39.2,38.9,39.2,38.9,39.2z"/>
	</g>
	<g>
		<path d="M73.4,55.7c-0.5,0.1-1,0.2-1.6,0.2c-0.4,0-0.9,0-1.4-0.1c-0.5-0.1-0.9-0.2-1.3-0.4c-0.4-0.1-0.9-0.3-1.3-0.5
			c-0.4-0.2-0.8-0.4-1.2-0.6c-0.1,0-0.2-0.1-0.3-0.1c-0.1-0.1-0.2-0.1-0.3-0.2c-0.2-0.1-0.3-0.2-0.5-0.3c-0.2-0.1-0.3-0.2-0.5-0.2
			h-0.1c-0.1,0-0.2,0-0.3,0.1c-0.1,0-0.2,0.1-0.4,0.1c-0.2,0-0.3,0.1-0.5,0.1c-0.2,0-0.3,0.1-0.5,0.1c-0.7,0-1.3-0.1-1.8-0.3
			c-0.5-0.2-1-0.5-1.4-0.9c-0.4-0.4-0.7-0.8-0.9-1.4c-0.2-0.5-0.3-1.1-0.3-1.8c0-0.6,0.1-1.2,0.3-1.7c0.2-0.5,0.5-1,1-1.4
			c0.4-0.4,0.9-0.7,1.4-0.9c0.5-0.2,1.1-0.3,1.7-0.3c0.6,0,1.2,0.1,1.7,0.3c0.5,0.2,1,0.5,1.4,0.8c0.4,0.4,0.7,0.8,0.9,1.3
			c0.2,0.5,0.3,1.1,0.3,1.7c0,0.7-0.2,1.4-0.5,2.1c-0.3,0.7-0.8,1.2-1.3,1.6c0.5,0.3,1,0.6,1.5,0.9c0.5,0.3,1.1,0.5,1.6,0.8
			c0.5,0.2,1.1,0.4,1.7,0.5c0.6,0.1,1.1,0.2,1.7,0.2c0.4,0,0.8,0,1.2-0.1c0.4-0.1,0.8-0.2,1.1-0.3l0.1,0.2
			C74.4,55.3,73.9,55.5,73.4,55.7z M66.2,47.9c-0.1-0.4-0.3-0.8-0.6-1.1c-0.3-0.3-0.6-0.6-1-0.8c-0.4-0.2-0.8-0.3-1.3-0.3
			c-0.5,0-0.9,0.1-1.3,0.2c-0.4,0.2-0.7,0.4-1,0.6c-0.3,0.3-0.5,0.6-0.7,1c-0.2,0.4-0.2,0.8-0.2,1.3c0,0.5,0.1,1.1,0.3,1.6
			c0.2,0.5,0.4,1,0.8,1.3c0.3,0.4,0.7,0.7,1.2,1c0.5,0.3,1,0.4,1.5,0.5c0.4-0.1,0.8-0.4,1.1-0.6c0.3-0.3,0.6-0.6,0.8-0.9
			c0.2-0.3,0.4-0.7,0.5-1.1c0.1-0.4,0.2-0.8,0.2-1.3C66.4,48.8,66.4,48.4,66.2,47.9z"/>
		<path d="M98.9,53.3c-0.1-0.1-0.2-0.3-0.4-0.4c-0.1-0.2-0.3-0.3-0.5-0.5c-0.2-0.2-0.4-0.4-0.7-0.6c-0.1-0.1-0.3-0.2-0.4-0.3
			c-0.1-0.1-0.3-0.2-0.4-0.3c-0.1-0.1-0.3-0.2-0.4-0.3c-0.1,0-0.2-0.1-0.2-0.1l-0.2-0.1c-0.3-0.1-0.6-0.3-1-0.4
			c-0.2-0.1-0.3-0.1-0.5-0.2c-0.1,0-0.2-0.1-0.3-0.1L92.4,47L91,49.7c-0.1,0-0.2,0-0.3,0c-0.3,0-0.5,0-0.7,0c-0.2,0-0.4,0-0.6,0.1
			C89.2,49.9,89,50,89,50s0,0,0.1,0c0.1,0,0.2,0,0.4,0c0.3,0,0.7,0,1.3,0.1c0.1,0,0.1,0,0.2,0L90,52c-0.2,0.6-0.5,0.9-0.6,0.9
			L89,53.1v0.1h2.3V53l-0.2,0c-0.3-0.1-0.5-0.2-0.5-0.3c0-0.1,0-0.2,0-0.3l1-2.2c0.3,0,0.5,0.1,0.8,0.1c0.2,0,0.4,0.1,0.6,0.2
			c0.6,1.3,0.9,2,0.9,2.2c0,0.2-0.1,0.3-0.3,0.3l-0.3,0.1v0.1h2.3v-0.1c-0.4,0-0.6-0.2-0.8-0.5l-0.8-1.8l0.4,0.1
			c0.3,0.1,0.6,0.3,1,0.4c0.2,0.1,0.3,0.1,0.5,0.2c0.1,0.1,0.3,0.2,0.4,0.2c0.1,0,0.1,0.1,0.2,0.1c0.1,0,0.1,0.1,0.2,0.1
			c0.1,0.1,0.3,0.2,0.4,0.2c0.3,0.1,0.5,0.3,0.7,0.5c0.1,0.1,0.2,0.1,0.3,0.2c0.1,0.1,0.2,0.1,0.3,0.2
			C98.5,53.2,98.7,53.3,98.9,53.3c0.2,0.3,0.3,0.4,0.3,0.4S99.1,53.6,98.9,53.3z M91.8,49.8l0.5-1.2l0.6,1.3c-0.1,0-0.2,0-0.3-0.1
			C92.3,49.8,92.1,49.8,91.8,49.8z"/>
		<path d="M73,46.9C73,46.9,73,46.9,73,46.9c0,0.1,0.1,0.2,0.1,0.2c0.1,0,0.1,0,0.2,0c0,0,0.1,0,0.1,0c0,0,0.1,0,0.1,0.1
			c0,0,0.1,0.1,0.1,0.1c0,0.1,0,0.1,0,0.2c0,0.3,0,0.6,0,0.9c0,0.3,0,0.6,0,0.9c0,0.3,0,0.6,0,0.9c0,0.3,0,0.6,0,0.9
			c0,0.3-0.1,0.5-0.2,0.7c-0.1,0.2-0.2,0.4-0.4,0.5c-0.2,0.1-0.4,0.3-0.6,0.3c-0.2,0.1-0.5,0.1-0.7,0.1c-0.2,0-0.5,0-0.7-0.1
			c-0.2-0.1-0.4-0.2-0.6-0.3c-0.2-0.1-0.3-0.3-0.4-0.5c-0.1-0.2-0.2-0.4-0.2-0.7c0-0.3,0-0.6,0-0.9c0-0.3,0-0.6,0-0.9v-1.8
			c0-0.2,0.1-0.3,0.2-0.3c0.1-0.1,0.2-0.1,0.4-0.1c0.1,0,0.1,0,0.1-0.1c0-0.1,0-0.1-0.1-0.1h-2.4c0,0,0,0,0,0c0,0.1,0.1,0.1,0.1,0.1
			c0.1,0,0.1,0,0.2,0c0.1,0,0.2,0,0.3,0.1c0.1,0,0.1,0.2,0.1,0.4V51c0,0,0,0.1,0,0.2c0,0.1,0,0.1,0,0.2v0c0,0.4,0.1,0.7,0.3,0.9
			c0.2,0.3,0.4,0.5,0.7,0.6c0.3,0.2,0.6,0.3,0.9,0.4c0.3,0.1,0.7,0.1,1,0.1c0.4,0,0.7-0.1,1-0.2c0.3-0.1,0.6-0.3,0.9-0.5
			c0.2-0.2,0.4-0.5,0.6-0.8c0.1-0.3,0.2-0.7,0.2-1.1v-3.2c0-0.2,0.1-0.3,0.2-0.3c0.1-0.1,0.2-0.1,0.4-0.1l0-0.2H73z"/>
		<path d="M78,53.1c-0.1,0-0.3-0.1-0.4-0.1c-0.1,0-0.2-0.2-0.2-0.4l0-5.1c0-0.2,0.1-0.3,0.2-0.4c0.1,0,0.2-0.1,0.4-0.1
			c0.1,0,0.1-0.1,0.1-0.1c0,0,0,0,0-0.1h-2.2c0,0,0,0,0,0.1c0,0.1,0,0.1,0.1,0.1c0.1,0,0.3,0.1,0.4,0.1c0.1,0.1,0.2,0.2,0.2,0.3
			l0,5.1c0,0.2-0.1,0.3-0.2,0.3c-0.1,0.1-0.3,0.1-0.4,0.1c-0.1,0-0.1,0-0.1,0.1c0,0,0,0,0,0.1h2.2c0,0,0,0,0-0.1
			C78.1,53.1,78.1,53.1,78,53.1z"/>
		<path d="M87.3,52.9C87.3,52.8,87.3,52.8,87.3,52.9l-0.8-5.7c0,0,0-0.1,0-0.1c0,0,0-0.1-0.1-0.1c0,0-0.1,0-0.1,0c0,0,0,0,0,0
			l-2.7,4.8L80.8,47c0,0,0,0,0,0c0,0-0.1,0-0.1,0c0,0-0.1,0-0.1,0.1c0,0,0,0.1,0,0.1l-0.7,5.7c0,0,0,0,0,0c0,0.1-0.6,0.2-0.6,0.3
			c0,0.1,0,0.1,0.1,0.1c0.1,0,0.3,0,0.4,0h1.6c0,0,0,0,0,0c0-0.1,0-0.1-0.1-0.1c-0.1-0.1-0.5-0.2-0.6-0.2c0,0,0,0,0,0l0.3-3.7
			l2.4,4.1c0,0,0.1,0,0.1,0v0c0,0,0,0,0,0c0,0,0,0,0,0v0c0,0,0.1,0,0.1,0l2.4-4.1l0.3,3.7c0,0,0,0,0,0c0,0-0.4,0.2-0.6,0.2
			c-0.1,0-0.1,0.1-0.1,0.1c0,0,0,0,0,0h1.6c0.1,0,0.3,0,0.4,0c0.1,0,0.1,0,0.1-0.1C87.9,53.1,87.3,52.9,87.3,52.9z"/>
		<g>
			<path d="M47.2,45.4c0.1,0.1,0,0.2-0.1,0.2c-0.1,0-0.1,0-0.3,0c-0.6,0.1-1.4,0.4-1.7,0.6c-0.1,0-0.2,0.1-0.2,0.1
				c0,0-0.1,0-0.1-0.1c0,0,0-0.1,0.1-0.1c0.4-0.4,1.5-1.2,1.6-1.3c0.1-0.1,0.2-0.1,0.2-0.1c0.1,0,0.1,0,0.1,0.1
				C47,44.9,47.1,45.1,47.2,45.4z"/>
			<g>
				<path d="M47,52.5l-1-2.2L44.4,47L42,52c-0.2,0.6-0.5,0.9-0.6,0.9l-0.3,0.1v0.1h2.3V53l-0.2,0c-0.3-0.1-0.5-0.2-0.5-0.3
					c0-0.1,0-0.2,0-0.3l1.7-3.8l0.7,1.7c0.6,1.3,0.9,2.1,0.9,2.3c0,0.2-0.1,0.3-0.3,0.3l-0.3,0.1v0.1h2.3v-0.1
					C47.4,53.1,47.2,52.9,47,52.5z"/>
			</g>
			<g>
				<path d="M32.2,52.5l-1-2.2L29.6,47L27.3,52c-0.2,0.6-0.5,0.9-0.6,0.9l-0.3,0.1v0.1h2.3V53l-0.2,0c-0.3-0.1-0.5-0.2-0.5-0.3
					c0-0.1,0-0.2,0-0.3l1.7-3.8l0.7,1.7c0.6,1.3,0.9,2.1,0.9,2.3c0,0.2-0.1,0.3-0.3,0.3l-0.3,0.1v0.1H33v-0.1
					C32.6,53.1,32.4,52.9,32.2,52.5z"/>
			</g>
			<g>
				<path d="M18.3,52.5l-1-2.2L15.8,47L13.4,52c-0.2,0.6-0.5,0.9-0.6,0.9l-0.3,0.1v0.1h2.3V53l-0.2,0c-0.3-0.1-0.5-0.2-0.5-0.3
					c0-0.1,0-0.2,0-0.3l1.7-3.8l0.7,1.7c0.6,1.3,0.9,2.1,0.9,2.3c0,0.2-0.1,0.3-0.3,0.3l-0.3,0.1v0.1h2.3v-0.1
					C18.8,53.1,18.5,52.9,18.3,52.5z"/>
			</g>
			<path d="M39.5,52.6c0.4-0.3,0.7-0.6,0.9-1c0.2-0.4,0.3-1,0.3-1.6c0-0.1,0-1.6-1.3-2.4c-1.2-0.7-3.8-0.6-4-0.6h-1.8c0,0,0,0,0,0.1
				c0,0,0.1,0.1,0.1,0.1c0.1,0,0.1,0,0.2,0.1c0.1,0,0.2,0,0.3,0.1c0.1,0,0.1,0.1,0.1,0.3v4.7c0,0.3,0,0.4-0.1,0.5
				c-0.1,0.1-0.2,0.2-0.4,0.2c-0.1,0-0.1,0.1-0.1,0.1c0,0.1,0,0.1,0.1,0.1c0.2,0,0.3,0,0.5,0h1.1C35.7,53.2,38.4,53.4,39.5,52.6z
				 M36.7,52.9c-0.2,0-0.4,0-0.5,0c-0.2,0-0.3-0.1-0.4-0.1c-0.1-0.1-0.2-0.2-0.2-0.3c-0.1-0.1-0.1-0.3-0.1-0.5v-4.5
				c0.1,0,0.3-0.1,0.5-0.1c0.1,0,0.3,0,0.4,0c0.4,0,0.9,0.1,1.3,0.2c0.4,0.1,0.8,0.3,1.1,0.6c0.3,0.2,0.6,0.6,0.7,0.9
				c0.2,0.4,0.3,0.8,0.3,1.3c0,0.5-0.1,0.9-0.2,1.2c-0.2,0.3-0.4,0.6-0.7,0.8c-0.3,0.2-0.6,0.4-1,0.4C37.5,52.8,37.1,52.9,36.7,52.9
				z"/>
			<path d="M23.5,50.2v0.1c0.1,0,0.2,0.1,0.3,0.1c0.1,0,0.2,0.1,0.2,0.1c0.1,0,0.1,0.1,0.1,0.2v1.8c-0.1,0.1-0.3,0.2-0.5,0.2
				c-0.2,0-0.4,0.1-0.6,0.1c-0.4,0-0.8-0.1-1.2-0.2c-0.4-0.1-0.7-0.3-1-0.6c-0.3-0.3-0.5-0.6-0.7-0.9c-0.2-0.4-0.3-0.8-0.3-1.2
				c0-0.4,0.1-0.8,0.2-1.1c0.2-0.3,0.4-0.6,0.7-0.8c0.3-0.2,0.6-0.4,0.9-0.5c0.3-0.1,0.7-0.2,1.1-0.2c0.2,0,0.4,0,0.7,0.1
				c0.2,0,0.4,0.1,0.6,0.2c0.2,0.1,0.3,0.2,0.5,0.4c0.1,0.2,0.2,0.4,0.3,0.6c0,0,0,0.1,0.1,0.1c0,0,0.1,0,0.1,0
				c0.1,0,0.1-0.1,0.1-0.2c0-0.1,0.1-0.3,0.1-0.4c0-0.2,0-0.3,0-0.5c0-0.1,0-0.2,0-0.3c0-0.1,0-0.1-0.1-0.1c-0.1,0-0.3,0-0.4-0.1
				c-0.1,0-0.3,0-0.4-0.1c-0.2,0-0.5-0.1-0.8-0.1c-0.3,0-0.6,0-0.8,0c-0.5,0-0.9,0.1-1.4,0.2c-0.5,0.1-0.9,0.3-1.2,0.5
				c-0.4,0.2-0.7,0.6-0.9,0.9C19,49,18.9,49.5,18.9,50c0,0.5,0.1,0.9,0.2,1.3c0.2,0.4,0.4,0.7,0.7,1c0.3,0.3,0.6,0.5,1,0.7
				c0.4,0.2,0.8,0.3,1.3,0.3c0.1,0,0.3,0,0.4,0c0.1,0,0.3,0,0.4,0c0.2,0,0.4,0,0.6,0c0.2,0,0.4,0,0.6-0.1c0.2,0,0.4-0.1,0.6-0.1
				c0.2-0.1,0.3-0.1,0.5-0.2c0,0,0,0,0,0c0,0,0,0,0-0.1v-2.1c0-0.1,0.1-0.2,0.2-0.3c0.1,0,0.2-0.1,0.3-0.1v-0.2H23.5z"/>
			<path d="M55.5,47.1l-0.1-0.2h-2.1c0,0,0,0.1,0,0.1c0.1,0.1,0.2,0.1,0.3,0.1c0.1,0,0.1,0,0.2,0c0.1,0,0.1,0,0.1,0.1
				c0,0,0.1,0.1,0.1,0.2c0,0,0,0,0,0v4.3c-0.8-0.8-1.6-1.6-2.4-2.4c-0.8-0.8-1.7-1.7-2.6-2.5c0,0,0,0-0.1,0c0,0-0.1,0-0.1,0
				c0,0-0.1,0.1-0.1,0.1c0,0-0.1,0.1-0.1,0.2v5.5c0,0.2,0,0.3-0.1,0.4c-0.1,0.1-0.2,0.1-0.3,0.1l-0.1,0c-0.1,0-0.1,0-0.1,0.1
				c0,0.1,0,0.1,0.1,0.1h2.3c0,0,0,0,0,0c0,0,0-0.1,0-0.1C50.4,53,50.3,53,50.2,53c-0.1,0-0.1,0-0.2,0c-0.1,0-0.1,0-0.2,0
				c0,0-0.1,0-0.1-0.1c0,0-0.1-0.1-0.1-0.2c0,0,0,0,0,0v-4.1l4.9,4.7h0c0,0,0.1,0.1,0.1,0.1c0,0,0,0,0.1,0c0,0,0.1,0,0.1,0
				c0,0,0.1-0.1,0.1-0.1c0,0,0,0,0,0c0,0,0-0.1,0-0.1v-0.5l0-5.4c0,0,0,0,0.1,0c0.1,0,0.2-0.1,0.3-0.1h0
				C55.4,47.1,55.4,47.1,55.5,47.1z"/>
			<path d="M11,53.3C11,53.3,11,53.3,11,53.3l-0.9-8c0-0.1,0-0.1,0-0.2c0-0.1,0-0.1-0.1-0.1c-0.1,0-0.1,0-0.2,0c0,0,0,0,0,0
				l-3.3,6.7l-3.3-6.7c0,0,0,0,0,0c-0.1,0-0.1-0.1-0.2,0c-0.1,0-0.1,0.1-0.1,0.1c0,0,0,0.1,0,0.2L2,53.3c0,0,0,0,0,0
				c0,0.1-0.7,0.3-0.7,0.4c0,0.1,0,0.1,0.1,0.1c0.2,0,0.3,0,0.5,0h1.9c0,0,0,0,0-0.1c0-0.1,0-0.1-0.1-0.2c-0.2-0.1-0.7-0.3-0.7-0.3
				c0,0,0,0,0-0.1l0.4-5.2l2.9,5.7c0,0,0.1,0,0.1,0v0c0,0,0,0,0,0c0,0,0,0,0,0v0c0,0,0.1,0,0.1,0l2.9-5.7l0.4,5.2c0,0,0,0,0,0.1
				c0,0-0.5,0.3-0.7,0.3c-0.1,0-0.1,0.1-0.1,0.2c0,0,0,0,0,0.1h1.9c0.2,0,0.3,0,0.5,0c0.1,0,0.1-0.1,0.1-0.1
				C11.7,53.6,11.1,53.4,11,53.3z"/>
		</g>
		<g>
			<path d="M96.7,48c0,0.6-0.4,1-1,1c-0.6,0-1-0.4-1-1c0-0.6,0.5-1,1-1C96.3,47,96.7,47.4,96.7,48z M94.9,48c0,0.4,0.3,0.8,0.8,0.8
				c0.4,0,0.8-0.4,0.8-0.8c0-0.4-0.3-0.8-0.8-0.8C95.3,47.2,94.9,47.5,94.9,48z M95.5,48.5h-0.2v-1c0.1,0,0.2,0,0.4,0
				c0.2,0,0.3,0,0.3,0.1c0.1,0,0.1,0.1,0.1,0.2c0,0.1-0.1,0.2-0.2,0.2v0c0.1,0,0.2,0.1,0.2,0.2c0,0.2,0,0.2,0.1,0.3h-0.3
				c0,0,0-0.1-0.1-0.2c0-0.1-0.1-0.2-0.2-0.2h-0.1V48.5z M95.5,47.9h0.1c0.1,0,0.2,0,0.2-0.1c0-0.1-0.1-0.2-0.2-0.2
				c-0.1,0-0.1,0-0.1,0V47.9z"/>
		</g>
	</g>
</g>
</svg>
