<?xml version="1.0" encoding="utf-8"?>
<!-- Generator: Adobe Illustrator 23.0.6, SVG Export Plug-In . SVG Version: 6.00 Build 0)  -->
<svg version="1.1" id="Layer_1" xmlns="http://www.w3.org/2000/svg" xmlns:xlink="http://www.w3.org/1999/xlink" x="0px" y="0px"
	 viewBox="0 0 100 80" style="enable-background:new 0 0 100 80;" xml:space="preserve">
<style type="text/css">
	.st0{fill:#414141;}
	.st1{fill:none;stroke:#FFC52F;}
</style>
<g>
	<path class="st0" d="M81.2,30.4l0-0.3l0.2,0c0.1,0,0.2,0,0.2,0.1c0,0.1-0.1,0.2-0.2,0.2L81.2,30.4z M81.2,30.6h0.2l0.2,0.4h0.2
		l-0.3-0.4c0.1,0,0.2-0.1,0.2-0.3c0-0.2-0.1-0.3-0.3-0.3l-0.3,0l0,0.9h0.1L81.2,30.6z M81.4,31.3c0.4,0,0.8-0.3,0.8-0.8
		c0-0.5-0.4-0.8-0.8-0.8c-0.4,0-0.8,0.3-0.8,0.8C80.6,31,80.9,31.3,81.4,31.3 M80.7,30.5c0-0.4,0.3-0.7,0.6-0.7
		c0.4,0,0.6,0.3,0.6,0.7c0,0.4-0.3,0.7-0.6,0.7C81,31.2,80.7,30.9,80.7,30.5"/>
	<path class="st0" d="M78.7,40.5c0,0,0.1,0.1,0.5,0.1c1.2,0,2.4-1.2,2.5-2c0-0.3-0.3-0.5-0.5-0.5C80,38.3,78.9,39.8,78.7,40.5
		 M89.4,43.4c0,0.5,0.3,0.6,0.6,0.5c0.9-0.2,2-1.5,2.3-2.1c-0.3-0.1-0.5-0.3-0.6-0.5c-0.1-0.2-0.1-0.5,0-0.8c0.1-0.6,0.5-1.2,1-1.2
		c0.2,0,0.3,0.1,0.3,0.2c0.1-0.2,0.1-0.5,0.1-0.7c0-0.3-0.1-0.7-0.6-0.7C91.2,38.1,89.4,42.2,89.4,43.4 M82.9,37.3
		c0.1-0.2,0.5-0.3,0.6,0c0.2,0.7-0.2,0.9-0.2,1c0.1,0.3,1.2-0.6,1.7,0.3c0.1,0.1,0.1,0.5,0,0.6c-0.7,1.4-1.9,3.4-2.2,4.1
		c-0.1,0.6,0,0.6,0.2,0.6c0.3,0,0.9-0.4,1.9-2c0,0,1.3-1.9,1.6-3.4c-0.1-0.2-0.4-0.4-0.4-0.8c0-0.4,0.2-0.6,0.2-0.6
		c0-0.1,0.5-0.4,0.7,0c0.2,0.8-0.3,0.9-0.2,1c0.1,0.2,0.7-0.3,1.3-0.1c0.3,0.1,0.4,0.4,0.4,0.7c0,1.1-2.4,4-2.4,4.6
		c0,0.4,0.2,0.4,0.3,0.4c0.6,0,1.5-1,1.5-1.1c0-1.9,2.3-5.1,4.2-5.1c0.6,0,0.9,0.4,0.9,1.1c0,1-0.4,2.2-0.7,2.7c0,0,0.2,0,0.3,0
		c0.9-0.2,1.5-1,1.6-0.9c0.1,0.1-1.1,1.2-2,1.3c0,0-1.3,2.4-2.9,2.4c-0.8,0-1.2-0.8-1.3-1.1c-0.5,0.5-1,1-1.7,1.1
		c-0.5,0-0.9-0.4-1-1.1c0-1.2,1.3-2.9,2.3-4.3c0.1-0.1,0-0.4-0.2-0.3c-0.5,0.1-0.8,0-0.8,0c0,0.5-2.6,6.1-4,5.7c0,0-0.3,0.1-0.6-0.2
		C82,43.8,82,43.2,82,43.1c0.1-1.5,1.4-3.1,2.2-4.3c0.1-0.2,0-0.4-0.2-0.3c-0.5,0.2-0.7,0-0.7,0.1c-0.1,0.8-2.7,5.7-4.8,5.6
		c-0.6,0-1.4-0.5-1.7-1.4c-0.2,0.2-1,1.4-2,1.4c-0.5,0-1.1-0.4-1.1-1.1c0-0.6,1.5-3.3,1.6-3.4c0.2-0.4,0.8-1.6,0.8-1.6
		c0.5,0.1,0.7,0.2,1.3,0.1c0,0-2.7,5.3-2.7,5.3c-0.2,0.4,0,0.5,0.2,0.5c0.5,0.1,1.7-1.1,1.8-1.5c0.4-2.3,2.6-4.2,4.2-4.5
		c0.2,0,0.3,0,0.5,0c0.4,0,0.7,0.4,0.7,0.9c-0.1,2.1-3.2,2.2-3.5,2c0,0-0.6,1-0.6,2.1c0,0.9,0.3,1.1,0.8,1.1
		c1.4,0.1,3.9-3.9,4.3-5.3C83.1,38.6,82.4,38,82.9,37.3 M76.7,37.2c-0.1,0.4,0.2,0.5,0.5,0.5c0.4,0,0.7-0.3,0.8-0.7
		c0-0.1,0-0.2,0-0.3c-0.1-0.2-0.4-0.2-0.4-0.2C77.4,36.5,76.8,36.6,76.7,37.2 M64.9,32c0,0-0.1,0.3-0.1,0.6c0.1,1.3,1.3,1.7,2.5,1.8
		c2.3,0.1,3.7-2.3,3.5-2.3c-0.1,0-1.2,2-3.2,2.2c-0.3,0-0.6,0-0.9-0.1c-1.7-0.3-1.9-1.3-1.7-2.2c0,0,0.5-1.8,2.8-2.1
		c0.3-0.1,0.7-0.1,1.2,0c0.9,0.1,1.4,0.4,2.3,0.5c0.4,0,0.6,0.1,1,0.1c0.3,0,0.5,0,0.9-0.1c0.5-0.1,1-0.2,1.3-0.3
		c-0.7,0.5-2.4,1.7-4,3.9c-1.9,2.7-2.5,3.9-2.5,3.9l-1.7,0v0.4l1.5,0c-0.6,1-3.7,7.7-7.4,7.7c-1.7,0-2.5-0.7-2.5-0.7
		c-0.2-0.1-0.5-0.4-0.5-0.3c0,0.1,1.1,1.1,2.9,1.2c0.4,0,0.6,0,1,0c2.4-0.2,4.3-1.6,5.6-2.8c2.1-1.9,3.4-5.1,3.4-5.1l1.7,0
		c-0.6,1.1-1.7,2.7-1.8,4.2c0,0.4-0.1,0.6,0,1.1c0.3,2,1.5,2.5,2.4,2.6c1.1,0.1,2-0.9,2-0.9c0-0.2-0.6,0.5-1.6,0.7
		c-0.3,0-0.8-0.3-0.9-0.7c-0.1-0.5-0.1-0.8,0-1.2c0.4-2.1,2.2-5.7,2.2-5.8c0,0,0.5,0,0.9,0l0-0.4l-0.7,0c0.9-2.2,4.6-7.6,6.2-8.9
		c0,0-0.2,0.1-0.4,0.1c-1.8,0.8-4.5,4.1-4.5,4.2c-1.5,1.6-3.4,4.6-3.4,4.6l-1.8,0c2.4-6.1,6.2-8.8,6.2-8.8c-0.8,0.5-1.8,0.8-3.1,0.9
		c-0.7,0.1-1.2,0.1-1.9,0c-0.8-0.1-1.3-0.3-2.2-0.4c-0.6-0.1-1-0.1-1.7,0C66.5,29.9,65.3,30.7,64.9,32 M60.3,40.6c0,0,0,0.1,0.7,0
		c1.1-0.2,2.1-1.2,2.1-1.8c0-0.3-0.3-0.4-0.4-0.4C61.3,38.4,60.3,40.5,60.3,40.6 M52.8,43.4c0,0.3,0.2,0.7,0.5,0.7
		c1.2,0,3-2,3.8-4.7c0.2-0.6,0-1.1-0.6-1.1C55.3,38.2,52.8,42.2,52.8,43.4 M60,34.2c0,0,0.4,0.1,0.7,0.1c0.3,0,0.8-0.1,0.8-0.1
		s-4.3,8.2-4.9,9.5c-0.2,0.3,0,0.5,0.1,0.5c0.5,0,1.6-0.9,1.6-1.3c0,0-0.2-0.9,0.7-2.1c1.2-1.7,2.5-2.4,3.2-2.5c0.3,0,0.5,0,0.7,0
		c0.5,0,0.8,0.5,0.7,0.8c-0.2,1.1-1.7,2.2-3.5,1.8c0,0-0.6,1-0.7,2.1c0,0.6,0.2,1,0.8,1c1.8,0.1,3.3-2.7,3.3-2.6
		c0.1,0.1-1.4,2.5-3,2.8c-0.4,0.1-0.7,0.1-1.1,0c-0.6-0.2-1.1-0.7-1.2-1c-0.2,0.2-1,1-1.7,1c-0.5,0-1.2-0.5-1.1-1.2
		c-0.2,0.3-1.1,1-1.8,1.1c-0.3,0-0.6,0.1-1,0c-0.6-0.1-1.1-0.6-1.1-1.4c0-1.7,2.8-4.9,4.9-4.9c0.8,0,0.9,0.8,1,1L60,34.2z
		 M44.7,37.3c-0.1,0.4,0.2,0.5,0.5,0.5c0.4,0,0.7-0.3,0.8-0.7c0-0.1,0-0.2,0-0.3c-0.1-0.2-0.4-0.2-0.4-0.2
		C45.4,36.6,44.8,36.7,44.7,37.3 M31.7,43.5c0,0.3,0.1,0.6,0.5,0.6c1.8-0.1,3.4-2.9,4-5c0.2-0.6-0.2-0.7-0.7-0.7
		C33.9,38.6,31.6,42.6,31.7,43.5 M21.9,43.4c0,0.2,0.1,0.6,0.4,0.6c1.6,0,3.7-3.1,4-4.9c0.1-0.5-0.2-0.8-0.8-0.7
		C24,38.7,21.8,42.5,21.9,43.4 M45.8,43.6c0,0.2,0.1,0.5,0.4,0.5c0.9,0,2.2-1.6,2.4-1.9c-0.3-0.2-0.4-0.3-0.4-0.5
		c0-0.1-0.1-0.4,0-0.7c0.1-0.6,0.5-1.2,1.1-1.2c0.2,0,0.2,0.1,0.4,0.2c0.1-0.1,0.1-0.5,0.1-0.7c0-0.3-0.1-0.7-0.4-0.7
		C47.9,38.5,45.8,42.6,45.8,43.6 M27.6,42.5c1.6-2.9,4.3-8.3,4.3-8.3c0,0,0.3,0.1,0.6,0.1c0.3,0,0.8-0.1,0.8-0.1s-4.6,8.9-4.7,9.2
		c-0.1,0.3,0,0.5,0.3,0.6c0.3,0.1,1.7-1,1.8-1.7c0.3-1.5,2.7-4.2,4.8-4.1c0.7,0,0.9,0.3,1.1,0.7c0.1-0.1,0.4-0.6,0.4-0.7
		c0,0,0.7,0.3,1.3,0c0,0-2.9,5.3-2.9,5.3c-0.1,0.2,0.1,0.4,0.3,0.4c0.5,0.1,1.9-1.1,2-1.7c0.3-1.3,2.3-4,4.3-4
		c0.6,0,0.7,0.4,0.7,0.8c0,0.7-0.7,1.3-0.9,1.4c-0.1,0.1-0.2,0.1-0.3,0c-0.1-0.1-0.1-0.2-0.1-0.4c0-0.6,0.7-1.4,1.1-1.4
		c0-0.1-0.1-0.2-0.4-0.2c-1.1,0-3.4,3.5-3.3,4.9c0,0.4,0.2,0.8,0.6,0.8c1,0,2.3-1.1,2.6-1.8c0.3-0.7,2.2-4,2.2-4
		c0,0,0.2,0.2,1.3,0.1c0,0-2.7,5.2-2.8,5.3c-0.1,0.2,0,0.4,0.2,0.5c0.4,0.1,1.8-1.2,1.9-1.7c0.2-0.9,2.2-4,4.2-4
		c0.4,0,0.7,0.1,0.8,0.6c0.1,0.3,0.1,0.6,0,1c-0.1,0.7-0.4,1.3-0.8,2.1c0,0,0.2,0,0.4-0.1c0.7-0.2,1.3-0.9,1.4-0.8
		c0.1,0.1-0.9,1.1-1.9,1.1c0,0-1.5,2.2-2.9,2.2c-0.9,0-1.2-0.9-1.2-1.5c-0.2,0.2-1.2,1.5-2.1,1.4c-1-0.1-1-1-1-1.2
		c-0.4,0.4-1.5,1.2-2.5,1.2c-0.5,0-1.5-0.4-1.4-1.5c-0.3,0.4-1.3,1.5-2.5,1.4c-0.7,0-1-0.5-1-1c-0.2,0.3-1.2,1.1-2.3,1
		c-1,0-1.3-0.8-1.3-1.3c-0.3,0.3-1.1,1.3-2.1,1.2c-0.6,0-1-0.4-1.1-1c-0.6,0.5-1.1,1-2,1c-0.7,0-1.1-0.6-1.1-1.1
		c-0.5,0.5-1.3,1.1-2.3,1.1c-1,0-1.3-0.7-1.3-1.3c-0.1-1.7,2.6-4.9,4.8-4.8c0.9,0,1,0.3,1.2,0.7c0.1-0.1,0.4-0.7,0.5-0.7
		c0,0,0.7,0.2,1.3,0c0,0-3,5.2-3,5.3c-0.2,0.4,0.2,0.5,0.3,0.5c0.6,0,1.2-0.5,1.3-0.7C27.4,42.9,27.6,42.5,27.6,42.5 M16.6,33.5
		c0,0.1,1,0.9,1.2,2.7c0.1,0.5,0.1,0.9,0,1.4c-0.8,4.6-4.8,6.1-4.8,6.1c0,0-0.8,0.3-0.5,0.1c0,0,1.4-0.4,2.5-1.6
		c1.3-1.3,2-3.1,2.3-4.6c0.1-0.6,0.1-0.9,0-1.5c-0.1-1-0.6-1.9-0.6-1.9l-0.2-0.3c-0.1,0.3-0.1,0.7-0.1,1.1c0,0.5,0,0.9,0.1,1.4
		c0.1,0.2,0.3,0.6,0.2,0.6c0,0-0.4-0.4-0.5-1.5c-0.1-0.8,0.1-1.8,0.1-1.8c0-0.1-1-1-2.5-1.1c-0.8,0-2.3,0.2-3.7,1.1
		c-2.2,1.5-3.7,5-3.8,6.2c-0.1,1.1-0.1,1.5,0,1.8c0.4,2.4,2,3.9,5.1,4c1.9,0.1,3.8-1.1,4.7-2.1c3.2-3.5,4.1-7.4,6.8-11.6
		c1.1-1.6,2.9-3.3,3.3-3.6c-0.4-0.3-1.2-0.4-1.9-0.4C20.2,27.7,16.9,32.1,16.6,33.5 M28.1,27.6c0.6,0,1.1,0.5,1.1,0.6
		c0,0-0.4-0.5-1.1-0.5c-0.5,0-1,0.3-1.3,0.5c0,0,1.8,1,2.1,3c0.1,0.6,0.1,0.9,0,1.5c-0.4,2.2-2.2,3.5-4.4,3.6
		c-0.5,0-1.1-0.2-1.1-0.3c0-0.1,0.1,0.1,1,0.2c2,0,3.4-1.9,3.7-4c0.1-0.6,0.1-1,0-1.6c-0.1-0.8-0.9-1.8-1.6-2.2
		c-0.1,0-1,0.8-2.9,5.2c-0.3,0.8-1.2,3.2-2.1,5.3c-2.1,4.8-5.6,6.6-9.2,6.9c-0.6,0.1-1,0.1-1.6,0c-3.2-0.3-5.2-2.9-5.2-5.8
		c0.1-4.6,4.4-7.9,8-7.9c1.7,0,2.9,1,2.9,1c0.5-1.8,3.5-5.4,6.8-5.8c0.6-0.1,1-0.1,1.7,0c0.8,0.1,1.6,0.5,1.6,0.5
		C27,27.8,27.3,27.6,28.1,27.6 M16.1,29.4c0,0.1-0.1,1,0.9,1c1,0,2.8-2.6,2.7-2.6c-0.1,0-1.6,2.1-2.4,2.3c-0.2,0-0.4-0.1-0.1-0.6
		c0,0,3.1-6.1,3.1-6.1s0.2-0.3,0.1-0.3c-0.8,0.3-1.2-0.1-1.2,0C19.3,23.1,16,28.8,16.1,29.4 M13.9,21.9c0,0,0.9,0.6,1.6,0.7
		c0.3,0,0.4,0,0.7,0c0.6-0.1,1.2-0.4,1.2-0.8c0-0.5-0.6-1.1-1.4-1.1C15.1,20.7,14.4,21.2,13.9,21.9 M13.8,23.5
		c0.2,0.2,0.5,0.4,0.6,0.4c0.1,0,0.3,0,0.3-0.1c0.1-0.1,0-0.2-0.1-0.3C14.3,23.4,13.9,23.5,13.8,23.5 M15.9,20.5
		c1,0,1.8,0.5,1.9,1.2c0,0.4-0.4,0.9-1,1.1c-0.3,0.1-0.7,0.1-1.1,0c-1.2-0.2-1.9-0.8-1.9-0.8c-0.4,0.6-0.1,1.2-0.1,1.2
		c0,0,1.2,0,1.2,0.6c0,0.1-0.1,0.2-0.3,0.2c-0.6,0-1-0.5-1-0.5c-1.9,0.3-4.3,2.5-4.6,4.5c0,0.2,0,0.3,0,0.5c0.1,1.1,1.3,1.7,2.4,1.6
		c1.3,0,4-0.9,4.3-3.3c0.1-0.9-0.9-1.6-1.4-1.7c-2.7-0.3-4,2.6-4,2.6c-0.2,0,1.1-2.5,3.4-2.8c0.3,0,0.5,0,0.8,0c1,0.1,1.8,1,1.7,2
		c-0.1,1.7-2.1,3.2-4,3.3c-0.5,0-0.8,0-1.3,0c-1.3-0.1-2.8-1.4-2.8-3c0-3,4.5-4.1,5.4-4.1c-0.2-0.5-0.2-0.5-0.2-0.9
		c0-0.2,0.2-0.6,0.2-0.6c-0.8-0.4-1.6-0.9-2.6-1c-0.8,0-1.3,0.4-1.3,0.8c0,0.3,0.1,0.8,1,0.7c0.2,0,0.6-0.1,0.6-0.1
		c0,0.1-0.8,0.1-0.8,0.1c-0.5,0-0.9-0.3-0.9-0.7c0-0.5,0.5-1,1.4-0.9c1,0,1.7,0.4,2.7,0.9C13.5,21.7,14.2,20.5,15.9,20.5"/>
	<line class="st1" x1="0.4" y1="50.3" x2="99.7" y2="50.3"/>
	<path class="st0" d="M13.5,59.5c-1.2,0-1.7-0.5-1.9-1.1c0,0,0-0.1,0-0.1l0.6-0.1c0,0.1,0,0.1,0,0.2c0.1,0.4,0.5,0.8,1.3,0.8
		c0.9,0,1.2-0.3,1.2-0.8c0-0.4-0.2-0.7-0.9-0.8c-0.3,0-0.5-0.1-0.8-0.1c-0.8-0.1-1.2-0.4-1.2-1c0-0.6,0.6-1.1,1.6-1.1
		c0.9,0,1.4,0.3,1.6,0.8c0,0,0,0,0,0.1l-0.5,0.1c0,0,0-0.1,0-0.1c-0.2-0.3-0.6-0.5-1.1-0.5c-0.7,0-1,0.3-1,0.6
		c0,0.3,0.1,0.5,0.9,0.6c0.2,0,0.6,0.1,0.8,0.1c0.9,0.1,1.3,0.4,1.3,1.1C15.3,59,14.7,59.5,13.5,59.5"/>
	<path class="st0" d="M17.6,55.8c-0.8,0-1.4,0.5-1.4,1.6c0,1.2,0.6,1.7,1.4,1.7c0.8,0,1.4-0.5,1.4-1.7C19,56.3,18.4,55.8,17.6,55.8
		 M17.6,59.5c-1.2,0-2-0.6-2-2.1c0-1.4,0.8-2.1,2-2.1c1.2,0,2,0.6,2,2.1C19.6,58.8,18.8,59.5,17.6,59.5"/>
	<path class="st0" d="M21.7,58.1v1.3h-0.5v-1.3l-1.6-2.7h0.6l1,1.7c0,0,0.3,0.5,0.3,0.6c0,0,0.3-0.5,0.3-0.5l1-1.7h0.6L21.7,58.1z"
		/>
</g>
<polygon class="st0" points="24.8,55.5 24.8,55.9 26.2,55.9 26.2,59.6 26.8,59.6 26.8,55.9 28.1,55.9 28.1,55.5 "/>
<g>
	<path class="st0" d="M30.1,55.9c-0.8,0-1.4,0.5-1.4,1.6c0,1.2,0.6,1.7,1.4,1.7c0.8,0,1.4-0.5,1.4-1.7C31.6,56.4,31,55.9,30.1,55.9
		 M30.1,59.6c-1.2,0-2-0.6-2-2.1c0-1.4,0.8-2.1,2-2.1c1.2,0,2,0.6,2,2.1C32.1,58.9,31.3,59.6,30.1,59.6"/>
</g>
<polygon class="st0" points="32.2,55.5 32.2,55.9 33.6,55.9 33.6,59.6 34.1,59.6 34.1,55.9 35.5,55.9 35.5,55.5 "/>
<g>
	<path class="st0" d="M37.5,56.8c0-0.1-0.3-0.7-0.3-0.8c0,0.1-0.3,0.7-0.3,0.8l-0.6,1.5h1.8L37.5,56.8z M38.7,59.6l-0.4-0.9h-2.1
		l-0.4,0.9h-0.6l1.7-4.1h0.6l1.7,4.1H38.7z"/>
</g>
<polygon class="st0" points="39.7,55.5 39.7,59.6 42.9,59.6 42.7,59.2 40.3,59.2 40.3,55.5 "/>
<g>
	<path class="st0" d="M47.1,59.6v-2.7c0-0.1,0-0.6,0-0.7c0,0.1-0.2,0.6-0.3,0.7l-1.1,2.7h-0.4c0,0-1.2-2.7-1.2-2.8
		c0-0.1-0.2-0.6-0.3-0.7v0.7v2.7h-0.5v-4.1h0.7l1.2,2.6c0,0.1,0.3,0.8,0.3,0.8s0.2-0.7,0.2-0.8l1.1-2.6h0.7v4.1H47.1z"/>
</g>
<polygon class="st0" points="48.4,55.5 48.4,59.6 51.6,59.6 51.5,59.2 48.9,59.2 48.9,57.6 51.1,57.6 51.1,57.1 48.9,57.1 
	48.9,55.9 51.5,55.9 51.6,55.5 "/>
<g>
	<path class="st0" d="M54.9,59.6l-2-2.9c0-0.1-0.3-0.5-0.3-0.5v0.5v2.9h-0.5v-4.1h0.6l2.1,2.9c0,0,0.2,0.4,0.2,0.5
		c0-0.1,0-0.5,0-0.5v-2.9h0.5v4.1H54.9z"/>
</g>
<polygon class="st0" points="56,55.5 56,55.9 57.4,55.9 57.4,59.6 57.9,59.6 57.9,55.9 59.3,55.9 59.3,55.5 "/>
<polygon class="st0" points="59.7,55.5 59.7,59.6 62.9,59.6 62.8,59.2 60.2,59.2 60.2,57.6 62.4,57.6 62.4,57.1 60.2,57.1 
	60.2,55.9 62.8,55.9 62.9,55.5 "/>
<g>
	<path class="st0" d="M66.9,55.9h-1.4v1.4h1.3c0.6,0,0.9-0.2,0.9-0.7C67.7,56.1,67.5,55.9,66.9,55.9 M67,57.8h-1.5v1.8H65v-4.1h2
		c0.9,0,1.3,0.3,1.3,1.1C68.3,57.5,67.7,57.8,67,57.8"/>
	<path class="st0" d="M70,56.8c0-0.1-0.2-0.7-0.3-0.8c0,0.1-0.3,0.7-0.3,0.8l-0.6,1.5h1.8L70,56.8z M71.1,59.6l-0.4-0.9h-2.1
		l-0.4,0.9h-0.6l1.7-4.1H70l1.7,4.1H71.1z"/>
</g>
<polygon class="st0" points="72.2,55.5 72.2,59.6 75.3,59.6 75.1,59.2 72.7,59.2 72.7,55.5 "/>
<g>
	<path class="st0" d="M77.9,56.8c0-0.1-0.3-0.7-0.3-0.8c0,0.1-0.3,0.7-0.3,0.8l-0.6,1.5h1.8L77.9,56.8z M79.1,59.6l-0.4-0.9h-2.1
		l-0.4,0.9h-0.6l1.7-4.1H78l1.7,4.1H79.1z"/>
	<path class="st0" d="M82.6,56.7c-0.3-0.5-0.7-0.8-1.1-0.8c-0.8,0-1.4,0.5-1.4,1.6c0,1.2,0.6,1.7,1.3,1.7c0.5,0,1-0.2,1.2-0.8
		l0.5,0.1c-0.3,0.7-0.8,1.1-1.7,1.1c-1.1,0-1.9-0.6-1.9-2.1c0-1.4,0.9-2,1.9-2c0.8,0,1.4,0.3,1.7,1L82.6,56.7z"/>
</g>
<rect x="83.8" y="55.5" class="st0" width="0.5" height="4.1"/>
<g>
	<path class="st0" d="M86.8,55.9c-0.8,0-1.4,0.5-1.4,1.6c0,1.2,0.6,1.7,1.4,1.7c0.8,0,1.4-0.5,1.4-1.7
		C88.2,56.4,87.6,55.9,86.8,55.9 M86.8,59.6c-1.2,0-2-0.6-2-2.1c0-1.4,0.8-2.1,2-2.1c1.2,0,2,0.6,2,2.1C88.7,58.9,88,59.6,86.8,59.6
		"/>
	<path class="st0" d="M89.1,55.5l0-0.2h0.2c0.1,0,0.2,0,0.2,0.1c0,0.1-0.1,0.1-0.2,0.1L89.1,55.5z M89.1,55.6h0.1l0.2,0.3h0.1
		l-0.2-0.4c0.1,0,0.2-0.1,0.2-0.2c0-0.2-0.1-0.2-0.3-0.2l-0.3,0l0,0.8h0.1L89.1,55.6z M89.2,56.2c0.4,0,0.7-0.3,0.7-0.7
		c0-0.4-0.3-0.7-0.7-0.7c-0.4,0-0.7,0.3-0.7,0.7C88.5,55.9,88.8,56.2,89.2,56.2 M88.7,55.5c0-0.3,0.2-0.6,0.6-0.6
		c0.3,0,0.6,0.2,0.6,0.6c0,0.3-0.2,0.6-0.6,0.6C88.9,56.1,88.7,55.9,88.7,55.5"/>
</g>
</svg>
