<?xml version="1.0" encoding="utf-8"?>
<!-- Generator: Adobe Illustrator 23.0.6, SVG Export Plug-In . SVG Version: 6.00 Build 0)  -->
<svg version="1.1" id="Layer_1" xmlns="http://www.w3.org/2000/svg" xmlns:xlink="http://www.w3.org/1999/xlink" x="0px" y="0px"
	 viewBox="0 0 100 80" style="enable-background:new 0 0 100 80;" xml:space="preserve">
<style type="text/css">
	.st0{fill:#CD8000;}
	.st1{fill:#FFFFFF;}
</style>
<g>
	<g>
		<path class="st0" d="M90.5,31.7c0.5-1.9-0.6-3.8-2.9-3.5c-2.2,0.3-3.7,1.4-3.6,2.8c0,0.1,0,0.2,0.1,0.4c0.6-0.3,1.4-0.4,2.2-0.4
			c1.3,0,2.3,0.5,3.1,1.2C89.6,31.9,90,31.7,90.5,31.7"/>
		<path class="st0" d="M93.9,28.2c-2.3-0.3-3.4,1.6-2.9,3.5c0.4,0,0.8,0.2,1,0.4c0.8-0.6,1.8-1.2,3.1-1.2c0.8,0,1.6,0.2,2.2,0.4
			c0-0.1,0.1-0.2,0.1-0.4C97.5,29.6,96.1,28.5,93.9,28.2"/>
		<path class="st0" d="M95.5,31.4c-1.3,0-2.5,0.4-3.2,1.1c0,0,0,0.1,0,0.2c0,0.2-0.1,0.4-0.2,0.5c1.7,0.4,2.9,1.6,2.9,2.9
			c0,0.3-0.1,0.5-0.2,0.8c0.2,0,0.5,0,0.7,0c2.2,0,4-1.2,4-2.8C99.5,32.7,97.7,31.4,95.5,31.4"/>
		<path class="st0" d="M91.6,33.5c-0.3,0.1-0.6,0.2-0.9,0.2c-0.3,0-0.7-0.1-0.9-0.2c-1.6,0.3-2.8,1.4-2.8,2.6c0,1.5,1.7,2.7,3.7,2.7
			c2.1,0,3.7-1.2,3.7-2.7C94.5,34.9,93.3,33.8,91.6,33.5"/>
		<path class="st0" d="M89.2,32.6c-0.7-0.7-1.9-1.1-3.2-1.1c-2.2,0-4,1.2-4,2.8c0,1.5,1.8,2.8,4,2.8c0.2,0,0.5,0,0.7,0
			c-0.1-0.3-0.2-0.5-0.2-0.8c0-1.3,1.2-2.5,2.9-2.9c-0.1-0.2-0.2-0.3-0.2-0.5C89.1,32.7,89.1,32.6,89.2,32.6"/>
		<path class="st1" d="M8.2,37.7c-1.1-0.4-2.9-0.5-2.9-1.3c0-0.8,0.8-1,1.4-1c0.4,0,0.8,0.1,1,0.3c0.3,0.2,0.4,0.5,0.4,1h3.3
			c0.1-2.9-2.2-3.8-4.7-3.8c-2.4,0-4.9,1.2-4.9,3.9c0,2,1.4,2.7,2.8,3.2c1.6,0.5,2.8,0.7,2.8,1.5c0,0.8-0.9,1.1-1.6,1.1
			c-0.6,0-1,0-1.3-0.3c-0.3-0.3-0.4-0.7-0.4-1.3H0.7c-0.1,3,2.3,4.2,5,4.2c2.5,0,5.3-1.3,5.3-4.1C10.9,39.5,10.2,38.4,8.2,37.7"/>
		<path class="st1" d="M18.1,36.2l-0.7,3.5c-0.3,1.1-0.3,2.7-1.8,2.7c-0.5,0-0.9-0.3-0.9-0.8c0,0,0-0.4,0.1-0.9l1-4.4h-3.2
			c-1,4.7-1.3,5.7-1.3,6.5c0,1.6,1.2,2.3,2.7,2.3c1.1,0,2-0.5,2.7-1.3h0l-0.3,1.1h3.1l1.8-8.5H18.1z"/>
		<path class="st1" d="M27.8,36c-1,0-1.7,0.4-2.3,1.2h0l0.2-1h-3.2l-2.4,11.3h3.2l0.8-3.8c0.7,1.1,1.6,1.2,2.6,1.2
			c2.9,0,4.1-2.9,4.1-5.4C30.9,38,30.2,36,27.8,36 M25.9,42.6c-1.1,0-1.2-1.1-1.2-1.4c0-0.8,0.3-2.8,1.7-2.8c1,0,1.2,0.7,1.2,1.5
			C27.6,41,27.2,42.6,25.9,42.6"/>
		<path class="st1" d="M40.4,39.8c0-2.7-2.3-3.7-4.2-3.7c-2.1,0-5.1,1.3-5.1,5.2c0,2.1,1.2,3.8,4.2,3.8c3.7,0,4.3-2.1,4.5-2.7h-3.1
			c-0.2,0.3-0.6,0.6-1.3,0.6c-1,0-1.3-0.8-1.3-1.7h6.1C40.4,40.7,40.4,40.2,40.4,39.8 M37.3,39.5h-2.9c0.2-0.9,0.8-1.4,1.7-1.4
			c0.8,0,1.2,0.5,1.2,1.1C37.4,39.3,37.3,39.5,37.3,39.5"/>
		<path class="st1" d="M48.6,36.2C48.3,36.1,48,36,47.5,36c-0.8,0-1.9,0.6-2.5,1.5h0l0.3-1.3h-3.1l-1.8,8.5h3.2l0.7-3.6
			c0.4-1.8,1.1-2.4,2.4-2.4c0.4,0,0.9,0.1,1.2,0.2L48.6,36.2z"/>
		<path class="st1" d="M56.7,38.3c0-2.1-2.6-2.3-4.1-2.3c-2.1,0-3.8,0.5-4.3,2.8h3c0.2-0.6,0.6-0.9,1.3-0.9c0.5,0,1,0.1,1,0.7
			c0,1-1.5,0.9-2.4,1c-2.4,0.2-4.1,0.8-4.1,3c0,1.6,1.3,2.3,2.8,2.3c1,0,2-0.3,2.6-1h0c0,0.3,0,0.6,0.1,0.8h3.2
			c-0.1-0.4-0.1-0.1-0.1-0.8C55.6,43.4,56.7,39.6,56.7,38.3 M51.3,43c-0.5,0-1-0.1-1-0.7c0-0.6,0.5-0.9,1-1c0.6,0,1.2-0.1,1.7-0.4
			C52.9,42.2,52.4,43,51.3,43"/>
		<path class="st1" d="M69.1,36c-1.1,0-2.1,0.5-2.8,1.4c-0.2-1-1.2-1.4-2.3-1.4c-1.1,0-2,0.5-2.7,1.3h0l0.2-1.1h-3.1l-1.8,8.5h3.2
			l1.1-4.9c0.1-0.7,0.6-1.3,1.4-1.3c0.5,0,0.8,0.2,0.8,0.8c0,0.2-0.1,0.6-0.1,0.8l-1,4.6h3.2l1.1-5.2c0.1-0.6,0.6-1,1.2-1
			c0.5,0,0.8,0.3,0.8,0.8c0,0.2-0.2,1.1-0.2,1.2l-0.9,4.1h3.2l1-4.9c0.1-0.4,0.2-1,0.2-1.3C71.8,36.8,70.7,36,69.1,36"/>
		<path class="st1" d="M81.4,38.3c0-2.1-2.6-2.3-4.1-2.3c-2.1,0-3.8,0.5-4.3,2.8h3c0.2-0.6,0.6-0.9,1.3-0.9c0.5,0,1,0.1,1,0.7
			c0,1-1.5,0.9-2.4,1c-2.4,0.2-4.1,0.8-4.1,3c0,1.6,1.3,2.3,2.8,2.3c1,0,2-0.3,2.6-1h0c0,0.3,0,0.6,0.1,0.8h3.2
			c-0.1-0.4-0.1-0.1-0.1-0.8C80.4,43.4,81.4,39.6,81.4,38.3 M76.1,43c-0.5,0-1-0.1-1-0.7c0-0.6,0.5-0.9,1-1c0.6,0,1.2-0.1,1.7-0.4
			C77.6,42.2,77.2,43,76.1,43"/>
		<path class="st1" d="M82.8,36.8c-0.5,0-1,0.4-1,1c0,0.5,0.4,1,1,1c0.5,0,1-0.4,1-1C83.8,37.3,83.4,36.8,82.8,36.8 M82.8,38.7
			c-0.5,0-0.9-0.4-0.9-0.9c0-0.5,0.4-0.9,0.9-0.9c0.5,0,0.9,0.4,0.9,0.9C83.7,38.3,83.3,38.7,82.8,38.7"/>
		<path class="st1" d="M83.3,37.5c0-0.1,0-0.2-0.1-0.2c-0.1,0-0.2-0.1-0.3-0.1h-0.5v1.1h0.1v-0.5h0.2l0.3,0.5h0.2L83,37.8
			C83.2,37.8,83.3,37.8,83.3,37.5 M82.8,37.7h-0.2v-0.4h0.3c0.1,0,0.3,0,0.3,0.2C83.2,37.8,83,37.7,82.8,37.7"/>
		<path class="st1" d="M91.8,32.7c0,0.4-0.5,0.7-1.1,0.7c-0.6,0-1.1-0.3-1.1-0.7c0-0.4,0.5-0.7,1.1-0.7C91.3,32,91.8,32.3,91.8,32.7
			"/>
		<path class="st1" d="M64.5,46.7c7,2.4,19.9,3.7,25.1-7.5c-0.4,0-0.8-0.1-1.1-0.2c-0.3,0.5-6.5,12.8-22.9,5.8
			C65.2,45.5,64.8,46.2,64.5,46.7"/>
	</g>
</g>
</svg>
